<svg xmlns="http://www.w3.org/2000/svg" width="1050" height="620" viewBox="0 0 1050 620">
<rect width="100%" height="100%" fill="#ffffff" />
<style>text { font-family: Arial, Helvetica, sans-serif; fill: #111827; }</style>
<text x="525.00" y="26.00" font-size="15" font-weight="700" text-anchor="middle">Representation-shift bias: log2(motion cos. dist. / appearance cos. dist.), mid strength</text>
<text x="16.00" y="250.00" font-size="11" font-weight="400" text-anchor="middle" transform="rotate(-90 16.00 250.00)">log2 ratio (motion / appearance)</text>
<line x1="60" y1="430" x2="1020" y2="430" stroke="#111827" stroke-width="1" />
<line x1="60" y1="70" x2="60" y2="430" stroke="#111827" stroke-width="1" />
<line x1="56" y1="430.00" x2="60" y2="430.00" stroke="#111827" />
<text x="52.00" y="434.00" font-size="10" font-weight="400" text-anchor="end">-10.500</text>
<line x1="56" y1="358.00" x2="60" y2="358.00" stroke="#111827" />
<text x="52.00" y="362.00" font-size="10" font-weight="400" text-anchor="end">-6.300</text>
<line x1="60" y1="358.00" x2="1020" y2="358.00" stroke="#e5e7eb" stroke-width="1" />
<line x1="56" y1="286.00" x2="60" y2="286.00" stroke="#111827" />
<text x="52.00" y="290.00" font-size="10" font-weight="400" text-anchor="end">-2.100</text>
<line x1="60" y1="286.00" x2="1020" y2="286.00" stroke="#e5e7eb" stroke-width="1" />
<line x1="56" y1="214.00" x2="60" y2="214.00" stroke="#111827" />
<text x="52.00" y="218.00" font-size="10" font-weight="400" text-anchor="end">2.100</text>
<line x1="60" y1="214.00" x2="1020" y2="214.00" stroke="#e5e7eb" stroke-width="1" />
<line x1="56" y1="142.00" x2="60" y2="142.00" stroke="#111827" />
<text x="52.00" y="146.00" font-size="10" font-weight="400" text-anchor="end">6.300</text>
<line x1="60" y1="142.00" x2="1020" y2="142.00" stroke="#e5e7eb" stroke-width="1" />
<line x1="56" y1="70.00" x2="60" y2="70.00" stroke="#111827" />
<text x="52.00" y="74.00" font-size="10" font-weight="400" text-anchor="end">10.500</text>
<line x1="60" y1="250.00" x2="1020" y2="250.00" stroke="#6b7280" stroke-dasharray="4 4" />
<text x="1015.00" y="84.00" font-size="10" font-weight="600" text-anchor="end">motion-dominant</text>
<text x="1015.00" y="424.00" font-size="10" font-weight="600" text-anchor="end">appearance-dominant</text>
<rect x="72.80" y="143.15" width="38.40" height="106.85" fill="#2563eb" />
<text x="92.00" y="490.00" font-size="10" font-weight="400" text-anchor="end" transform="rotate(-40 92.00 490.00)">VideoMAE x Diving48</text>
<rect x="136.80" y="157.53" width="38.40" height="92.47" fill="#2563eb" />
<text x="156.00" y="490.00" font-size="10" font-weight="400" text-anchor="end" transform="rotate(-40 156.00 490.00)">DisMo x Kinetics</text>
<rect x="200.80" y="159.75" width="38.40" height="90.25" fill="#2563eb" />
<text x="220.00" y="490.00" font-size="10" font-weight="400" text-anchor="end" transform="rotate(-40 220.00 490.00)">SlowFast R50 8x8 x Diving48</text>
<rect x="264.80" y="202.36" width="38.40" height="47.64" fill="#2563eb" />
<text x="284.00" y="490.00" font-size="10" font-weight="400" text-anchor="end" transform="rotate(-40 284.00 490.00)">VideoMAE x Kinetics</text>
<rect x="328.80" y="218.23" width="38.40" height="31.77" fill="#2563eb" />
<text x="348.00" y="490.00" font-size="10" font-weight="400" text-anchor="end" transform="rotate(-40 348.00 490.00)">SlowFast R50 8x8 x HMDB51</text>
<rect x="392.80" y="218.62" width="38.40" height="31.38" fill="#2563eb" />
<text x="412.00" y="490.00" font-size="10" font-weight="400" text-anchor="end" transform="rotate(-40 412.00 490.00)">VideoMAE x SSV2</text>
<rect x="456.80" y="223.55" width="38.40" height="26.45" fill="#2563eb" />
<text x="476.00" y="490.00" font-size="10" font-weight="400" text-anchor="end" transform="rotate(-40 476.00 490.00)">SlowFast R50 8x8 x SSV2</text>
<rect x="520.80" y="225.87" width="38.40" height="24.13" fill="#2563eb" />
<text x="540.00" y="490.00" font-size="10" font-weight="400" text-anchor="end" transform="rotate(-40 540.00 490.00)">SlowFast R50 8x8 x UCF101</text>
<rect x="584.80" y="238.87" width="38.40" height="11.13" fill="#2563eb" />
<text x="604.00" y="490.00" font-size="10" font-weight="400" text-anchor="end" transform="rotate(-40 604.00 490.00)">VideoMAE x HMDB51</text>
<rect x="648.80" y="243.63" width="38.40" height="6.37" fill="#2563eb" />
<text x="668.00" y="490.00" font-size="10" font-weight="400" text-anchor="end" transform="rotate(-40 668.00 490.00)">VideoMAE x UCF101</text>
<rect x="712.80" y="250.00" width="38.40" height="3.61" fill="#ea580c" />
<text x="732.00" y="490.00" font-size="10" font-weight="400" text-anchor="end" transform="rotate(-40 732.00 490.00)">V-JEPA2 x Kinetics</text>
<rect x="776.80" y="250.00" width="38.40" height="11.96" fill="#ea580c" />
<text x="796.00" y="490.00" font-size="10" font-weight="400" text-anchor="end" transform="rotate(-40 796.00 490.00)">V-JEPA2 x HMDB51</text>
<rect x="840.80" y="250.00" width="38.40" height="171.43" fill="#ea580c" />
<text x="860.00" y="490.00" font-size="10" font-weight="400" text-anchor="end" transform="rotate(-40 860.00 490.00)">DINOv2 frame-mean x SSV2</text>
<rect x="904.80" y="250.00" width="38.40" height="171.43" fill="#ea580c" />
<text x="924.00" y="490.00" font-size="10" font-weight="400" text-anchor="end" transform="rotate(-40 924.00 490.00)">DINOv2 frame-mean x UCF101</text>
<rect x="968.80" y="250.00" width="38.40" height="171.43" fill="#ea580c" />
<text x="988.00" y="490.00" font-size="10" font-weight="400" text-anchor="end" transform="rotate(-40 988.00 490.00)">DINOv2 frame-mean x Diving48</text>
</svg>
