<svg xmlns="http://www.w3.org/2000/svg" width="1680" height="620" viewBox="0 0 1680 620">
<rect width="100%" height="100%" fill="#ffffff" />
<style>text { font-family: Arial, Helvetica, sans-serif; fill: #111827; }</style>
<text x="840.00" y="28.00" font-size="18" font-weight="700" text-anchor="middle">Fixed-mid perturbation: linear-probe accuracy drop</text>
<text x="18.00" y="257.50" font-size="12" font-weight="400" text-anchor="middle" transform="rotate(-90 18.00 257.50)">Accuracy drop</text>
<line x1="90" y1="460" x2="1650" y2="460" stroke="#111827" stroke-width="1" />
<line x1="90" y1="55" x2="90" y2="460" stroke="#111827" stroke-width="1" />
<line x1="86" y1="460.00" x2="90" y2="460.00" stroke="#111827" />
<text x="82.00" y="464.00" font-size="10" font-weight="400" text-anchor="end">-0.040</text>
<line x1="86" y1="379.00" x2="90" y2="379.00" stroke="#111827" />
<text x="82.00" y="383.00" font-size="10" font-weight="400" text-anchor="end">0.034</text>
<line x1="90" y1="379.00" x2="1650" y2="379.00" stroke="#e5e7eb" stroke-width="1" />
<line x1="86" y1="298.00" x2="90" y2="298.00" stroke="#111827" />
<text x="82.00" y="302.00" font-size="10" font-weight="400" text-anchor="end">0.107</text>
<line x1="90" y1="298.00" x2="1650" y2="298.00" stroke="#e5e7eb" stroke-width="1" />
<line x1="86" y1="217.00" x2="90" y2="217.00" stroke="#111827" />
<text x="82.00" y="221.00" font-size="10" font-weight="400" text-anchor="end">0.181</text>
<line x1="90" y1="217.00" x2="1650" y2="217.00" stroke="#e5e7eb" stroke-width="1" />
<line x1="86" y1="136.00" x2="90" y2="136.00" stroke="#111827" />
<text x="82.00" y="140.00" font-size="10" font-weight="400" text-anchor="end">0.254</text>
<line x1="90" y1="136.00" x2="1650" y2="136.00" stroke="#e5e7eb" stroke-width="1" />
<line x1="86" y1="55.00" x2="90" y2="55.00" stroke="#111827" />
<text x="82.00" y="59.00" font-size="10" font-weight="400" text-anchor="end">0.328</text>
<line x1="90" y1="416.21" x2="1650" y2="416.21" stroke="#6b7280" stroke-dasharray="4 4" />
<rect x="106.71" y="217.71" width="18.57" height="198.50" fill="#2563eb" />
<rect x="129.00" y="379.45" width="18.57" height="36.76" fill="#ea580c" />
<text x="127.14" y="520.00" font-size="10" font-weight="400" text-anchor="end" transform="rotate(-40 127.14 520.00)">VideoMAE x SSV2</text>
<rect x="181.00" y="141.25" width="18.57" height="274.97" fill="#2563eb" />
<rect x="203.29" y="94.19" width="18.57" height="322.02" fill="#ea580c" />
<text x="201.43" y="520.00" font-size="10" font-weight="400" text-anchor="end" transform="rotate(-40 201.43 520.00)">VideoMAE x UCF101</text>
<rect x="255.29" y="377.15" width="18.57" height="39.06" fill="#2563eb" />
<rect x="277.57" y="400.13" width="18.57" height="16.08" fill="#ea580c" />
<text x="275.71" y="520.00" font-size="10" font-weight="400" text-anchor="end" transform="rotate(-40 275.71 520.00)">VideoMAE x Diving48</text>
<rect x="329.57" y="189.77" width="18.57" height="226.44" fill="#2563eb" />
<rect x="351.86" y="415.48" width="18.57" height="0.74" fill="#ea580c" />
<text x="350.00" y="520.00" font-size="10" font-weight="400" text-anchor="end" transform="rotate(-40 350.00 520.00)">SlowFast R50 8x8 x SSV2</text>
<rect x="403.86" y="365.48" width="18.57" height="50.73" fill="#2563eb" />
<rect x="426.14" y="400.77" width="18.57" height="15.44" fill="#ea580c" />
<text x="424.29" y="520.00" font-size="10" font-weight="400" text-anchor="end" transform="rotate(-40 424.29 520.00)">SlowFast R50 8x8 x UCF101</text>
<rect x="478.14" y="390.94" width="18.57" height="25.27" fill="#2563eb" />
<rect x="500.43" y="416.21" width="18.57" height="4.60" fill="#ea580c" />
<text x="498.57" y="520.00" font-size="10" font-weight="400" text-anchor="end" transform="rotate(-40 498.57 520.00)">SlowFast R50 8x8 x Diving48</text>
<rect x="552.43" y="416.21" width="18.57" height="0.00" fill="#2563eb" />
<rect x="574.71" y="408.86" width="18.57" height="7.35" fill="#ea580c" />
<text x="572.86" y="520.00" font-size="10" font-weight="400" text-anchor="end" transform="rotate(-40 572.86 520.00)">DINOv2 frame-mean x SSV2</text>
<rect x="626.71" y="416.21" width="18.57" height="0.00" fill="#2563eb" />
<rect x="649.00" y="414.01" width="18.57" height="2.21" fill="#ea580c" />
<text x="647.14" y="520.00" font-size="10" font-weight="400" text-anchor="end" transform="rotate(-40 647.14 520.00)">DINOv2 frame-mean x UCF101</text>
<rect x="701.00" y="416.21" width="18.57" height="0.00" fill="#2563eb" />
<rect x="723.29" y="411.62" width="18.57" height="4.60" fill="#ea580c" />
<text x="721.43" y="520.00" font-size="10" font-weight="400" text-anchor="end" transform="rotate(-40 721.43 520.00)">DINOv2 frame-mean x Diving48</text>
<rect x="775.29" y="212.87" width="18.57" height="203.34" fill="#2563eb" />
<rect x="797.57" y="261.36" width="18.57" height="154.86" fill="#ea580c" />
<text x="795.71" y="520.00" font-size="10" font-weight="400" text-anchor="end" transform="rotate(-40 795.71 520.00)">V-JEPA2 x HMDB51</text>
<rect x="849.57" y="251.23" width="18.57" height="164.99" fill="#2563eb" />
<rect x="871.86" y="257.74" width="18.57" height="158.47" fill="#ea580c" />
<text x="870.00" y="520.00" font-size="10" font-weight="400" text-anchor="end" transform="rotate(-40 870.00 520.00)">VideoMAE x HMDB51</text>
<rect x="923.86" y="225.18" width="18.57" height="191.04" fill="#2563eb" />
<rect x="946.14" y="368.45" width="18.57" height="47.76" fill="#ea580c" />
<text x="944.29" y="520.00" font-size="10" font-weight="400" text-anchor="end" transform="rotate(-40 944.29 520.00)">SlowFast R50 8x8 x HMDB51</text>
<rect x="998.14" y="253.00" width="18.57" height="163.21" fill="#2563eb" />
<rect x="1020.43" y="388.27" width="18.57" height="27.94" fill="#ea580c" />
<text x="1018.57" y="520.00" font-size="10" font-weight="400" text-anchor="end" transform="rotate(-40 1018.57 520.00)">VideoMAE x Kinetics</text>
<rect x="1072.43" y="297.84" width="18.57" height="118.37" fill="#2563eb" />
<rect x="1094.71" y="397.83" width="18.57" height="18.38" fill="#ea580c" />
<text x="1092.86" y="520.00" font-size="10" font-weight="400" text-anchor="end" transform="rotate(-40 1092.86 520.00)">DisMo x Kinetics</text>
<rect x="1146.71" y="193.45" width="18.57" height="222.77" fill="#2563eb" />
<rect x="1169.00" y="364.01" width="18.57" height="52.20" fill="#ea580c" />
<text x="1167.14" y="520.00" font-size="10" font-weight="400" text-anchor="end" transform="rotate(-40 1167.14 520.00)">V-JEPA2 x Kinetics</text>
<rect x="1221.00" y="416.21" width="18.57" height="0.00" fill="#2563eb" />
<rect x="1243.29" y="395.23" width="18.57" height="20.99" fill="#ea580c" />
<text x="1241.43" y="520.00" font-size="10" font-weight="400" text-anchor="end" transform="rotate(-40 1241.43 520.00)">DINOv2 frame-mean x HMDB51</text>
<rect x="1295.29" y="416.21" width="18.57" height="0.00" fill="#2563eb" />
<rect x="1317.57" y="410.33" width="18.57" height="5.88" fill="#ea580c" />
<text x="1315.71" y="520.00" font-size="10" font-weight="400" text-anchor="end" transform="rotate(-40 1315.71 520.00)">DINOv2 frame-mean x Kinetics</text>
<rect x="1369.57" y="332.40" width="18.57" height="83.81" fill="#2563eb" />
<rect x="1391.86" y="396.36" width="18.57" height="19.85" fill="#ea580c" />
<text x="1390.00" y="520.00" font-size="10" font-weight="400" text-anchor="end" transform="rotate(-40 1390.00 520.00)">SlowFast R50 8x8 x Kinetics</text>
<rect x="1443.86" y="365.67" width="18.57" height="50.55" fill="#2563eb" />
<rect x="1466.14" y="407.02" width="18.57" height="9.19" fill="#ea580c" />
<text x="1464.29" y="520.00" font-size="10" font-weight="400" text-anchor="end" transform="rotate(-40 1464.29 520.00)">DisMo x Diving48</text>
<rect x="1518.14" y="390.94" width="18.57" height="25.27" fill="#2563eb" />
<rect x="1540.43" y="404.72" width="18.57" height="11.49" fill="#ea580c" />
<text x="1538.57" y="520.00" font-size="10" font-weight="400" text-anchor="end" transform="rotate(-40 1538.57 520.00)">V-JEPA2 x Diving48</text>
<rect x="1592.43" y="208.53" width="18.57" height="207.68" fill="#2563eb" />
<rect x="1614.71" y="383.65" width="18.57" height="32.56" fill="#ea580c" />
<text x="1612.86" y="520.00" font-size="10" font-weight="400" text-anchor="end" transform="rotate(-40 1612.86 520.00)">DisMo x HMDB51</text>
<rect x="102" y="38" width="12" height="12" fill="#2563eb" />
<text x="120.00" y="48.00" font-size="12" font-weight="400" text-anchor="start">temporal-shuffle-mid</text>
<rect x="102" y="58" width="12" height="12" fill="#ea580c" />
<text x="120.00" y="68.00" font-size="12" font-weight="400" text-anchor="start">spatial-blur-mid</text>
</svg>
