<svg xmlns="http://www.w3.org/2000/svg" width="1680" height="620" viewBox="0 0 1680 620">
<rect width="100%" height="100%" fill="#ffffff" />
<style>text { font-family: Arial, Helvetica, sans-serif; fill: #111827; }</style>
<text x="840.00" y="28.00" font-size="18" font-weight="700" text-anchor="middle">Fixed-mid perturbation: mean cosine distance</text>
<text x="18.00" y="257.50" font-size="12" font-weight="400" text-anchor="middle" transform="rotate(-90 18.00 257.50)">Mean cosine distance</text>
<line x1="90" y1="460" x2="1650" y2="460" stroke="#111827" stroke-width="1" />
<line x1="90" y1="55" x2="90" y2="460" stroke="#111827" stroke-width="1" />
<line x1="86" y1="460.00" x2="90" y2="460.00" stroke="#111827" />
<text x="82.00" y="464.00" font-size="10" font-weight="400" text-anchor="end">-0.085</text>
<line x1="86" y1="379.00" x2="90" y2="379.00" stroke="#111827" />
<text x="82.00" y="383.00" font-size="10" font-weight="400" text-anchor="end">0.091</text>
<line x1="90" y1="379.00" x2="1650" y2="379.00" stroke="#e5e7eb" stroke-width="1" />
<line x1="86" y1="298.00" x2="90" y2="298.00" stroke="#111827" />
<text x="82.00" y="302.00" font-size="10" font-weight="400" text-anchor="end">0.267</text>
<line x1="90" y1="298.00" x2="1650" y2="298.00" stroke="#e5e7eb" stroke-width="1" />
<line x1="86" y1="217.00" x2="90" y2="217.00" stroke="#111827" />
<text x="82.00" y="221.00" font-size="10" font-weight="400" text-anchor="end">0.443</text>
<line x1="90" y1="217.00" x2="1650" y2="217.00" stroke="#e5e7eb" stroke-width="1" />
<line x1="86" y1="136.00" x2="90" y2="136.00" stroke="#111827" />
<text x="82.00" y="140.00" font-size="10" font-weight="400" text-anchor="end">0.619</text>
<line x1="90" y1="136.00" x2="1650" y2="136.00" stroke="#e5e7eb" stroke-width="1" />
<line x1="86" y1="55.00" x2="90" y2="55.00" stroke="#111827" />
<text x="82.00" y="59.00" font-size="10" font-weight="400" text-anchor="end">0.795</text>
<line x1="90" y1="420.81" x2="1650" y2="420.81" stroke="#6b7280" stroke-dasharray="4 4" />
<rect x="106.71" y="410.21" width="18.57" height="10.60" fill="#2563eb" />
<rect x="129.00" y="417.83" width="18.57" height="2.98" fill="#ea580c" />
<text x="127.14" y="520.00" font-size="10" font-weight="400" text-anchor="end" transform="rotate(-40 127.14 520.00)">VideoMAE x SSV2</text>
<rect x="181.00" y="415.18" width="18.57" height="5.63" fill="#2563eb" />
<rect x="203.29" y="416.46" width="18.57" height="4.35" fill="#ea580c" />
<text x="201.43" y="520.00" font-size="10" font-weight="400" text-anchor="end" transform="rotate(-40 201.43 520.00)">VideoMAE x UCF101</text>
<rect x="255.29" y="383.89" width="18.57" height="36.92" fill="#2563eb" />
<rect x="277.57" y="420.32" width="18.57" height="0.49" fill="#ea580c" />
<text x="275.71" y="520.00" font-size="10" font-weight="400" text-anchor="end" transform="rotate(-40 275.71 520.00)">VideoMAE x Diving48</text>
<rect x="329.57" y="318.67" width="18.57" height="102.13" fill="#2563eb" />
<rect x="351.86" y="385.75" width="18.57" height="35.05" fill="#ea580c" />
<text x="350.00" y="520.00" font-size="10" font-weight="400" text-anchor="end" transform="rotate(-40 350.00 520.00)">SlowFast R50 8x8 x SSV2</text>
<rect x="403.86" y="346.51" width="18.57" height="74.29" fill="#2563eb" />
<rect x="426.14" y="392.80" width="18.57" height="28.00" fill="#ea580c" />
<text x="424.29" y="520.00" font-size="10" font-weight="400" text-anchor="end" transform="rotate(-40 424.29 520.00)">SlowFast R50 8x8 x UCF101</text>
<rect x="478.14" y="326.27" width="18.57" height="94.54" fill="#2563eb" />
<rect x="500.43" y="418.35" width="18.57" height="2.46" fill="#ea580c" />
<text x="498.57" y="520.00" font-size="10" font-weight="400" text-anchor="end" transform="rotate(-40 498.57 520.00)">SlowFast R50 8x8 x Diving48</text>
<rect x="552.43" y="420.81" width="18.57" height="0.00" fill="#2563eb" />
<rect x="574.71" y="398.57" width="18.57" height="22.24" fill="#ea580c" />
<text x="572.86" y="520.00" font-size="10" font-weight="400" text-anchor="end" transform="rotate(-40 572.86 520.00)">DINOv2 frame-mean x SSV2</text>
<rect x="626.71" y="420.81" width="18.57" height="0.00" fill="#2563eb" />
<rect x="649.00" y="402.68" width="18.57" height="18.13" fill="#ea580c" />
<text x="647.14" y="520.00" font-size="10" font-weight="400" text-anchor="end" transform="rotate(-40 647.14 520.00)">DINOv2 frame-mean x UCF101</text>
<rect x="701.00" y="420.81" width="18.57" height="0.00" fill="#2563eb" />
<rect x="723.29" y="419.27" width="18.57" height="1.53" fill="#ea580c" />
<text x="721.43" y="520.00" font-size="10" font-weight="400" text-anchor="end" transform="rotate(-40 721.43 520.00)">DINOv2 frame-mean x Diving48</text>
<rect x="775.29" y="379.07" width="18.57" height="41.74" fill="#2563eb" />
<rect x="797.57" y="353.11" width="18.57" height="67.70" fill="#ea580c" />
<text x="795.71" y="520.00" font-size="10" font-weight="400" text-anchor="end" transform="rotate(-40 795.71 520.00)">V-JEPA2 x HMDB51</text>
<rect x="849.57" y="414.23" width="18.57" height="6.58" fill="#2563eb" />
<rect x="871.86" y="416.61" width="18.57" height="4.19" fill="#ea580c" />
<text x="870.00" y="520.00" font-size="10" font-weight="400" text-anchor="end" transform="rotate(-40 870.00 520.00)">VideoMAE x HMDB51</text>
<rect x="923.86" y="309.98" width="18.57" height="110.83" fill="#2563eb" />
<rect x="946.14" y="390.13" width="18.57" height="30.68" fill="#ea580c" />
<text x="944.29" y="520.00" font-size="10" font-weight="400" text-anchor="end" transform="rotate(-40 944.29 520.00)">SlowFast R50 8x8 x HMDB51</text>
<rect x="998.14" y="412.48" width="18.57" height="8.32" fill="#2563eb" />
<rect x="1020.43" y="419.59" width="18.57" height="1.21" fill="#ea580c" />
<text x="1018.57" y="520.00" font-size="10" font-weight="400" text-anchor="end" transform="rotate(-40 1018.57 520.00)">VideoMAE x Kinetics</text>
<rect x="1072.43" y="247.11" width="18.57" height="173.70" fill="#2563eb" />
<rect x="1094.71" y="416.68" width="18.57" height="4.13" fill="#ea580c" />
<text x="1092.86" y="520.00" font-size="10" font-weight="400" text-anchor="end" transform="rotate(-40 1092.86 520.00)">DisMo x Kinetics</text>
<rect x="1146.71" y="381.48" width="18.57" height="39.33" fill="#2563eb" />
<rect x="1169.00" y="375.30" width="18.57" height="45.51" fill="#ea580c" />
<text x="1167.14" y="520.00" font-size="10" font-weight="400" text-anchor="end" transform="rotate(-40 1167.14 520.00)">V-JEPA2 x Kinetics</text>
<rect x="1221.00" y="420.81" width="18.57" height="0.00" fill="#2563eb" />
<rect x="1243.29" y="403.35" width="18.57" height="17.46" fill="#ea580c" />
<text x="1241.43" y="520.00" font-size="10" font-weight="400" text-anchor="end" transform="rotate(-40 1241.43 520.00)">DINOv2 frame-mean x HMDB51</text>
<rect x="1295.29" y="420.81" width="18.57" height="0.00" fill="#2563eb" />
<rect x="1317.57" y="413.93" width="18.57" height="6.88" fill="#ea580c" />
<text x="1315.71" y="520.00" font-size="10" font-weight="400" text-anchor="end" transform="rotate(-40 1315.71 520.00)">DINOv2 frame-mean x Kinetics</text>
<rect x="1369.57" y="335.15" width="18.57" height="85.66" fill="#2563eb" />
<rect x="1391.86" y="409.32" width="18.57" height="11.49" fill="#ea580c" />
<text x="1390.00" y="520.00" font-size="10" font-weight="400" text-anchor="end" transform="rotate(-40 1390.00 520.00)">SlowFast R50 8x8 x Kinetics</text>
<rect x="1443.86" y="94.19" width="18.57" height="326.61" fill="#2563eb" />
<rect x="1466.14" y="419.61" width="18.57" height="1.19" fill="#ea580c" />
<text x="1464.29" y="520.00" font-size="10" font-weight="400" text-anchor="end" transform="rotate(-40 1464.29 520.00)">DisMo x Diving48</text>
<rect x="1518.14" y="365.16" width="18.57" height="55.64" fill="#2563eb" />
<rect x="1540.43" y="393.87" width="18.57" height="26.94" fill="#ea580c" />
<text x="1538.57" y="520.00" font-size="10" font-weight="400" text-anchor="end" transform="rotate(-40 1538.57 520.00)">V-JEPA2 x Diving48</text>
<rect x="1592.43" y="254.03" width="18.57" height="166.78" fill="#2563eb" />
<rect x="1614.71" y="412.67" width="18.57" height="8.14" fill="#ea580c" />
<text x="1612.86" y="520.00" font-size="10" font-weight="400" text-anchor="end" transform="rotate(-40 1612.86 520.00)">DisMo x HMDB51</text>
<rect x="102" y="38" width="12" height="12" fill="#2563eb" />
<text x="120.00" y="48.00" font-size="12" font-weight="400" text-anchor="start">temporal-shuffle-mid</text>
<rect x="102" y="58" width="12" height="12" fill="#ea580c" />
<text x="120.00" y="68.00" font-size="12" font-weight="400" text-anchor="start">spatial-blur-mid</text>
</svg>
