<svg xmlns="http://www.w3.org/2000/svg" width="1760" height="620" viewBox="0 0 1760 620">
<rect width="100%" height="100%" fill="#ffffff" />
<style>text { font-family: Arial, Helvetica, sans-serif; fill: #111827; }</style>
<text x="880.00" y="28.00" font-size="18" font-weight="700" text-anchor="middle">Fixed-mid perturbation: mean cosine distance</text>
<text x="18.00" y="257.50" font-size="12" font-weight="400" text-anchor="middle" transform="rotate(-90 18.00 257.50)">Mean cosine distance</text>
<line x1="90" y1="460" x2="1730" y2="460" stroke="#111827" stroke-width="1" />
<line x1="90" y1="55" x2="90" y2="460" stroke="#111827" stroke-width="1" />
<line x1="86" y1="460.00" x2="90" y2="460.00" stroke="#111827" />
<text x="82.00" y="464.00" font-size="10" font-weight="400" text-anchor="end">-0.085</text>
<line x1="86" y1="379.00" x2="90" y2="379.00" stroke="#111827" />
<text x="82.00" y="383.00" font-size="10" font-weight="400" text-anchor="end">0.091</text>
<line x1="90" y1="379.00" x2="1730" y2="379.00" stroke="#e5e7eb" stroke-width="1" />
<line x1="86" y1="298.00" x2="90" y2="298.00" stroke="#111827" />
<text x="82.00" y="302.00" font-size="10" font-weight="400" text-anchor="end">0.267</text>
<line x1="90" y1="298.00" x2="1730" y2="298.00" stroke="#e5e7eb" stroke-width="1" />
<line x1="86" y1="217.00" x2="90" y2="217.00" stroke="#111827" />
<text x="82.00" y="221.00" font-size="10" font-weight="400" text-anchor="end">0.443</text>
<line x1="90" y1="217.00" x2="1730" y2="217.00" stroke="#e5e7eb" stroke-width="1" />
<line x1="86" y1="136.00" x2="90" y2="136.00" stroke="#111827" />
<text x="82.00" y="140.00" font-size="10" font-weight="400" text-anchor="end">0.619</text>
<line x1="90" y1="136.00" x2="1730" y2="136.00" stroke="#e5e7eb" stroke-width="1" />
<line x1="86" y1="55.00" x2="90" y2="55.00" stroke="#111827" />
<text x="82.00" y="59.00" font-size="10" font-weight="400" text-anchor="end">0.795</text>
<line x1="90" y1="420.81" x2="1730" y2="420.81" stroke="#6b7280" stroke-dasharray="4 4" />
<rect x="106.77" y="410.21" width="18.64" height="10.60" fill="#2563eb" />
<rect x="129.14" y="417.83" width="18.64" height="2.98" fill="#ea580c" />
<text x="127.27" y="520.00" font-size="10" font-weight="400" text-anchor="end" transform="rotate(-40 127.27 520.00)">VideoMAE x SSV2</text>
<rect x="181.32" y="415.18" width="18.64" height="5.63" fill="#2563eb" />
<rect x="203.68" y="416.46" width="18.64" height="4.35" fill="#ea580c" />
<text x="201.82" y="520.00" font-size="10" font-weight="400" text-anchor="end" transform="rotate(-40 201.82 520.00)">VideoMAE x UCF101</text>
<rect x="255.86" y="383.89" width="18.64" height="36.92" fill="#2563eb" />
<rect x="278.23" y="420.32" width="18.64" height="0.49" fill="#ea580c" />
<text x="276.36" y="520.00" font-size="10" font-weight="400" text-anchor="end" transform="rotate(-40 276.36 520.00)">VideoMAE x Diving48</text>
<rect x="330.41" y="318.67" width="18.64" height="102.13" fill="#2563eb" />
<rect x="352.77" y="385.75" width="18.64" height="35.05" fill="#ea580c" />
<text x="350.91" y="520.00" font-size="10" font-weight="400" text-anchor="end" transform="rotate(-40 350.91 520.00)">SlowFast R50 8x8 x SSV2</text>
<rect x="404.95" y="346.51" width="18.64" height="74.29" fill="#2563eb" />
<rect x="427.32" y="392.80" width="18.64" height="28.00" fill="#ea580c" />
<text x="425.45" y="520.00" font-size="10" font-weight="400" text-anchor="end" transform="rotate(-40 425.45 520.00)">SlowFast R50 8x8 x UCF101</text>
<rect x="479.50" y="326.27" width="18.64" height="94.54" fill="#2563eb" />
<rect x="501.86" y="418.35" width="18.64" height="2.46" fill="#ea580c" />
<text x="500.00" y="520.00" font-size="10" font-weight="400" text-anchor="end" transform="rotate(-40 500.00 520.00)">SlowFast R50 8x8 x Diving48</text>
<rect x="554.05" y="420.81" width="18.64" height="0.00" fill="#2563eb" />
<rect x="576.41" y="398.57" width="18.64" height="22.24" fill="#ea580c" />
<text x="574.55" y="520.00" font-size="10" font-weight="400" text-anchor="end" transform="rotate(-40 574.55 520.00)">DINOv2 frame-mean x SSV2</text>
<rect x="628.59" y="420.81" width="18.64" height="0.00" fill="#2563eb" />
<rect x="650.95" y="402.68" width="18.64" height="18.13" fill="#ea580c" />
<text x="649.09" y="520.00" font-size="10" font-weight="400" text-anchor="end" transform="rotate(-40 649.09 520.00)">DINOv2 frame-mean x UCF101</text>
<rect x="703.14" y="420.81" width="18.64" height="0.00" fill="#2563eb" />
<rect x="725.50" y="419.27" width="18.64" height="1.53" fill="#ea580c" />
<text x="723.64" y="520.00" font-size="10" font-weight="400" text-anchor="end" transform="rotate(-40 723.64 520.00)">DINOv2 frame-mean x Diving48</text>
<rect x="777.68" y="379.07" width="18.64" height="41.74" fill="#2563eb" />
<rect x="800.05" y="353.11" width="18.64" height="67.70" fill="#ea580c" />
<text x="798.18" y="520.00" font-size="10" font-weight="400" text-anchor="end" transform="rotate(-40 798.18 520.00)">V-JEPA2 x HMDB51</text>
<rect x="852.23" y="414.23" width="18.64" height="6.58" fill="#2563eb" />
<rect x="874.59" y="416.61" width="18.64" height="4.19" fill="#ea580c" />
<text x="872.73" y="520.00" font-size="10" font-weight="400" text-anchor="end" transform="rotate(-40 872.73 520.00)">VideoMAE x HMDB51</text>
<rect x="926.77" y="309.98" width="18.64" height="110.83" fill="#2563eb" />
<rect x="949.14" y="390.13" width="18.64" height="30.68" fill="#ea580c" />
<text x="947.27" y="520.00" font-size="10" font-weight="400" text-anchor="end" transform="rotate(-40 947.27 520.00)">SlowFast R50 8x8 x HMDB51</text>
<rect x="1001.32" y="412.48" width="18.64" height="8.32" fill="#2563eb" />
<rect x="1023.68" y="419.59" width="18.64" height="1.21" fill="#ea580c" />
<text x="1021.82" y="520.00" font-size="10" font-weight="400" text-anchor="end" transform="rotate(-40 1021.82 520.00)">VideoMAE x Kinetics</text>
<rect x="1075.86" y="247.11" width="18.64" height="173.70" fill="#2563eb" />
<rect x="1098.23" y="416.68" width="18.64" height="4.13" fill="#ea580c" />
<text x="1096.36" y="520.00" font-size="10" font-weight="400" text-anchor="end" transform="rotate(-40 1096.36 520.00)">DisMo x Kinetics</text>
<rect x="1150.41" y="381.48" width="18.64" height="39.33" fill="#2563eb" />
<rect x="1172.77" y="375.30" width="18.64" height="45.51" fill="#ea580c" />
<text x="1170.91" y="520.00" font-size="10" font-weight="400" text-anchor="end" transform="rotate(-40 1170.91 520.00)">V-JEPA2 x Kinetics</text>
<rect x="1224.95" y="420.81" width="18.64" height="0.00" fill="#2563eb" />
<rect x="1247.32" y="403.35" width="18.64" height="17.46" fill="#ea580c" />
<text x="1245.45" y="520.00" font-size="10" font-weight="400" text-anchor="end" transform="rotate(-40 1245.45 520.00)">DINOv2 frame-mean x HMDB51</text>
<rect x="1299.50" y="420.81" width="18.64" height="0.00" fill="#2563eb" />
<rect x="1321.86" y="413.93" width="18.64" height="6.88" fill="#ea580c" />
<text x="1320.00" y="520.00" font-size="10" font-weight="400" text-anchor="end" transform="rotate(-40 1320.00 520.00)">DINOv2 frame-mean x Kinetics</text>
<rect x="1374.05" y="335.15" width="18.64" height="85.66" fill="#2563eb" />
<rect x="1396.41" y="409.32" width="18.64" height="11.49" fill="#ea580c" />
<text x="1394.55" y="520.00" font-size="10" font-weight="400" text-anchor="end" transform="rotate(-40 1394.55 520.00)">SlowFast R50 8x8 x Kinetics</text>
<rect x="1448.59" y="94.19" width="18.64" height="326.61" fill="#2563eb" />
<rect x="1470.95" y="419.61" width="18.64" height="1.19" fill="#ea580c" />
<text x="1469.09" y="520.00" font-size="10" font-weight="400" text-anchor="end" transform="rotate(-40 1469.09 520.00)">DisMo x Diving48</text>
<rect x="1523.14" y="365.16" width="18.64" height="55.64" fill="#2563eb" />
<rect x="1545.50" y="393.87" width="18.64" height="26.94" fill="#ea580c" />
<text x="1543.64" y="520.00" font-size="10" font-weight="400" text-anchor="end" transform="rotate(-40 1543.64 520.00)">V-JEPA2 x Diving48</text>
<rect x="1597.68" y="254.03" width="18.64" height="166.78" fill="#2563eb" />
<rect x="1620.05" y="412.67" width="18.64" height="8.14" fill="#ea580c" />
<text x="1618.18" y="520.00" font-size="10" font-weight="400" text-anchor="end" transform="rotate(-40 1618.18 520.00)">DisMo x HMDB51</text>
<rect x="1672.23" y="232.14" width="18.64" height="188.67" fill="#2563eb" />
<rect x="1694.59" y="410.82" width="18.64" height="9.98" fill="#ea580c" />
<text x="1692.73" y="520.00" font-size="10" font-weight="400" text-anchor="end" transform="rotate(-40 1692.73 520.00)">DisMo x SSV2</text>
<rect x="102" y="38" width="12" height="12" fill="#2563eb" />
<text x="120.00" y="48.00" font-size="12" font-weight="400" text-anchor="start">temporal-shuffle-mid</text>
<rect x="102" y="58" width="12" height="12" fill="#ea580c" />
<text x="120.00" y="68.00" font-size="12" font-weight="400" text-anchor="start">spatial-blur-mid</text>
</svg>
