<svg xmlns="http://www.w3.org/2000/svg" width="1080" height="870" viewBox="0 0 1080 870">
<rect width="100%" height="100%" fill="#ffffff" />
<style>text { font-family: Arial, Helvetica, sans-serif; fill: #111827; }</style>
<text x="540.00" y="26.00" font-size="15" font-weight="700" text-anchor="middle">Per-cell perturbation profile (correct-to-incorrect rate, up to 14 artifacts -- cells built before the matrix expansion show only the original 8)</text>
<text x="225.00" y="82.00" font-size="12" font-weight="700" text-anchor="middle">VideoMAE</text>
<text x="415.00" y="82.00" font-size="12" font-weight="700" text-anchor="middle">SlowFast R50 8x8</text>
<text x="605.00" y="82.00" font-size="12" font-weight="700" text-anchor="middle">DINOv2 frame-mean</text>
<text x="795.00" y="82.00" font-size="12" font-weight="700" text-anchor="middle">V-JEPA2</text>
<text x="985.00" y="82.00" font-size="12" font-weight="700" text-anchor="middle">DisMo</text>
<text x="120.00" y="165.00" font-size="12" font-weight="700" text-anchor="end">SSV2</text>
<rect x="134" y="94" width="182" height="142" fill="none" stroke="#e5e7eb" stroke-width="1" />
<text x="225.00" y="106.00" font-size="9" font-weight="400" text-anchor="middle">LP orig. 25%</text>
<rect x="134.00" y="194.21" width="11.14" height="37.79" fill="#2563eb" />
<rect x="147.14" y="224.17" width="11.14" height="7.83" fill="#2563eb" />
<rect x="160.29" y="214.72" width="11.14" height="17.28" fill="#2563eb" />
<rect x="173.43" y="202.79" width="11.14" height="29.21" fill="#2563eb" />
<rect x="186.57" y="231.50" width="11.14" height="0.60" fill="#ea580c" />
<rect x="199.71" y="230.51" width="11.14" height="1.49" fill="#ea580c" />
<rect x="212.86" y="227.03" width="11.14" height="4.97" fill="#ea580c" />
<rect x="226.00" y="216.34" width="11.14" height="15.66" fill="#ea580c" />
<rect x="239.14" y="212.24" width="11.14" height="19.76" fill="#ea580c" />
<rect x="252.29" y="206.02" width="11.14" height="25.98" fill="#ea580c" />
<rect x="265.43" y="202.29" width="11.14" height="29.71" fill="#ea580c" />
<rect x="278.57" y="214.60" width="11.14" height="17.40" fill="#ea580c" />
<rect x="291.71" y="214.85" width="11.14" height="17.15" fill="#ea580c" />
<rect x="304.86" y="208.88" width="11.14" height="23.12" fill="#ea580c" />
<line x1="134" y1="232.00" x2="316" y2="232.00" stroke="#9ca3af" stroke-width="1" />
<rect x="324" y="94" width="182" height="142" fill="none" stroke="#e5e7eb" stroke-width="1" />
<text x="415.00" y="106.00" font-size="9" font-weight="400" text-anchor="middle">LP orig. 34%</text>
<rect x="324.00" y="188.50" width="11.14" height="43.50" fill="#2563eb" />
<rect x="337.14" y="219.07" width="11.14" height="12.93" fill="#2563eb" />
<rect x="350.29" y="205.90" width="11.14" height="26.10" fill="#2563eb" />
<rect x="363.43" y="189.12" width="11.14" height="42.88" fill="#2563eb" />
<rect x="376.57" y="231.75" width="11.14" height="0.60" fill="#ea580c" />
<rect x="389.71" y="230.14" width="11.14" height="1.86" fill="#ea580c" />
<rect x="402.86" y="226.66" width="11.14" height="5.34" fill="#ea580c" />
<rect x="416.00" y="219.94" width="11.14" height="12.06" fill="#ea580c" />
<rect x="429.14" y="217.21" width="11.14" height="14.79" fill="#ea580c" />
<rect x="442.29" y="203.29" width="11.14" height="28.71" fill="#ea580c" />
<rect x="455.43" y="189.12" width="11.14" height="42.88" fill="#ea580c" />
<rect x="468.57" y="206.27" width="11.14" height="25.73" fill="#ea580c" />
<rect x="481.71" y="207.14" width="11.14" height="24.86" fill="#ea580c" />
<rect x="494.86" y="191.11" width="11.14" height="40.89" fill="#ea580c" />
<line x1="324" y1="232.00" x2="506" y2="232.00" stroke="#9ca3af" stroke-width="1" />
<rect x="514" y="94" width="182" height="142" fill="none" stroke="#e5e7eb" stroke-width="1" />
<text x="605.00" y="106.00" font-size="9" font-weight="400" text-anchor="middle">LP orig. 30%</text>
<rect x="514.00" y="232.00" width="11.14" height="0.60" fill="#2563eb" />
<rect x="527.14" y="230.76" width="11.14" height="1.24" fill="#2563eb" />
<rect x="540.29" y="226.66" width="11.14" height="5.34" fill="#2563eb" />
<rect x="553.43" y="222.68" width="11.14" height="9.32" fill="#2563eb" />
<rect x="566.57" y="232.00" width="11.14" height="0.60" fill="#ea580c" />
<rect x="579.71" y="231.63" width="11.14" height="0.60" fill="#ea580c" />
<rect x="592.86" y="229.89" width="11.14" height="2.11" fill="#ea580c" />
<rect x="606.00" y="225.04" width="11.14" height="6.96" fill="#ea580c" />
<rect x="619.14" y="224.42" width="11.14" height="7.58" fill="#ea580c" />
<rect x="632.29" y="216.34" width="11.14" height="15.66" fill="#ea580c" />
<rect x="645.43" y="201.55" width="11.14" height="30.45" fill="#ea580c" />
<rect x="658.57" y="218.20" width="11.14" height="13.80" fill="#ea580c" />
<rect x="671.71" y="220.81" width="11.14" height="11.19" fill="#ea580c" />
<rect x="684.86" y="205.15" width="11.14" height="26.85" fill="#ea580c" />
<line x1="514" y1="232.00" x2="696" y2="232.00" stroke="#9ca3af" stroke-width="1" />
<rect x="704" y="94" width="182" height="142" fill="none" stroke="#e5e7eb" stroke-width="1" />
<text x="795.00" y="165.00" font-size="10" font-weight="400" text-anchor="middle">no run</text>
<rect x="894" y="94" width="182" height="142" fill="none" stroke="#e5e7eb" stroke-width="1" />
<text x="985.00" y="165.00" font-size="10" font-weight="400" text-anchor="middle">no run</text>
<text x="120.00" y="315.00" font-size="12" font-weight="700" text-anchor="end">UCF101</text>
<rect x="134" y="244" width="182" height="142" fill="none" stroke="#e5e7eb" stroke-width="1" />
<text x="225.00" y="256.00" font-size="9" font-weight="400" text-anchor="middle">LP orig. 85%</text>
<rect x="134.00" y="329.80" width="11.14" height="52.20" fill="#2563eb" />
<rect x="147.14" y="378.02" width="11.14" height="3.98" fill="#2563eb" />
<rect x="160.29" y="369.32" width="11.14" height="12.68" fill="#2563eb" />
<rect x="173.43" y="351.55" width="11.14" height="30.45" fill="#2563eb" />
<rect x="186.57" y="381.38" width="11.14" height="0.62" fill="#ea580c" />
<rect x="199.71" y="378.89" width="11.14" height="3.11" fill="#ea580c" />
<rect x="212.86" y="369.07" width="11.14" height="12.93" fill="#ea580c" />
<rect x="226.00" y="323.58" width="11.14" height="58.42" fill="#ea580c" />
<rect x="239.14" y="354.03" width="11.14" height="27.97" fill="#ea580c" />
<rect x="252.29" y="315.38" width="11.14" height="66.62" fill="#ea580c" />
<rect x="265.43" y="274.86" width="11.14" height="107.14" fill="#ea580c" />
<rect x="278.57" y="342.35" width="11.14" height="39.65" fill="#ea580c" />
<rect x="291.71" y="331.78" width="11.14" height="50.22" fill="#ea580c" />
<rect x="304.86" y="292.88" width="11.14" height="89.12" fill="#ea580c" />
<line x1="134" y1="382.00" x2="316" y2="382.00" stroke="#9ca3af" stroke-width="1" />
<rect x="324" y="244" width="182" height="142" fill="none" stroke="#e5e7eb" stroke-width="1" />
<text x="415.00" y="256.00" font-size="9" font-weight="400" text-anchor="middle">LP orig. 99%</text>
<rect x="324.00" y="372.93" width="11.14" height="9.07" fill="#2563eb" />
<rect x="337.14" y="381.25" width="11.14" height="0.75" fill="#2563eb" />
<rect x="350.29" y="379.89" width="11.14" height="2.11" fill="#2563eb" />
<rect x="363.43" y="374.42" width="11.14" height="7.58" fill="#2563eb" />
<rect x="376.57" y="382.00" width="11.14" height="0.60" fill="#ea580c" />
<rect x="389.71" y="381.88" width="11.14" height="0.60" fill="#ea580c" />
<rect x="402.86" y="381.63" width="11.14" height="0.60" fill="#ea580c" />
<rect x="416.00" y="379.02" width="11.14" height="2.98" fill="#ea580c" />
<rect x="429.14" y="380.38" width="11.14" height="1.62" fill="#ea580c" />
<rect x="442.29" y="374.17" width="11.14" height="7.83" fill="#ea580c" />
<rect x="455.43" y="348.32" width="11.14" height="33.68" fill="#ea580c" />
<rect x="468.57" y="369.82" width="11.14" height="12.18" fill="#ea580c" />
<rect x="481.71" y="367.46" width="11.14" height="14.54" fill="#ea580c" />
<rect x="494.86" y="332.41" width="11.14" height="49.59" fill="#ea580c" />
<line x1="324" y1="382.00" x2="506" y2="382.00" stroke="#9ca3af" stroke-width="1" />
<rect x="514" y="244" width="182" height="142" fill="none" stroke="#e5e7eb" stroke-width="1" />
<text x="605.00" y="256.00" font-size="9" font-weight="400" text-anchor="middle">LP orig. 99%</text>
<rect x="514.00" y="382.00" width="11.14" height="0.60" fill="#2563eb" />
<rect x="527.14" y="381.75" width="11.14" height="0.60" fill="#2563eb" />
<rect x="540.29" y="381.88" width="11.14" height="0.60" fill="#2563eb" />
<rect x="553.43" y="381.38" width="11.14" height="0.62" fill="#2563eb" />
<rect x="566.57" y="382.00" width="11.14" height="0.60" fill="#ea580c" />
<rect x="579.71" y="382.00" width="11.14" height="0.60" fill="#ea580c" />
<rect x="592.86" y="381.63" width="11.14" height="0.60" fill="#ea580c" />
<rect x="606.00" y="381.25" width="11.14" height="0.75" fill="#ea580c" />
<rect x="619.14" y="381.50" width="11.14" height="0.60" fill="#ea580c" />
<rect x="632.29" y="379.39" width="11.14" height="2.61" fill="#ea580c" />
<rect x="645.43" y="369.57" width="11.14" height="12.43" fill="#ea580c" />
<rect x="658.57" y="378.89" width="11.14" height="3.11" fill="#ea580c" />
<rect x="671.71" y="378.27" width="11.14" height="3.73" fill="#ea580c" />
<rect x="684.86" y="360.00" width="11.14" height="22.00" fill="#ea580c" />
<line x1="514" y1="382.00" x2="696" y2="382.00" stroke="#9ca3af" stroke-width="1" />
<rect x="704" y="244" width="182" height="142" fill="none" stroke="#e5e7eb" stroke-width="1" />
<text x="795.00" y="315.00" font-size="10" font-weight="400" text-anchor="middle">no run</text>
<rect x="894" y="244" width="182" height="142" fill="none" stroke="#e5e7eb" stroke-width="1" />
<text x="985.00" y="315.00" font-size="10" font-weight="400" text-anchor="middle">no run</text>
<text x="120.00" y="465.00" font-size="12" font-weight="700" text-anchor="end">Diving48</text>
<rect x="134" y="394" width="182" height="142" fill="none" stroke="#e5e7eb" stroke-width="1" />
<text x="225.00" y="406.00" font-size="9" font-weight="400" text-anchor="middle">LP orig. 7%</text>
<rect x="134.00" y="521.51" width="11.14" height="10.49" fill="#2563eb" />
<rect x="147.14" y="529.28" width="11.14" height="2.72" fill="#2563eb" />
<rect x="160.29" y="526.56" width="11.14" height="5.44" fill="#2563eb" />
<rect x="173.43" y="520.35" width="11.14" height="11.65" fill="#2563eb" />
<rect x="186.57" y="532.00" width="11.14" height="0.60" fill="#ea580c" />
<rect x="199.71" y="530.83" width="11.14" height="1.17" fill="#ea580c" />
<rect x="212.86" y="530.06" width="11.14" height="1.94" fill="#ea580c" />
<rect x="226.00" y="527.73" width="11.14" height="4.27" fill="#ea580c" />
<rect x="239.14" y="528.50" width="11.14" height="3.50" fill="#ea580c" />
<rect x="252.29" y="527.34" width="11.14" height="4.66" fill="#ea580c" />
<rect x="265.43" y="527.34" width="11.14" height="4.66" fill="#ea580c" />
<rect x="278.57" y="529.28" width="11.14" height="2.72" fill="#ea580c" />
<rect x="291.71" y="526.95" width="11.14" height="5.05" fill="#ea580c" />
<rect x="304.86" y="525.01" width="11.14" height="6.99" fill="#ea580c" />
<line x1="134" y1="532.00" x2="316" y2="532.00" stroke="#9ca3af" stroke-width="1" />
<rect x="324" y="394" width="182" height="142" fill="none" stroke="#e5e7eb" stroke-width="1" />
<text x="415.00" y="406.00" font-size="9" font-weight="400" text-anchor="middle">LP orig. 9%</text>
<rect x="324.00" y="518.41" width="11.14" height="13.59" fill="#2563eb" />
<rect x="337.14" y="524.23" width="11.14" height="7.77" fill="#2563eb" />
<rect x="350.29" y="518.02" width="11.14" height="13.98" fill="#2563eb" />
<rect x="363.43" y="517.63" width="11.14" height="14.37" fill="#2563eb" />
<rect x="376.57" y="531.61" width="11.14" height="0.60" fill="#ea580c" />
<rect x="389.71" y="530.83" width="11.14" height="1.17" fill="#ea580c" />
<rect x="402.86" y="527.34" width="11.14" height="4.66" fill="#ea580c" />
<rect x="416.00" y="529.67" width="11.14" height="2.33" fill="#ea580c" />
<rect x="429.14" y="526.56" width="11.14" height="5.44" fill="#ea580c" />
<rect x="442.29" y="521.12" width="11.14" height="10.88" fill="#ea580c" />
<rect x="455.43" y="517.63" width="11.14" height="14.37" fill="#ea580c" />
<rect x="468.57" y="525.01" width="11.14" height="6.99" fill="#ea580c" />
<rect x="481.71" y="525.79" width="11.14" height="6.21" fill="#ea580c" />
<rect x="494.86" y="516.46" width="11.14" height="15.54" fill="#ea580c" />
<line x1="324" y1="532.00" x2="506" y2="532.00" stroke="#9ca3af" stroke-width="1" />
<rect x="514" y="394" width="182" height="142" fill="none" stroke="#e5e7eb" stroke-width="1" />
<text x="605.00" y="406.00" font-size="9" font-weight="400" text-anchor="middle">LP orig. 10%</text>
<rect x="514.00" y="532.00" width="11.14" height="0.60" fill="#2563eb" />
<rect x="527.14" y="530.06" width="11.14" height="1.94" fill="#2563eb" />
<rect x="540.29" y="526.17" width="11.14" height="5.83" fill="#2563eb" />
<rect x="553.43" y="521.51" width="11.14" height="10.49" fill="#2563eb" />
<rect x="566.57" y="531.61" width="11.14" height="0.60" fill="#ea580c" />
<rect x="579.71" y="531.22" width="11.14" height="0.78" fill="#ea580c" />
<rect x="592.86" y="529.67" width="11.14" height="2.33" fill="#ea580c" />
<rect x="606.00" y="530.06" width="11.14" height="1.94" fill="#ea580c" />
<rect x="619.14" y="526.17" width="11.14" height="5.83" fill="#ea580c" />
<rect x="632.29" y="521.12" width="11.14" height="10.88" fill="#ea580c" />
<rect x="645.43" y="517.24" width="11.14" height="14.76" fill="#ea580c" />
<rect x="658.57" y="524.23" width="11.14" height="7.77" fill="#ea580c" />
<rect x="671.71" y="521.90" width="11.14" height="10.10" fill="#ea580c" />
<rect x="684.86" y="514.91" width="11.14" height="17.09" fill="#ea580c" />
<line x1="514" y1="532.00" x2="696" y2="532.00" stroke="#9ca3af" stroke-width="1" />
<rect x="704" y="394" width="182" height="142" fill="none" stroke="#e5e7eb" stroke-width="1" />
<text x="795.00" y="406.00" font-size="9" font-weight="400" text-anchor="middle">LP orig. 9%</text>
<rect x="704.00" y="518.79" width="11.14" height="13.21" fill="#2563eb" />
<rect x="717.14" y="524.62" width="11.14" height="7.38" fill="#2563eb" />
<rect x="730.29" y="518.41" width="11.14" height="13.59" fill="#2563eb" />
<rect x="743.43" y="518.79" width="11.14" height="13.21" fill="#2563eb" />
<rect x="756.57" y="532.00" width="11.14" height="0.60" fill="#ea580c" />
<rect x="769.71" y="531.22" width="11.14" height="0.78" fill="#ea580c" />
<rect x="782.86" y="526.95" width="11.14" height="5.05" fill="#ea580c" />
<rect x="796.00" y="523.45" width="11.14" height="8.55" fill="#ea580c" />
<rect x="809.14" y="524.62" width="11.14" height="7.38" fill="#ea580c" />
<rect x="822.29" y="523.45" width="11.14" height="8.55" fill="#ea580c" />
<rect x="835.43" y="520.74" width="11.14" height="11.26" fill="#ea580c" />
<rect x="848.57" y="525.40" width="11.14" height="6.60" fill="#ea580c" />
<rect x="861.71" y="525.01" width="11.14" height="6.99" fill="#ea580c" />
<rect x="874.86" y="518.41" width="11.14" height="13.59" fill="#ea580c" />
<line x1="704" y1="532.00" x2="886" y2="532.00" stroke="#9ca3af" stroke-width="1" />
<rect x="894" y="394" width="182" height="142" fill="none" stroke="#e5e7eb" stroke-width="1" />
<text x="985.00" y="406.00" font-size="9" font-weight="400" text-anchor="middle">LP orig. 10%</text>
<rect x="894.00" y="516.46" width="11.14" height="15.54" fill="#2563eb" />
<rect x="907.14" y="530.45" width="11.14" height="1.55" fill="#2563eb" />
<rect x="920.29" y="522.68" width="11.14" height="9.32" fill="#2563eb" />
<rect x="933.43" y="516.46" width="11.14" height="15.54" fill="#2563eb" />
<rect x="946.57" y="531.22" width="11.14" height="0.78" fill="#ea580c" />
<rect x="959.71" y="530.83" width="11.14" height="1.17" fill="#ea580c" />
<rect x="972.86" y="528.89" width="11.14" height="3.11" fill="#ea580c" />
<rect x="986.00" y="529.67" width="11.14" height="2.33" fill="#ea580c" />
<rect x="999.14" y="529.28" width="11.14" height="2.72" fill="#ea580c" />
<rect x="1012.29" y="527.34" width="11.14" height="4.66" fill="#ea580c" />
<rect x="1025.43" y="525.79" width="11.14" height="6.21" fill="#ea580c" />
<rect x="1038.57" y="527.34" width="11.14" height="4.66" fill="#ea580c" />
<rect x="1051.71" y="525.79" width="11.14" height="6.21" fill="#ea580c" />
<rect x="1064.86" y="525.40" width="11.14" height="6.60" fill="#ea580c" />
<line x1="894" y1="532.00" x2="1076" y2="532.00" stroke="#9ca3af" stroke-width="1" />
<text x="120.00" y="615.00" font-size="12" font-weight="700" text-anchor="end">HMDB51</text>
<rect x="134" y="544" width="182" height="142" fill="none" stroke="#e5e7eb" stroke-width="1" />
<text x="225.00" y="556.00" font-size="9" font-weight="400" text-anchor="middle">LP orig. 36%</text>
<rect x="134.00" y="646.28" width="11.14" height="35.72" fill="#2563eb" />
<rect x="147.14" y="676.62" width="11.14" height="5.38" fill="#2563eb" />
<rect x="160.29" y="669.03" width="11.14" height="12.97" fill="#2563eb" />
<rect x="173.43" y="655.70" width="11.14" height="26.30" fill="#2563eb" />
<rect x="186.57" y="681.63" width="11.14" height="0.60" fill="#ea580c" />
<rect x="199.71" y="679.06" width="11.14" height="2.94" fill="#ea580c" />
<rect x="212.86" y="669.52" width="11.14" height="12.48" fill="#ea580c" />
<rect x="226.00" y="647.13" width="11.14" height="34.87" fill="#ea580c" />
<line x1="134" y1="682.00" x2="316" y2="682.00" stroke="#9ca3af" stroke-width="1" />
<rect x="324" y="544" width="182" height="142" fill="none" stroke="#e5e7eb" stroke-width="1" />
<text x="415.00" y="556.00" font-size="9" font-weight="400" text-anchor="middle">LP orig. 72%</text>
<rect x="324.00" y="642.61" width="11.14" height="39.39" fill="#2563eb" />
<rect x="337.14" y="670.99" width="11.14" height="11.01" fill="#2563eb" />
<rect x="350.29" y="658.14" width="11.14" height="23.86" fill="#2563eb" />
<rect x="363.43" y="635.14" width="11.14" height="46.86" fill="#2563eb" />
<rect x="376.57" y="681.51" width="11.14" height="0.60" fill="#ea580c" />
<rect x="389.71" y="680.53" width="11.14" height="1.47" fill="#ea580c" />
<rect x="402.86" y="677.60" width="11.14" height="4.40" fill="#ea580c" />
<rect x="416.00" y="666.46" width="11.14" height="15.54" fill="#ea580c" />
<line x1="324" y1="682.00" x2="506" y2="682.00" stroke="#9ca3af" stroke-width="1" />
<rect x="514" y="544" width="182" height="142" fill="none" stroke="#e5e7eb" stroke-width="1" />
<text x="605.00" y="556.00" font-size="9" font-weight="400" text-anchor="middle">LP orig. 63%</text>
<rect x="514.00" y="682.00" width="11.14" height="0.60" fill="#2563eb" />
<rect x="527.14" y="679.92" width="11.14" height="2.08" fill="#2563eb" />
<rect x="540.29" y="677.35" width="11.14" height="4.65" fill="#2563eb" />
<rect x="553.43" y="672.82" width="11.14" height="9.18" fill="#2563eb" />
<rect x="566.57" y="681.76" width="11.14" height="0.60" fill="#ea580c" />
<rect x="579.71" y="681.14" width="11.14" height="0.86" fill="#ea580c" />
<rect x="592.86" y="678.94" width="11.14" height="3.06" fill="#ea580c" />
<rect x="606.00" y="673.44" width="11.14" height="8.56" fill="#ea580c" />
<rect x="619.14" y="675.03" width="11.14" height="6.97" fill="#ea580c" />
<rect x="632.29" y="664.38" width="11.14" height="17.62" fill="#ea580c" />
<rect x="645.43" y="643.46" width="11.14" height="38.54" fill="#ea580c" />
<rect x="658.57" y="668.67" width="11.14" height="13.33" fill="#ea580c" />
<rect x="671.71" y="666.22" width="11.14" height="15.78" fill="#ea580c" />
<rect x="684.86" y="642.00" width="11.14" height="40.00" fill="#ea580c" />
<line x1="514" y1="682.00" x2="696" y2="682.00" stroke="#9ca3af" stroke-width="1" />
<rect x="704" y="544" width="182" height="142" fill="none" stroke="#e5e7eb" stroke-width="1" />
<text x="795.00" y="556.00" font-size="9" font-weight="400" text-anchor="middle">LP orig. 63%</text>
<rect x="704.00" y="638.69" width="11.14" height="43.31" fill="#2563eb" />
<rect x="717.14" y="670.26" width="11.14" height="11.74" fill="#2563eb" />
<rect x="730.29" y="659.98" width="11.14" height="22.02" fill="#2563eb" />
<rect x="743.43" y="642.61" width="11.14" height="39.39" fill="#2563eb" />
<rect x="756.57" y="681.76" width="11.14" height="0.60" fill="#ea580c" />
<rect x="769.71" y="680.16" width="11.14" height="1.84" fill="#ea580c" />
<rect x="782.86" y="671.11" width="11.14" height="10.89" fill="#ea580c" />
<rect x="796.00" y="647.01" width="11.14" height="34.99" fill="#ea580c" />
<line x1="704" y1="682.00" x2="886" y2="682.00" stroke="#9ca3af" stroke-width="1" />
<rect x="894" y="544" width="182" height="142" fill="none" stroke="#e5e7eb" stroke-width="1" />
<text x="985.00" y="556.00" font-size="9" font-weight="400" text-anchor="middle">LP orig. 47%</text>
<rect x="894.00" y="633.19" width="11.14" height="48.81" fill="#2563eb" />
<rect x="907.14" y="676.62" width="11.14" height="5.38" fill="#2563eb" />
<rect x="920.29" y="653.74" width="11.14" height="28.26" fill="#2563eb" />
<rect x="933.43" y="620.59" width="11.14" height="61.41" fill="#2563eb" />
<rect x="946.57" y="681.51" width="11.14" height="0.60" fill="#ea580c" />
<rect x="959.71" y="679.55" width="11.14" height="2.45" fill="#ea580c" />
<rect x="972.86" y="674.29" width="11.14" height="7.71" fill="#ea580c" />
<rect x="986.00" y="669.15" width="11.14" height="12.85" fill="#ea580c" />
<rect x="999.14" y="674.05" width="11.14" height="7.95" fill="#ea580c" />
<rect x="1012.29" y="667.69" width="11.14" height="14.31" fill="#ea580c" />
<rect x="1025.43" y="656.43" width="11.14" height="25.57" fill="#ea580c" />
<rect x="1038.57" y="664.63" width="11.14" height="17.37" fill="#ea580c" />
<rect x="1051.71" y="668.79" width="11.14" height="13.21" fill="#ea580c" />
<rect x="1064.86" y="646.03" width="11.14" height="35.97" fill="#ea580c" />
<line x1="894" y1="682.00" x2="1076" y2="682.00" stroke="#9ca3af" stroke-width="1" />
<text x="120.00" y="765.00" font-size="12" font-weight="700" text-anchor="end">Kinetics</text>
<rect x="134" y="694" width="182" height="142" fill="none" stroke="#e5e7eb" stroke-width="1" />
<text x="225.00" y="706.00" font-size="9" font-weight="400" text-anchor="middle">LP orig. 46%</text>
<rect x="134.00" y="796.33" width="11.14" height="35.67" fill="#2563eb" />
<rect x="147.14" y="829.76" width="11.14" height="2.24" fill="#2563eb" />
<rect x="160.29" y="823.42" width="11.14" height="8.58" fill="#2563eb" />
<rect x="173.43" y="816.46" width="11.14" height="15.54" fill="#2563eb" />
<rect x="186.57" y="831.63" width="11.14" height="0.60" fill="#ea580c" />
<rect x="199.71" y="829.76" width="11.14" height="2.24" fill="#ea580c" />
<rect x="212.86" y="823.80" width="11.14" height="8.20" fill="#ea580c" />
<rect x="226.00" y="821.31" width="11.14" height="10.69" fill="#ea580c" />
<line x1="134" y1="832.00" x2="316" y2="832.00" stroke="#9ca3af" stroke-width="1" />
<rect x="324" y="694" width="182" height="142" fill="none" stroke="#e5e7eb" stroke-width="1" />
<text x="415.00" y="706.00" font-size="9" font-weight="400" text-anchor="middle">LP orig. 92%</text>
<rect x="324.00" y="815.34" width="11.14" height="16.66" fill="#2563eb" />
<rect x="337.14" y="827.15" width="11.14" height="4.85" fill="#2563eb" />
<rect x="350.29" y="823.55" width="11.14" height="8.45" fill="#2563eb" />
<rect x="363.43" y="815.84" width="11.14" height="16.16" fill="#2563eb" />
<rect x="376.57" y="831.88" width="11.14" height="0.60" fill="#ea580c" />
<rect x="389.71" y="831.50" width="11.14" height="0.60" fill="#ea580c" />
<rect x="402.86" y="829.14" width="11.14" height="2.86" fill="#ea580c" />
<rect x="416.00" y="827.53" width="11.14" height="4.47" fill="#ea580c" />
<rect x="429.14" y="827.40" width="11.14" height="4.60" fill="#ea580c" />
<rect x="442.29" y="811.37" width="11.14" height="20.63" fill="#ea580c" />
<rect x="455.43" y="769.35" width="11.14" height="62.65" fill="#ea580c" />
<rect x="468.57" y="798.56" width="11.14" height="33.44" fill="#ea580c" />
<rect x="481.71" y="790.49" width="11.14" height="41.51" fill="#ea580c" />
<rect x="494.86" y="752.33" width="11.14" height="79.67" fill="#ea580c" />
<line x1="324" y1="832.00" x2="506" y2="832.00" stroke="#9ca3af" stroke-width="1" />
<rect x="514" y="694" width="182" height="142" fill="none" stroke="#e5e7eb" stroke-width="1" />
<text x="605.00" y="706.00" font-size="9" font-weight="400" text-anchor="middle">LP orig. 83%</text>
<rect x="514.00" y="832.00" width="11.14" height="0.60" fill="#2563eb" />
<rect x="527.14" y="831.01" width="11.14" height="0.99" fill="#2563eb" />
<rect x="540.29" y="830.01" width="11.14" height="1.99" fill="#2563eb" />
<rect x="553.43" y="827.03" width="11.14" height="4.97" fill="#2563eb" />
<rect x="566.57" y="831.88" width="11.14" height="0.60" fill="#ea580c" />
<rect x="579.71" y="831.50" width="11.14" height="0.60" fill="#ea580c" />
<rect x="592.86" y="830.76" width="11.14" height="1.24" fill="#ea580c" />
<rect x="606.00" y="829.76" width="11.14" height="2.24" fill="#ea580c" />
<rect x="619.14" y="827.53" width="11.14" height="4.47" fill="#ea580c" />
<rect x="632.29" y="821.43" width="11.14" height="10.57" fill="#ea580c" />
<rect x="645.43" y="799.68" width="11.14" height="32.32" fill="#ea580c" />
<rect x="658.57" y="816.46" width="11.14" height="15.54" fill="#ea580c" />
<rect x="671.71" y="819.20" width="11.14" height="12.80" fill="#ea580c" />
<rect x="684.86" y="788.87" width="11.14" height="43.13" fill="#ea580c" />
<line x1="514" y1="832.00" x2="696" y2="832.00" stroke="#9ca3af" stroke-width="1" />
<rect x="704" y="694" width="182" height="142" fill="none" stroke="#e5e7eb" stroke-width="1" />
<text x="795.00" y="706.00" font-size="9" font-weight="400" text-anchor="middle">LP orig. 72%</text>
<rect x="704.00" y="788.50" width="11.14" height="43.50" fill="#2563eb" />
<rect x="717.14" y="824.05" width="11.14" height="7.95" fill="#2563eb" />
<rect x="730.29" y="820.07" width="11.14" height="11.93" fill="#2563eb" />
<rect x="743.43" y="806.52" width="11.14" height="25.48" fill="#2563eb" />
<rect x="756.57" y="831.88" width="11.14" height="0.60" fill="#ea580c" />
<rect x="769.71" y="831.01" width="11.14" height="0.99" fill="#ea580c" />
<rect x="782.86" y="826.90" width="11.14" height="5.10" fill="#ea580c" />
<rect x="796.00" y="815.97" width="11.14" height="16.03" fill="#ea580c" />
<line x1="704" y1="832.00" x2="886" y2="832.00" stroke="#9ca3af" stroke-width="1" />
<rect x="894" y="694" width="182" height="142" fill="none" stroke="#e5e7eb" stroke-width="1" />
<text x="985.00" y="706.00" font-size="9" font-weight="400" text-anchor="middle">LP orig. 35%</text>
<rect x="894.00" y="800.68" width="11.14" height="31.32" fill="#2563eb" />
<rect x="907.14" y="826.28" width="11.14" height="5.72" fill="#2563eb" />
<rect x="920.29" y="814.97" width="11.14" height="17.03" fill="#2563eb" />
<rect x="933.43" y="795.33" width="11.14" height="36.67" fill="#2563eb" />
<rect x="946.57" y="831.50" width="11.14" height="0.60" fill="#ea580c" />
<rect x="959.71" y="829.39" width="11.14" height="2.61" fill="#ea580c" />
<rect x="972.86" y="822.43" width="11.14" height="9.57" fill="#ea580c" />
<rect x="986.00" y="824.67" width="11.14" height="7.33" fill="#ea580c" />
<line x1="894" y1="832.00" x2="1076" y2="832.00" stroke="#9ca3af" stroke-width="1" />
<rect x="130" y="838" width="12" height="12" fill="#2563eb" />
<text x="148.00" y="848.00" font-size="11" font-weight="400" text-anchor="start">motion perturbation</text>
<rect x="300" y="838" width="12" height="12" fill="#ea580c" />
<text x="318.00" y="848.00" font-size="11" font-weight="400" text-anchor="start">appearance perturbation</text>
<text x="530.00" y="848.00" font-size="9" font-weight="400" text-anchor="start">bar order (left to right): shuffle, freeze-low/mid/high, color-low/mid/high, blur, rgb-quant-low/mid/high, solarization-low/mid/high</text>
</svg>
