<svg xmlns="http://www.w3.org/2000/svg" width="1080" height="870" viewBox="0 0 1080 870">
<rect width="100%" height="100%" fill="#ffffff" />
<style>text { font-family: Arial, Helvetica, sans-serif; fill: #111827; }</style>
<text x="540.00" y="26.00" font-size="16" font-weight="700" text-anchor="middle">Per-cell perturbation profile (correct-to-incorrect rate, all 8 artifacts)</text>
<text x="225.00" y="82.00" font-size="12" font-weight="700" text-anchor="middle">VideoMAE</text>
<text x="415.00" y="82.00" font-size="12" font-weight="700" text-anchor="middle">SlowFast R50 8x8</text>
<text x="605.00" y="82.00" font-size="12" font-weight="700" text-anchor="middle">DINOv2 frame-mean</text>
<text x="795.00" y="82.00" font-size="12" font-weight="700" text-anchor="middle">V-JEPA2</text>
<text x="985.00" y="82.00" font-size="12" font-weight="700" text-anchor="middle">DisMo</text>
<text x="120.00" y="165.00" font-size="12" font-weight="700" text-anchor="end">SSV2</text>
<rect x="134" y="94" width="182" height="142" fill="none" stroke="#e5e7eb" stroke-width="1" />
<text x="225.00" y="106.00" font-size="9" font-weight="400" text-anchor="middle">LP orig. 25%</text>
<rect x="134.00" y="166.08" width="21.00" height="65.92" fill="#2563eb" />
<rect x="157.00" y="218.34" width="21.00" height="13.66" fill="#2563eb" />
<rect x="180.00" y="201.86" width="21.00" height="30.14" fill="#2563eb" />
<rect x="203.00" y="181.04" width="21.00" height="50.96" fill="#2563eb" />
<rect x="226.00" y="231.13" width="21.00" height="0.87" fill="#ea580c" />
<rect x="249.00" y="229.40" width="21.00" height="2.60" fill="#ea580c" />
<rect x="272.00" y="223.33" width="21.00" height="8.67" fill="#ea580c" />
<rect x="295.00" y="204.68" width="21.00" height="27.32" fill="#ea580c" />
<line x1="134" y1="232.00" x2="316" y2="232.00" stroke="#9ca3af" stroke-width="1" />
<rect x="324" y="94" width="182" height="142" fill="none" stroke="#e5e7eb" stroke-width="1" />
<text x="415.00" y="106.00" font-size="9" font-weight="400" text-anchor="middle">LP orig. 34%</text>
<rect x="324.00" y="156.10" width="21.00" height="75.90" fill="#2563eb" />
<rect x="347.00" y="209.45" width="21.00" height="22.55" fill="#2563eb" />
<rect x="370.00" y="186.46" width="21.00" height="45.54" fill="#2563eb" />
<rect x="393.00" y="157.19" width="21.00" height="74.81" fill="#2563eb" />
<rect x="416.00" y="231.57" width="21.00" height="0.60" fill="#ea580c" />
<rect x="439.00" y="228.75" width="21.00" height="3.25" fill="#ea580c" />
<rect x="462.00" y="222.68" width="21.00" height="9.32" fill="#ea580c" />
<rect x="485.00" y="210.97" width="21.00" height="21.03" fill="#ea580c" />
<line x1="324" y1="232.00" x2="506" y2="232.00" stroke="#9ca3af" stroke-width="1" />
<rect x="514" y="94" width="182" height="142" fill="none" stroke="#e5e7eb" stroke-width="1" />
<text x="605.00" y="106.00" font-size="9" font-weight="400" text-anchor="middle">LP orig. 30%</text>
<rect x="514.00" y="232.00" width="21.00" height="0.60" fill="#2563eb" />
<rect x="537.00" y="229.83" width="21.00" height="2.17" fill="#2563eb" />
<rect x="560.00" y="222.68" width="21.00" height="9.32" fill="#2563eb" />
<rect x="583.00" y="215.74" width="21.00" height="16.26" fill="#2563eb" />
<rect x="606.00" y="232.00" width="21.00" height="0.60" fill="#ea580c" />
<rect x="629.00" y="231.35" width="21.00" height="0.65" fill="#ea580c" />
<rect x="652.00" y="228.31" width="21.00" height="3.69" fill="#ea580c" />
<rect x="675.00" y="219.86" width="21.00" height="12.14" fill="#ea580c" />
<line x1="514" y1="232.00" x2="696" y2="232.00" stroke="#9ca3af" stroke-width="1" />
<rect x="704" y="94" width="182" height="142" fill="none" stroke="#e5e7eb" stroke-width="1" />
<text x="795.00" y="165.00" font-size="10" font-weight="400" text-anchor="middle">no run</text>
<rect x="894" y="94" width="182" height="142" fill="none" stroke="#e5e7eb" stroke-width="1" />
<text x="985.00" y="165.00" font-size="10" font-weight="400" text-anchor="middle">no run</text>
<text x="120.00" y="315.00" font-size="12" font-weight="700" text-anchor="end">UCF101</text>
<rect x="134" y="244" width="182" height="142" fill="none" stroke="#e5e7eb" stroke-width="1" />
<text x="225.00" y="256.00" font-size="9" font-weight="400" text-anchor="middle">LP orig. 85%</text>
<rect x="134.00" y="290.92" width="21.00" height="91.08" fill="#2563eb" />
<rect x="157.00" y="375.06" width="21.00" height="6.94" fill="#2563eb" />
<rect x="180.00" y="359.88" width="21.00" height="22.12" fill="#2563eb" />
<rect x="203.00" y="328.87" width="21.00" height="53.13" fill="#2563eb" />
<rect x="226.00" y="380.92" width="21.00" height="1.08" fill="#ea580c" />
<rect x="249.00" y="376.58" width="21.00" height="5.42" fill="#ea580c" />
<rect x="272.00" y="359.45" width="21.00" height="22.55" fill="#ea580c" />
<rect x="295.00" y="280.08" width="21.00" height="101.92" fill="#ea580c" />
<line x1="134" y1="382.00" x2="316" y2="382.00" stroke="#9ca3af" stroke-width="1" />
<rect x="324" y="244" width="182" height="142" fill="none" stroke="#e5e7eb" stroke-width="1" />
<text x="415.00" y="256.00" font-size="9" font-weight="400" text-anchor="middle">LP orig. 99%</text>
<rect x="324.00" y="366.17" width="21.00" height="15.83" fill="#2563eb" />
<rect x="347.00" y="380.70" width="21.00" height="1.30" fill="#2563eb" />
<rect x="370.00" y="378.31" width="21.00" height="3.69" fill="#2563eb" />
<rect x="393.00" y="368.77" width="21.00" height="13.23" fill="#2563eb" />
<rect x="416.00" y="382.00" width="21.00" height="0.60" fill="#ea580c" />
<rect x="439.00" y="381.78" width="21.00" height="0.60" fill="#ea580c" />
<rect x="462.00" y="381.35" width="21.00" height="0.65" fill="#ea580c" />
<rect x="485.00" y="376.80" width="21.00" height="5.20" fill="#ea580c" />
<line x1="324" y1="382.00" x2="506" y2="382.00" stroke="#9ca3af" stroke-width="1" />
<rect x="514" y="244" width="182" height="142" fill="none" stroke="#e5e7eb" stroke-width="1" />
<text x="605.00" y="256.00" font-size="9" font-weight="400" text-anchor="middle">LP orig. 99%</text>
<rect x="514.00" y="382.00" width="21.00" height="0.60" fill="#2563eb" />
<rect x="537.00" y="381.57" width="21.00" height="0.60" fill="#2563eb" />
<rect x="560.00" y="381.78" width="21.00" height="0.60" fill="#2563eb" />
<rect x="583.00" y="380.92" width="21.00" height="1.08" fill="#2563eb" />
<rect x="606.00" y="382.00" width="21.00" height="0.60" fill="#ea580c" />
<rect x="629.00" y="382.00" width="21.00" height="0.60" fill="#ea580c" />
<rect x="652.00" y="381.35" width="21.00" height="0.65" fill="#ea580c" />
<rect x="675.00" y="380.70" width="21.00" height="1.30" fill="#ea580c" />
<line x1="514" y1="382.00" x2="696" y2="382.00" stroke="#9ca3af" stroke-width="1" />
<rect x="704" y="244" width="182" height="142" fill="none" stroke="#e5e7eb" stroke-width="1" />
<text x="795.00" y="315.00" font-size="10" font-weight="400" text-anchor="middle">no run</text>
<rect x="894" y="244" width="182" height="142" fill="none" stroke="#e5e7eb" stroke-width="1" />
<text x="985.00" y="315.00" font-size="10" font-weight="400" text-anchor="middle">no run</text>
<text x="120.00" y="465.00" font-size="12" font-weight="700" text-anchor="end">Diving48</text>
<rect x="134" y="394" width="182" height="142" fill="none" stroke="#e5e7eb" stroke-width="1" />
<text x="225.00" y="406.00" font-size="9" font-weight="400" text-anchor="middle">LP orig. 7%</text>
<rect x="134.00" y="513.70" width="21.00" height="18.30" fill="#2563eb" />
<rect x="157.00" y="527.26" width="21.00" height="4.74" fill="#2563eb" />
<rect x="180.00" y="522.51" width="21.00" height="9.49" fill="#2563eb" />
<rect x="203.00" y="511.67" width="21.00" height="20.33" fill="#2563eb" />
<rect x="226.00" y="532.00" width="21.00" height="0.60" fill="#ea580c" />
<rect x="249.00" y="529.97" width="21.00" height="2.03" fill="#ea580c" />
<rect x="272.00" y="528.61" width="21.00" height="3.39" fill="#ea580c" />
<rect x="295.00" y="524.55" width="21.00" height="7.45" fill="#ea580c" />
<line x1="134" y1="532.00" x2="316" y2="532.00" stroke="#9ca3af" stroke-width="1" />
<rect x="324" y="394" width="182" height="142" fill="none" stroke="#e5e7eb" stroke-width="1" />
<text x="415.00" y="406.00" font-size="9" font-weight="400" text-anchor="middle">LP orig. 9%</text>
<rect x="324.00" y="508.28" width="21.00" height="23.72" fill="#2563eb" />
<rect x="347.00" y="518.45" width="21.00" height="13.55" fill="#2563eb" />
<rect x="370.00" y="507.60" width="21.00" height="24.40" fill="#2563eb" />
<rect x="393.00" y="506.93" width="21.00" height="25.07" fill="#2563eb" />
<rect x="416.00" y="531.32" width="21.00" height="0.68" fill="#ea580c" />
<rect x="439.00" y="529.97" width="21.00" height="2.03" fill="#ea580c" />
<rect x="462.00" y="523.87" width="21.00" height="8.13" fill="#ea580c" />
<rect x="485.00" y="527.93" width="21.00" height="4.07" fill="#ea580c" />
<line x1="324" y1="532.00" x2="506" y2="532.00" stroke="#9ca3af" stroke-width="1" />
<rect x="514" y="394" width="182" height="142" fill="none" stroke="#e5e7eb" stroke-width="1" />
<text x="605.00" y="406.00" font-size="9" font-weight="400" text-anchor="middle">LP orig. 10%</text>
<rect x="514.00" y="532.00" width="21.00" height="0.60" fill="#2563eb" />
<rect x="537.00" y="528.61" width="21.00" height="3.39" fill="#2563eb" />
<rect x="560.00" y="521.84" width="21.00" height="10.16" fill="#2563eb" />
<rect x="583.00" y="513.70" width="21.00" height="18.30" fill="#2563eb" />
<rect x="606.00" y="531.32" width="21.00" height="0.68" fill="#ea580c" />
<rect x="629.00" y="530.64" width="21.00" height="1.36" fill="#ea580c" />
<rect x="652.00" y="527.93" width="21.00" height="4.07" fill="#ea580c" />
<rect x="675.00" y="528.61" width="21.00" height="3.39" fill="#ea580c" />
<line x1="514" y1="532.00" x2="696" y2="532.00" stroke="#9ca3af" stroke-width="1" />
<rect x="704" y="394" width="182" height="142" fill="none" stroke="#e5e7eb" stroke-width="1" />
<text x="795.00" y="406.00" font-size="9" font-weight="400" text-anchor="middle">LP orig. 9%</text>
<rect x="704.00" y="508.96" width="21.00" height="23.04" fill="#2563eb" />
<rect x="727.00" y="519.12" width="21.00" height="12.88" fill="#2563eb" />
<rect x="750.00" y="508.28" width="21.00" height="23.72" fill="#2563eb" />
<rect x="773.00" y="508.96" width="21.00" height="23.04" fill="#2563eb" />
<rect x="796.00" y="532.00" width="21.00" height="0.60" fill="#ea580c" />
<rect x="819.00" y="530.64" width="21.00" height="1.36" fill="#ea580c" />
<rect x="842.00" y="523.19" width="21.00" height="8.81" fill="#ea580c" />
<rect x="865.00" y="517.09" width="21.00" height="14.91" fill="#ea580c" />
<line x1="704" y1="532.00" x2="886" y2="532.00" stroke="#9ca3af" stroke-width="1" />
<rect x="894" y="394" width="182" height="142" fill="none" stroke="#e5e7eb" stroke-width="1" />
<text x="985.00" y="406.00" font-size="9" font-weight="400" text-anchor="middle">LP orig. 10%</text>
<rect x="894.00" y="504.89" width="21.00" height="27.11" fill="#2563eb" />
<rect x="917.00" y="529.29" width="21.00" height="2.71" fill="#2563eb" />
<rect x="940.00" y="515.74" width="21.00" height="16.26" fill="#2563eb" />
<rect x="963.00" y="504.89" width="21.00" height="27.11" fill="#2563eb" />
<rect x="986.00" y="530.64" width="21.00" height="1.36" fill="#ea580c" />
<rect x="1009.00" y="529.97" width="21.00" height="2.03" fill="#ea580c" />
<rect x="1032.00" y="526.58" width="21.00" height="5.42" fill="#ea580c" />
<rect x="1055.00" y="527.93" width="21.00" height="4.07" fill="#ea580c" />
<line x1="894" y1="532.00" x2="1076" y2="532.00" stroke="#9ca3af" stroke-width="1" />
<text x="120.00" y="615.00" font-size="12" font-weight="700" text-anchor="end">HMDB51</text>
<rect x="134" y="544" width="182" height="142" fill="none" stroke="#e5e7eb" stroke-width="1" />
<text x="225.00" y="556.00" font-size="9" font-weight="400" text-anchor="middle">LP orig. 36%</text>
<rect x="134.00" y="619.68" width="21.00" height="62.32" fill="#2563eb" />
<rect x="157.00" y="672.61" width="21.00" height="9.39" fill="#2563eb" />
<rect x="180.00" y="659.38" width="21.00" height="22.62" fill="#2563eb" />
<rect x="203.00" y="636.11" width="21.00" height="45.89" fill="#2563eb" />
<rect x="226.00" y="681.36" width="21.00" height="0.64" fill="#ea580c" />
<rect x="249.00" y="676.88" width="21.00" height="5.12" fill="#ea580c" />
<rect x="272.00" y="660.23" width="21.00" height="21.77" fill="#ea580c" />
<rect x="295.00" y="621.17" width="21.00" height="60.83" fill="#ea580c" />
<line x1="134" y1="682.00" x2="316" y2="682.00" stroke="#9ca3af" stroke-width="1" />
<rect x="324" y="544" width="182" height="142" fill="none" stroke="#e5e7eb" stroke-width="1" />
<text x="415.00" y="556.00" font-size="9" font-weight="400" text-anchor="middle">LP orig. 72%</text>
<rect x="324.00" y="613.27" width="21.00" height="68.73" fill="#2563eb" />
<rect x="347.00" y="662.79" width="21.00" height="19.21" fill="#2563eb" />
<rect x="370.00" y="640.38" width="21.00" height="41.62" fill="#2563eb" />
<rect x="393.00" y="600.26" width="21.00" height="81.74" fill="#2563eb" />
<rect x="416.00" y="681.15" width="21.00" height="0.85" fill="#ea580c" />
<rect x="439.00" y="679.44" width="21.00" height="2.56" fill="#ea580c" />
<rect x="462.00" y="674.32" width="21.00" height="7.68" fill="#ea580c" />
<rect x="485.00" y="654.89" width="21.00" height="27.11" fill="#ea580c" />
<line x1="324" y1="682.00" x2="506" y2="682.00" stroke="#9ca3af" stroke-width="1" />
<rect x="514" y="544" width="182" height="142" fill="none" stroke="#e5e7eb" stroke-width="1" />
<text x="605.00" y="556.00" font-size="9" font-weight="400" text-anchor="middle">LP orig. 63%</text>
<rect x="514.00" y="682.00" width="21.00" height="0.60" fill="#2563eb" />
<rect x="537.00" y="678.37" width="21.00" height="3.63" fill="#2563eb" />
<rect x="560.00" y="673.89" width="21.00" height="8.11" fill="#2563eb" />
<rect x="583.00" y="665.99" width="21.00" height="16.01" fill="#2563eb" />
<rect x="606.00" y="681.57" width="21.00" height="0.60" fill="#ea580c" />
<rect x="629.00" y="680.51" width="21.00" height="1.49" fill="#ea580c" />
<rect x="652.00" y="676.66" width="21.00" height="5.34" fill="#ea580c" />
<rect x="675.00" y="667.06" width="21.00" height="14.94" fill="#ea580c" />
<line x1="514" y1="682.00" x2="696" y2="682.00" stroke="#9ca3af" stroke-width="1" />
<rect x="704" y="544" width="182" height="142" fill="none" stroke="#e5e7eb" stroke-width="1" />
<text x="795.00" y="556.00" font-size="9" font-weight="400" text-anchor="middle">LP orig. 63%</text>
<rect x="704.00" y="606.45" width="21.00" height="75.55" fill="#2563eb" />
<rect x="727.00" y="661.51" width="21.00" height="20.49" fill="#2563eb" />
<rect x="750.00" y="643.58" width="21.00" height="38.42" fill="#2563eb" />
<rect x="773.00" y="613.27" width="21.00" height="68.73" fill="#2563eb" />
<rect x="796.00" y="681.57" width="21.00" height="0.60" fill="#ea580c" />
<rect x="819.00" y="678.80" width="21.00" height="3.20" fill="#ea580c" />
<rect x="842.00" y="663.00" width="21.00" height="19.00" fill="#ea580c" />
<rect x="865.00" y="620.96" width="21.00" height="61.04" fill="#ea580c" />
<line x1="704" y1="682.00" x2="886" y2="682.00" stroke="#9ca3af" stroke-width="1" />
<rect x="894" y="544" width="182" height="142" fill="none" stroke="#e5e7eb" stroke-width="1" />
<text x="985.00" y="556.00" font-size="9" font-weight="400" text-anchor="middle">LP orig. 47%</text>
<rect x="894.00" y="596.84" width="21.00" height="85.16" fill="#2563eb" />
<rect x="917.00" y="672.61" width="21.00" height="9.39" fill="#2563eb" />
<rect x="940.00" y="632.70" width="21.00" height="49.30" fill="#2563eb" />
<rect x="963.00" y="574.86" width="21.00" height="107.14" fill="#2563eb" />
<rect x="986.00" y="681.15" width="21.00" height="0.85" fill="#ea580c" />
<rect x="1009.00" y="677.73" width="21.00" height="4.27" fill="#ea580c" />
<rect x="1032.00" y="668.55" width="21.00" height="13.45" fill="#ea580c" />
<rect x="1055.00" y="659.59" width="21.00" height="22.41" fill="#ea580c" />
<line x1="894" y1="682.00" x2="1076" y2="682.00" stroke="#9ca3af" stroke-width="1" />
<text x="120.00" y="765.00" font-size="12" font-weight="700" text-anchor="end">Kinetics</text>
<rect x="134" y="694" width="182" height="142" fill="none" stroke="#e5e7eb" stroke-width="1" />
<text x="225.00" y="706.00" font-size="9" font-weight="400" text-anchor="middle">LP orig. 46%</text>
<rect x="134.00" y="769.76" width="21.00" height="62.24" fill="#2563eb" />
<rect x="157.00" y="828.10" width="21.00" height="3.90" fill="#2563eb" />
<rect x="180.00" y="817.04" width="21.00" height="14.96" fill="#2563eb" />
<rect x="203.00" y="804.89" width="21.00" height="27.11" fill="#2563eb" />
<rect x="226.00" y="831.35" width="21.00" height="0.65" fill="#ea580c" />
<rect x="249.00" y="828.10" width="21.00" height="3.90" fill="#ea580c" />
<rect x="272.00" y="817.69" width="21.00" height="14.31" fill="#ea580c" />
<rect x="295.00" y="813.35" width="21.00" height="18.65" fill="#ea580c" />
<line x1="134" y1="832.00" x2="316" y2="832.00" stroke="#9ca3af" stroke-width="1" />
<rect x="324" y="694" width="182" height="142" fill="none" stroke="#e5e7eb" stroke-width="1" />
<text x="415.00" y="706.00" font-size="9" font-weight="400" text-anchor="middle">LP orig. 92%</text>
<rect x="324.00" y="802.94" width="21.00" height="29.06" fill="#2563eb" />
<rect x="347.00" y="823.54" width="21.00" height="8.46" fill="#2563eb" />
<rect x="370.00" y="817.25" width="21.00" height="14.75" fill="#2563eb" />
<rect x="393.00" y="803.81" width="21.00" height="28.19" fill="#2563eb" />
<rect x="416.00" y="831.78" width="21.00" height="0.60" fill="#ea580c" />
<rect x="439.00" y="831.13" width="21.00" height="0.87" fill="#ea580c" />
<rect x="462.00" y="827.01" width="21.00" height="4.99" fill="#ea580c" />
<rect x="485.00" y="824.19" width="21.00" height="7.81" fill="#ea580c" />
<line x1="324" y1="832.00" x2="506" y2="832.00" stroke="#9ca3af" stroke-width="1" />
<rect x="514" y="694" width="182" height="142" fill="none" stroke="#e5e7eb" stroke-width="1" />
<text x="605.00" y="706.00" font-size="9" font-weight="400" text-anchor="middle">LP orig. 83%</text>
<rect x="514.00" y="832.00" width="21.00" height="0.60" fill="#2563eb" />
<rect x="537.00" y="830.27" width="21.00" height="1.73" fill="#2563eb" />
<rect x="560.00" y="828.53" width="21.00" height="3.47" fill="#2563eb" />
<rect x="583.00" y="823.33" width="21.00" height="8.67" fill="#2563eb" />
<rect x="606.00" y="831.78" width="21.00" height="0.60" fill="#ea580c" />
<rect x="629.00" y="831.13" width="21.00" height="0.87" fill="#ea580c" />
<rect x="652.00" y="829.83" width="21.00" height="2.17" fill="#ea580c" />
<rect x="675.00" y="828.10" width="21.00" height="3.90" fill="#ea580c" />
<line x1="514" y1="832.00" x2="696" y2="832.00" stroke="#9ca3af" stroke-width="1" />
<rect x="704" y="694" width="182" height="142" fill="none" stroke="#e5e7eb" stroke-width="1" />
<text x="795.00" y="706.00" font-size="9" font-weight="400" text-anchor="middle">LP orig. 72%</text>
<rect x="704.00" y="756.10" width="21.00" height="75.90" fill="#2563eb" />
<rect x="727.00" y="818.12" width="21.00" height="13.88" fill="#2563eb" />
<rect x="750.00" y="811.18" width="21.00" height="20.82" fill="#2563eb" />
<rect x="773.00" y="787.55" width="21.00" height="44.45" fill="#2563eb" />
<rect x="796.00" y="831.78" width="21.00" height="0.60" fill="#ea580c" />
<rect x="819.00" y="830.27" width="21.00" height="1.73" fill="#ea580c" />
<rect x="842.00" y="823.11" width="21.00" height="8.89" fill="#ea580c" />
<rect x="865.00" y="804.03" width="21.00" height="27.97" fill="#ea580c" />
<line x1="704" y1="832.00" x2="886" y2="832.00" stroke="#9ca3af" stroke-width="1" />
<rect x="894" y="694" width="182" height="142" fill="none" stroke="#e5e7eb" stroke-width="1" />
<text x="985.00" y="706.00" font-size="9" font-weight="400" text-anchor="middle">LP orig. 35%</text>
<rect x="894.00" y="777.35" width="21.00" height="54.65" fill="#2563eb" />
<rect x="917.00" y="822.03" width="21.00" height="9.97" fill="#2563eb" />
<rect x="940.00" y="802.29" width="21.00" height="29.71" fill="#2563eb" />
<rect x="963.00" y="768.03" width="21.00" height="63.97" fill="#2563eb" />
<rect x="986.00" y="831.13" width="21.00" height="0.87" fill="#ea580c" />
<rect x="1009.00" y="827.45" width="21.00" height="4.55" fill="#ea580c" />
<rect x="1032.00" y="815.30" width="21.00" height="16.70" fill="#ea580c" />
<rect x="1055.00" y="819.21" width="21.00" height="12.79" fill="#ea580c" />
<line x1="894" y1="832.00" x2="1076" y2="832.00" stroke="#9ca3af" stroke-width="1" />
<rect x="130" y="838" width="12" height="12" fill="#2563eb" />
<text x="148.00" y="848.00" font-size="11" font-weight="400" text-anchor="start">motion perturbation</text>
<rect x="300" y="838" width="12" height="12" fill="#ea580c" />
<text x="318.00" y="848.00" font-size="11" font-weight="400" text-anchor="start">appearance perturbation</text>
<text x="530.00" y="848.00" font-size="10" font-weight="400" text-anchor="start">bar order (left to right): shuffle, freeze-low/mid/high, color-low/mid/high, blur</text>
</svg>
