<svg xmlns="http://www.w3.org/2000/svg" width="1280" height="620" viewBox="0 0 1280 620">
<rect width="100%" height="100%" fill="#ffffff" />
<style>text { font-family: Arial, Helvetica, sans-serif; fill: #111827; }</style>
<text x="640.00" y="28.00" font-size="18" font-weight="700" text-anchor="middle">Fixed-mid perturbation: mean cosine distance</text>
<text x="18.00" y="257.50" font-size="12" font-weight="400" text-anchor="middle" transform="rotate(-90 18.00 257.50)">Mean cosine distance</text>
<line x1="90" y1="460" x2="1250" y2="460" stroke="#111827" stroke-width="1" />
<line x1="90" y1="55" x2="90" y2="460" stroke="#111827" stroke-width="1" />
<line x1="86" y1="460.00" x2="90" y2="460.00" stroke="#111827" />
<text x="82.00" y="464.00" font-size="10" font-weight="400" text-anchor="end">-0.045</text>
<line x1="86" y1="379.00" x2="90" y2="379.00" stroke="#111827" />
<text x="82.00" y="383.00" font-size="10" font-weight="400" text-anchor="end">0.048</text>
<line x1="90" y1="379.00" x2="1250" y2="379.00" stroke="#e5e7eb" stroke-width="1" />
<line x1="86" y1="298.00" x2="90" y2="298.00" stroke="#111827" />
<text x="82.00" y="302.00" font-size="10" font-weight="400" text-anchor="end">0.142</text>
<line x1="90" y1="298.00" x2="1250" y2="298.00" stroke="#e5e7eb" stroke-width="1" />
<line x1="86" y1="217.00" x2="90" y2="217.00" stroke="#111827" />
<text x="82.00" y="221.00" font-size="10" font-weight="400" text-anchor="end">0.235</text>
<line x1="90" y1="217.00" x2="1250" y2="217.00" stroke="#e5e7eb" stroke-width="1" />
<line x1="86" y1="136.00" x2="90" y2="136.00" stroke="#111827" />
<text x="82.00" y="140.00" font-size="10" font-weight="400" text-anchor="end">0.329</text>
<line x1="90" y1="136.00" x2="1250" y2="136.00" stroke="#e5e7eb" stroke-width="1" />
<line x1="86" y1="55.00" x2="90" y2="55.00" stroke="#111827" />
<text x="82.00" y="59.00" font-size="10" font-weight="400" text-anchor="end">0.423</text>
<line x1="90" y1="420.81" x2="1250" y2="420.81" stroke="#6b7280" stroke-dasharray="4 4" />
<rect x="108.64" y="400.88" width="20.71" height="19.93" fill="#2563eb" />
<rect x="133.50" y="415.20" width="20.71" height="5.60" fill="#ea580c" />
<text x="131.43" y="520.00" font-size="10" font-weight="400" text-anchor="end" transform="rotate(-40 131.43 520.00)">VideoMAE x SSV2</text>
<rect x="191.50" y="410.23" width="20.71" height="10.58" fill="#2563eb" />
<rect x="216.36" y="412.63" width="20.71" height="8.18" fill="#ea580c" />
<text x="214.29" y="520.00" font-size="10" font-weight="400" text-anchor="end" transform="rotate(-40 214.29 520.00)">VideoMAE x UCF101</text>
<rect x="274.36" y="351.39" width="20.71" height="69.41" fill="#2563eb" />
<rect x="299.21" y="419.88" width="20.71" height="0.92" fill="#ea580c" />
<text x="297.14" y="520.00" font-size="10" font-weight="400" text-anchor="end" transform="rotate(-40 297.14 520.00)">VideoMAE x Diving48</text>
<rect x="357.21" y="228.76" width="20.71" height="192.04" fill="#2563eb" />
<rect x="382.07" y="354.89" width="20.71" height="65.91" fill="#ea580c" />
<text x="380.00" y="520.00" font-size="10" font-weight="400" text-anchor="end" transform="rotate(-40 380.00 520.00)">SlowFast R50 8x8 x SSV2</text>
<rect x="440.07" y="281.11" width="20.71" height="139.70" fill="#2563eb" />
<rect x="464.93" y="368.15" width="20.71" height="52.65" fill="#ea580c" />
<text x="462.86" y="520.00" font-size="10" font-weight="400" text-anchor="end" transform="rotate(-40 462.86 520.00)">SlowFast R50 8x8 x UCF101</text>
<rect x="522.93" y="243.04" width="20.71" height="177.76" fill="#2563eb" />
<rect x="547.79" y="416.18" width="20.71" height="4.62" fill="#ea580c" />
<text x="545.71" y="520.00" font-size="10" font-weight="400" text-anchor="end" transform="rotate(-40 545.71 520.00)">SlowFast R50 8x8 x Diving48</text>
<rect x="605.79" y="420.81" width="20.71" height="0.00" fill="#2563eb" />
<rect x="630.64" y="378.99" width="20.71" height="41.81" fill="#ea580c" />
<text x="628.57" y="520.00" font-size="10" font-weight="400" text-anchor="end" transform="rotate(-40 628.57 520.00)">DINOv2 frame-mean x SSV2</text>
<rect x="688.64" y="420.81" width="20.71" height="0.00" fill="#2563eb" />
<rect x="713.50" y="386.72" width="20.71" height="34.09" fill="#ea580c" />
<text x="711.43" y="520.00" font-size="10" font-weight="400" text-anchor="end" transform="rotate(-40 711.43 520.00)">DINOv2 frame-mean x UCF101</text>
<rect x="771.50" y="420.81" width="20.71" height="0.00" fill="#2563eb" />
<rect x="796.36" y="417.92" width="20.71" height="2.88" fill="#ea580c" />
<text x="794.29" y="520.00" font-size="10" font-weight="400" text-anchor="end" transform="rotate(-40 794.29 520.00)">DINOv2 frame-mean x Diving48</text>
<rect x="854.36" y="342.32" width="20.71" height="78.48" fill="#2563eb" />
<rect x="879.21" y="293.52" width="20.71" height="127.29" fill="#ea580c" />
<text x="877.14" y="520.00" font-size="10" font-weight="400" text-anchor="end" transform="rotate(-40 877.14 520.00)">V-JEPA2 x HMDB51</text>
<rect x="937.21" y="408.44" width="20.71" height="12.36" fill="#2563eb" />
<rect x="962.07" y="412.92" width="20.71" height="7.88" fill="#ea580c" />
<text x="960.00" y="520.00" font-size="10" font-weight="400" text-anchor="end" transform="rotate(-40 960.00 520.00)">VideoMAE x HMDB51</text>
<rect x="1020.07" y="405.16" width="20.71" height="15.65" fill="#2563eb" />
<rect x="1044.93" y="418.53" width="20.71" height="2.28" fill="#ea580c" />
<text x="1042.86" y="520.00" font-size="10" font-weight="400" text-anchor="end" transform="rotate(-40 1042.86 520.00)">VideoMAE x Kinetics</text>
<rect x="1102.93" y="94.19" width="20.71" height="326.61" fill="#2563eb" />
<rect x="1127.79" y="413.04" width="20.71" height="7.77" fill="#ea580c" />
<text x="1125.71" y="520.00" font-size="10" font-weight="400" text-anchor="end" transform="rotate(-40 1125.71 520.00)">DisMo x Kinetics</text>
<rect x="1185.79" y="346.85" width="20.71" height="73.96" fill="#2563eb" />
<rect x="1210.64" y="335.23" width="20.71" height="85.58" fill="#ea580c" />
<text x="1208.57" y="520.00" font-size="10" font-weight="400" text-anchor="end" transform="rotate(-40 1208.57 520.00)">V-JEPA2 x Kinetics</text>
<rect x="102" y="38" width="12" height="12" fill="#2563eb" />
<text x="120.00" y="48.00" font-size="12" font-weight="400" text-anchor="start">temporal-shuffle-mid</text>
<rect x="102" y="58" width="12" height="12" fill="#ea580c" />
<text x="120.00" y="68.00" font-size="12" font-weight="400" text-anchor="start">spatial-blur-mid</text>
</svg>
