<svg xmlns="http://www.w3.org/2000/svg" width="900" height="820" viewBox="0 0 900 820">
<rect width="100%" height="100%" fill="#ffffff" />
<style>text { font-family: Arial, Helvetica, sans-serif; fill: #111827; }</style>
<text x="450.00" y="28.00" font-size="18" font-weight="700" text-anchor="middle">Motion vs appearance flip rate (correct-to-incorrect)</text>
<line x1="90" y1="730" x2="640" y2="730" stroke="#111827" stroke-width="1" />
<line x1="90" y1="55" x2="90" y2="730" stroke="#111827" stroke-width="1" />
<line x1="90.00" y1="730.00" x2="640.00" y2="55.00" stroke="#9ca3af" stroke-dasharray="5 5" />
<text x="365.00" y="775.00" font-size="12" font-weight="400" text-anchor="middle">Appearance flip rate (spatial-blur-mid)</text>
<text x="28.00" y="392.50" font-size="12" font-weight="400" text-anchor="middle" transform="rotate(-90 28.00 392.50)">Motion flip rate (temporal-shuffle-mid)</text>
<text x="630.00" y="69.00" font-size="11" font-weight="600" text-anchor="end">motion-biased side</text>
<text x="100.00" y="722.00" font-size="11" font-weight="600" text-anchor="start">appearance-biased side</text>
<text x="90.00" y="748.00" font-size="10" font-weight="400" text-anchor="middle">0.00</text>
<text x="82.00" y="734.00" font-size="10" font-weight="400" text-anchor="end">0.00</text>
<text x="200.00" y="748.00" font-size="10" font-weight="400" text-anchor="middle">0.07</text>
<text x="82.00" y="599.00" font-size="10" font-weight="400" text-anchor="end">0.07</text>
<text x="310.00" y="748.00" font-size="10" font-weight="400" text-anchor="middle">0.14</text>
<text x="82.00" y="464.00" font-size="10" font-weight="400" text-anchor="end">0.14</text>
<text x="420.00" y="748.00" font-size="10" font-weight="400" text-anchor="middle">0.21</text>
<text x="82.00" y="329.00" font-size="10" font-weight="400" text-anchor="end">0.21</text>
<text x="530.00" y="748.00" font-size="10" font-weight="400" text-anchor="middle">0.28</text>
<text x="82.00" y="194.00" font-size="10" font-weight="400" text-anchor="end">0.28</text>
<text x="640.00" y="748.00" font-size="10" font-weight="400" text-anchor="middle">0.34</text>
<text x="82.00" y="59.00" font-size="10" font-weight="400" text-anchor="end">0.34</text>
<circle cx="222.98" cy="343.54" r="7" fill="#3b82f6" stroke="#111827" stroke-width="0.8" />
<circle cx="590.00" cy="181.64" r="7" fill="#0f766e" stroke="#111827" stroke-width="0.8" />
<circle cx="133.22" cy="615.76" r="7" fill="#9333ea" stroke="#111827" stroke-width="0.8" />
<circle cx="193.19" cy="273.04" r="7" fill="#dc2626" stroke="#111827" stroke-width="0.8" />
<circle cx="115.53" cy="634.69" r="7" fill="#d97706" stroke="#111827" stroke-width="0.8" />
<circle cx="106.62" cy="591.28" r="7" fill="#0891b2" stroke="#111827" stroke-width="0.8" />
<circle cx="149.57" cy="730.00" r="7" fill="#7c3aed" stroke="#111827" stroke-width="0.8" />
<circle cx="96.38" cy="730.00" r="7" fill="#16a34a" stroke="#111827" stroke-width="0.8" />
<circle cx="106.62" cy="730.00" r="7" fill="#be123c" stroke="#111827" stroke-width="0.8" />
<circle cx="389.46" cy="275.09" r="7" fill="#334155" stroke="#111827" stroke-width="0.8" />
<circle cx="388.42" cy="354.77" r="7" fill="#1d4ed8" stroke="#111827" stroke-width="0.8" />
<circle cx="181.49" cy="355.29" r="7" fill="#65a30d" stroke="#111827" stroke-width="0.8" />
<circle cx="152.77" cy="400.99" r="7" fill="#db2777" stroke="#111827" stroke-width="0.8" />
<circle cx="227.23" cy="273.04" r="7" fill="#b45309" stroke="#111827" stroke-width="0.8" />
<circle cx="665" cy="65" r="5.5" fill="#3b82f6" stroke="#111827" stroke-width="0.8" />
<text x="677.00" y="69.00" font-size="10" font-weight="400" text-anchor="start">VideoMAE x SSV2</text>
<circle cx="665" cy="85" r="5.5" fill="#0f766e" stroke="#111827" stroke-width="0.8" />
<text x="677.00" y="89.00" font-size="10" font-weight="400" text-anchor="start">VideoMAE x UCF101</text>
<circle cx="665" cy="105" r="5.5" fill="#9333ea" stroke="#111827" stroke-width="0.8" />
<text x="677.00" y="109.00" font-size="10" font-weight="400" text-anchor="start">VideoMAE x Diving48</text>
<circle cx="665" cy="125" r="5.5" fill="#dc2626" stroke="#111827" stroke-width="0.8" />
<text x="677.00" y="129.00" font-size="10" font-weight="400" text-anchor="start">SlowFast R50 8x8 x SSV2</text>
<circle cx="665" cy="145" r="5.5" fill="#d97706" stroke="#111827" stroke-width="0.8" />
<text x="677.00" y="149.00" font-size="10" font-weight="400" text-anchor="start">SlowFast R50 8x8 x UCF101</text>
<circle cx="665" cy="165" r="5.5" fill="#0891b2" stroke="#111827" stroke-width="0.8" />
<text x="677.00" y="169.00" font-size="10" font-weight="400" text-anchor="start">SlowFast R50 8x8 x Diving48</text>
<circle cx="665" cy="185" r="5.5" fill="#7c3aed" stroke="#111827" stroke-width="0.8" />
<text x="677.00" y="189.00" font-size="10" font-weight="400" text-anchor="start">DINOv2 frame-mean x SSV2</text>
<circle cx="665" cy="205" r="5.5" fill="#16a34a" stroke="#111827" stroke-width="0.8" />
<text x="677.00" y="209.00" font-size="10" font-weight="400" text-anchor="start">DINOv2 frame-mean x UCF101</text>
<circle cx="665" cy="225" r="5.5" fill="#be123c" stroke="#111827" stroke-width="0.8" />
<text x="677.00" y="229.00" font-size="10" font-weight="400" text-anchor="start">DINOv2 frame-mean x Diving48</text>
<circle cx="665" cy="245" r="5.5" fill="#334155" stroke="#111827" stroke-width="0.8" />
<text x="677.00" y="249.00" font-size="10" font-weight="400" text-anchor="start">V-JEPA2 x HMDB51</text>
<circle cx="665" cy="265" r="5.5" fill="#1d4ed8" stroke="#111827" stroke-width="0.8" />
<text x="677.00" y="269.00" font-size="10" font-weight="400" text-anchor="start">VideoMAE x HMDB51</text>
<circle cx="665" cy="285" r="5.5" fill="#65a30d" stroke="#111827" stroke-width="0.8" />
<text x="677.00" y="289.00" font-size="10" font-weight="400" text-anchor="start">VideoMAE x Kinetics</text>
<circle cx="665" cy="305" r="5.5" fill="#db2777" stroke="#111827" stroke-width="0.8" />
<text x="677.00" y="309.00" font-size="10" font-weight="400" text-anchor="start">DisMo x Kinetics</text>
<circle cx="665" cy="325" r="5.5" fill="#b45309" stroke="#111827" stroke-width="0.8" />
<text x="677.00" y="329.00" font-size="10" font-weight="400" text-anchor="start">V-JEPA2 x Kinetics</text>
</svg>
