<svg xmlns="http://www.w3.org/2000/svg" width="900" height="820" viewBox="0 0 900 820">
<rect width="100%" height="100%" fill="#ffffff" />
<style>text { font-family: Arial, Helvetica, sans-serif; fill: #111827; }</style>
<text x="450.00" y="28.00" font-size="18" font-weight="700" text-anchor="middle">Motion vs appearance flip rate (correct-to-incorrect)</text>
<line x1="90" y1="730" x2="640" y2="730" stroke="#111827" stroke-width="1" />
<line x1="90" y1="55" x2="90" y2="730" stroke="#111827" stroke-width="1" />
<line x1="90.00" y1="730.00" x2="640.00" y2="55.00" stroke="#9ca3af" stroke-dasharray="5 5" />
<text x="365.00" y="775.00" font-size="12" font-weight="400" text-anchor="middle">Appearance flip rate (spatial-blur-mid)</text>
<text x="28.00" y="392.50" font-size="12" font-weight="400" text-anchor="middle" transform="rotate(-90 28.00 392.50)">Motion flip rate (temporal-shuffle-mid)</text>
<text x="630.00" y="69.00" font-size="11" font-weight="600" text-anchor="end">motion-biased side</text>
<text x="100.00" y="722.00" font-size="11" font-weight="600" text-anchor="start">appearance-biased side</text>
<text x="90.00" y="748.00" font-size="10" font-weight="400" text-anchor="middle">0.00</text>
<text x="82.00" y="734.00" font-size="10" font-weight="400" text-anchor="end">0.00</text>
<text x="200.00" y="748.00" font-size="10" font-weight="400" text-anchor="middle">0.09</text>
<text x="82.00" y="599.00" font-size="10" font-weight="400" text-anchor="end">0.09</text>
<text x="310.00" y="748.00" font-size="10" font-weight="400" text-anchor="middle">0.18</text>
<text x="82.00" y="464.00" font-size="10" font-weight="400" text-anchor="end">0.18</text>
<text x="420.00" y="748.00" font-size="10" font-weight="400" text-anchor="middle">0.26</text>
<text x="82.00" y="329.00" font-size="10" font-weight="400" text-anchor="end">0.26</text>
<text x="530.00" y="748.00" font-size="10" font-weight="400" text-anchor="middle">0.35</text>
<text x="82.00" y="194.00" font-size="10" font-weight="400" text-anchor="end">0.35</text>
<text x="640.00" y="748.00" font-size="10" font-weight="400" text-anchor="middle">0.44</text>
<text x="82.00" y="59.00" font-size="10" font-weight="400" text-anchor="end">0.44</text>
<circle cx="195.53" cy="417.53" r="7" fill="#3b82f6" stroke="#111827" stroke-width="0.8" />
<circle cx="483.63" cy="298.30" r="7" fill="#0f766e" stroke="#111827" stroke-width="0.8" />
<circle cx="118.79" cy="643.27" r="7" fill="#9333ea" stroke="#111827" stroke-width="0.8" />
<circle cx="171.24" cy="370.25" r="7" fill="#dc2626" stroke="#111827" stroke-width="0.8" />
<circle cx="110.10" cy="654.97" r="7" fill="#d97706" stroke="#111827" stroke-width="0.8" />
<circle cx="105.70" cy="617.58" r="7" fill="#0891b2" stroke="#111827" stroke-width="0.8" />
<circle cx="136.90" cy="730.00" r="7" fill="#7c3aed" stroke="#111827" stroke-width="0.8" />
<circle cx="95.03" cy="730.00" r="7" fill="#16a34a" stroke="#111827" stroke-width="0.8" />
<circle cx="103.09" cy="730.00" r="7" fill="#be123c" stroke="#111827" stroke-width="0.8" />
<circle cx="325.76" cy="371.87" r="7" fill="#334155" stroke="#111827" stroke-width="0.8" />
<circle cx="321.64" cy="434.59" r="7" fill="#1d4ed8" stroke="#111827" stroke-width="0.8" />
<circle cx="192.22" cy="404.24" r="7" fill="#991b1b" stroke="#111827" stroke-width="0.8" />
<circle cx="172.91" cy="426.78" r="7" fill="#65a30d" stroke="#111827" stroke-width="0.8" />
<circle cx="140.25" cy="474.06" r="7" fill="#db2777" stroke="#111827" stroke-width="0.8" />
<circle cx="202.23" cy="361.00" r="7" fill="#b45309" stroke="#111827" stroke-width="0.8" />
<circle cx="147.70" cy="730.00" r="7" fill="#a855f7" stroke="#111827" stroke-width="0.8" />
<circle cx="105.08" cy="730.00" r="7" fill="#059669" stroke="#111827" stroke-width="0.8" />
<circle cx="120.15" cy="592.27" r="7" fill="#ea580c" stroke="#111827" stroke-width="0.8" />
<circle cx="105.70" cy="601.52" r="7" fill="#c026d3" stroke="#111827" stroke-width="0.8" />
<circle cx="147.58" cy="620.79" r="7" fill="#475569" stroke="#111827" stroke-width="0.8" />
<circle cx="176.55" cy="326.34" r="7" fill="#9f1239" stroke="#111827" stroke-width="0.8" />
<circle cx="145.28" cy="291.10" r="7" fill="#f472b6" stroke="#111827" stroke-width="0.8" />
<circle cx="297.71" cy="610.77" r="7" fill="#64748b" stroke="#111827" stroke-width="0.8" />
<circle cx="224.84" cy="306.52" r="7" fill="#0ea5e9" stroke="#111827" stroke-width="0.8" />
<circle cx="189.66" cy="116.36" r="7" fill="#78350f" stroke="#111827" stroke-width="0.8" />
<circle cx="665" cy="65" r="5.5" fill="#3b82f6" stroke="#111827" stroke-width="0.8" />
<text x="677.00" y="69.00" font-size="10" font-weight="400" text-anchor="start">VideoMAE x SSV2</text>
<circle cx="665" cy="85" r="5.5" fill="#0f766e" stroke="#111827" stroke-width="0.8" />
<text x="677.00" y="89.00" font-size="10" font-weight="400" text-anchor="start">VideoMAE x UCF101</text>
<circle cx="665" cy="105" r="5.5" fill="#9333ea" stroke="#111827" stroke-width="0.8" />
<text x="677.00" y="109.00" font-size="10" font-weight="400" text-anchor="start">VideoMAE x Diving48</text>
<circle cx="665" cy="125" r="5.5" fill="#dc2626" stroke="#111827" stroke-width="0.8" />
<text x="677.00" y="129.00" font-size="10" font-weight="400" text-anchor="start">SlowFast R50 8x8 x SSV2</text>
<circle cx="665" cy="145" r="5.5" fill="#d97706" stroke="#111827" stroke-width="0.8" />
<text x="677.00" y="149.00" font-size="10" font-weight="400" text-anchor="start">SlowFast R50 8x8 x UCF101</text>
<circle cx="665" cy="165" r="5.5" fill="#0891b2" stroke="#111827" stroke-width="0.8" />
<text x="677.00" y="169.00" font-size="10" font-weight="400" text-anchor="start">SlowFast R50 8x8 x Diving48</text>
<circle cx="665" cy="185" r="5.5" fill="#7c3aed" stroke="#111827" stroke-width="0.8" />
<text x="677.00" y="189.00" font-size="10" font-weight="400" text-anchor="start">DINOv2 frame-mean x SSV2</text>
<circle cx="665" cy="205" r="5.5" fill="#16a34a" stroke="#111827" stroke-width="0.8" />
<text x="677.00" y="209.00" font-size="10" font-weight="400" text-anchor="start">DINOv2 frame-mean x UCF101</text>
<circle cx="665" cy="225" r="5.5" fill="#be123c" stroke="#111827" stroke-width="0.8" />
<text x="677.00" y="229.00" font-size="10" font-weight="400" text-anchor="start">DINOv2 frame-mean x Diving48</text>
<circle cx="665" cy="245" r="5.5" fill="#334155" stroke="#111827" stroke-width="0.8" />
<text x="677.00" y="249.00" font-size="10" font-weight="400" text-anchor="start">V-JEPA2 x HMDB51</text>
<circle cx="665" cy="265" r="5.5" fill="#1d4ed8" stroke="#111827" stroke-width="0.8" />
<text x="677.00" y="269.00" font-size="10" font-weight="400" text-anchor="start">VideoMAE x HMDB51</text>
<circle cx="665" cy="285" r="5.5" fill="#991b1b" stroke="#111827" stroke-width="0.8" />
<text x="677.00" y="289.00" font-size="10" font-weight="400" text-anchor="start">SlowFast R50 8x8 x HMDB51</text>
<circle cx="665" cy="305" r="5.5" fill="#65a30d" stroke="#111827" stroke-width="0.8" />
<text x="677.00" y="309.00" font-size="10" font-weight="400" text-anchor="start">VideoMAE x Kinetics</text>
<circle cx="665" cy="325" r="5.5" fill="#db2777" stroke="#111827" stroke-width="0.8" />
<text x="677.00" y="329.00" font-size="10" font-weight="400" text-anchor="start">DisMo x Kinetics</text>
<circle cx="665" cy="345" r="5.5" fill="#b45309" stroke="#111827" stroke-width="0.8" />
<text x="677.00" y="349.00" font-size="10" font-weight="400" text-anchor="start">V-JEPA2 x Kinetics</text>
<circle cx="665" cy="365" r="5.5" fill="#a855f7" stroke="#111827" stroke-width="0.8" />
<text x="677.00" y="369.00" font-size="10" font-weight="400" text-anchor="start">DINOv2 frame-mean x HMDB51</text>
<circle cx="665" cy="385" r="5.5" fill="#059669" stroke="#111827" stroke-width="0.8" />
<text x="677.00" y="389.00" font-size="10" font-weight="400" text-anchor="start">DINOv2 frame-mean x Kinetics</text>
<circle cx="665" cy="405" r="5.5" fill="#ea580c" stroke="#111827" stroke-width="0.8" />
<text x="677.00" y="409.00" font-size="10" font-weight="400" text-anchor="start">SlowFast R50 8x8 x Kinetics</text>
<circle cx="665" cy="425" r="5.5" fill="#c026d3" stroke="#111827" stroke-width="0.8" />
<text x="677.00" y="429.00" font-size="10" font-weight="400" text-anchor="start">DisMo x Diving48</text>
<circle cx="665" cy="445" r="5.5" fill="#475569" stroke="#111827" stroke-width="0.8" />
<text x="677.00" y="449.00" font-size="10" font-weight="400" text-anchor="start">V-JEPA2 x Diving48</text>
<circle cx="665" cy="465" r="5.5" fill="#9f1239" stroke="#111827" stroke-width="0.8" />
<text x="677.00" y="469.00" font-size="10" font-weight="400" text-anchor="start">DisMo x HMDB51</text>
<circle cx="665" cy="485" r="5.5" fill="#f472b6" stroke="#111827" stroke-width="0.8" />
<text x="677.00" y="489.00" font-size="10" font-weight="400" text-anchor="start">DisMo x SSV2</text>
<circle cx="665" cy="505" r="5.5" fill="#64748b" stroke="#111827" stroke-width="0.8" />
<text x="677.00" y="509.00" font-size="10" font-weight="400" text-anchor="start">V-JEPA2 x UCF101</text>
<circle cx="665" cy="525" r="5.5" fill="#0ea5e9" stroke="#111827" stroke-width="0.8" />
<text x="677.00" y="529.00" font-size="10" font-weight="400" text-anchor="start">V-JEPA2 x SSV2</text>
<circle cx="665" cy="545" r="5.5" fill="#78350f" stroke="#111827" stroke-width="0.8" />
<text x="677.00" y="549.00" font-size="10" font-weight="400" text-anchor="start">DisMo x UCF101</text>
</svg>
