<svg xmlns="http://www.w3.org/2000/svg" width="1280" height="620" viewBox="0 0 1280 620">
<rect width="100%" height="100%" fill="#ffffff" />
<style>text { font-family: Arial, Helvetica, sans-serif; fill: #111827; }</style>
<text x="640.00" y="28.00" font-size="18" font-weight="700" text-anchor="middle">Fixed-mid perturbation: mean cosine distance</text>
<text x="18.00" y="257.50" font-size="12" font-weight="400" text-anchor="middle" transform="rotate(-90 18.00 257.50)">Mean cosine distance</text>
<line x1="90" y1="460" x2="1250" y2="460" stroke="#111827" stroke-width="1" />
<line x1="90" y1="55" x2="90" y2="460" stroke="#111827" stroke-width="1" />
<line x1="86" y1="460.00" x2="90" y2="460.00" stroke="#111827" />
<text x="82.00" y="464.00" font-size="10" font-weight="400" text-anchor="end">-0.045</text>
<line x1="86" y1="379.00" x2="90" y2="379.00" stroke="#111827" />
<text x="82.00" y="383.00" font-size="10" font-weight="400" text-anchor="end">0.048</text>
<line x1="90" y1="379.00" x2="1250" y2="379.00" stroke="#e5e7eb" stroke-width="1" />
<line x1="86" y1="298.00" x2="90" y2="298.00" stroke="#111827" />
<text x="82.00" y="302.00" font-size="10" font-weight="400" text-anchor="end">0.142</text>
<line x1="90" y1="298.00" x2="1250" y2="298.00" stroke="#e5e7eb" stroke-width="1" />
<line x1="86" y1="217.00" x2="90" y2="217.00" stroke="#111827" />
<text x="82.00" y="221.00" font-size="10" font-weight="400" text-anchor="end">0.235</text>
<line x1="90" y1="217.00" x2="1250" y2="217.00" stroke="#e5e7eb" stroke-width="1" />
<line x1="86" y1="136.00" x2="90" y2="136.00" stroke="#111827" />
<text x="82.00" y="140.00" font-size="10" font-weight="400" text-anchor="end">0.329</text>
<line x1="90" y1="136.00" x2="1250" y2="136.00" stroke="#e5e7eb" stroke-width="1" />
<line x1="86" y1="55.00" x2="90" y2="55.00" stroke="#111827" />
<text x="82.00" y="59.00" font-size="10" font-weight="400" text-anchor="end">0.423</text>
<line x1="90" y1="420.81" x2="1250" y2="420.81" stroke="#6b7280" stroke-dasharray="4 4" />
<rect x="107.40" y="400.88" width="19.33" height="19.93" fill="#2563eb" />
<rect x="130.60" y="415.20" width="19.33" height="5.60" fill="#ea580c" />
<text x="128.67" y="520.00" font-size="10" font-weight="400" text-anchor="end" transform="rotate(-40 128.67 520.00)">VideoMAE x SSV2</text>
<rect x="184.73" y="410.23" width="19.33" height="10.58" fill="#2563eb" />
<rect x="207.93" y="412.63" width="19.33" height="8.18" fill="#ea580c" />
<text x="206.00" y="520.00" font-size="10" font-weight="400" text-anchor="end" transform="rotate(-40 206.00 520.00)">VideoMAE x UCF101</text>
<rect x="262.07" y="351.39" width="19.33" height="69.41" fill="#2563eb" />
<rect x="285.27" y="419.88" width="19.33" height="0.92" fill="#ea580c" />
<text x="283.33" y="520.00" font-size="10" font-weight="400" text-anchor="end" transform="rotate(-40 283.33 520.00)">VideoMAE x Diving48</text>
<rect x="339.40" y="228.76" width="19.33" height="192.04" fill="#2563eb" />
<rect x="362.60" y="354.89" width="19.33" height="65.91" fill="#ea580c" />
<text x="360.67" y="520.00" font-size="10" font-weight="400" text-anchor="end" transform="rotate(-40 360.67 520.00)">SlowFast R50 8x8 x SSV2</text>
<rect x="416.73" y="281.11" width="19.33" height="139.70" fill="#2563eb" />
<rect x="439.93" y="368.15" width="19.33" height="52.65" fill="#ea580c" />
<text x="438.00" y="520.00" font-size="10" font-weight="400" text-anchor="end" transform="rotate(-40 438.00 520.00)">SlowFast R50 8x8 x UCF101</text>
<rect x="494.07" y="243.04" width="19.33" height="177.76" fill="#2563eb" />
<rect x="517.27" y="416.18" width="19.33" height="4.62" fill="#ea580c" />
<text x="515.33" y="520.00" font-size="10" font-weight="400" text-anchor="end" transform="rotate(-40 515.33 520.00)">SlowFast R50 8x8 x Diving48</text>
<rect x="571.40" y="420.81" width="19.33" height="0.00" fill="#2563eb" />
<rect x="594.60" y="378.99" width="19.33" height="41.81" fill="#ea580c" />
<text x="592.67" y="520.00" font-size="10" font-weight="400" text-anchor="end" transform="rotate(-40 592.67 520.00)">DINOv2 frame-mean x SSV2</text>
<rect x="648.73" y="420.81" width="19.33" height="0.00" fill="#2563eb" />
<rect x="671.93" y="386.72" width="19.33" height="34.09" fill="#ea580c" />
<text x="670.00" y="520.00" font-size="10" font-weight="400" text-anchor="end" transform="rotate(-40 670.00 520.00)">DINOv2 frame-mean x UCF101</text>
<rect x="726.07" y="420.81" width="19.33" height="0.00" fill="#2563eb" />
<rect x="749.27" y="417.92" width="19.33" height="2.88" fill="#ea580c" />
<text x="747.33" y="520.00" font-size="10" font-weight="400" text-anchor="end" transform="rotate(-40 747.33 520.00)">DINOv2 frame-mean x Diving48</text>
<rect x="803.40" y="342.32" width="19.33" height="78.48" fill="#2563eb" />
<rect x="826.60" y="293.52" width="19.33" height="127.29" fill="#ea580c" />
<text x="824.67" y="520.00" font-size="10" font-weight="400" text-anchor="end" transform="rotate(-40 824.67 520.00)">V-JEPA2 x HMDB51</text>
<rect x="880.73" y="408.44" width="19.33" height="12.36" fill="#2563eb" />
<rect x="903.93" y="412.92" width="19.33" height="7.88" fill="#ea580c" />
<text x="902.00" y="520.00" font-size="10" font-weight="400" text-anchor="end" transform="rotate(-40 902.00 520.00)">VideoMAE x HMDB51</text>
<rect x="958.07" y="212.41" width="19.33" height="208.39" fill="#2563eb" />
<rect x="981.27" y="363.12" width="19.33" height="57.69" fill="#ea580c" />
<text x="979.33" y="520.00" font-size="10" font-weight="400" text-anchor="end" transform="rotate(-40 979.33 520.00)">SlowFast R50 8x8 x HMDB51</text>
<rect x="1035.40" y="405.16" width="19.33" height="15.65" fill="#2563eb" />
<rect x="1058.60" y="418.53" width="19.33" height="2.28" fill="#ea580c" />
<text x="1056.67" y="520.00" font-size="10" font-weight="400" text-anchor="end" transform="rotate(-40 1056.67 520.00)">VideoMAE x Kinetics</text>
<rect x="1112.73" y="94.19" width="19.33" height="326.61" fill="#2563eb" />
<rect x="1135.93" y="413.04" width="19.33" height="7.77" fill="#ea580c" />
<text x="1134.00" y="520.00" font-size="10" font-weight="400" text-anchor="end" transform="rotate(-40 1134.00 520.00)">DisMo x Kinetics</text>
<rect x="1190.07" y="346.85" width="19.33" height="73.96" fill="#2563eb" />
<rect x="1213.27" y="335.23" width="19.33" height="85.58" fill="#ea580c" />
<text x="1211.33" y="520.00" font-size="10" font-weight="400" text-anchor="end" transform="rotate(-40 1211.33 520.00)">V-JEPA2 x Kinetics</text>
<rect x="102" y="38" width="12" height="12" fill="#2563eb" />
<text x="120.00" y="48.00" font-size="12" font-weight="400" text-anchor="start">temporal-shuffle-mid</text>
<rect x="102" y="58" width="12" height="12" fill="#ea580c" />
<text x="120.00" y="68.00" font-size="12" font-weight="400" text-anchor="start">spatial-blur-mid</text>
</svg>
