<svg xmlns="http://www.w3.org/2000/svg" width="1360" height="1720" viewBox="0 0 1360 1720">
<rect width="100%" height="100%" fill="#ffffff" />
<style>text { font-family: Arial, Helvetica, sans-serif; fill: #111827; }</style>
<text x="680.00" y="28.00" font-size="18" font-weight="700" text-anchor="middle">Strength curves: linear-probe accuracy drop</text>
<text x="680.00" y="46.00" font-size="10" font-weight="400" text-anchor="middle">Cells built before the matrix expansion have no rgb-quantization/solarization data and are omitted from those two panels</text>
<text x="90.00" y="75.00" font-size="14" font-weight="700" text-anchor="start">Freeze-tail low -&gt; mid -&gt; high</text>
<text x="18.00" y="237.50" font-size="11" font-weight="400" text-anchor="middle" transform="rotate(-90 18.00 237.50)">Accuracy drop</text>
<line x1="90" y1="375" x2="930" y2="375" stroke="#111827" stroke-width="1" />
<line x1="90" y1="100" x2="90" y2="375" stroke="#111827" stroke-width="1" />
<line x1="86" y1="375.00" x2="90" y2="375.00" stroke="#111827" />
<text x="82.00" y="379.00" font-size="10" font-weight="400" text-anchor="end">-0.055</text>
<line x1="86" y1="320.00" x2="90" y2="320.00" stroke="#111827" />
<text x="82.00" y="324.00" font-size="10" font-weight="400" text-anchor="end">0.020</text>
<line x1="90" y1="320.00" x2="930" y2="320.00" stroke="#e5e7eb" stroke-width="1" />
<line x1="86" y1="265.00" x2="90" y2="265.00" stroke="#111827" />
<text x="82.00" y="269.00" font-size="10" font-weight="400" text-anchor="end">0.095</text>
<line x1="90" y1="265.00" x2="930" y2="265.00" stroke="#e5e7eb" stroke-width="1" />
<line x1="86" y1="210.00" x2="90" y2="210.00" stroke="#111827" />
<text x="82.00" y="214.00" font-size="10" font-weight="400" text-anchor="end">0.170</text>
<line x1="90" y1="210.00" x2="930" y2="210.00" stroke="#e5e7eb" stroke-width="1" />
<line x1="86" y1="155.00" x2="90" y2="155.00" stroke="#111827" />
<text x="82.00" y="159.00" font-size="10" font-weight="400" text-anchor="end">0.245</text>
<line x1="90" y1="155.00" x2="930" y2="155.00" stroke="#e5e7eb" stroke-width="1" />
<line x1="86" y1="100.00" x2="90" y2="100.00" stroke="#111827" />
<text x="82.00" y="104.00" font-size="10" font-weight="400" text-anchor="end">0.320</text>
<line x1="90" y1="334.63" x2="930" y2="334.63" stroke="#6b7280" stroke-dasharray="4 4" />
<polyline points="90.00,318.97 510.00,293.04 930.00,242.17" fill="none" stroke="#2563eb" stroke-width="2.3" stroke-linejoin="round" />
<circle cx="90.00" cy="318.97" r="3.8" fill="#2563eb" />
<circle cx="510.00" cy="293.04" r="3.8" fill="#2563eb" />
<circle cx="930.00" cy="242.17" r="3.8" fill="#2563eb" />
<polyline points="90.00,329.25 510.00,302.34 930.00,236.29" fill="none" stroke="#2563eb" stroke-width="2.3" stroke-linejoin="round" stroke-dasharray="12 5" />
<circle cx="90.00" cy="329.25" r="3.8" fill="#2563eb" />
<circle cx="510.00" cy="302.34" r="3.8" fill="#2563eb" />
<circle cx="930.00" cy="236.29" r="3.8" fill="#2563eb" />
<polyline points="90.00,334.63 510.00,330.04 930.00,308.64" fill="none" stroke="#2563eb" stroke-width="2.3" stroke-linejoin="round" stroke-dasharray="1 4" />
<circle cx="90.00" cy="334.63" r="3.8" fill="#2563eb" />
<circle cx="510.00" cy="330.04" r="3.8" fill="#2563eb" />
<circle cx="930.00" cy="308.64" r="3.8" fill="#2563eb" />
<polyline points="90.00,309.68 510.00,264.18 930.00,192.26" fill="none" stroke="#dc2626" stroke-width="2.3" stroke-linejoin="round" />
<circle cx="90.00" cy="309.68" r="3.8" fill="#dc2626" />
<circle cx="510.00" cy="264.18" r="3.8" fill="#dc2626" />
<circle cx="930.00" cy="192.26" r="3.8" fill="#dc2626" />
<polyline points="90.00,332.18 510.00,327.78 930.00,306.25" fill="none" stroke="#dc2626" stroke-width="2.3" stroke-linejoin="round" stroke-dasharray="12 5" />
<circle cx="90.00" cy="332.18" r="3.8" fill="#dc2626" />
<circle cx="510.00" cy="327.78" r="3.8" fill="#dc2626" />
<circle cx="930.00" cy="306.25" r="3.8" fill="#dc2626" />
<polyline points="90.00,326.98 510.00,322.40 930.00,310.17" fill="none" stroke="#dc2626" stroke-width="2.3" stroke-linejoin="round" stroke-dasharray="1 4" />
<circle cx="90.00" cy="326.98" r="3.8" fill="#dc2626" />
<circle cx="510.00" cy="322.40" r="3.8" fill="#dc2626" />
<circle cx="930.00" cy="310.17" r="3.8" fill="#dc2626" />
<polyline points="90.00,336.10 510.00,330.71 930.00,319.46" fill="none" stroke="#7c3aed" stroke-width="2.3" stroke-linejoin="round" />
<circle cx="90.00" cy="336.10" r="3.8" fill="#7c3aed" />
<circle cx="510.00" cy="330.71" r="3.8" fill="#7c3aed" />
<circle cx="930.00" cy="319.46" r="3.8" fill="#7c3aed" />
<polyline points="90.00,333.65 510.00,334.63 930.00,332.67" fill="none" stroke="#7c3aed" stroke-width="2.3" stroke-linejoin="round" stroke-dasharray="12 5" />
<circle cx="90.00" cy="333.65" r="3.8" fill="#7c3aed" />
<circle cx="510.00" cy="334.63" r="3.8" fill="#7c3aed" />
<circle cx="930.00" cy="332.67" r="3.8" fill="#7c3aed" />
<polyline points="90.00,336.16 510.00,330.04 930.00,323.93" fill="none" stroke="#7c3aed" stroke-width="2.3" stroke-linejoin="round" stroke-dasharray="1 4" />
<circle cx="90.00" cy="336.16" r="3.8" fill="#7c3aed" />
<circle cx="510.00" cy="330.04" r="3.8" fill="#7c3aed" />
<circle cx="930.00" cy="323.93" r="3.8" fill="#7c3aed" />
<polyline points="90.00,316.81 510.00,280.70 930.00,206.06" fill="none" stroke="#334155" stroke-width="2.3" stroke-linejoin="round" stroke-dasharray="9 3 2 3" />
<circle cx="90.00" cy="316.81" r="3.8" fill="#334155" />
<circle cx="510.00" cy="280.70" r="3.8" fill="#334155" />
<circle cx="930.00" cy="206.06" r="3.8" fill="#334155" />
<polyline points="90.00,326.44 510.00,305.74 930.00,256.62" fill="none" stroke="#2563eb" stroke-width="2.3" stroke-linejoin="round" stroke-dasharray="9 3 2 3" />
<circle cx="90.00" cy="326.44" r="3.8" fill="#2563eb" />
<circle cx="510.00" cy="305.74" r="3.8" fill="#2563eb" />
<circle cx="930.00" cy="256.62" r="3.8" fill="#2563eb" />
<polyline points="90.00,314.89 510.00,266.25 930.00,172.84" fill="none" stroke="#dc2626" stroke-width="2.3" stroke-linejoin="round" stroke-dasharray="9 3 2 3" />
<circle cx="90.00" cy="314.89" r="3.8" fill="#dc2626" />
<circle cx="510.00" cy="266.25" r="3.8" fill="#dc2626" />
<circle cx="930.00" cy="172.84" r="3.8" fill="#dc2626" />
<polyline points="90.00,341.97 510.00,334.14 930.00,314.08" fill="none" stroke="#2563eb" stroke-width="2.3" stroke-linejoin="round" stroke-dasharray="5 3" />
<circle cx="90.00" cy="341.97" r="3.8" fill="#2563eb" />
<circle cx="510.00" cy="334.14" r="3.8" fill="#2563eb" />
<circle cx="930.00" cy="314.08" r="3.8" fill="#2563eb" />
<polyline points="90.00,320.93 510.00,306.74 930.00,237.76" fill="none" stroke="#db2777" stroke-width="2.3" stroke-linejoin="round" stroke-dasharray="5 3" />
<circle cx="90.00" cy="320.93" r="3.8" fill="#db2777" />
<circle cx="510.00" cy="306.74" r="3.8" fill="#db2777" />
<circle cx="930.00" cy="237.76" r="3.8" fill="#db2777" />
<polyline points="90.00,322.40 510.00,315.55 930.00,265.65" fill="none" stroke="#334155" stroke-width="2.3" stroke-linejoin="round" stroke-dasharray="5 3" />
<circle cx="90.00" cy="322.40" r="3.8" fill="#334155" />
<circle cx="510.00" cy="315.55" r="3.8" fill="#334155" />
<circle cx="930.00" cy="265.65" r="3.8" fill="#334155" />
<polyline points="90.00,326.92 510.00,325.00 930.00,313.92" fill="none" stroke="#7c3aed" stroke-width="2.3" stroke-linejoin="round" stroke-dasharray="9 3 2 3" />
<circle cx="90.00" cy="326.92" r="3.8" fill="#7c3aed" />
<circle cx="510.00" cy="325.00" r="3.8" fill="#7c3aed" />
<circle cx="930.00" cy="313.92" r="3.8" fill="#7c3aed" />
<polyline points="90.00,334.63 510.00,335.61 930.00,327.29" fill="none" stroke="#7c3aed" stroke-width="2.3" stroke-linejoin="round" stroke-dasharray="5 3" />
<circle cx="90.00" cy="334.63" r="3.8" fill="#7c3aed" />
<circle cx="510.00" cy="335.61" r="3.8" fill="#7c3aed" />
<circle cx="930.00" cy="327.29" r="3.8" fill="#7c3aed" />
<polyline points="90.00,322.89 510.00,310.66 930.00,282.77" fill="none" stroke="#dc2626" stroke-width="2.3" stroke-linejoin="round" stroke-dasharray="5 3" />
<circle cx="90.00" cy="322.89" r="3.8" fill="#dc2626" />
<circle cx="510.00" cy="310.66" r="3.8" fill="#dc2626" />
<circle cx="930.00" cy="282.77" r="3.8" fill="#dc2626" />
<polyline points="90.00,336.16 510.00,333.10 930.00,300.99" fill="none" stroke="#db2777" stroke-width="2.3" stroke-linejoin="round" stroke-dasharray="1 4" />
<circle cx="90.00" cy="336.16" r="3.8" fill="#db2777" />
<circle cx="510.00" cy="333.10" r="3.8" fill="#db2777" />
<circle cx="930.00" cy="300.99" r="3.8" fill="#db2777" />
<polyline points="90.00,348.39 510.00,325.45 930.00,314.75" fill="none" stroke="#334155" stroke-width="2.3" stroke-linejoin="round" stroke-dasharray="1 4" />
<circle cx="90.00" cy="348.39" r="3.8" fill="#334155" />
<circle cx="510.00" cy="325.45" r="3.8" fill="#334155" />
<circle cx="930.00" cy="314.75" r="3.8" fill="#334155" />
<polyline points="90.00,328.85 510.00,261.44 930.00,126.61" fill="none" stroke="#db2777" stroke-width="2.3" stroke-linejoin="round" stroke-dasharray="9 3 2 3" />
<circle cx="90.00" cy="328.85" r="3.8" fill="#db2777" />
<circle cx="510.00" cy="261.44" r="3.8" fill="#db2777" />
<circle cx="930.00" cy="126.61" r="3.8" fill="#db2777" />
<text x="90.00" y="397.00" font-size="12" font-weight="400" text-anchor="middle">low</text>
<text x="510.00" y="397.00" font-size="12" font-weight="400" text-anchor="middle">mid</text>
<text x="930.00" y="397.00" font-size="12" font-weight="400" text-anchor="middle">high</text>
<line x1="955" y1="85" x2="973" y2="85" stroke="#2563eb" stroke-width="3" />
<text x="979.00" y="89.00" font-size="10" font-weight="400" text-anchor="start">VideoMAE x SSV2</text>
<line x1="955" y1="105" x2="973" y2="105" stroke="#2563eb" stroke-width="3" stroke-dasharray="12 5" />
<text x="979.00" y="109.00" font-size="10" font-weight="400" text-anchor="start">VideoMAE x UCF101</text>
<line x1="955" y1="125" x2="973" y2="125" stroke="#2563eb" stroke-width="3" stroke-dasharray="1 4" />
<text x="979.00" y="129.00" font-size="10" font-weight="400" text-anchor="start">VideoMAE x Diving48</text>
<line x1="955" y1="145" x2="973" y2="145" stroke="#dc2626" stroke-width="3" />
<text x="979.00" y="149.00" font-size="10" font-weight="400" text-anchor="start">SlowFast R50 8x8 x SSV2</text>
<line x1="955" y1="165" x2="973" y2="165" stroke="#dc2626" stroke-width="3" stroke-dasharray="12 5" />
<text x="979.00" y="169.00" font-size="10" font-weight="400" text-anchor="start">SlowFast R50 8x8 x UCF101</text>
<line x1="955" y1="185" x2="973" y2="185" stroke="#dc2626" stroke-width="3" stroke-dasharray="1 4" />
<text x="979.00" y="189.00" font-size="10" font-weight="400" text-anchor="start">SlowFast R50 8x8 x Diving48</text>
<line x1="955" y1="205" x2="973" y2="205" stroke="#7c3aed" stroke-width="3" />
<text x="979.00" y="209.00" font-size="10" font-weight="400" text-anchor="start">DINOv2 frame-mean x SSV2</text>
<line x1="955" y1="225" x2="973" y2="225" stroke="#7c3aed" stroke-width="3" stroke-dasharray="12 5" />
<text x="979.00" y="229.00" font-size="10" font-weight="400" text-anchor="start">DINOv2 frame-mean x UCF101</text>
<line x1="955" y1="245" x2="973" y2="245" stroke="#7c3aed" stroke-width="3" stroke-dasharray="1 4" />
<text x="979.00" y="249.00" font-size="10" font-weight="400" text-anchor="start">DINOv2 frame-mean x Diving48</text>
<line x1="955" y1="265" x2="973" y2="265" stroke="#334155" stroke-width="3" stroke-dasharray="9 3 2 3" />
<text x="979.00" y="269.00" font-size="10" font-weight="400" text-anchor="start">V-JEPA2 x HMDB51</text>
<line x1="955" y1="285" x2="973" y2="285" stroke="#2563eb" stroke-width="3" stroke-dasharray="9 3 2 3" />
<text x="979.00" y="289.00" font-size="10" font-weight="400" text-anchor="start">VideoMAE x HMDB51</text>
<line x1="955" y1="305" x2="973" y2="305" stroke="#dc2626" stroke-width="3" stroke-dasharray="9 3 2 3" />
<text x="979.00" y="309.00" font-size="10" font-weight="400" text-anchor="start">SlowFast R50 8x8 x HMDB51</text>
<line x1="955" y1="325" x2="973" y2="325" stroke="#2563eb" stroke-width="3" stroke-dasharray="5 3" />
<text x="979.00" y="329.00" font-size="10" font-weight="400" text-anchor="start">VideoMAE x Kinetics</text>
<line x1="955" y1="345" x2="973" y2="345" stroke="#db2777" stroke-width="3" stroke-dasharray="5 3" />
<text x="979.00" y="349.00" font-size="10" font-weight="400" text-anchor="start">DisMo x Kinetics</text>
<line x1="955" y1="365" x2="973" y2="365" stroke="#334155" stroke-width="3" stroke-dasharray="5 3" />
<text x="979.00" y="369.00" font-size="10" font-weight="400" text-anchor="start">V-JEPA2 x Kinetics</text>
<line x1="955" y1="385" x2="973" y2="385" stroke="#7c3aed" stroke-width="3" stroke-dasharray="9 3 2 3" />
<text x="979.00" y="389.00" font-size="10" font-weight="400" text-anchor="start">DINOv2 frame-mean x HMDB51</text>
<line x1="955" y1="405" x2="973" y2="405" stroke="#7c3aed" stroke-width="3" stroke-dasharray="5 3" />
<text x="979.00" y="409.00" font-size="10" font-weight="400" text-anchor="start">DINOv2 frame-mean x Kinetics</text>
<line x1="955" y1="425" x2="973" y2="425" stroke="#dc2626" stroke-width="3" stroke-dasharray="5 3" />
<text x="979.00" y="429.00" font-size="10" font-weight="400" text-anchor="start">SlowFast R50 8x8 x Kinetics</text>
<line x1="955" y1="445" x2="973" y2="445" stroke="#db2777" stroke-width="3" stroke-dasharray="1 4" />
<text x="979.00" y="449.00" font-size="10" font-weight="400" text-anchor="start">DisMo x Diving48</text>
<line x1="955" y1="465" x2="973" y2="465" stroke="#334155" stroke-width="3" stroke-dasharray="1 4" />
<text x="979.00" y="469.00" font-size="10" font-weight="400" text-anchor="start">V-JEPA2 x Diving48</text>
<line x1="955" y1="485" x2="973" y2="485" stroke="#db2777" stroke-width="3" stroke-dasharray="9 3 2 3" />
<text x="979.00" y="489.00" font-size="10" font-weight="400" text-anchor="start">DisMo x HMDB51</text>
<text x="90.00" y="485.00" font-size="14" font-weight="700" text-anchor="start">Color transform low -&gt; mid -&gt; high</text>
<text x="18.00" y="647.50" font-size="11" font-weight="400" text-anchor="middle" transform="rotate(-90 18.00 647.50)">Accuracy drop</text>
<line x1="90" y1="785" x2="930" y2="785" stroke="#111827" stroke-width="1" />
<line x1="90" y1="510" x2="90" y2="785" stroke="#111827" stroke-width="1" />
<line x1="86" y1="785.00" x2="90" y2="785.00" stroke="#111827" />
<text x="82.00" y="789.00" font-size="10" font-weight="400" text-anchor="end">-0.014</text>
<line x1="86" y1="730.00" x2="90" y2="730.00" stroke="#111827" />
<text x="82.00" y="734.00" font-size="10" font-weight="400" text-anchor="end">0.002</text>
<line x1="90" y1="730.00" x2="930" y2="730.00" stroke="#e5e7eb" stroke-width="1" />
<line x1="86" y1="675.00" x2="90" y2="675.00" stroke="#111827" />
<text x="82.00" y="679.00" font-size="10" font-weight="400" text-anchor="end">0.017</text>
<line x1="90" y1="675.00" x2="930" y2="675.00" stroke="#e5e7eb" stroke-width="1" />
<line x1="86" y1="620.00" x2="90" y2="620.00" stroke="#111827" />
<text x="82.00" y="624.00" font-size="10" font-weight="400" text-anchor="end">0.033</text>
<line x1="90" y1="620.00" x2="930" y2="620.00" stroke="#e5e7eb" stroke-width="1" />
<line x1="86" y1="565.00" x2="90" y2="565.00" stroke="#111827" />
<text x="82.00" y="569.00" font-size="10" font-weight="400" text-anchor="end">0.049</text>
<line x1="90" y1="565.00" x2="930" y2="565.00" stroke="#e5e7eb" stroke-width="1" />
<line x1="86" y1="510.00" x2="90" y2="510.00" stroke="#111827" />
<text x="82.00" y="514.00" font-size="10" font-weight="400" text-anchor="end">0.064</text>
<line x1="90" y1="736.36" x2="930" y2="736.36" stroke="#6b7280" stroke-dasharray="4 4" />
<polyline points="90.00,729.31 510.00,734.01 930.00,701.11" fill="none" stroke="#2563eb" stroke-width="2.3" stroke-linejoin="round" />
<circle cx="90.00" cy="729.31" r="3.8" fill="#2563eb" />
<circle cx="510.00" cy="734.01" r="3.8" fill="#2563eb" />
<circle cx="930.00" cy="701.11" r="3.8" fill="#2563eb" />
<polyline points="90.00,729.31 510.00,701.11 930.00,536.61" fill="none" stroke="#2563eb" stroke-width="2.3" stroke-linejoin="round" stroke-dasharray="12 5" />
<circle cx="90.00" cy="729.31" r="3.8" fill="#2563eb" />
<circle cx="510.00" cy="701.11" r="3.8" fill="#2563eb" />
<circle cx="930.00" cy="536.61" r="3.8" fill="#2563eb" />
<polyline points="90.00,736.36 510.00,721.67 930.00,714.33" fill="none" stroke="#2563eb" stroke-width="2.3" stroke-linejoin="round" stroke-dasharray="1 4" />
<circle cx="90.00" cy="736.36" r="3.8" fill="#2563eb" />
<circle cx="510.00" cy="721.67" r="3.8" fill="#2563eb" />
<circle cx="930.00" cy="714.33" r="3.8" fill="#2563eb" />
<polyline points="90.00,743.41 510.00,734.01 930.00,717.56" fill="none" stroke="#dc2626" stroke-width="2.3" stroke-linejoin="round" />
<circle cx="90.00" cy="743.41" r="3.8" fill="#dc2626" />
<circle cx="510.00" cy="734.01" r="3.8" fill="#dc2626" />
<circle cx="930.00" cy="717.56" r="3.8" fill="#dc2626" />
<polyline points="90.00,736.36 510.00,736.36 930.00,736.36" fill="none" stroke="#dc2626" stroke-width="2.3" stroke-linejoin="round" stroke-dasharray="12 5" />
<circle cx="90.00" cy="736.36" r="3.8" fill="#dc2626" />
<circle cx="510.00" cy="736.36" r="3.8" fill="#dc2626" />
<circle cx="930.00" cy="736.36" r="3.8" fill="#dc2626" />
<polyline points="90.00,736.36 510.00,736.36 930.00,721.67" fill="none" stroke="#dc2626" stroke-width="2.3" stroke-linejoin="round" stroke-dasharray="1 4" />
<circle cx="90.00" cy="736.36" r="3.8" fill="#dc2626" />
<circle cx="510.00" cy="736.36" r="3.8" fill="#dc2626" />
<circle cx="930.00" cy="721.67" r="3.8" fill="#dc2626" />
<polyline points="90.00,738.71 510.00,741.06 930.00,752.81" fill="none" stroke="#7c3aed" stroke-width="2.3" stroke-linejoin="round" />
<circle cx="90.00" cy="738.71" r="3.8" fill="#7c3aed" />
<circle cx="510.00" cy="741.06" r="3.8" fill="#7c3aed" />
<circle cx="930.00" cy="752.81" r="3.8" fill="#7c3aed" />
<polyline points="90.00,736.36 510.00,736.36 930.00,729.31" fill="none" stroke="#7c3aed" stroke-width="2.3" stroke-linejoin="round" stroke-dasharray="12 5" />
<circle cx="90.00" cy="736.36" r="3.8" fill="#7c3aed" />
<circle cx="510.00" cy="736.36" r="3.8" fill="#7c3aed" />
<circle cx="930.00" cy="729.31" r="3.8" fill="#7c3aed" />
<polyline points="90.00,736.36 510.00,736.36 930.00,743.70" fill="none" stroke="#7c3aed" stroke-width="2.3" stroke-linejoin="round" stroke-dasharray="1 4" />
<circle cx="90.00" cy="736.36" r="3.8" fill="#7c3aed" />
<circle cx="510.00" cy="736.36" r="3.8" fill="#7c3aed" />
<circle cx="930.00" cy="743.70" r="3.8" fill="#7c3aed" />
<polyline points="90.00,738.67 510.00,750.23 930.00,657.72" fill="none" stroke="#334155" stroke-width="2.3" stroke-linejoin="round" stroke-dasharray="9 3 2 3" />
<circle cx="90.00" cy="738.67" r="3.8" fill="#334155" />
<circle cx="510.00" cy="750.23" r="3.8" fill="#334155" />
<circle cx="930.00" cy="657.72" r="3.8" fill="#334155" />
<polyline points="90.00,731.73 510.00,708.60 930.00,609.15" fill="none" stroke="#2563eb" stroke-width="2.3" stroke-linejoin="round" stroke-dasharray="9 3 2 3" />
<circle cx="90.00" cy="731.73" r="3.8" fill="#2563eb" />
<circle cx="510.00" cy="708.60" r="3.8" fill="#2563eb" />
<circle cx="930.00" cy="609.15" r="3.8" fill="#2563eb" />
<polyline points="90.00,731.73 510.00,724.79 930.00,724.79" fill="none" stroke="#dc2626" stroke-width="2.3" stroke-linejoin="round" stroke-dasharray="9 3 2 3" />
<circle cx="90.00" cy="731.73" r="3.8" fill="#dc2626" />
<circle cx="510.00" cy="724.79" r="3.8" fill="#dc2626" />
<circle cx="930.00" cy="724.79" r="3.8" fill="#dc2626" />
<polyline points="90.00,738.71 510.00,731.66 930.00,698.76" fill="none" stroke="#2563eb" stroke-width="2.3" stroke-linejoin="round" stroke-dasharray="5 3" />
<circle cx="90.00" cy="738.71" r="3.8" fill="#2563eb" />
<circle cx="510.00" cy="731.66" r="3.8" fill="#2563eb" />
<circle cx="930.00" cy="698.76" r="3.8" fill="#2563eb" />
<polyline points="90.00,734.01 510.00,731.66 930.00,675.26" fill="none" stroke="#db2777" stroke-width="2.3" stroke-linejoin="round" stroke-dasharray="5 3" />
<circle cx="90.00" cy="734.01" r="3.8" fill="#db2777" />
<circle cx="510.00" cy="731.66" r="3.8" fill="#db2777" />
<circle cx="930.00" cy="675.26" r="3.8" fill="#db2777" />
<polyline points="90.00,736.36 510.00,750.46 930.00,719.91" fill="none" stroke="#334155" stroke-width="2.3" stroke-linejoin="round" stroke-dasharray="5 3" />
<circle cx="90.00" cy="736.36" r="3.8" fill="#334155" />
<circle cx="510.00" cy="750.46" r="3.8" fill="#334155" />
<circle cx="930.00" cy="719.91" r="3.8" fill="#334155" />
<polyline points="90.00,731.73 510.00,734.04 930.00,708.60" fill="none" stroke="#7c3aed" stroke-width="2.3" stroke-linejoin="round" stroke-dasharray="9 3 2 3" />
<circle cx="90.00" cy="731.73" r="3.8" fill="#7c3aed" />
<circle cx="510.00" cy="734.04" r="3.8" fill="#7c3aed" />
<circle cx="930.00" cy="708.60" r="3.8" fill="#7c3aed" />
<polyline points="90.00,741.06 510.00,736.36 930.00,734.01" fill="none" stroke="#7c3aed" stroke-width="2.3" stroke-linejoin="round" stroke-dasharray="5 3" />
<circle cx="90.00" cy="741.06" r="3.8" fill="#7c3aed" />
<circle cx="510.00" cy="736.36" r="3.8" fill="#7c3aed" />
<circle cx="930.00" cy="734.01" r="3.8" fill="#7c3aed" />
<polyline points="90.00,734.01 510.00,731.66 930.00,691.71" fill="none" stroke="#dc2626" stroke-width="2.3" stroke-linejoin="round" stroke-dasharray="5 3" />
<circle cx="90.00" cy="734.01" r="3.8" fill="#dc2626" />
<circle cx="510.00" cy="731.66" r="3.8" fill="#dc2626" />
<circle cx="930.00" cy="691.71" r="3.8" fill="#dc2626" />
<polyline points="90.00,721.67 510.00,714.33 930.00,699.64" fill="none" stroke="#db2777" stroke-width="2.3" stroke-linejoin="round" stroke-dasharray="1 4" />
<circle cx="90.00" cy="721.67" r="3.8" fill="#db2777" />
<circle cx="510.00" cy="714.33" r="3.8" fill="#db2777" />
<circle cx="930.00" cy="699.64" r="3.8" fill="#db2777" />
<polyline points="90.00,736.36 510.00,758.39 930.00,743.70" fill="none" stroke="#334155" stroke-width="2.3" stroke-linejoin="round" stroke-dasharray="1 4" />
<circle cx="90.00" cy="736.36" r="3.8" fill="#334155" />
<circle cx="510.00" cy="758.39" r="3.8" fill="#334155" />
<circle cx="930.00" cy="743.70" r="3.8" fill="#334155" />
<polyline points="90.00,734.04 510.00,727.10 930.00,697.04" fill="none" stroke="#db2777" stroke-width="2.3" stroke-linejoin="round" stroke-dasharray="9 3 2 3" />
<circle cx="90.00" cy="734.04" r="3.8" fill="#db2777" />
<circle cx="510.00" cy="727.10" r="3.8" fill="#db2777" />
<circle cx="930.00" cy="697.04" r="3.8" fill="#db2777" />
<text x="90.00" y="807.00" font-size="12" font-weight="400" text-anchor="middle">low</text>
<text x="510.00" y="807.00" font-size="12" font-weight="400" text-anchor="middle">mid</text>
<text x="930.00" y="807.00" font-size="12" font-weight="400" text-anchor="middle">high</text>
<line x1="955" y1="495" x2="973" y2="495" stroke="#2563eb" stroke-width="3" />
<text x="979.00" y="499.00" font-size="10" font-weight="400" text-anchor="start">VideoMAE x SSV2</text>
<line x1="955" y1="515" x2="973" y2="515" stroke="#2563eb" stroke-width="3" stroke-dasharray="12 5" />
<text x="979.00" y="519.00" font-size="10" font-weight="400" text-anchor="start">VideoMAE x UCF101</text>
<line x1="955" y1="535" x2="973" y2="535" stroke="#2563eb" stroke-width="3" stroke-dasharray="1 4" />
<text x="979.00" y="539.00" font-size="10" font-weight="400" text-anchor="start">VideoMAE x Diving48</text>
<line x1="955" y1="555" x2="973" y2="555" stroke="#dc2626" stroke-width="3" />
<text x="979.00" y="559.00" font-size="10" font-weight="400" text-anchor="start">SlowFast R50 8x8 x SSV2</text>
<line x1="955" y1="575" x2="973" y2="575" stroke="#dc2626" stroke-width="3" stroke-dasharray="12 5" />
<text x="979.00" y="579.00" font-size="10" font-weight="400" text-anchor="start">SlowFast R50 8x8 x UCF101</text>
<line x1="955" y1="595" x2="973" y2="595" stroke="#dc2626" stroke-width="3" stroke-dasharray="1 4" />
<text x="979.00" y="599.00" font-size="10" font-weight="400" text-anchor="start">SlowFast R50 8x8 x Diving48</text>
<line x1="955" y1="615" x2="973" y2="615" stroke="#7c3aed" stroke-width="3" />
<text x="979.00" y="619.00" font-size="10" font-weight="400" text-anchor="start">DINOv2 frame-mean x SSV2</text>
<line x1="955" y1="635" x2="973" y2="635" stroke="#7c3aed" stroke-width="3" stroke-dasharray="12 5" />
<text x="979.00" y="639.00" font-size="10" font-weight="400" text-anchor="start">DINOv2 frame-mean x UCF101</text>
<line x1="955" y1="655" x2="973" y2="655" stroke="#7c3aed" stroke-width="3" stroke-dasharray="1 4" />
<text x="979.00" y="659.00" font-size="10" font-weight="400" text-anchor="start">DINOv2 frame-mean x Diving48</text>
<line x1="955" y1="675" x2="973" y2="675" stroke="#334155" stroke-width="3" stroke-dasharray="9 3 2 3" />
<text x="979.00" y="679.00" font-size="10" font-weight="400" text-anchor="start">V-JEPA2 x HMDB51</text>
<line x1="955" y1="695" x2="973" y2="695" stroke="#2563eb" stroke-width="3" stroke-dasharray="9 3 2 3" />
<text x="979.00" y="699.00" font-size="10" font-weight="400" text-anchor="start">VideoMAE x HMDB51</text>
<line x1="955" y1="715" x2="973" y2="715" stroke="#dc2626" stroke-width="3" stroke-dasharray="9 3 2 3" />
<text x="979.00" y="719.00" font-size="10" font-weight="400" text-anchor="start">SlowFast R50 8x8 x HMDB51</text>
<line x1="955" y1="735" x2="973" y2="735" stroke="#2563eb" stroke-width="3" stroke-dasharray="5 3" />
<text x="979.00" y="739.00" font-size="10" font-weight="400" text-anchor="start">VideoMAE x Kinetics</text>
<line x1="955" y1="755" x2="973" y2="755" stroke="#db2777" stroke-width="3" stroke-dasharray="5 3" />
<text x="979.00" y="759.00" font-size="10" font-weight="400" text-anchor="start">DisMo x Kinetics</text>
<line x1="955" y1="775" x2="973" y2="775" stroke="#334155" stroke-width="3" stroke-dasharray="5 3" />
<text x="979.00" y="779.00" font-size="10" font-weight="400" text-anchor="start">V-JEPA2 x Kinetics</text>
<line x1="955" y1="795" x2="973" y2="795" stroke="#7c3aed" stroke-width="3" stroke-dasharray="9 3 2 3" />
<text x="979.00" y="799.00" font-size="10" font-weight="400" text-anchor="start">DINOv2 frame-mean x HMDB51</text>
<line x1="955" y1="815" x2="973" y2="815" stroke="#7c3aed" stroke-width="3" stroke-dasharray="5 3" />
<text x="979.00" y="819.00" font-size="10" font-weight="400" text-anchor="start">DINOv2 frame-mean x Kinetics</text>
<line x1="955" y1="835" x2="973" y2="835" stroke="#dc2626" stroke-width="3" stroke-dasharray="5 3" />
<text x="979.00" y="839.00" font-size="10" font-weight="400" text-anchor="start">SlowFast R50 8x8 x Kinetics</text>
<line x1="955" y1="855" x2="973" y2="855" stroke="#db2777" stroke-width="3" stroke-dasharray="1 4" />
<text x="979.00" y="859.00" font-size="10" font-weight="400" text-anchor="start">DisMo x Diving48</text>
<line x1="955" y1="875" x2="973" y2="875" stroke="#334155" stroke-width="3" stroke-dasharray="1 4" />
<text x="979.00" y="879.00" font-size="10" font-weight="400" text-anchor="start">V-JEPA2 x Diving48</text>
<line x1="955" y1="895" x2="973" y2="895" stroke="#db2777" stroke-width="3" stroke-dasharray="9 3 2 3" />
<text x="979.00" y="899.00" font-size="10" font-weight="400" text-anchor="start">DisMo x HMDB51</text>
<text x="90.00" y="895.00" font-size="14" font-weight="700" text-anchor="start">RGB quantization low -&gt; mid -&gt; high</text>
<text x="18.00" y="1057.50" font-size="11" font-weight="400" text-anchor="middle" transform="rotate(-90 18.00 1057.50)">Accuracy drop</text>
<line x1="90" y1="1195" x2="930" y2="1195" stroke="#111827" stroke-width="1" />
<line x1="90" y1="920" x2="90" y2="1195" stroke="#111827" stroke-width="1" />
<line x1="86" y1="1195.00" x2="90" y2="1195.00" stroke="#111827" />
<text x="82.00" y="1199.00" font-size="10" font-weight="400" text-anchor="end">-0.084</text>
<line x1="86" y1="1140.00" x2="90" y2="1140.00" stroke="#111827" />
<text x="82.00" y="1144.00" font-size="10" font-weight="400" text-anchor="end">0.060</text>
<line x1="90" y1="1140.00" x2="930" y2="1140.00" stroke="#e5e7eb" stroke-width="1" />
<line x1="86" y1="1085.00" x2="90" y2="1085.00" stroke="#111827" />
<text x="82.00" y="1089.00" font-size="10" font-weight="400" text-anchor="end">0.203</text>
<line x1="90" y1="1085.00" x2="930" y2="1085.00" stroke="#e5e7eb" stroke-width="1" />
<line x1="86" y1="1030.00" x2="90" y2="1030.00" stroke="#111827" />
<text x="82.00" y="1034.00" font-size="10" font-weight="400" text-anchor="end">0.347</text>
<line x1="90" y1="1030.00" x2="930" y2="1030.00" stroke="#e5e7eb" stroke-width="1" />
<line x1="86" y1="975.00" x2="90" y2="975.00" stroke="#111827" />
<text x="82.00" y="979.00" font-size="10" font-weight="400" text-anchor="end">0.491</text>
<line x1="90" y1="975.00" x2="930" y2="975.00" stroke="#e5e7eb" stroke-width="1" />
<line x1="86" y1="920.00" x2="90" y2="920.00" stroke="#111827" />
<text x="82.00" y="924.00" font-size="10" font-weight="400" text-anchor="end">0.635</text>
<line x1="90" y1="1162.81" x2="930" y2="1162.81" stroke="#6b7280" stroke-dasharray="4 4" />
<polyline points="90.00,1136.55 510.00,1124.31 930.00,1116.41" fill="none" stroke="#2563eb" stroke-width="2.3" stroke-linejoin="round" />
<circle cx="90.00" cy="1136.55" r="3.8" fill="#2563eb" />
<circle cx="510.00" cy="1124.31" r="3.8" fill="#2563eb" />
<circle cx="930.00" cy="1116.41" r="3.8" fill="#2563eb" />
<polyline points="90.00,1113.35 510.00,1032.28 930.00,946.61" fill="none" stroke="#2563eb" stroke-width="2.3" stroke-linejoin="round" stroke-dasharray="12 5" />
<circle cx="90.00" cy="1113.35" r="3.8" fill="#2563eb" />
<circle cx="510.00" cy="1032.28" r="3.8" fill="#2563eb" />
<circle cx="930.00" cy="946.61" r="3.8" fill="#2563eb" />
<polyline points="90.00,1162.81 510.00,1160.42 930.00,1168.39" fill="none" stroke="#2563eb" stroke-width="2.3" stroke-linejoin="round" stroke-dasharray="1 4" />
<circle cx="90.00" cy="1162.81" r="3.8" fill="#2563eb" />
<circle cx="510.00" cy="1160.42" r="3.8" fill="#2563eb" />
<circle cx="930.00" cy="1168.39" r="3.8" fill="#2563eb" />
<polyline points="90.00,1149.81 510.00,1127.63 930.00,1098.05" fill="none" stroke="#dc2626" stroke-width="2.3" stroke-linejoin="round" />
<circle cx="90.00" cy="1149.81" r="3.8" fill="#dc2626" />
<circle cx="510.00" cy="1127.63" r="3.8" fill="#dc2626" />
<circle cx="930.00" cy="1098.05" r="3.8" fill="#dc2626" />
<polyline points="90.00,1159.75 510.00,1148.02 930.00,1094.74" fill="none" stroke="#dc2626" stroke-width="2.3" stroke-linejoin="round" stroke-dasharray="12 5" />
<circle cx="90.00" cy="1159.75" r="3.8" fill="#dc2626" />
<circle cx="510.00" cy="1148.02" r="3.8" fill="#dc2626" />
<circle cx="930.00" cy="1094.74" r="3.8" fill="#dc2626" />
<polyline points="90.00,1161.22 510.00,1154.05 930.00,1150.86" fill="none" stroke="#dc2626" stroke-width="2.3" stroke-linejoin="round" stroke-dasharray="1 4" />
<circle cx="90.00" cy="1161.22" r="3.8" fill="#dc2626" />
<circle cx="510.00" cy="1154.05" r="3.8" fill="#dc2626" />
<circle cx="930.00" cy="1150.86" r="3.8" fill="#dc2626" />
<polyline points="90.00,1161.28 510.00,1148.53 930.00,1118.96" fill="none" stroke="#7c3aed" stroke-width="2.3" stroke-linejoin="round" />
<circle cx="90.00" cy="1161.28" r="3.8" fill="#7c3aed" />
<circle cx="510.00" cy="1148.53" r="3.8" fill="#7c3aed" />
<circle cx="930.00" cy="1118.96" r="3.8" fill="#7c3aed" />
<polyline points="90.00,1162.56 510.00,1158.48 930.00,1138.08" fill="none" stroke="#7c3aed" stroke-width="2.3" stroke-linejoin="round" stroke-dasharray="12 5" />
<circle cx="90.00" cy="1162.56" r="3.8" fill="#7c3aed" />
<circle cx="510.00" cy="1158.48" r="3.8" fill="#7c3aed" />
<circle cx="930.00" cy="1138.08" r="3.8" fill="#7c3aed" />
<polyline points="90.00,1162.81 510.00,1155.64 930.00,1145.28" fill="none" stroke="#7c3aed" stroke-width="2.3" stroke-linejoin="round" stroke-dasharray="1 4" />
<circle cx="90.00" cy="1162.81" r="3.8" fill="#7c3aed" />
<circle cx="510.00" cy="1155.64" r="3.8" fill="#7c3aed" />
<circle cx="930.00" cy="1145.28" r="3.8" fill="#7c3aed" />
<polyline points="90.00,1157.79 510.00,1141.23 930.00,1104.34" fill="none" stroke="#7c3aed" stroke-width="2.3" stroke-linejoin="round" stroke-dasharray="9 3 2 3" />
<circle cx="90.00" cy="1157.79" r="3.8" fill="#7c3aed" />
<circle cx="510.00" cy="1141.23" r="3.8" fill="#7c3aed" />
<circle cx="930.00" cy="1104.34" r="3.8" fill="#7c3aed" />
<polyline points="90.00,1158.22 510.00,1150.32 930.00,1107.23" fill="none" stroke="#7c3aed" stroke-width="2.3" stroke-linejoin="round" stroke-dasharray="5 3" />
<circle cx="90.00" cy="1158.22" r="3.8" fill="#7c3aed" />
<circle cx="510.00" cy="1150.32" r="3.8" fill="#7c3aed" />
<circle cx="930.00" cy="1107.23" r="3.8" fill="#7c3aed" />
<polyline points="90.00,1155.42 510.00,1124.57 930.00,1038.39" fill="none" stroke="#dc2626" stroke-width="2.3" stroke-linejoin="round" stroke-dasharray="5 3" />
<circle cx="90.00" cy="1155.42" r="3.8" fill="#dc2626" />
<circle cx="510.00" cy="1124.57" r="3.8" fill="#dc2626" />
<circle cx="930.00" cy="1038.39" r="3.8" fill="#dc2626" />
<polyline points="90.00,1160.42 510.00,1158.83 930.00,1160.42" fill="none" stroke="#db2777" stroke-width="2.3" stroke-linejoin="round" stroke-dasharray="1 4" />
<circle cx="90.00" cy="1160.42" r="3.8" fill="#db2777" />
<circle cx="510.00" cy="1158.83" r="3.8" fill="#db2777" />
<circle cx="930.00" cy="1160.42" r="3.8" fill="#db2777" />
<polyline points="90.00,1161.22 510.00,1166.00 930.00,1159.62" fill="none" stroke="#334155" stroke-width="2.3" stroke-linejoin="round" stroke-dasharray="1 4" />
<circle cx="90.00" cy="1161.22" r="3.8" fill="#334155" />
<circle cx="510.00" cy="1166.00" r="3.8" fill="#334155" />
<circle cx="930.00" cy="1159.62" r="3.8" fill="#334155" />
<polyline points="90.00,1159.80 510.00,1154.03 930.00,1135.21" fill="none" stroke="#db2777" stroke-width="2.3" stroke-linejoin="round" stroke-dasharray="9 3 2 3" />
<circle cx="90.00" cy="1159.80" r="3.8" fill="#db2777" />
<circle cx="510.00" cy="1154.03" r="3.8" fill="#db2777" />
<circle cx="930.00" cy="1135.21" r="3.8" fill="#db2777" />
<text x="90.00" y="1217.00" font-size="12" font-weight="400" text-anchor="middle">low</text>
<text x="510.00" y="1217.00" font-size="12" font-weight="400" text-anchor="middle">mid</text>
<text x="930.00" y="1217.00" font-size="12" font-weight="400" text-anchor="middle">high</text>
<line x1="955" y1="905" x2="973" y2="905" stroke="#2563eb" stroke-width="3" />
<text x="979.00" y="909.00" font-size="10" font-weight="400" text-anchor="start">VideoMAE x SSV2</text>
<line x1="955" y1="925" x2="973" y2="925" stroke="#2563eb" stroke-width="3" stroke-dasharray="12 5" />
<text x="979.00" y="929.00" font-size="10" font-weight="400" text-anchor="start">VideoMAE x UCF101</text>
<line x1="955" y1="945" x2="973" y2="945" stroke="#2563eb" stroke-width="3" stroke-dasharray="1 4" />
<text x="979.00" y="949.00" font-size="10" font-weight="400" text-anchor="start">VideoMAE x Diving48</text>
<line x1="955" y1="965" x2="973" y2="965" stroke="#dc2626" stroke-width="3" />
<text x="979.00" y="969.00" font-size="10" font-weight="400" text-anchor="start">SlowFast R50 8x8 x SSV2</text>
<line x1="955" y1="985" x2="973" y2="985" stroke="#dc2626" stroke-width="3" stroke-dasharray="12 5" />
<text x="979.00" y="989.00" font-size="10" font-weight="400" text-anchor="start">SlowFast R50 8x8 x UCF101</text>
<line x1="955" y1="1005" x2="973" y2="1005" stroke="#dc2626" stroke-width="3" stroke-dasharray="1 4" />
<text x="979.00" y="1009.00" font-size="10" font-weight="400" text-anchor="start">SlowFast R50 8x8 x Diving48</text>
<line x1="955" y1="1025" x2="973" y2="1025" stroke="#7c3aed" stroke-width="3" />
<text x="979.00" y="1029.00" font-size="10" font-weight="400" text-anchor="start">DINOv2 frame-mean x SSV2</text>
<line x1="955" y1="1045" x2="973" y2="1045" stroke="#7c3aed" stroke-width="3" stroke-dasharray="12 5" />
<text x="979.00" y="1049.00" font-size="10" font-weight="400" text-anchor="start">DINOv2 frame-mean x UCF101</text>
<line x1="955" y1="1065" x2="973" y2="1065" stroke="#7c3aed" stroke-width="3" stroke-dasharray="1 4" />
<text x="979.00" y="1069.00" font-size="10" font-weight="400" text-anchor="start">DINOv2 frame-mean x Diving48</text>
<line x1="955" y1="1205" x2="973" y2="1205" stroke="#7c3aed" stroke-width="3" stroke-dasharray="9 3 2 3" />
<text x="979.00" y="1209.00" font-size="10" font-weight="400" text-anchor="start">DINOv2 frame-mean x HMDB51</text>
<line x1="955" y1="1225" x2="973" y2="1225" stroke="#7c3aed" stroke-width="3" stroke-dasharray="5 3" />
<text x="979.00" y="1229.00" font-size="10" font-weight="400" text-anchor="start">DINOv2 frame-mean x Kinetics</text>
<line x1="955" y1="1245" x2="973" y2="1245" stroke="#dc2626" stroke-width="3" stroke-dasharray="5 3" />
<text x="979.00" y="1249.00" font-size="10" font-weight="400" text-anchor="start">SlowFast R50 8x8 x Kinetics</text>
<line x1="955" y1="1265" x2="973" y2="1265" stroke="#db2777" stroke-width="3" stroke-dasharray="1 4" />
<text x="979.00" y="1269.00" font-size="10" font-weight="400" text-anchor="start">DisMo x Diving48</text>
<line x1="955" y1="1285" x2="973" y2="1285" stroke="#334155" stroke-width="3" stroke-dasharray="1 4" />
<text x="979.00" y="1289.00" font-size="10" font-weight="400" text-anchor="start">V-JEPA2 x Diving48</text>
<line x1="955" y1="1305" x2="973" y2="1305" stroke="#db2777" stroke-width="3" stroke-dasharray="9 3 2 3" />
<text x="979.00" y="1309.00" font-size="10" font-weight="400" text-anchor="start">DisMo x HMDB51</text>
<text x="90.00" y="1305.00" font-size="14" font-weight="700" text-anchor="start">Solarization low -&gt; mid -&gt; high</text>
<text x="18.00" y="1467.50" font-size="11" font-weight="400" text-anchor="middle" transform="rotate(-90 18.00 1467.50)">Accuracy drop</text>
<line x1="90" y1="1605" x2="930" y2="1605" stroke="#111827" stroke-width="1" />
<line x1="90" y1="1330" x2="90" y2="1605" stroke="#111827" stroke-width="1" />
<line x1="86" y1="1605.00" x2="90" y2="1605.00" stroke="#111827" />
<text x="82.00" y="1609.00" font-size="10" font-weight="400" text-anchor="end">-0.065</text>
<line x1="86" y1="1550.00" x2="90" y2="1550.00" stroke="#111827" />
<text x="82.00" y="1554.00" font-size="10" font-weight="400" text-anchor="end">0.052</text>
<line x1="90" y1="1550.00" x2="930" y2="1550.00" stroke="#e5e7eb" stroke-width="1" />
<line x1="86" y1="1495.00" x2="90" y2="1495.00" stroke="#111827" />
<text x="82.00" y="1499.00" font-size="10" font-weight="400" text-anchor="end">0.170</text>
<line x1="90" y1="1495.00" x2="930" y2="1495.00" stroke="#e5e7eb" stroke-width="1" />
<line x1="86" y1="1440.00" x2="90" y2="1440.00" stroke="#111827" />
<text x="82.00" y="1444.00" font-size="10" font-weight="400" text-anchor="end">0.288</text>
<line x1="90" y1="1440.00" x2="930" y2="1440.00" stroke="#e5e7eb" stroke-width="1" />
<line x1="86" y1="1385.00" x2="90" y2="1385.00" stroke="#111827" />
<text x="82.00" y="1389.00" font-size="10" font-weight="400" text-anchor="end">0.405</text>
<line x1="90" y1="1385.00" x2="930" y2="1385.00" stroke="#e5e7eb" stroke-width="1" />
<line x1="86" y1="1330.00" x2="90" y2="1330.00" stroke="#111827" />
<text x="82.00" y="1334.00" font-size="10" font-weight="400" text-anchor="end">0.523</text>
<line x1="90" y1="1574.49" x2="930" y2="1574.49" stroke="#6b7280" stroke-dasharray="4 4" />
<polyline points="90.00,1546.13 510.00,1550.80 930.00,1539.27" fill="none" stroke="#2563eb" stroke-width="2.3" stroke-linejoin="round" />
<circle cx="90.00" cy="1546.13" r="3.8" fill="#2563eb" />
<circle cx="510.00" cy="1550.80" r="3.8" fill="#2563eb" />
<circle cx="930.00" cy="1539.27" r="3.8" fill="#2563eb" />
<polyline points="90.00,1483.79 510.00,1455.73 930.00,1356.61" fill="none" stroke="#2563eb" stroke-width="2.3" stroke-linejoin="round" stroke-dasharray="12 5" />
<circle cx="90.00" cy="1483.79" r="3.8" fill="#2563eb" />
<circle cx="510.00" cy="1455.73" r="3.8" fill="#2563eb" />
<circle cx="930.00" cy="1356.61" r="3.8" fill="#2563eb" />
<polyline points="90.00,1577.41 510.00,1570.59 930.00,1567.67" fill="none" stroke="#2563eb" stroke-width="2.3" stroke-linejoin="round" stroke-dasharray="1 4" />
<circle cx="90.00" cy="1577.41" r="3.8" fill="#2563eb" />
<circle cx="510.00" cy="1570.59" r="3.8" fill="#2563eb" />
<circle cx="930.00" cy="1567.67" r="3.8" fill="#2563eb" />
<polyline points="90.00,1536.15 510.00,1545.19 930.00,1500.62" fill="none" stroke="#dc2626" stroke-width="2.3" stroke-linejoin="round" />
<circle cx="90.00" cy="1536.15" r="3.8" fill="#dc2626" />
<circle cx="510.00" cy="1545.19" r="3.8" fill="#dc2626" />
<circle cx="930.00" cy="1500.62" r="3.8" fill="#dc2626" />
<polyline points="90.00,1545.19 510.00,1539.27 930.00,1450.75" fill="none" stroke="#dc2626" stroke-width="2.3" stroke-linejoin="round" stroke-dasharray="12 5" />
<circle cx="90.00" cy="1545.19" r="3.8" fill="#dc2626" />
<circle cx="510.00" cy="1539.27" r="3.8" fill="#dc2626" />
<circle cx="930.00" cy="1450.75" r="3.8" fill="#dc2626" />
<polyline points="90.00,1567.67 510.00,1573.52 930.00,1553.06" fill="none" stroke="#dc2626" stroke-width="2.3" stroke-linejoin="round" stroke-dasharray="1 4" />
<circle cx="90.00" cy="1567.67" r="3.8" fill="#dc2626" />
<circle cx="510.00" cy="1573.52" r="3.8" fill="#dc2626" />
<circle cx="930.00" cy="1553.06" r="3.8" fill="#dc2626" />
<polyline points="90.00,1560.15 510.00,1568.26 930.00,1534.59" fill="none" stroke="#7c3aed" stroke-width="2.3" stroke-linejoin="round" />
<circle cx="90.00" cy="1560.15" r="3.8" fill="#7c3aed" />
<circle cx="510.00" cy="1568.26" r="3.8" fill="#7c3aed" />
<circle cx="930.00" cy="1534.59" r="3.8" fill="#7c3aed" />
<polyline points="90.00,1568.57 510.00,1566.39 930.00,1520.26" fill="none" stroke="#7c3aed" stroke-width="2.3" stroke-linejoin="round" stroke-dasharray="12 5" />
<circle cx="90.00" cy="1568.57" r="3.8" fill="#7c3aed" />
<circle cx="510.00" cy="1566.39" r="3.8" fill="#7c3aed" />
<circle cx="930.00" cy="1520.26" r="3.8" fill="#7c3aed" />
<polyline points="90.00,1570.59 510.00,1570.59 930.00,1550.14" fill="none" stroke="#7c3aed" stroke-width="2.3" stroke-linejoin="round" stroke-dasharray="1 4" />
<circle cx="90.00" cy="1570.59" r="3.8" fill="#7c3aed" />
<circle cx="510.00" cy="1570.59" r="3.8" fill="#7c3aed" />
<circle cx="930.00" cy="1550.14" r="3.8" fill="#7c3aed" />
<polyline points="90.00,1556.70 510.00,1553.63 930.00,1497.18" fill="none" stroke="#7c3aed" stroke-width="2.3" stroke-linejoin="round" stroke-dasharray="9 3 2 3" />
<circle cx="90.00" cy="1556.70" r="3.8" fill="#7c3aed" />
<circle cx="510.00" cy="1553.63" r="3.8" fill="#7c3aed" />
<circle cx="930.00" cy="1497.18" r="3.8" fill="#7c3aed" />
<polyline points="90.00,1546.44 510.00,1552.98 930.00,1477.86" fill="none" stroke="#7c3aed" stroke-width="2.3" stroke-linejoin="round" stroke-dasharray="5 3" />
<circle cx="90.00" cy="1546.44" r="3.8" fill="#7c3aed" />
<circle cx="510.00" cy="1552.98" r="3.8" fill="#7c3aed" />
<circle cx="930.00" cy="1477.86" r="3.8" fill="#7c3aed" />
<polyline points="90.00,1495.63 510.00,1475.37 930.00,1379.99" fill="none" stroke="#dc2626" stroke-width="2.3" stroke-linejoin="round" stroke-dasharray="5 3" />
<circle cx="90.00" cy="1495.63" r="3.8" fill="#dc2626" />
<circle cx="510.00" cy="1475.37" r="3.8" fill="#dc2626" />
<circle cx="930.00" cy="1379.99" r="3.8" fill="#dc2626" />
<polyline points="90.00,1571.57 510.00,1570.59 930.00,1574.49" fill="none" stroke="#db2777" stroke-width="2.3" stroke-linejoin="round" stroke-dasharray="1 4" />
<circle cx="90.00" cy="1571.57" r="3.8" fill="#db2777" />
<circle cx="510.00" cy="1570.59" r="3.8" fill="#db2777" />
<circle cx="930.00" cy="1574.49" r="3.8" fill="#db2777" />
<polyline points="90.00,1578.39 510.00,1575.46 930.00,1558.91" fill="none" stroke="#334155" stroke-width="2.3" stroke-linejoin="round" stroke-dasharray="1 4" />
<circle cx="90.00" cy="1578.39" r="3.8" fill="#334155" />
<circle cx="510.00" cy="1575.46" r="3.8" fill="#334155" />
<circle cx="930.00" cy="1558.91" r="3.8" fill="#334155" />
<polyline points="90.00,1547.49 510.00,1561.30 930.00,1511.60" fill="none" stroke="#db2777" stroke-width="2.3" stroke-linejoin="round" stroke-dasharray="9 3 2 3" />
<circle cx="90.00" cy="1547.49" r="3.8" fill="#db2777" />
<circle cx="510.00" cy="1561.30" r="3.8" fill="#db2777" />
<circle cx="930.00" cy="1511.60" r="3.8" fill="#db2777" />
<text x="90.00" y="1627.00" font-size="12" font-weight="400" text-anchor="middle">low</text>
<text x="510.00" y="1627.00" font-size="12" font-weight="400" text-anchor="middle">mid</text>
<text x="930.00" y="1627.00" font-size="12" font-weight="400" text-anchor="middle">high</text>
<line x1="955" y1="1315" x2="973" y2="1315" stroke="#2563eb" stroke-width="3" />
<text x="979.00" y="1319.00" font-size="10" font-weight="400" text-anchor="start">VideoMAE x SSV2</text>
<line x1="955" y1="1335" x2="973" y2="1335" stroke="#2563eb" stroke-width="3" stroke-dasharray="12 5" />
<text x="979.00" y="1339.00" font-size="10" font-weight="400" text-anchor="start">VideoMAE x UCF101</text>
<line x1="955" y1="1355" x2="973" y2="1355" stroke="#2563eb" stroke-width="3" stroke-dasharray="1 4" />
<text x="979.00" y="1359.00" font-size="10" font-weight="400" text-anchor="start">VideoMAE x Diving48</text>
<line x1="955" y1="1375" x2="973" y2="1375" stroke="#dc2626" stroke-width="3" />
<text x="979.00" y="1379.00" font-size="10" font-weight="400" text-anchor="start">SlowFast R50 8x8 x SSV2</text>
<line x1="955" y1="1395" x2="973" y2="1395" stroke="#dc2626" stroke-width="3" stroke-dasharray="12 5" />
<text x="979.00" y="1399.00" font-size="10" font-weight="400" text-anchor="start">SlowFast R50 8x8 x UCF101</text>
<line x1="955" y1="1415" x2="973" y2="1415" stroke="#dc2626" stroke-width="3" stroke-dasharray="1 4" />
<text x="979.00" y="1419.00" font-size="10" font-weight="400" text-anchor="start">SlowFast R50 8x8 x Diving48</text>
<line x1="955" y1="1435" x2="973" y2="1435" stroke="#7c3aed" stroke-width="3" />
<text x="979.00" y="1439.00" font-size="10" font-weight="400" text-anchor="start">DINOv2 frame-mean x SSV2</text>
<line x1="955" y1="1455" x2="973" y2="1455" stroke="#7c3aed" stroke-width="3" stroke-dasharray="12 5" />
<text x="979.00" y="1459.00" font-size="10" font-weight="400" text-anchor="start">DINOv2 frame-mean x UCF101</text>
<line x1="955" y1="1475" x2="973" y2="1475" stroke="#7c3aed" stroke-width="3" stroke-dasharray="1 4" />
<text x="979.00" y="1479.00" font-size="10" font-weight="400" text-anchor="start">DINOv2 frame-mean x Diving48</text>
<line x1="955" y1="1615" x2="973" y2="1615" stroke="#7c3aed" stroke-width="3" stroke-dasharray="9 3 2 3" />
<text x="979.00" y="1619.00" font-size="10" font-weight="400" text-anchor="start">DINOv2 frame-mean x HMDB51</text>
<line x1="955" y1="1635" x2="973" y2="1635" stroke="#7c3aed" stroke-width="3" stroke-dasharray="5 3" />
<text x="979.00" y="1639.00" font-size="10" font-weight="400" text-anchor="start">DINOv2 frame-mean x Kinetics</text>
<line x1="955" y1="1655" x2="973" y2="1655" stroke="#dc2626" stroke-width="3" stroke-dasharray="5 3" />
<text x="979.00" y="1659.00" font-size="10" font-weight="400" text-anchor="start">SlowFast R50 8x8 x Kinetics</text>
<line x1="955" y1="1675" x2="973" y2="1675" stroke="#db2777" stroke-width="3" stroke-dasharray="1 4" />
<text x="979.00" y="1679.00" font-size="10" font-weight="400" text-anchor="start">DisMo x Diving48</text>
<line x1="955" y1="1695" x2="973" y2="1695" stroke="#334155" stroke-width="3" stroke-dasharray="1 4" />
<text x="979.00" y="1699.00" font-size="10" font-weight="400" text-anchor="start">V-JEPA2 x Diving48</text>
<line x1="955" y1="1715" x2="973" y2="1715" stroke="#db2777" stroke-width="3" stroke-dasharray="9 3 2 3" />
<text x="979.00" y="1719.00" font-size="10" font-weight="400" text-anchor="start">DisMo x HMDB51</text>
</svg>
