<svg xmlns="http://www.w3.org/2000/svg" width="1600" height="620" viewBox="0 0 1600 620">
<rect width="100%" height="100%" fill="#ffffff" />
<style>text { font-family: Arial, Helvetica, sans-serif; fill: #111827; }</style>
<text x="800.00" y="28.00" font-size="18" font-weight="700" text-anchor="middle">Fixed-mid perturbation: mean cosine distance</text>
<text x="18.00" y="257.50" font-size="12" font-weight="400" text-anchor="middle" transform="rotate(-90 18.00 257.50)">Mean cosine distance</text>
<line x1="90" y1="460" x2="1570" y2="460" stroke="#111827" stroke-width="1" />
<line x1="90" y1="55" x2="90" y2="460" stroke="#111827" stroke-width="1" />
<line x1="86" y1="460.00" x2="90" y2="460.00" stroke="#111827" />
<text x="82.00" y="464.00" font-size="10" font-weight="400" text-anchor="end">-0.085</text>
<line x1="86" y1="379.00" x2="90" y2="379.00" stroke="#111827" />
<text x="82.00" y="383.00" font-size="10" font-weight="400" text-anchor="end">0.091</text>
<line x1="90" y1="379.00" x2="1570" y2="379.00" stroke="#e5e7eb" stroke-width="1" />
<line x1="86" y1="298.00" x2="90" y2="298.00" stroke="#111827" />
<text x="82.00" y="302.00" font-size="10" font-weight="400" text-anchor="end">0.267</text>
<line x1="90" y1="298.00" x2="1570" y2="298.00" stroke="#e5e7eb" stroke-width="1" />
<line x1="86" y1="217.00" x2="90" y2="217.00" stroke="#111827" />
<text x="82.00" y="221.00" font-size="10" font-weight="400" text-anchor="end">0.443</text>
<line x1="90" y1="217.00" x2="1570" y2="217.00" stroke="#e5e7eb" stroke-width="1" />
<line x1="86" y1="136.00" x2="90" y2="136.00" stroke="#111827" />
<text x="82.00" y="140.00" font-size="10" font-weight="400" text-anchor="end">0.619</text>
<line x1="90" y1="136.00" x2="1570" y2="136.00" stroke="#e5e7eb" stroke-width="1" />
<line x1="86" y1="55.00" x2="90" y2="55.00" stroke="#111827" />
<text x="82.00" y="59.00" font-size="10" font-weight="400" text-anchor="end">0.795</text>
<line x1="90" y1="420.81" x2="1570" y2="420.81" stroke="#6b7280" stroke-dasharray="4 4" />
<rect x="106.65" y="410.21" width="18.50" height="10.60" fill="#2563eb" />
<rect x="128.85" y="417.83" width="18.50" height="2.98" fill="#ea580c" />
<text x="127.00" y="520.00" font-size="10" font-weight="400" text-anchor="end" transform="rotate(-40 127.00 520.00)">VideoMAE x SSV2</text>
<rect x="180.65" y="415.18" width="18.50" height="5.63" fill="#2563eb" />
<rect x="202.85" y="416.46" width="18.50" height="4.35" fill="#ea580c" />
<text x="201.00" y="520.00" font-size="10" font-weight="400" text-anchor="end" transform="rotate(-40 201.00 520.00)">VideoMAE x UCF101</text>
<rect x="254.65" y="383.89" width="18.50" height="36.92" fill="#2563eb" />
<rect x="276.85" y="420.32" width="18.50" height="0.49" fill="#ea580c" />
<text x="275.00" y="520.00" font-size="10" font-weight="400" text-anchor="end" transform="rotate(-40 275.00 520.00)">VideoMAE x Diving48</text>
<rect x="328.65" y="318.67" width="18.50" height="102.13" fill="#2563eb" />
<rect x="350.85" y="385.75" width="18.50" height="35.05" fill="#ea580c" />
<text x="349.00" y="520.00" font-size="10" font-weight="400" text-anchor="end" transform="rotate(-40 349.00 520.00)">SlowFast R50 8x8 x SSV2</text>
<rect x="402.65" y="346.51" width="18.50" height="74.29" fill="#2563eb" />
<rect x="424.85" y="392.80" width="18.50" height="28.00" fill="#ea580c" />
<text x="423.00" y="520.00" font-size="10" font-weight="400" text-anchor="end" transform="rotate(-40 423.00 520.00)">SlowFast R50 8x8 x UCF101</text>
<rect x="476.65" y="326.27" width="18.50" height="94.54" fill="#2563eb" />
<rect x="498.85" y="418.35" width="18.50" height="2.46" fill="#ea580c" />
<text x="497.00" y="520.00" font-size="10" font-weight="400" text-anchor="end" transform="rotate(-40 497.00 520.00)">SlowFast R50 8x8 x Diving48</text>
<rect x="550.65" y="420.81" width="18.50" height="0.00" fill="#2563eb" />
<rect x="572.85" y="398.57" width="18.50" height="22.24" fill="#ea580c" />
<text x="571.00" y="520.00" font-size="10" font-weight="400" text-anchor="end" transform="rotate(-40 571.00 520.00)">DINOv2 frame-mean x SSV2</text>
<rect x="624.65" y="420.81" width="18.50" height="0.00" fill="#2563eb" />
<rect x="646.85" y="402.68" width="18.50" height="18.13" fill="#ea580c" />
<text x="645.00" y="520.00" font-size="10" font-weight="400" text-anchor="end" transform="rotate(-40 645.00 520.00)">DINOv2 frame-mean x UCF101</text>
<rect x="698.65" y="420.81" width="18.50" height="0.00" fill="#2563eb" />
<rect x="720.85" y="419.27" width="18.50" height="1.53" fill="#ea580c" />
<text x="719.00" y="520.00" font-size="10" font-weight="400" text-anchor="end" transform="rotate(-40 719.00 520.00)">DINOv2 frame-mean x Diving48</text>
<rect x="772.65" y="379.07" width="18.50" height="41.74" fill="#2563eb" />
<rect x="794.85" y="353.11" width="18.50" height="67.70" fill="#ea580c" />
<text x="793.00" y="520.00" font-size="10" font-weight="400" text-anchor="end" transform="rotate(-40 793.00 520.00)">V-JEPA2 x HMDB51</text>
<rect x="846.65" y="414.23" width="18.50" height="6.58" fill="#2563eb" />
<rect x="868.85" y="416.61" width="18.50" height="4.19" fill="#ea580c" />
<text x="867.00" y="520.00" font-size="10" font-weight="400" text-anchor="end" transform="rotate(-40 867.00 520.00)">VideoMAE x HMDB51</text>
<rect x="920.65" y="309.98" width="18.50" height="110.83" fill="#2563eb" />
<rect x="942.85" y="390.13" width="18.50" height="30.68" fill="#ea580c" />
<text x="941.00" y="520.00" font-size="10" font-weight="400" text-anchor="end" transform="rotate(-40 941.00 520.00)">SlowFast R50 8x8 x HMDB51</text>
<rect x="994.65" y="412.48" width="18.50" height="8.32" fill="#2563eb" />
<rect x="1016.85" y="419.59" width="18.50" height="1.21" fill="#ea580c" />
<text x="1015.00" y="520.00" font-size="10" font-weight="400" text-anchor="end" transform="rotate(-40 1015.00 520.00)">VideoMAE x Kinetics</text>
<rect x="1068.65" y="247.11" width="18.50" height="173.70" fill="#2563eb" />
<rect x="1090.85" y="416.68" width="18.50" height="4.13" fill="#ea580c" />
<text x="1089.00" y="520.00" font-size="10" font-weight="400" text-anchor="end" transform="rotate(-40 1089.00 520.00)">DisMo x Kinetics</text>
<rect x="1142.65" y="381.48" width="18.50" height="39.33" fill="#2563eb" />
<rect x="1164.85" y="375.30" width="18.50" height="45.51" fill="#ea580c" />
<text x="1163.00" y="520.00" font-size="10" font-weight="400" text-anchor="end" transform="rotate(-40 1163.00 520.00)">V-JEPA2 x Kinetics</text>
<rect x="1216.65" y="420.81" width="18.50" height="0.00" fill="#2563eb" />
<rect x="1238.85" y="403.35" width="18.50" height="17.46" fill="#ea580c" />
<text x="1237.00" y="520.00" font-size="10" font-weight="400" text-anchor="end" transform="rotate(-40 1237.00 520.00)">DINOv2 frame-mean x HMDB51</text>
<rect x="1290.65" y="420.81" width="18.50" height="0.00" fill="#2563eb" />
<rect x="1312.85" y="413.93" width="18.50" height="6.88" fill="#ea580c" />
<text x="1311.00" y="520.00" font-size="10" font-weight="400" text-anchor="end" transform="rotate(-40 1311.00 520.00)">DINOv2 frame-mean x Kinetics</text>
<rect x="1364.65" y="335.15" width="18.50" height="85.66" fill="#2563eb" />
<rect x="1386.85" y="409.32" width="18.50" height="11.49" fill="#ea580c" />
<text x="1385.00" y="520.00" font-size="10" font-weight="400" text-anchor="end" transform="rotate(-40 1385.00 520.00)">SlowFast R50 8x8 x Kinetics</text>
<rect x="1438.65" y="94.19" width="18.50" height="326.61" fill="#2563eb" />
<rect x="1460.85" y="419.61" width="18.50" height="1.19" fill="#ea580c" />
<text x="1459.00" y="520.00" font-size="10" font-weight="400" text-anchor="end" transform="rotate(-40 1459.00 520.00)">DisMo x Diving48</text>
<rect x="1512.65" y="365.16" width="18.50" height="55.64" fill="#2563eb" />
<rect x="1534.85" y="393.87" width="18.50" height="26.94" fill="#ea580c" />
<text x="1533.00" y="520.00" font-size="10" font-weight="400" text-anchor="end" transform="rotate(-40 1533.00 520.00)">V-JEPA2 x Diving48</text>
<rect x="102" y="38" width="12" height="12" fill="#2563eb" />
<text x="120.00" y="48.00" font-size="12" font-weight="400" text-anchor="start">temporal-shuffle-mid</text>
<rect x="102" y="58" width="12" height="12" fill="#ea580c" />
<text x="120.00" y="68.00" font-size="12" font-weight="400" text-anchor="start">spatial-blur-mid</text>
</svg>
