<svg xmlns="http://www.w3.org/2000/svg" width="1080" height="886" viewBox="0 0 1080 886">
<rect width="100%" height="100%" fill="#ffffff" />
<style>text { font-family: Arial, Helvetica, sans-serif; fill: #111827; }</style>
<text x="540.00" y="22.00" font-size="15" font-weight="700" text-anchor="middle">Per-cell perturbation profile (correct-to-incorrect rate, up to 14 artifacts -- cells built before the matrix expansion show only the original 8)</text>
<text x="540.00" y="40.00" font-size="10" font-weight="400" text-anchor="middle">Frame counts below each model differ (16-64) and are NOT yet normalized to a shared window -- motion-perturbation magnitude is not directly comparable across models</text>
<text x="225.00" y="86.00" font-size="12" font-weight="700" text-anchor="middle">VideoMAE</text>
<text x="225.00" y="102.00" font-size="10" font-weight="400" text-anchor="middle">16 frames sampled</text>
<text x="415.00" y="86.00" font-size="12" font-weight="700" text-anchor="middle">SlowFast R50 8x8</text>
<text x="415.00" y="102.00" font-size="10" font-weight="400" text-anchor="middle">32 frames sampled</text>
<text x="605.00" y="86.00" font-size="12" font-weight="700" text-anchor="middle">DINOv2 frame-mean</text>
<text x="605.00" y="102.00" font-size="10" font-weight="400" text-anchor="middle">16 frames sampled</text>
<text x="795.00" y="86.00" font-size="12" font-weight="700" text-anchor="middle">V-JEPA2</text>
<text x="795.00" y="102.00" font-size="10" font-weight="400" text-anchor="middle">64 frames sampled</text>
<text x="985.00" y="86.00" font-size="12" font-weight="700" text-anchor="middle">DisMo</text>
<text x="985.00" y="102.00" font-size="10" font-weight="400" text-anchor="middle">16 frames sampled</text>
<text x="120.00" y="181.00" font-size="12" font-weight="700" text-anchor="end">SSV2</text>
<rect x="134" y="110" width="182" height="142" fill="none" stroke="#e5e7eb" stroke-width="1" />
<text x="225.00" y="122.00" font-size="9" font-weight="400" text-anchor="middle">LP orig. 25%</text>
<rect x="134.00" y="210.21" width="11.14" height="37.79" fill="#2563eb" />
<rect x="147.14" y="240.17" width="11.14" height="7.83" fill="#2563eb" />
<rect x="160.29" y="230.72" width="11.14" height="17.28" fill="#2563eb" />
<rect x="173.43" y="218.79" width="11.14" height="29.21" fill="#2563eb" />
<rect x="186.57" y="247.50" width="11.14" height="0.60" fill="#ea580c" />
<rect x="199.71" y="246.51" width="11.14" height="1.49" fill="#ea580c" />
<rect x="212.86" y="243.03" width="11.14" height="4.97" fill="#ea580c" />
<rect x="226.00" y="232.34" width="11.14" height="15.66" fill="#ea580c" />
<rect x="239.14" y="228.24" width="11.14" height="19.76" fill="#ea580c" />
<rect x="252.29" y="222.02" width="11.14" height="25.98" fill="#ea580c" />
<rect x="265.43" y="218.29" width="11.14" height="29.71" fill="#ea580c" />
<rect x="278.57" y="230.60" width="11.14" height="17.40" fill="#ea580c" />
<rect x="291.71" y="230.85" width="11.14" height="17.15" fill="#ea580c" />
<rect x="304.86" y="224.88" width="11.14" height="23.12" fill="#ea580c" />
<line x1="134" y1="248.00" x2="316" y2="248.00" stroke="#9ca3af" stroke-width="1" />
<rect x="324" y="110" width="182" height="142" fill="none" stroke="#e5e7eb" stroke-width="1" />
<text x="415.00" y="122.00" font-size="9" font-weight="400" text-anchor="middle">LP orig. 34%</text>
<rect x="324.00" y="204.50" width="11.14" height="43.50" fill="#2563eb" />
<rect x="337.14" y="235.07" width="11.14" height="12.93" fill="#2563eb" />
<rect x="350.29" y="221.90" width="11.14" height="26.10" fill="#2563eb" />
<rect x="363.43" y="205.12" width="11.14" height="42.88" fill="#2563eb" />
<rect x="376.57" y="247.75" width="11.14" height="0.60" fill="#ea580c" />
<rect x="389.71" y="246.14" width="11.14" height="1.86" fill="#ea580c" />
<rect x="402.86" y="242.66" width="11.14" height="5.34" fill="#ea580c" />
<rect x="416.00" y="235.94" width="11.14" height="12.06" fill="#ea580c" />
<rect x="429.14" y="233.21" width="11.14" height="14.79" fill="#ea580c" />
<rect x="442.29" y="219.29" width="11.14" height="28.71" fill="#ea580c" />
<rect x="455.43" y="205.12" width="11.14" height="42.88" fill="#ea580c" />
<rect x="468.57" y="222.27" width="11.14" height="25.73" fill="#ea580c" />
<rect x="481.71" y="223.14" width="11.14" height="24.86" fill="#ea580c" />
<rect x="494.86" y="207.11" width="11.14" height="40.89" fill="#ea580c" />
<line x1="324" y1="248.00" x2="506" y2="248.00" stroke="#9ca3af" stroke-width="1" />
<rect x="514" y="110" width="182" height="142" fill="none" stroke="#e5e7eb" stroke-width="1" />
<text x="605.00" y="122.00" font-size="9" font-weight="400" text-anchor="middle">LP orig. 30%</text>
<rect x="514.00" y="248.00" width="11.14" height="0.60" fill="#2563eb" />
<rect x="527.14" y="246.76" width="11.14" height="1.24" fill="#2563eb" />
<rect x="540.29" y="242.66" width="11.14" height="5.34" fill="#2563eb" />
<rect x="553.43" y="238.68" width="11.14" height="9.32" fill="#2563eb" />
<rect x="566.57" y="248.00" width="11.14" height="0.60" fill="#ea580c" />
<rect x="579.71" y="247.63" width="11.14" height="0.60" fill="#ea580c" />
<rect x="592.86" y="245.89" width="11.14" height="2.11" fill="#ea580c" />
<rect x="606.00" y="241.04" width="11.14" height="6.96" fill="#ea580c" />
<rect x="619.14" y="240.42" width="11.14" height="7.58" fill="#ea580c" />
<rect x="632.29" y="232.34" width="11.14" height="15.66" fill="#ea580c" />
<rect x="645.43" y="217.55" width="11.14" height="30.45" fill="#ea580c" />
<rect x="658.57" y="234.20" width="11.14" height="13.80" fill="#ea580c" />
<rect x="671.71" y="236.81" width="11.14" height="11.19" fill="#ea580c" />
<rect x="684.86" y="221.15" width="11.14" height="26.85" fill="#ea580c" />
<line x1="514" y1="248.00" x2="696" y2="248.00" stroke="#9ca3af" stroke-width="1" />
<rect x="704" y="110" width="182" height="142" fill="none" stroke="#e5e7eb" stroke-width="1" />
<text x="795.00" y="122.00" font-size="9" font-weight="400" text-anchor="middle">LP orig. 43%</text>
<rect x="704.00" y="196.79" width="11.14" height="51.21" fill="#2563eb" />
<rect x="717.14" y="239.55" width="11.14" height="8.45" fill="#2563eb" />
<rect x="730.29" y="221.65" width="11.14" height="26.35" fill="#2563eb" />
<rect x="743.43" y="194.93" width="11.14" height="53.07" fill="#2563eb" />
<rect x="756.57" y="247.75" width="11.14" height="0.60" fill="#ea580c" />
<rect x="769.71" y="246.38" width="11.14" height="1.62" fill="#ea580c" />
<rect x="782.86" y="243.15" width="11.14" height="4.85" fill="#ea580c" />
<rect x="796.00" y="227.99" width="11.14" height="20.01" fill="#ea580c" />
<rect x="809.14" y="235.94" width="11.14" height="12.06" fill="#ea580c" />
<rect x="822.29" y="225.75" width="11.14" height="22.25" fill="#ea580c" />
<rect x="835.43" y="212.45" width="11.14" height="35.55" fill="#ea580c" />
<rect x="848.57" y="229.36" width="11.14" height="18.64" fill="#ea580c" />
<rect x="861.71" y="233.83" width="11.14" height="14.17" fill="#ea580c" />
<rect x="874.86" y="218.29" width="11.14" height="29.71" fill="#ea580c" />
<line x1="704" y1="248.00" x2="886" y2="248.00" stroke="#9ca3af" stroke-width="1" />
<rect x="894" y="110" width="182" height="142" fill="none" stroke="#e5e7eb" stroke-width="1" />
<text x="985.00" y="122.00" font-size="9" font-weight="400" text-anchor="middle">LP orig. 39%</text>
<rect x="894.00" y="194.93" width="11.14" height="53.07" fill="#2563eb" />
<rect x="907.14" y="240.92" width="11.14" height="7.08" fill="#2563eb" />
<rect x="920.29" y="217.67" width="11.14" height="30.33" fill="#2563eb" />
<rect x="933.43" y="186.35" width="11.14" height="61.65" fill="#2563eb" />
<rect x="946.57" y="247.88" width="11.14" height="0.60" fill="#ea580c" />
<rect x="959.71" y="246.51" width="11.14" height="1.49" fill="#ea580c" />
<rect x="972.86" y="243.40" width="11.14" height="4.60" fill="#ea580c" />
<rect x="986.00" y="239.80" width="11.14" height="8.20" fill="#ea580c" />
<rect x="999.14" y="238.93" width="11.14" height="9.07" fill="#ea580c" />
<rect x="1012.29" y="234.33" width="11.14" height="13.67" fill="#ea580c" />
<rect x="1025.43" y="225.25" width="11.14" height="22.75" fill="#ea580c" />
<rect x="1038.57" y="222.52" width="11.14" height="25.48" fill="#ea580c" />
<rect x="1051.71" y="234.95" width="11.14" height="13.05" fill="#ea580c" />
<rect x="1064.86" y="220.41" width="11.14" height="27.59" fill="#ea580c" />
<line x1="894" y1="248.00" x2="1076" y2="248.00" stroke="#9ca3af" stroke-width="1" />
<text x="120.00" y="331.00" font-size="12" font-weight="700" text-anchor="end">UCF101</text>
<rect x="134" y="260" width="182" height="142" fill="none" stroke="#e5e7eb" stroke-width="1" />
<text x="225.00" y="272.00" font-size="9" font-weight="400" text-anchor="middle">LP orig. 85%</text>
<rect x="134.00" y="345.80" width="11.14" height="52.20" fill="#2563eb" />
<rect x="147.14" y="394.02" width="11.14" height="3.98" fill="#2563eb" />
<rect x="160.29" y="385.32" width="11.14" height="12.68" fill="#2563eb" />
<rect x="173.43" y="367.55" width="11.14" height="30.45" fill="#2563eb" />
<rect x="186.57" y="397.38" width="11.14" height="0.62" fill="#ea580c" />
<rect x="199.71" y="394.89" width="11.14" height="3.11" fill="#ea580c" />
<rect x="212.86" y="385.07" width="11.14" height="12.93" fill="#ea580c" />
<rect x="226.00" y="339.58" width="11.14" height="58.42" fill="#ea580c" />
<rect x="239.14" y="370.03" width="11.14" height="27.97" fill="#ea580c" />
<rect x="252.29" y="331.38" width="11.14" height="66.62" fill="#ea580c" />
<rect x="265.43" y="290.86" width="11.14" height="107.14" fill="#ea580c" />
<rect x="278.57" y="358.35" width="11.14" height="39.65" fill="#ea580c" />
<rect x="291.71" y="347.78" width="11.14" height="50.22" fill="#ea580c" />
<rect x="304.86" y="308.88" width="11.14" height="89.12" fill="#ea580c" />
<line x1="134" y1="398.00" x2="316" y2="398.00" stroke="#9ca3af" stroke-width="1" />
<rect x="324" y="260" width="182" height="142" fill="none" stroke="#e5e7eb" stroke-width="1" />
<text x="415.00" y="272.00" font-size="9" font-weight="400" text-anchor="middle">LP orig. 99%</text>
<rect x="324.00" y="388.93" width="11.14" height="9.07" fill="#2563eb" />
<rect x="337.14" y="397.25" width="11.14" height="0.75" fill="#2563eb" />
<rect x="350.29" y="395.89" width="11.14" height="2.11" fill="#2563eb" />
<rect x="363.43" y="390.42" width="11.14" height="7.58" fill="#2563eb" />
<rect x="376.57" y="398.00" width="11.14" height="0.60" fill="#ea580c" />
<rect x="389.71" y="397.88" width="11.14" height="0.60" fill="#ea580c" />
<rect x="402.86" y="397.63" width="11.14" height="0.60" fill="#ea580c" />
<rect x="416.00" y="395.02" width="11.14" height="2.98" fill="#ea580c" />
<rect x="429.14" y="396.38" width="11.14" height="1.62" fill="#ea580c" />
<rect x="442.29" y="390.17" width="11.14" height="7.83" fill="#ea580c" />
<rect x="455.43" y="364.32" width="11.14" height="33.68" fill="#ea580c" />
<rect x="468.57" y="385.82" width="11.14" height="12.18" fill="#ea580c" />
<rect x="481.71" y="383.46" width="11.14" height="14.54" fill="#ea580c" />
<rect x="494.86" y="348.41" width="11.14" height="49.59" fill="#ea580c" />
<line x1="324" y1="398.00" x2="506" y2="398.00" stroke="#9ca3af" stroke-width="1" />
<rect x="514" y="260" width="182" height="142" fill="none" stroke="#e5e7eb" stroke-width="1" />
<text x="605.00" y="272.00" font-size="9" font-weight="400" text-anchor="middle">LP orig. 99%</text>
<rect x="514.00" y="398.00" width="11.14" height="0.60" fill="#2563eb" />
<rect x="527.14" y="397.75" width="11.14" height="0.60" fill="#2563eb" />
<rect x="540.29" y="397.88" width="11.14" height="0.60" fill="#2563eb" />
<rect x="553.43" y="397.38" width="11.14" height="0.62" fill="#2563eb" />
<rect x="566.57" y="398.00" width="11.14" height="0.60" fill="#ea580c" />
<rect x="579.71" y="398.00" width="11.14" height="0.60" fill="#ea580c" />
<rect x="592.86" y="397.63" width="11.14" height="0.60" fill="#ea580c" />
<rect x="606.00" y="397.25" width="11.14" height="0.75" fill="#ea580c" />
<rect x="619.14" y="397.50" width="11.14" height="0.60" fill="#ea580c" />
<rect x="632.29" y="395.39" width="11.14" height="2.61" fill="#ea580c" />
<rect x="645.43" y="385.57" width="11.14" height="12.43" fill="#ea580c" />
<rect x="658.57" y="394.89" width="11.14" height="3.11" fill="#ea580c" />
<rect x="671.71" y="394.27" width="11.14" height="3.73" fill="#ea580c" />
<rect x="684.86" y="376.00" width="11.14" height="22.00" fill="#ea580c" />
<line x1="514" y1="398.00" x2="696" y2="398.00" stroke="#9ca3af" stroke-width="1" />
<rect x="704" y="260" width="182" height="142" fill="none" stroke="#e5e7eb" stroke-width="1" />
<text x="795.00" y="272.00" font-size="9" font-weight="400" text-anchor="middle">LP orig. 99%</text>
<rect x="704.00" y="383.58" width="11.14" height="14.42" fill="#2563eb" />
<rect x="717.14" y="397.25" width="11.14" height="0.75" fill="#2563eb" />
<rect x="730.29" y="394.77" width="11.14" height="3.23" fill="#2563eb" />
<rect x="743.43" y="388.06" width="11.14" height="9.94" fill="#2563eb" />
<rect x="756.57" y="397.88" width="11.14" height="0.60" fill="#ea580c" />
<rect x="769.71" y="397.88" width="11.14" height="0.60" fill="#ea580c" />
<rect x="782.86" y="396.76" width="11.14" height="1.24" fill="#ea580c" />
<rect x="796.00" y="367.17" width="11.14" height="30.83" fill="#ea580c" />
<rect x="809.14" y="396.14" width="11.14" height="1.86" fill="#ea580c" />
<rect x="822.29" y="392.41" width="11.14" height="5.59" fill="#ea580c" />
<rect x="835.43" y="378.11" width="11.14" height="19.89" fill="#ea580c" />
<rect x="848.57" y="393.15" width="11.14" height="4.85" fill="#ea580c" />
<rect x="861.71" y="391.79" width="11.14" height="6.21" fill="#ea580c" />
<rect x="874.86" y="378.36" width="11.14" height="19.64" fill="#ea580c" />
<line x1="704" y1="398.00" x2="886" y2="398.00" stroke="#9ca3af" stroke-width="1" />
<rect x="894" y="260" width="182" height="142" fill="none" stroke="#e5e7eb" stroke-width="1" />
<text x="985.00" y="331.00" font-size="10" font-weight="400" text-anchor="middle">no run</text>
<text x="120.00" y="481.00" font-size="12" font-weight="700" text-anchor="end">Diving48</text>
<rect x="134" y="410" width="182" height="142" fill="none" stroke="#e5e7eb" stroke-width="1" />
<text x="225.00" y="422.00" font-size="9" font-weight="400" text-anchor="middle">LP orig. 7%</text>
<rect x="134.00" y="537.51" width="11.14" height="10.49" fill="#2563eb" />
<rect x="147.14" y="545.28" width="11.14" height="2.72" fill="#2563eb" />
<rect x="160.29" y="542.56" width="11.14" height="5.44" fill="#2563eb" />
<rect x="173.43" y="536.35" width="11.14" height="11.65" fill="#2563eb" />
<rect x="186.57" y="548.00" width="11.14" height="0.60" fill="#ea580c" />
<rect x="199.71" y="546.83" width="11.14" height="1.17" fill="#ea580c" />
<rect x="212.86" y="546.06" width="11.14" height="1.94" fill="#ea580c" />
<rect x="226.00" y="543.73" width="11.14" height="4.27" fill="#ea580c" />
<rect x="239.14" y="544.50" width="11.14" height="3.50" fill="#ea580c" />
<rect x="252.29" y="543.34" width="11.14" height="4.66" fill="#ea580c" />
<rect x="265.43" y="543.34" width="11.14" height="4.66" fill="#ea580c" />
<rect x="278.57" y="545.28" width="11.14" height="2.72" fill="#ea580c" />
<rect x="291.71" y="542.95" width="11.14" height="5.05" fill="#ea580c" />
<rect x="304.86" y="541.01" width="11.14" height="6.99" fill="#ea580c" />
<line x1="134" y1="548.00" x2="316" y2="548.00" stroke="#9ca3af" stroke-width="1" />
<rect x="324" y="410" width="182" height="142" fill="none" stroke="#e5e7eb" stroke-width="1" />
<text x="415.00" y="422.00" font-size="9" font-weight="400" text-anchor="middle">LP orig. 9%</text>
<rect x="324.00" y="534.41" width="11.14" height="13.59" fill="#2563eb" />
<rect x="337.14" y="540.23" width="11.14" height="7.77" fill="#2563eb" />
<rect x="350.29" y="534.02" width="11.14" height="13.98" fill="#2563eb" />
<rect x="363.43" y="533.63" width="11.14" height="14.37" fill="#2563eb" />
<rect x="376.57" y="547.61" width="11.14" height="0.60" fill="#ea580c" />
<rect x="389.71" y="546.83" width="11.14" height="1.17" fill="#ea580c" />
<rect x="402.86" y="543.34" width="11.14" height="4.66" fill="#ea580c" />
<rect x="416.00" y="545.67" width="11.14" height="2.33" fill="#ea580c" />
<rect x="429.14" y="542.56" width="11.14" height="5.44" fill="#ea580c" />
<rect x="442.29" y="537.12" width="11.14" height="10.88" fill="#ea580c" />
<rect x="455.43" y="533.63" width="11.14" height="14.37" fill="#ea580c" />
<rect x="468.57" y="541.01" width="11.14" height="6.99" fill="#ea580c" />
<rect x="481.71" y="541.79" width="11.14" height="6.21" fill="#ea580c" />
<rect x="494.86" y="532.46" width="11.14" height="15.54" fill="#ea580c" />
<line x1="324" y1="548.00" x2="506" y2="548.00" stroke="#9ca3af" stroke-width="1" />
<rect x="514" y="410" width="182" height="142" fill="none" stroke="#e5e7eb" stroke-width="1" />
<text x="605.00" y="422.00" font-size="9" font-weight="400" text-anchor="middle">LP orig. 10%</text>
<rect x="514.00" y="548.00" width="11.14" height="0.60" fill="#2563eb" />
<rect x="527.14" y="546.06" width="11.14" height="1.94" fill="#2563eb" />
<rect x="540.29" y="542.17" width="11.14" height="5.83" fill="#2563eb" />
<rect x="553.43" y="537.51" width="11.14" height="10.49" fill="#2563eb" />
<rect x="566.57" y="547.61" width="11.14" height="0.60" fill="#ea580c" />
<rect x="579.71" y="547.22" width="11.14" height="0.78" fill="#ea580c" />
<rect x="592.86" y="545.67" width="11.14" height="2.33" fill="#ea580c" />
<rect x="606.00" y="546.06" width="11.14" height="1.94" fill="#ea580c" />
<rect x="619.14" y="542.17" width="11.14" height="5.83" fill="#ea580c" />
<rect x="632.29" y="537.12" width="11.14" height="10.88" fill="#ea580c" />
<rect x="645.43" y="533.24" width="11.14" height="14.76" fill="#ea580c" />
<rect x="658.57" y="540.23" width="11.14" height="7.77" fill="#ea580c" />
<rect x="671.71" y="537.90" width="11.14" height="10.10" fill="#ea580c" />
<rect x="684.86" y="530.91" width="11.14" height="17.09" fill="#ea580c" />
<line x1="514" y1="548.00" x2="696" y2="548.00" stroke="#9ca3af" stroke-width="1" />
<rect x="704" y="410" width="182" height="142" fill="none" stroke="#e5e7eb" stroke-width="1" />
<text x="795.00" y="422.00" font-size="9" font-weight="400" text-anchor="middle">LP orig. 9%</text>
<rect x="704.00" y="534.79" width="11.14" height="13.21" fill="#2563eb" />
<rect x="717.14" y="540.62" width="11.14" height="7.38" fill="#2563eb" />
<rect x="730.29" y="534.41" width="11.14" height="13.59" fill="#2563eb" />
<rect x="743.43" y="534.79" width="11.14" height="13.21" fill="#2563eb" />
<rect x="756.57" y="548.00" width="11.14" height="0.60" fill="#ea580c" />
<rect x="769.71" y="547.22" width="11.14" height="0.78" fill="#ea580c" />
<rect x="782.86" y="542.95" width="11.14" height="5.05" fill="#ea580c" />
<rect x="796.00" y="539.45" width="11.14" height="8.55" fill="#ea580c" />
<rect x="809.14" y="540.62" width="11.14" height="7.38" fill="#ea580c" />
<rect x="822.29" y="539.45" width="11.14" height="8.55" fill="#ea580c" />
<rect x="835.43" y="536.74" width="11.14" height="11.26" fill="#ea580c" />
<rect x="848.57" y="541.40" width="11.14" height="6.60" fill="#ea580c" />
<rect x="861.71" y="541.01" width="11.14" height="6.99" fill="#ea580c" />
<rect x="874.86" y="534.41" width="11.14" height="13.59" fill="#ea580c" />
<line x1="704" y1="548.00" x2="886" y2="548.00" stroke="#9ca3af" stroke-width="1" />
<rect x="894" y="410" width="182" height="142" fill="none" stroke="#e5e7eb" stroke-width="1" />
<text x="985.00" y="422.00" font-size="9" font-weight="400" text-anchor="middle">LP orig. 10%</text>
<rect x="894.00" y="532.46" width="11.14" height="15.54" fill="#2563eb" />
<rect x="907.14" y="546.45" width="11.14" height="1.55" fill="#2563eb" />
<rect x="920.29" y="538.68" width="11.14" height="9.32" fill="#2563eb" />
<rect x="933.43" y="532.46" width="11.14" height="15.54" fill="#2563eb" />
<rect x="946.57" y="547.22" width="11.14" height="0.78" fill="#ea580c" />
<rect x="959.71" y="546.83" width="11.14" height="1.17" fill="#ea580c" />
<rect x="972.86" y="544.89" width="11.14" height="3.11" fill="#ea580c" />
<rect x="986.00" y="545.67" width="11.14" height="2.33" fill="#ea580c" />
<rect x="999.14" y="545.28" width="11.14" height="2.72" fill="#ea580c" />
<rect x="1012.29" y="543.34" width="11.14" height="4.66" fill="#ea580c" />
<rect x="1025.43" y="541.79" width="11.14" height="6.21" fill="#ea580c" />
<rect x="1038.57" y="543.34" width="11.14" height="4.66" fill="#ea580c" />
<rect x="1051.71" y="541.79" width="11.14" height="6.21" fill="#ea580c" />
<rect x="1064.86" y="541.40" width="11.14" height="6.60" fill="#ea580c" />
<line x1="894" y1="548.00" x2="1076" y2="548.00" stroke="#9ca3af" stroke-width="1" />
<text x="120.00" y="631.00" font-size="12" font-weight="700" text-anchor="end">HMDB51</text>
<rect x="134" y="560" width="182" height="142" fill="none" stroke="#e5e7eb" stroke-width="1" />
<text x="225.00" y="572.00" font-size="9" font-weight="400" text-anchor="middle">LP orig. 36%</text>
<rect x="134.00" y="662.28" width="11.14" height="35.72" fill="#2563eb" />
<rect x="147.14" y="692.98" width="11.14" height="5.02" fill="#2563eb" />
<rect x="160.29" y="685.64" width="11.14" height="12.36" fill="#2563eb" />
<rect x="173.43" y="671.70" width="11.14" height="26.30" fill="#2563eb" />
<rect x="186.57" y="697.88" width="11.14" height="0.60" fill="#ea580c" />
<rect x="199.71" y="695.06" width="11.14" height="2.94" fill="#ea580c" />
<rect x="212.86" y="686.13" width="11.14" height="11.87" fill="#ea580c" />
<rect x="226.00" y="663.62" width="11.14" height="34.38" fill="#ea580c" />
<rect x="239.14" y="668.27" width="11.14" height="29.73" fill="#ea580c" />
<rect x="252.29" y="652.73" width="11.14" height="45.27" fill="#ea580c" />
<rect x="265.43" y="642.21" width="11.14" height="55.79" fill="#ea580c" />
<rect x="278.57" y="672.55" width="11.14" height="25.45" fill="#ea580c" />
<rect x="291.71" y="666.31" width="11.14" height="31.69" fill="#ea580c" />
<rect x="304.86" y="650.29" width="11.14" height="47.71" fill="#ea580c" />
<line x1="134" y1="698.00" x2="316" y2="698.00" stroke="#9ca3af" stroke-width="1" />
<rect x="324" y="560" width="182" height="142" fill="none" stroke="#e5e7eb" stroke-width="1" />
<text x="415.00" y="572.00" font-size="9" font-weight="400" text-anchor="middle">LP orig. 72%</text>
<rect x="324.00" y="658.61" width="11.14" height="39.39" fill="#2563eb" />
<rect x="337.14" y="686.62" width="11.14" height="11.38" fill="#2563eb" />
<rect x="350.29" y="674.02" width="11.14" height="23.98" fill="#2563eb" />
<rect x="363.43" y="650.78" width="11.14" height="47.22" fill="#2563eb" />
<rect x="376.57" y="697.76" width="11.14" height="0.60" fill="#ea580c" />
<rect x="389.71" y="697.02" width="11.14" height="0.98" fill="#ea580c" />
<rect x="402.86" y="693.72" width="11.14" height="4.28" fill="#ea580c" />
<rect x="416.00" y="682.83" width="11.14" height="15.17" fill="#ea580c" />
<rect x="429.14" y="687.48" width="11.14" height="10.52" fill="#ea580c" />
<rect x="442.29" y="672.80" width="11.14" height="25.20" fill="#ea580c" />
<rect x="455.43" y="639.40" width="11.14" height="58.60" fill="#ea580c" />
<rect x="468.57" y="671.21" width="11.14" height="26.79" fill="#ea580c" />
<rect x="481.71" y="667.42" width="11.14" height="30.58" fill="#ea580c" />
<rect x="494.86" y="630.35" width="11.14" height="67.65" fill="#ea580c" />
<line x1="324" y1="698.00" x2="506" y2="698.00" stroke="#9ca3af" stroke-width="1" />
<rect x="514" y="560" width="182" height="142" fill="none" stroke="#e5e7eb" stroke-width="1" />
<text x="605.00" y="572.00" font-size="9" font-weight="400" text-anchor="middle">LP orig. 63%</text>
<rect x="514.00" y="698.00" width="11.14" height="0.60" fill="#2563eb" />
<rect x="527.14" y="695.92" width="11.14" height="2.08" fill="#2563eb" />
<rect x="540.29" y="693.35" width="11.14" height="4.65" fill="#2563eb" />
<rect x="553.43" y="688.82" width="11.14" height="9.18" fill="#2563eb" />
<rect x="566.57" y="697.76" width="11.14" height="0.60" fill="#ea580c" />
<rect x="579.71" y="697.14" width="11.14" height="0.86" fill="#ea580c" />
<rect x="592.86" y="694.94" width="11.14" height="3.06" fill="#ea580c" />
<rect x="606.00" y="689.44" width="11.14" height="8.56" fill="#ea580c" />
<rect x="619.14" y="691.03" width="11.14" height="6.97" fill="#ea580c" />
<rect x="632.29" y="680.38" width="11.14" height="17.62" fill="#ea580c" />
<rect x="645.43" y="659.46" width="11.14" height="38.54" fill="#ea580c" />
<rect x="658.57" y="684.67" width="11.14" height="13.33" fill="#ea580c" />
<rect x="671.71" y="682.22" width="11.14" height="15.78" fill="#ea580c" />
<rect x="684.86" y="658.00" width="11.14" height="40.00" fill="#ea580c" />
<line x1="514" y1="698.00" x2="696" y2="698.00" stroke="#9ca3af" stroke-width="1" />
<rect x="704" y="560" width="182" height="142" fill="none" stroke="#e5e7eb" stroke-width="1" />
<text x="795.00" y="572.00" font-size="9" font-weight="400" text-anchor="middle">LP orig. 63%</text>
<rect x="704.00" y="654.69" width="11.14" height="43.31" fill="#2563eb" />
<rect x="717.14" y="686.26" width="11.14" height="11.74" fill="#2563eb" />
<rect x="730.29" y="675.98" width="11.14" height="22.02" fill="#2563eb" />
<rect x="743.43" y="658.61" width="11.14" height="39.39" fill="#2563eb" />
<rect x="756.57" y="697.76" width="11.14" height="0.60" fill="#ea580c" />
<rect x="769.71" y="696.16" width="11.14" height="1.84" fill="#ea580c" />
<rect x="782.86" y="687.11" width="11.14" height="10.89" fill="#ea580c" />
<rect x="796.00" y="663.01" width="11.14" height="34.99" fill="#ea580c" />
<line x1="704" y1="698.00" x2="886" y2="698.00" stroke="#9ca3af" stroke-width="1" />
<rect x="894" y="560" width="182" height="142" fill="none" stroke="#e5e7eb" stroke-width="1" />
<text x="985.00" y="572.00" font-size="9" font-weight="400" text-anchor="middle">LP orig. 47%</text>
<rect x="894.00" y="649.19" width="11.14" height="48.81" fill="#2563eb" />
<rect x="907.14" y="692.62" width="11.14" height="5.38" fill="#2563eb" />
<rect x="920.29" y="669.74" width="11.14" height="28.26" fill="#2563eb" />
<rect x="933.43" y="636.59" width="11.14" height="61.41" fill="#2563eb" />
<rect x="946.57" y="697.51" width="11.14" height="0.60" fill="#ea580c" />
<rect x="959.71" y="695.55" width="11.14" height="2.45" fill="#ea580c" />
<rect x="972.86" y="690.29" width="11.14" height="7.71" fill="#ea580c" />
<rect x="986.00" y="685.15" width="11.14" height="12.85" fill="#ea580c" />
<rect x="999.14" y="690.05" width="11.14" height="7.95" fill="#ea580c" />
<rect x="1012.29" y="683.69" width="11.14" height="14.31" fill="#ea580c" />
<rect x="1025.43" y="672.43" width="11.14" height="25.57" fill="#ea580c" />
<rect x="1038.57" y="680.63" width="11.14" height="17.37" fill="#ea580c" />
<rect x="1051.71" y="684.79" width="11.14" height="13.21" fill="#ea580c" />
<rect x="1064.86" y="662.03" width="11.14" height="35.97" fill="#ea580c" />
<line x1="894" y1="698.00" x2="1076" y2="698.00" stroke="#9ca3af" stroke-width="1" />
<text x="120.00" y="781.00" font-size="12" font-weight="700" text-anchor="end">Kinetics</text>
<rect x="134" y="710" width="182" height="142" fill="none" stroke="#e5e7eb" stroke-width="1" />
<text x="225.00" y="722.00" font-size="9" font-weight="400" text-anchor="middle">LP orig. 46%</text>
<rect x="134.00" y="811.33" width="11.14" height="36.67" fill="#2563eb" />
<rect x="147.14" y="845.51" width="11.14" height="2.49" fill="#2563eb" />
<rect x="160.29" y="838.55" width="11.14" height="9.45" fill="#2563eb" />
<rect x="173.43" y="830.35" width="11.14" height="17.65" fill="#2563eb" />
<rect x="186.57" y="847.75" width="11.14" height="0.60" fill="#ea580c" />
<rect x="199.71" y="845.27" width="11.14" height="2.73" fill="#ea580c" />
<rect x="212.86" y="839.30" width="11.14" height="8.70" fill="#ea580c" />
<rect x="226.00" y="835.69" width="11.14" height="12.31" fill="#ea580c" />
<rect x="239.14" y="823.76" width="11.14" height="24.24" fill="#ea580c" />
<rect x="252.29" y="804.62" width="11.14" height="43.38" fill="#ea580c" />
<rect x="265.43" y="790.82" width="11.14" height="57.18" fill="#ea580c" />
<rect x="278.57" y="818.29" width="11.14" height="29.71" fill="#ea580c" />
<rect x="291.71" y="812.33" width="11.14" height="35.67" fill="#ea580c" />
<rect x="304.86" y="794.68" width="11.14" height="53.32" fill="#ea580c" />
<line x1="134" y1="848.00" x2="316" y2="848.00" stroke="#9ca3af" stroke-width="1" />
<rect x="324" y="710" width="182" height="142" fill="none" stroke="#e5e7eb" stroke-width="1" />
<text x="415.00" y="722.00" font-size="9" font-weight="400" text-anchor="middle">LP orig. 92%</text>
<rect x="324.00" y="831.34" width="11.14" height="16.66" fill="#2563eb" />
<rect x="337.14" y="843.15" width="11.14" height="4.85" fill="#2563eb" />
<rect x="350.29" y="839.55" width="11.14" height="8.45" fill="#2563eb" />
<rect x="363.43" y="831.84" width="11.14" height="16.16" fill="#2563eb" />
<rect x="376.57" y="847.88" width="11.14" height="0.60" fill="#ea580c" />
<rect x="389.71" y="847.50" width="11.14" height="0.60" fill="#ea580c" />
<rect x="402.86" y="845.14" width="11.14" height="2.86" fill="#ea580c" />
<rect x="416.00" y="843.53" width="11.14" height="4.47" fill="#ea580c" />
<rect x="429.14" y="843.40" width="11.14" height="4.60" fill="#ea580c" />
<rect x="442.29" y="827.37" width="11.14" height="20.63" fill="#ea580c" />
<rect x="455.43" y="785.35" width="11.14" height="62.65" fill="#ea580c" />
<rect x="468.57" y="814.56" width="11.14" height="33.44" fill="#ea580c" />
<rect x="481.71" y="806.49" width="11.14" height="41.51" fill="#ea580c" />
<rect x="494.86" y="768.33" width="11.14" height="79.67" fill="#ea580c" />
<line x1="324" y1="848.00" x2="506" y2="848.00" stroke="#9ca3af" stroke-width="1" />
<rect x="514" y="710" width="182" height="142" fill="none" stroke="#e5e7eb" stroke-width="1" />
<text x="605.00" y="722.00" font-size="9" font-weight="400" text-anchor="middle">LP orig. 83%</text>
<rect x="514.00" y="848.00" width="11.14" height="0.60" fill="#2563eb" />
<rect x="527.14" y="847.01" width="11.14" height="0.99" fill="#2563eb" />
<rect x="540.29" y="846.01" width="11.14" height="1.99" fill="#2563eb" />
<rect x="553.43" y="843.03" width="11.14" height="4.97" fill="#2563eb" />
<rect x="566.57" y="847.88" width="11.14" height="0.60" fill="#ea580c" />
<rect x="579.71" y="847.50" width="11.14" height="0.60" fill="#ea580c" />
<rect x="592.86" y="846.76" width="11.14" height="1.24" fill="#ea580c" />
<rect x="606.00" y="845.76" width="11.14" height="2.24" fill="#ea580c" />
<rect x="619.14" y="843.53" width="11.14" height="4.47" fill="#ea580c" />
<rect x="632.29" y="837.43" width="11.14" height="10.57" fill="#ea580c" />
<rect x="645.43" y="815.68" width="11.14" height="32.32" fill="#ea580c" />
<rect x="658.57" y="832.46" width="11.14" height="15.54" fill="#ea580c" />
<rect x="671.71" y="835.20" width="11.14" height="12.80" fill="#ea580c" />
<rect x="684.86" y="804.87" width="11.14" height="43.13" fill="#ea580c" />
<line x1="514" y1="848.00" x2="696" y2="848.00" stroke="#9ca3af" stroke-width="1" />
<rect x="704" y="710" width="182" height="142" fill="none" stroke="#e5e7eb" stroke-width="1" />
<text x="795.00" y="722.00" font-size="9" font-weight="400" text-anchor="middle">LP orig. 72%</text>
<rect x="704.00" y="804.50" width="11.14" height="43.50" fill="#2563eb" />
<rect x="717.14" y="840.05" width="11.14" height="7.95" fill="#2563eb" />
<rect x="730.29" y="836.07" width="11.14" height="11.93" fill="#2563eb" />
<rect x="743.43" y="822.52" width="11.14" height="25.48" fill="#2563eb" />
<rect x="756.57" y="847.88" width="11.14" height="0.60" fill="#ea580c" />
<rect x="769.71" y="847.01" width="11.14" height="0.99" fill="#ea580c" />
<rect x="782.86" y="842.90" width="11.14" height="5.10" fill="#ea580c" />
<rect x="796.00" y="831.97" width="11.14" height="16.03" fill="#ea580c" />
<line x1="704" y1="848.00" x2="886" y2="848.00" stroke="#9ca3af" stroke-width="1" />
<rect x="894" y="710" width="182" height="142" fill="none" stroke="#e5e7eb" stroke-width="1" />
<text x="985.00" y="722.00" font-size="9" font-weight="400" text-anchor="middle">LP orig. 35%</text>
<rect x="894.00" y="816.68" width="11.14" height="31.32" fill="#2563eb" />
<rect x="907.14" y="842.28" width="11.14" height="5.72" fill="#2563eb" />
<rect x="920.29" y="830.97" width="11.14" height="17.03" fill="#2563eb" />
<rect x="933.43" y="811.33" width="11.14" height="36.67" fill="#2563eb" />
<rect x="946.57" y="847.50" width="11.14" height="0.60" fill="#ea580c" />
<rect x="959.71" y="845.39" width="11.14" height="2.61" fill="#ea580c" />
<rect x="972.86" y="838.43" width="11.14" height="9.57" fill="#ea580c" />
<rect x="986.00" y="840.67" width="11.14" height="7.33" fill="#ea580c" />
<line x1="894" y1="848.00" x2="1076" y2="848.00" stroke="#9ca3af" stroke-width="1" />
<rect x="130" y="854" width="12" height="12" fill="#2563eb" />
<text x="148.00" y="864.00" font-size="11" font-weight="400" text-anchor="start">motion perturbation</text>
<rect x="300" y="854" width="12" height="12" fill="#ea580c" />
<text x="318.00" y="864.00" font-size="11" font-weight="400" text-anchor="start">appearance perturbation</text>
<text x="530.00" y="864.00" font-size="9" font-weight="400" text-anchor="start">bar order (left to right): shuffle, freeze-low/mid/high, color-low/mid/high, blur, rgb-quant-low/mid/high, solarization-low/mid/high</text>
</svg>
