<svg xmlns="http://www.w3.org/2000/svg" width="1360" height="900" viewBox="0 0 1360 900">
<rect width="100%" height="100%" fill="#ffffff" />
<style>text { font-family: Arial, Helvetica, sans-serif; fill: #111827; }</style>
<text x="680.00" y="28.00" font-size="18" font-weight="700" text-anchor="middle">Strength curves: linear-probe accuracy drop</text>
<text x="90.00" y="65.00" font-size="14" font-weight="700" text-anchor="start">Freeze-tail low -&gt; mid -&gt; high</text>
<text x="18.00" y="227.50" font-size="11" font-weight="400" text-anchor="middle" transform="rotate(-90 18.00 227.50)">Accuracy drop</text>
<line x1="90" y1="365" x2="930" y2="365" stroke="#111827" stroke-width="1" />
<line x1="90" y1="90" x2="90" y2="365" stroke="#111827" stroke-width="1" />
<line x1="86" y1="365.00" x2="90" y2="365.00" stroke="#111827" />
<text x="82.00" y="369.00" font-size="10" font-weight="400" text-anchor="end">-0.038</text>
<line x1="86" y1="310.00" x2="90" y2="310.00" stroke="#111827" />
<text x="82.00" y="314.00" font-size="10" font-weight="400" text-anchor="end">0.020</text>
<line x1="90" y1="310.00" x2="930" y2="310.00" stroke="#e5e7eb" stroke-width="1" />
<line x1="86" y1="255.00" x2="90" y2="255.00" stroke="#111827" />
<text x="82.00" y="259.00" font-size="10" font-weight="400" text-anchor="end">0.077</text>
<line x1="90" y1="255.00" x2="930" y2="255.00" stroke="#e5e7eb" stroke-width="1" />
<line x1="86" y1="200.00" x2="90" y2="200.00" stroke="#111827" />
<text x="82.00" y="204.00" font-size="10" font-weight="400" text-anchor="end">0.134</text>
<line x1="90" y1="200.00" x2="930" y2="200.00" stroke="#e5e7eb" stroke-width="1" />
<line x1="86" y1="145.00" x2="90" y2="145.00" stroke="#111827" />
<text x="82.00" y="149.00" font-size="10" font-weight="400" text-anchor="end">0.191</text>
<line x1="90" y1="145.00" x2="930" y2="145.00" stroke="#e5e7eb" stroke-width="1" />
<line x1="86" y1="90.00" x2="90" y2="90.00" stroke="#111827" />
<text x="82.00" y="94.00" font-size="10" font-weight="400" text-anchor="end">0.248</text>
<line x1="90" y1="328.76" x2="930" y2="328.76" stroke="#6b7280" stroke-dasharray="4 4" />
<polyline points="90.00,308.24 510.00,274.24 930.00,207.52" fill="none" stroke="#2563eb" stroke-width="2.3" stroke-linejoin="round" />
<circle cx="90.00" cy="308.24" r="3.8" fill="#2563eb" />
<circle cx="510.00" cy="274.24" r="3.8" fill="#2563eb" />
<circle cx="930.00" cy="207.52" r="3.8" fill="#2563eb" />
<polyline points="90.00,321.71 510.00,286.43 930.00,199.82" fill="none" stroke="#2563eb" stroke-width="2.3" stroke-linejoin="round" stroke-dasharray="12 5" />
<circle cx="90.00" cy="321.71" r="3.8" fill="#2563eb" />
<circle cx="510.00" cy="286.43" r="3.8" fill="#2563eb" />
<circle cx="930.00" cy="199.82" r="3.8" fill="#2563eb" />
<polyline points="90.00,328.76 510.00,322.75 930.00,294.68" fill="none" stroke="#2563eb" stroke-width="2.3" stroke-linejoin="round" stroke-dasharray="1 4" />
<circle cx="90.00" cy="328.76" r="3.8" fill="#2563eb" />
<circle cx="510.00" cy="322.75" r="3.8" fill="#2563eb" />
<circle cx="930.00" cy="294.68" r="3.8" fill="#2563eb" />
<polyline points="90.00,296.05 510.00,236.39 930.00,142.09" fill="none" stroke="#dc2626" stroke-width="2.3" stroke-linejoin="round" />
<circle cx="90.00" cy="296.05" r="3.8" fill="#dc2626" />
<circle cx="510.00" cy="236.39" r="3.8" fill="#dc2626" />
<circle cx="930.00" cy="142.09" r="3.8" fill="#dc2626" />
<polyline points="90.00,325.56 510.00,319.78 930.00,291.56" fill="none" stroke="#dc2626" stroke-width="2.3" stroke-linejoin="round" stroke-dasharray="12 5" />
<circle cx="90.00" cy="325.56" r="3.8" fill="#dc2626" />
<circle cx="510.00" cy="319.78" r="3.8" fill="#dc2626" />
<circle cx="930.00" cy="291.56" r="3.8" fill="#dc2626" />
<polyline points="90.00,318.74 510.00,312.73 930.00,296.69" fill="none" stroke="#dc2626" stroke-width="2.3" stroke-linejoin="round" stroke-dasharray="1 4" />
<circle cx="90.00" cy="318.74" r="3.8" fill="#dc2626" />
<circle cx="510.00" cy="312.73" r="3.8" fill="#dc2626" />
<circle cx="930.00" cy="296.69" r="3.8" fill="#dc2626" />
<polyline points="90.00,330.69 510.00,323.63 930.00,308.88" fill="none" stroke="#7c3aed" stroke-width="2.3" stroke-linejoin="round" />
<circle cx="90.00" cy="330.69" r="3.8" fill="#7c3aed" />
<circle cx="510.00" cy="323.63" r="3.8" fill="#7c3aed" />
<circle cx="930.00" cy="308.88" r="3.8" fill="#7c3aed" />
<polyline points="90.00,327.48 510.00,328.76 930.00,326.20" fill="none" stroke="#7c3aed" stroke-width="2.3" stroke-linejoin="round" stroke-dasharray="12 5" />
<circle cx="90.00" cy="327.48" r="3.8" fill="#7c3aed" />
<circle cx="510.00" cy="328.76" r="3.8" fill="#7c3aed" />
<circle cx="930.00" cy="326.20" r="3.8" fill="#7c3aed" />
<polyline points="90.00,330.77 510.00,322.75 930.00,314.73" fill="none" stroke="#7c3aed" stroke-width="2.3" stroke-linejoin="round" stroke-dasharray="1 4" />
<circle cx="90.00" cy="330.77" r="3.8" fill="#7c3aed" />
<circle cx="510.00" cy="322.75" r="3.8" fill="#7c3aed" />
<circle cx="930.00" cy="314.73" r="3.8" fill="#7c3aed" />
<polyline points="90.00,305.40 510.00,258.05 930.00,160.18" fill="none" stroke="#334155" stroke-width="2.3" stroke-linejoin="round" stroke-dasharray="9 3 2 3" />
<circle cx="90.00" cy="305.40" r="3.8" fill="#334155" />
<circle cx="510.00" cy="258.05" r="3.8" fill="#334155" />
<circle cx="930.00" cy="160.18" r="3.8" fill="#334155" />
<polyline points="90.00,318.03 510.00,290.88 930.00,226.48" fill="none" stroke="#2563eb" stroke-width="2.3" stroke-linejoin="round" stroke-dasharray="9 3 2 3" />
<circle cx="90.00" cy="318.03" r="3.8" fill="#2563eb" />
<circle cx="510.00" cy="290.88" r="3.8" fill="#2563eb" />
<circle cx="930.00" cy="226.48" r="3.8" fill="#2563eb" />
<polyline points="90.00,302.88 510.00,239.11 930.00,116.61" fill="none" stroke="#dc2626" stroke-width="2.3" stroke-linejoin="round" stroke-dasharray="9 3 2 3" />
<circle cx="90.00" cy="302.88" r="3.8" fill="#dc2626" />
<circle cx="510.00" cy="239.11" r="3.8" fill="#dc2626" />
<circle cx="930.00" cy="116.61" r="3.8" fill="#dc2626" />
<polyline points="90.00,338.39 510.00,328.12 930.00,301.82" fill="none" stroke="#2563eb" stroke-width="2.3" stroke-linejoin="round" stroke-dasharray="5 3" />
<circle cx="90.00" cy="338.39" r="3.8" fill="#2563eb" />
<circle cx="510.00" cy="328.12" r="3.8" fill="#2563eb" />
<circle cx="930.00" cy="301.82" r="3.8" fill="#2563eb" />
<polyline points="90.00,310.80 510.00,292.20 930.00,201.75" fill="none" stroke="#db2777" stroke-width="2.3" stroke-linejoin="round" stroke-dasharray="5 3" />
<circle cx="90.00" cy="310.80" r="3.8" fill="#db2777" />
<circle cx="510.00" cy="292.20" r="3.8" fill="#db2777" />
<circle cx="930.00" cy="201.75" r="3.8" fill="#db2777" />
<polyline points="90.00,312.73 510.00,303.75 930.00,238.31" fill="none" stroke="#334155" stroke-width="2.3" stroke-linejoin="round" stroke-dasharray="5 3" />
<circle cx="90.00" cy="312.73" r="3.8" fill="#334155" />
<circle cx="510.00" cy="303.75" r="3.8" fill="#334155" />
<circle cx="930.00" cy="238.31" r="3.8" fill="#334155" />
<text x="90.00" y="387.00" font-size="12" font-weight="400" text-anchor="middle">low</text>
<text x="510.00" y="387.00" font-size="12" font-weight="400" text-anchor="middle">mid</text>
<text x="930.00" y="387.00" font-size="12" font-weight="400" text-anchor="middle">high</text>
<line x1="955" y1="75" x2="973" y2="75" stroke="#2563eb" stroke-width="3" />
<text x="979.00" y="79.00" font-size="10" font-weight="400" text-anchor="start">VideoMAE x SSV2</text>
<line x1="955" y1="95" x2="973" y2="95" stroke="#2563eb" stroke-width="3" stroke-dasharray="12 5" />
<text x="979.00" y="99.00" font-size="10" font-weight="400" text-anchor="start">VideoMAE x UCF101</text>
<line x1="955" y1="115" x2="973" y2="115" stroke="#2563eb" stroke-width="3" stroke-dasharray="1 4" />
<text x="979.00" y="119.00" font-size="10" font-weight="400" text-anchor="start">VideoMAE x Diving48</text>
<line x1="955" y1="135" x2="973" y2="135" stroke="#dc2626" stroke-width="3" />
<text x="979.00" y="139.00" font-size="10" font-weight="400" text-anchor="start">SlowFast R50 8x8 x SSV2</text>
<line x1="955" y1="155" x2="973" y2="155" stroke="#dc2626" stroke-width="3" stroke-dasharray="12 5" />
<text x="979.00" y="159.00" font-size="10" font-weight="400" text-anchor="start">SlowFast R50 8x8 x UCF101</text>
<line x1="955" y1="175" x2="973" y2="175" stroke="#dc2626" stroke-width="3" stroke-dasharray="1 4" />
<text x="979.00" y="179.00" font-size="10" font-weight="400" text-anchor="start">SlowFast R50 8x8 x Diving48</text>
<line x1="955" y1="195" x2="973" y2="195" stroke="#7c3aed" stroke-width="3" />
<text x="979.00" y="199.00" font-size="10" font-weight="400" text-anchor="start">DINOv2 frame-mean x SSV2</text>
<line x1="955" y1="215" x2="973" y2="215" stroke="#7c3aed" stroke-width="3" stroke-dasharray="12 5" />
<text x="979.00" y="219.00" font-size="10" font-weight="400" text-anchor="start">DINOv2 frame-mean x UCF101</text>
<line x1="955" y1="235" x2="973" y2="235" stroke="#7c3aed" stroke-width="3" stroke-dasharray="1 4" />
<text x="979.00" y="239.00" font-size="10" font-weight="400" text-anchor="start">DINOv2 frame-mean x Diving48</text>
<line x1="955" y1="255" x2="973" y2="255" stroke="#334155" stroke-width="3" stroke-dasharray="9 3 2 3" />
<text x="979.00" y="259.00" font-size="10" font-weight="400" text-anchor="start">V-JEPA2 x HMDB51</text>
<line x1="955" y1="275" x2="973" y2="275" stroke="#2563eb" stroke-width="3" stroke-dasharray="9 3 2 3" />
<text x="979.00" y="279.00" font-size="10" font-weight="400" text-anchor="start">VideoMAE x HMDB51</text>
<line x1="955" y1="295" x2="973" y2="295" stroke="#dc2626" stroke-width="3" stroke-dasharray="9 3 2 3" />
<text x="979.00" y="299.00" font-size="10" font-weight="400" text-anchor="start">SlowFast R50 8x8 x HMDB51</text>
<line x1="955" y1="315" x2="973" y2="315" stroke="#2563eb" stroke-width="3" stroke-dasharray="5 3" />
<text x="979.00" y="319.00" font-size="10" font-weight="400" text-anchor="start">VideoMAE x Kinetics</text>
<line x1="955" y1="335" x2="973" y2="335" stroke="#db2777" stroke-width="3" stroke-dasharray="5 3" />
<text x="979.00" y="339.00" font-size="10" font-weight="400" text-anchor="start">DisMo x Kinetics</text>
<line x1="955" y1="355" x2="973" y2="355" stroke="#334155" stroke-width="3" stroke-dasharray="5 3" />
<text x="979.00" y="359.00" font-size="10" font-weight="400" text-anchor="start">V-JEPA2 x Kinetics</text>
<text x="90.00" y="475.00" font-size="14" font-weight="700" text-anchor="start">Color transform low -&gt; mid -&gt; high</text>
<text x="18.00" y="637.50" font-size="11" font-weight="400" text-anchor="middle" transform="rotate(-90 18.00 637.50)">Accuracy drop</text>
<line x1="90" y1="775" x2="930" y2="775" stroke="#111827" stroke-width="1" />
<line x1="90" y1="500" x2="90" y2="775" stroke="#111827" stroke-width="1" />
<line x1="86" y1="775.00" x2="90" y2="775.00" stroke="#111827" />
<text x="82.00" y="779.00" font-size="10" font-weight="400" text-anchor="end">-0.012</text>
<line x1="86" y1="720.00" x2="90" y2="720.00" stroke="#111827" />
<text x="82.00" y="724.00" font-size="10" font-weight="400" text-anchor="end">0.003</text>
<line x1="90" y1="720.00" x2="930" y2="720.00" stroke="#e5e7eb" stroke-width="1" />
<line x1="86" y1="665.00" x2="90" y2="665.00" stroke="#111827" />
<text x="82.00" y="669.00" font-size="10" font-weight="400" text-anchor="end">0.018</text>
<line x1="90" y1="665.00" x2="930" y2="665.00" stroke="#e5e7eb" stroke-width="1" />
<line x1="86" y1="610.00" x2="90" y2="610.00" stroke="#111827" />
<text x="82.00" y="614.00" font-size="10" font-weight="400" text-anchor="end">0.034</text>
<line x1="90" y1="610.00" x2="930" y2="610.00" stroke="#e5e7eb" stroke-width="1" />
<line x1="86" y1="555.00" x2="90" y2="555.00" stroke="#111827" />
<text x="82.00" y="559.00" font-size="10" font-weight="400" text-anchor="end">0.049</text>
<line x1="90" y1="555.00" x2="930" y2="555.00" stroke="#e5e7eb" stroke-width="1" />
<line x1="86" y1="500.00" x2="90" y2="500.00" stroke="#111827" />
<text x="82.00" y="504.00" font-size="10" font-weight="400" text-anchor="end">0.064</text>
<line x1="90" y1="731.51" x2="930" y2="731.51" stroke="#6b7280" stroke-dasharray="4 4" />
<polyline points="90.00,724.28 510.00,729.10 930.00,695.35" fill="none" stroke="#2563eb" stroke-width="2.3" stroke-linejoin="round" />
<circle cx="90.00" cy="724.28" r="3.8" fill="#2563eb" />
<circle cx="510.00" cy="729.10" r="3.8" fill="#2563eb" />
<circle cx="930.00" cy="695.35" r="3.8" fill="#2563eb" />
<polyline points="90.00,724.28 510.00,695.35 930.00,526.61" fill="none" stroke="#2563eb" stroke-width="2.3" stroke-linejoin="round" stroke-dasharray="12 5" />
<circle cx="90.00" cy="724.28" r="3.8" fill="#2563eb" />
<circle cx="510.00" cy="695.35" r="3.8" fill="#2563eb" />
<circle cx="930.00" cy="526.61" r="3.8" fill="#2563eb" />
<polyline points="90.00,731.51 510.00,716.45 930.00,708.91" fill="none" stroke="#2563eb" stroke-width="2.3" stroke-linejoin="round" stroke-dasharray="1 4" />
<circle cx="90.00" cy="731.51" r="3.8" fill="#2563eb" />
<circle cx="510.00" cy="716.45" r="3.8" fill="#2563eb" />
<circle cx="930.00" cy="708.91" r="3.8" fill="#2563eb" />
<polyline points="90.00,738.74 510.00,729.10 930.00,712.23" fill="none" stroke="#dc2626" stroke-width="2.3" stroke-linejoin="round" />
<circle cx="90.00" cy="738.74" r="3.8" fill="#dc2626" />
<circle cx="510.00" cy="729.10" r="3.8" fill="#dc2626" />
<circle cx="930.00" cy="712.23" r="3.8" fill="#dc2626" />
<polyline points="90.00,731.51 510.00,731.51 930.00,731.51" fill="none" stroke="#dc2626" stroke-width="2.3" stroke-linejoin="round" stroke-dasharray="12 5" />
<circle cx="90.00" cy="731.51" r="3.8" fill="#dc2626" />
<circle cx="510.00" cy="731.51" r="3.8" fill="#dc2626" />
<circle cx="930.00" cy="731.51" r="3.8" fill="#dc2626" />
<polyline points="90.00,731.51 510.00,731.51 930.00,716.45" fill="none" stroke="#dc2626" stroke-width="2.3" stroke-linejoin="round" stroke-dasharray="1 4" />
<circle cx="90.00" cy="731.51" r="3.8" fill="#dc2626" />
<circle cx="510.00" cy="731.51" r="3.8" fill="#dc2626" />
<circle cx="930.00" cy="716.45" r="3.8" fill="#dc2626" />
<polyline points="90.00,733.92 510.00,736.33 930.00,748.39" fill="none" stroke="#7c3aed" stroke-width="2.3" stroke-linejoin="round" />
<circle cx="90.00" cy="733.92" r="3.8" fill="#7c3aed" />
<circle cx="510.00" cy="736.33" r="3.8" fill="#7c3aed" />
<circle cx="930.00" cy="748.39" r="3.8" fill="#7c3aed" />
<polyline points="90.00,731.51 510.00,731.51 930.00,724.28" fill="none" stroke="#7c3aed" stroke-width="2.3" stroke-linejoin="round" stroke-dasharray="12 5" />
<circle cx="90.00" cy="731.51" r="3.8" fill="#7c3aed" />
<circle cx="510.00" cy="731.51" r="3.8" fill="#7c3aed" />
<circle cx="930.00" cy="724.28" r="3.8" fill="#7c3aed" />
<polyline points="90.00,731.51 510.00,731.51 930.00,739.05" fill="none" stroke="#7c3aed" stroke-width="2.3" stroke-linejoin="round" stroke-dasharray="1 4" />
<circle cx="90.00" cy="731.51" r="3.8" fill="#7c3aed" />
<circle cx="510.00" cy="731.51" r="3.8" fill="#7c3aed" />
<circle cx="930.00" cy="739.05" r="3.8" fill="#7c3aed" />
<polyline points="90.00,733.89 510.00,745.75 930.00,650.84" fill="none" stroke="#334155" stroke-width="2.3" stroke-linejoin="round" stroke-dasharray="9 3 2 3" />
<circle cx="90.00" cy="733.89" r="3.8" fill="#334155" />
<circle cx="510.00" cy="745.75" r="3.8" fill="#334155" />
<circle cx="930.00" cy="650.84" r="3.8" fill="#334155" />
<polyline points="90.00,726.77 510.00,703.04 930.00,601.02" fill="none" stroke="#2563eb" stroke-width="2.3" stroke-linejoin="round" stroke-dasharray="9 3 2 3" />
<circle cx="90.00" cy="726.77" r="3.8" fill="#2563eb" />
<circle cx="510.00" cy="703.04" r="3.8" fill="#2563eb" />
<circle cx="930.00" cy="601.02" r="3.8" fill="#2563eb" />
<polyline points="90.00,726.77 510.00,719.65 930.00,719.65" fill="none" stroke="#dc2626" stroke-width="2.3" stroke-linejoin="round" stroke-dasharray="9 3 2 3" />
<circle cx="90.00" cy="726.77" r="3.8" fill="#dc2626" />
<circle cx="510.00" cy="719.65" r="3.8" fill="#dc2626" />
<circle cx="930.00" cy="719.65" r="3.8" fill="#dc2626" />
<polyline points="90.00,733.92 510.00,726.69 930.00,692.94" fill="none" stroke="#2563eb" stroke-width="2.3" stroke-linejoin="round" stroke-dasharray="5 3" />
<circle cx="90.00" cy="733.92" r="3.8" fill="#2563eb" />
<circle cx="510.00" cy="726.69" r="3.8" fill="#2563eb" />
<circle cx="930.00" cy="692.94" r="3.8" fill="#2563eb" />
<polyline points="90.00,729.10 510.00,726.69 930.00,668.84" fill="none" stroke="#db2777" stroke-width="2.3" stroke-linejoin="round" stroke-dasharray="5 3" />
<circle cx="90.00" cy="729.10" r="3.8" fill="#db2777" />
<circle cx="510.00" cy="726.69" r="3.8" fill="#db2777" />
<circle cx="930.00" cy="668.84" r="3.8" fill="#db2777" />
<polyline points="90.00,731.51 510.00,745.98 930.00,714.64" fill="none" stroke="#334155" stroke-width="2.3" stroke-linejoin="round" stroke-dasharray="5 3" />
<circle cx="90.00" cy="731.51" r="3.8" fill="#334155" />
<circle cx="510.00" cy="745.98" r="3.8" fill="#334155" />
<circle cx="930.00" cy="714.64" r="3.8" fill="#334155" />
<text x="90.00" y="797.00" font-size="12" font-weight="400" text-anchor="middle">low</text>
<text x="510.00" y="797.00" font-size="12" font-weight="400" text-anchor="middle">mid</text>
<text x="930.00" y="797.00" font-size="12" font-weight="400" text-anchor="middle">high</text>
<line x1="955" y1="485" x2="973" y2="485" stroke="#2563eb" stroke-width="3" />
<text x="979.00" y="489.00" font-size="10" font-weight="400" text-anchor="start">VideoMAE x SSV2</text>
<line x1="955" y1="505" x2="973" y2="505" stroke="#2563eb" stroke-width="3" stroke-dasharray="12 5" />
<text x="979.00" y="509.00" font-size="10" font-weight="400" text-anchor="start">VideoMAE x UCF101</text>
<line x1="955" y1="525" x2="973" y2="525" stroke="#2563eb" stroke-width="3" stroke-dasharray="1 4" />
<text x="979.00" y="529.00" font-size="10" font-weight="400" text-anchor="start">VideoMAE x Diving48</text>
<line x1="955" y1="545" x2="973" y2="545" stroke="#dc2626" stroke-width="3" />
<text x="979.00" y="549.00" font-size="10" font-weight="400" text-anchor="start">SlowFast R50 8x8 x SSV2</text>
<line x1="955" y1="565" x2="973" y2="565" stroke="#dc2626" stroke-width="3" stroke-dasharray="12 5" />
<text x="979.00" y="569.00" font-size="10" font-weight="400" text-anchor="start">SlowFast R50 8x8 x UCF101</text>
<line x1="955" y1="585" x2="973" y2="585" stroke="#dc2626" stroke-width="3" stroke-dasharray="1 4" />
<text x="979.00" y="589.00" font-size="10" font-weight="400" text-anchor="start">SlowFast R50 8x8 x Diving48</text>
<line x1="955" y1="605" x2="973" y2="605" stroke="#7c3aed" stroke-width="3" />
<text x="979.00" y="609.00" font-size="10" font-weight="400" text-anchor="start">DINOv2 frame-mean x SSV2</text>
<line x1="955" y1="625" x2="973" y2="625" stroke="#7c3aed" stroke-width="3" stroke-dasharray="12 5" />
<text x="979.00" y="629.00" font-size="10" font-weight="400" text-anchor="start">DINOv2 frame-mean x UCF101</text>
<line x1="955" y1="645" x2="973" y2="645" stroke="#7c3aed" stroke-width="3" stroke-dasharray="1 4" />
<text x="979.00" y="649.00" font-size="10" font-weight="400" text-anchor="start">DINOv2 frame-mean x Diving48</text>
<line x1="955" y1="665" x2="973" y2="665" stroke="#334155" stroke-width="3" stroke-dasharray="9 3 2 3" />
<text x="979.00" y="669.00" font-size="10" font-weight="400" text-anchor="start">V-JEPA2 x HMDB51</text>
<line x1="955" y1="685" x2="973" y2="685" stroke="#2563eb" stroke-width="3" stroke-dasharray="9 3 2 3" />
<text x="979.00" y="689.00" font-size="10" font-weight="400" text-anchor="start">VideoMAE x HMDB51</text>
<line x1="955" y1="705" x2="973" y2="705" stroke="#dc2626" stroke-width="3" stroke-dasharray="9 3 2 3" />
<text x="979.00" y="709.00" font-size="10" font-weight="400" text-anchor="start">SlowFast R50 8x8 x HMDB51</text>
<line x1="955" y1="725" x2="973" y2="725" stroke="#2563eb" stroke-width="3" stroke-dasharray="5 3" />
<text x="979.00" y="729.00" font-size="10" font-weight="400" text-anchor="start">VideoMAE x Kinetics</text>
<line x1="955" y1="745" x2="973" y2="745" stroke="#db2777" stroke-width="3" stroke-dasharray="5 3" />
<text x="979.00" y="749.00" font-size="10" font-weight="400" text-anchor="start">DisMo x Kinetics</text>
<line x1="955" y1="765" x2="973" y2="765" stroke="#334155" stroke-width="3" stroke-dasharray="5 3" />
<text x="979.00" y="769.00" font-size="10" font-weight="400" text-anchor="start">V-JEPA2 x Kinetics</text>
</svg>
