<svg xmlns="http://www.w3.org/2000/svg" width="1840" height="620" viewBox="0 0 1840 620">
<rect width="100%" height="100%" fill="#ffffff" />
<style>text { font-family: Arial, Helvetica, sans-serif; fill: #111827; }</style>
<text x="920.00" y="28.00" font-size="18" font-weight="700" text-anchor="middle">Fixed-mid perturbation: linear-probe accuracy drop</text>
<text x="18.00" y="257.50" font-size="12" font-weight="400" text-anchor="middle" transform="rotate(-90 18.00 257.50)">Accuracy drop</text>
<line x1="90" y1="460" x2="1810" y2="460" stroke="#111827" stroke-width="1" />
<line x1="90" y1="55" x2="90" y2="460" stroke="#111827" stroke-width="1" />
<line x1="86" y1="460.00" x2="90" y2="460.00" stroke="#111827" />
<text x="82.00" y="464.00" font-size="10" font-weight="400" text-anchor="end">-0.040</text>
<line x1="86" y1="379.00" x2="90" y2="379.00" stroke="#111827" />
<text x="82.00" y="383.00" font-size="10" font-weight="400" text-anchor="end">0.034</text>
<line x1="90" y1="379.00" x2="1810" y2="379.00" stroke="#e5e7eb" stroke-width="1" />
<line x1="86" y1="298.00" x2="90" y2="298.00" stroke="#111827" />
<text x="82.00" y="302.00" font-size="10" font-weight="400" text-anchor="end">0.107</text>
<line x1="90" y1="298.00" x2="1810" y2="298.00" stroke="#e5e7eb" stroke-width="1" />
<line x1="86" y1="217.00" x2="90" y2="217.00" stroke="#111827" />
<text x="82.00" y="221.00" font-size="10" font-weight="400" text-anchor="end">0.181</text>
<line x1="90" y1="217.00" x2="1810" y2="217.00" stroke="#e5e7eb" stroke-width="1" />
<line x1="86" y1="136.00" x2="90" y2="136.00" stroke="#111827" />
<text x="82.00" y="140.00" font-size="10" font-weight="400" text-anchor="end">0.254</text>
<line x1="90" y1="136.00" x2="1810" y2="136.00" stroke="#e5e7eb" stroke-width="1" />
<line x1="86" y1="55.00" x2="90" y2="55.00" stroke="#111827" />
<text x="82.00" y="59.00" font-size="10" font-weight="400" text-anchor="end">0.328</text>
<line x1="90" y1="416.21" x2="1810" y2="416.21" stroke="#6b7280" stroke-dasharray="4 4" />
<rect x="106.83" y="217.71" width="18.70" height="198.50" fill="#2563eb" />
<rect x="129.26" y="379.45" width="18.70" height="36.76" fill="#ea580c" />
<text x="127.39" y="520.00" font-size="10" font-weight="400" text-anchor="end" transform="rotate(-40 127.39 520.00)">VideoMAE x SSV2</text>
<rect x="181.61" y="141.25" width="18.70" height="274.97" fill="#2563eb" />
<rect x="204.04" y="94.19" width="18.70" height="322.02" fill="#ea580c" />
<text x="202.17" y="520.00" font-size="10" font-weight="400" text-anchor="end" transform="rotate(-40 202.17 520.00)">VideoMAE x UCF101</text>
<rect x="256.39" y="377.15" width="18.70" height="39.06" fill="#2563eb" />
<rect x="278.83" y="400.13" width="18.70" height="16.08" fill="#ea580c" />
<text x="276.96" y="520.00" font-size="10" font-weight="400" text-anchor="end" transform="rotate(-40 276.96 520.00)">VideoMAE x Diving48</text>
<rect x="331.17" y="189.77" width="18.70" height="226.44" fill="#2563eb" />
<rect x="353.61" y="415.48" width="18.70" height="0.74" fill="#ea580c" />
<text x="351.74" y="520.00" font-size="10" font-weight="400" text-anchor="end" transform="rotate(-40 351.74 520.00)">SlowFast R50 8x8 x SSV2</text>
<rect x="405.96" y="365.48" width="18.70" height="50.73" fill="#2563eb" />
<rect x="428.39" y="400.77" width="18.70" height="15.44" fill="#ea580c" />
<text x="426.52" y="520.00" font-size="10" font-weight="400" text-anchor="end" transform="rotate(-40 426.52 520.00)">SlowFast R50 8x8 x UCF101</text>
<rect x="480.74" y="390.94" width="18.70" height="25.27" fill="#2563eb" />
<rect x="503.17" y="416.21" width="18.70" height="4.60" fill="#ea580c" />
<text x="501.30" y="520.00" font-size="10" font-weight="400" text-anchor="end" transform="rotate(-40 501.30 520.00)">SlowFast R50 8x8 x Diving48</text>
<rect x="555.52" y="416.21" width="18.70" height="0.00" fill="#2563eb" />
<rect x="577.96" y="408.86" width="18.70" height="7.35" fill="#ea580c" />
<text x="576.09" y="520.00" font-size="10" font-weight="400" text-anchor="end" transform="rotate(-40 576.09 520.00)">DINOv2 frame-mean x SSV2</text>
<rect x="630.30" y="416.21" width="18.70" height="0.00" fill="#2563eb" />
<rect x="652.74" y="414.01" width="18.70" height="2.21" fill="#ea580c" />
<text x="650.87" y="520.00" font-size="10" font-weight="400" text-anchor="end" transform="rotate(-40 650.87 520.00)">DINOv2 frame-mean x UCF101</text>
<rect x="705.09" y="416.21" width="18.70" height="0.00" fill="#2563eb" />
<rect x="727.52" y="411.62" width="18.70" height="4.60" fill="#ea580c" />
<text x="725.65" y="520.00" font-size="10" font-weight="400" text-anchor="end" transform="rotate(-40 725.65 520.00)">DINOv2 frame-mean x Diving48</text>
<rect x="779.87" y="212.87" width="18.70" height="203.34" fill="#2563eb" />
<rect x="802.30" y="261.36" width="18.70" height="154.86" fill="#ea580c" />
<text x="800.43" y="520.00" font-size="10" font-weight="400" text-anchor="end" transform="rotate(-40 800.43 520.00)">V-JEPA2 x HMDB51</text>
<rect x="854.65" y="254.12" width="18.70" height="162.09" fill="#2563eb" />
<rect x="877.09" y="259.91" width="18.70" height="156.30" fill="#ea580c" />
<text x="875.22" y="520.00" font-size="10" font-weight="400" text-anchor="end" transform="rotate(-40 875.22 520.00)">VideoMAE x HMDB51</text>
<rect x="929.43" y="225.90" width="18.70" height="190.31" fill="#2563eb" />
<rect x="951.87" y="371.35" width="18.70" height="44.86" fill="#ea580c" />
<text x="950.00" y="520.00" font-size="10" font-weight="400" text-anchor="end" transform="rotate(-40 950.00 520.00)">SlowFast R50 8x8 x HMDB51</text>
<rect x="1004.22" y="250.06" width="18.70" height="166.16" fill="#2563eb" />
<rect x="1026.65" y="371.36" width="18.70" height="44.85" fill="#ea580c" />
<text x="1024.78" y="520.00" font-size="10" font-weight="400" text-anchor="end" transform="rotate(-40 1024.78 520.00)">VideoMAE x Kinetics</text>
<rect x="1079.00" y="297.84" width="18.70" height="118.37" fill="#2563eb" />
<rect x="1101.43" y="397.83" width="18.70" height="18.38" fill="#ea580c" />
<text x="1099.57" y="520.00" font-size="10" font-weight="400" text-anchor="end" transform="rotate(-40 1099.57 520.00)">DisMo x Kinetics</text>
<rect x="1153.78" y="193.45" width="18.70" height="222.77" fill="#2563eb" />
<rect x="1176.22" y="364.01" width="18.70" height="52.20" fill="#ea580c" />
<text x="1174.35" y="520.00" font-size="10" font-weight="400" text-anchor="end" transform="rotate(-40 1174.35 520.00)">V-JEPA2 x Kinetics</text>
<rect x="1228.57" y="416.21" width="18.70" height="0.00" fill="#2563eb" />
<rect x="1251.00" y="395.23" width="18.70" height="20.99" fill="#ea580c" />
<text x="1249.13" y="520.00" font-size="10" font-weight="400" text-anchor="end" transform="rotate(-40 1249.13 520.00)">DINOv2 frame-mean x HMDB51</text>
<rect x="1303.35" y="416.21" width="18.70" height="0.00" fill="#2563eb" />
<rect x="1325.78" y="410.33" width="18.70" height="5.88" fill="#ea580c" />
<text x="1323.91" y="520.00" font-size="10" font-weight="400" text-anchor="end" transform="rotate(-40 1323.91 520.00)">DINOv2 frame-mean x Kinetics</text>
<rect x="1378.13" y="332.40" width="18.70" height="83.81" fill="#2563eb" />
<rect x="1400.57" y="396.36" width="18.70" height="19.85" fill="#ea580c" />
<text x="1398.70" y="520.00" font-size="10" font-weight="400" text-anchor="end" transform="rotate(-40 1398.70 520.00)">SlowFast R50 8x8 x Kinetics</text>
<rect x="1452.91" y="365.67" width="18.70" height="50.55" fill="#2563eb" />
<rect x="1475.35" y="407.02" width="18.70" height="9.19" fill="#ea580c" />
<text x="1473.48" y="520.00" font-size="10" font-weight="400" text-anchor="end" transform="rotate(-40 1473.48 520.00)">DisMo x Diving48</text>
<rect x="1527.70" y="390.94" width="18.70" height="25.27" fill="#2563eb" />
<rect x="1550.13" y="404.72" width="18.70" height="11.49" fill="#ea580c" />
<text x="1548.26" y="520.00" font-size="10" font-weight="400" text-anchor="end" transform="rotate(-40 1548.26 520.00)">V-JEPA2 x Diving48</text>
<rect x="1602.48" y="208.53" width="18.70" height="207.68" fill="#2563eb" />
<rect x="1624.91" y="383.65" width="18.70" height="32.56" fill="#ea580c" />
<text x="1623.04" y="520.00" font-size="10" font-weight="400" text-anchor="end" transform="rotate(-40 1623.04 520.00)">DisMo x HMDB51</text>
<rect x="1677.26" y="141.25" width="18.70" height="274.97" fill="#2563eb" />
<rect x="1699.70" y="403.71" width="18.70" height="12.50" fill="#ea580c" />
<text x="1697.83" y="520.00" font-size="10" font-weight="400" text-anchor="end" transform="rotate(-40 1697.83 520.00)">DisMo x SSV2</text>
<rect x="1752.04" y="332.40" width="18.70" height="83.81" fill="#2563eb" />
<rect x="1774.48" y="235.35" width="18.70" height="180.86" fill="#ea580c" />
<text x="1772.61" y="520.00" font-size="10" font-weight="400" text-anchor="end" transform="rotate(-40 1772.61 520.00)">V-JEPA2 x UCF101</text>
<rect x="102" y="38" width="12" height="12" fill="#2563eb" />
<text x="120.00" y="48.00" font-size="12" font-weight="400" text-anchor="start">temporal-shuffle-mid</text>
<rect x="102" y="58" width="12" height="12" fill="#ea580c" />
<text x="120.00" y="68.00" font-size="12" font-weight="400" text-anchor="start">spatial-blur-mid</text>
</svg>
