<svg xmlns="http://www.w3.org/2000/svg" width="1540" height="620" viewBox="0 0 1540 620">
<rect width="100%" height="100%" fill="#ffffff" />
<style>text { font-family: Arial, Helvetica, sans-serif; fill: #111827; }</style>
<text x="770.00" y="26.00" font-size="15" font-weight="700" text-anchor="middle">Representation-shift bias: log2(motion cos. dist. / appearance cos. dist.), mid strength</text>
<text x="16.00" y="250.00" font-size="11" font-weight="400" text-anchor="middle" transform="rotate(-90 16.00 250.00)">log2 ratio (motion / appearance)</text>
<line x1="60" y1="430" x2="1510" y2="430" stroke="#111827" stroke-width="1" />
<line x1="60" y1="70" x2="60" y2="430" stroke="#111827" stroke-width="1" />
<line x1="56" y1="430.00" x2="60" y2="430.00" stroke="#111827" />
<text x="52.00" y="434.00" font-size="10" font-weight="400" text-anchor="end">-10.500</text>
<line x1="56" y1="358.00" x2="60" y2="358.00" stroke="#111827" />
<text x="52.00" y="362.00" font-size="10" font-weight="400" text-anchor="end">-6.300</text>
<line x1="60" y1="358.00" x2="1510" y2="358.00" stroke="#e5e7eb" stroke-width="1" />
<line x1="56" y1="286.00" x2="60" y2="286.00" stroke="#111827" />
<text x="52.00" y="290.00" font-size="10" font-weight="400" text-anchor="end">-2.100</text>
<line x1="60" y1="286.00" x2="1510" y2="286.00" stroke="#e5e7eb" stroke-width="1" />
<line x1="56" y1="214.00" x2="60" y2="214.00" stroke="#111827" />
<text x="52.00" y="218.00" font-size="10" font-weight="400" text-anchor="end">2.100</text>
<line x1="60" y1="214.00" x2="1510" y2="214.00" stroke="#e5e7eb" stroke-width="1" />
<line x1="56" y1="142.00" x2="60" y2="142.00" stroke="#111827" />
<text x="52.00" y="146.00" font-size="10" font-weight="400" text-anchor="end">6.300</text>
<line x1="60" y1="142.00" x2="1510" y2="142.00" stroke="#e5e7eb" stroke-width="1" />
<line x1="56" y1="70.00" x2="60" y2="70.00" stroke="#111827" />
<text x="52.00" y="74.00" font-size="10" font-weight="400" text-anchor="end">10.500</text>
<line x1="60" y1="250.00" x2="1510" y2="250.00" stroke="#6b7280" stroke-dasharray="4 4" />
<text x="1505.00" y="84.00" font-size="10" font-weight="600" text-anchor="end">motion-dominant</text>
<text x="1505.00" y="424.00" font-size="10" font-weight="600" text-anchor="end">appearance-dominant</text>
<rect x="73.18" y="111.18" width="39.55" height="138.82" fill="#2563eb" />
<text x="92.95" y="490.00" font-size="10" font-weight="400" text-anchor="end" transform="rotate(-40 92.95 490.00)">DisMo x Diving48</text>
<rect x="139.09" y="143.15" width="39.55" height="106.85" fill="#2563eb" />
<text x="158.86" y="490.00" font-size="10" font-weight="400" text-anchor="end" transform="rotate(-40 158.86 490.00)">VideoMAE x Diving48</text>
<rect x="205.00" y="157.53" width="39.55" height="92.47" fill="#2563eb" />
<text x="224.77" y="490.00" font-size="10" font-weight="400" text-anchor="end" transform="rotate(-40 224.77 490.00)">DisMo x Kinetics</text>
<rect x="270.91" y="159.75" width="39.55" height="90.25" fill="#2563eb" />
<text x="290.68" y="490.00" font-size="10" font-weight="400" text-anchor="end" transform="rotate(-40 290.68 490.00)">SlowFast R50 8x8 x Diving48</text>
<rect x="336.82" y="175.31" width="39.55" height="74.69" fill="#2563eb" />
<text x="356.59" y="490.00" font-size="10" font-weight="400" text-anchor="end" transform="rotate(-40 356.59 490.00)">DisMo x HMDB51</text>
<rect x="402.73" y="177.32" width="39.55" height="72.68" fill="#2563eb" />
<text x="422.50" y="490.00" font-size="10" font-weight="400" text-anchor="end" transform="rotate(-40 422.50 490.00)">DisMo x SSV2</text>
<rect x="468.64" y="200.31" width="39.55" height="49.69" fill="#2563eb" />
<text x="488.41" y="490.00" font-size="10" font-weight="400" text-anchor="end" transform="rotate(-40 488.41 490.00)">SlowFast R50 8x8 x Kinetics</text>
<rect x="534.55" y="202.36" width="39.55" height="47.64" fill="#2563eb" />
<text x="554.32" y="490.00" font-size="10" font-weight="400" text-anchor="end" transform="rotate(-40 554.32 490.00)">VideoMAE x Kinetics</text>
<rect x="600.45" y="218.23" width="39.55" height="31.77" fill="#2563eb" />
<text x="620.23" y="490.00" font-size="10" font-weight="400" text-anchor="end" transform="rotate(-40 620.23 490.00)">SlowFast R50 8x8 x HMDB51</text>
<rect x="666.36" y="218.62" width="39.55" height="31.38" fill="#2563eb" />
<text x="686.14" y="490.00" font-size="10" font-weight="400" text-anchor="end" transform="rotate(-40 686.14 490.00)">VideoMAE x SSV2</text>
<rect x="732.27" y="223.55" width="39.55" height="26.45" fill="#2563eb" />
<text x="752.05" y="490.00" font-size="10" font-weight="400" text-anchor="end" transform="rotate(-40 752.05 490.00)">SlowFast R50 8x8 x SSV2</text>
<rect x="798.18" y="225.87" width="39.55" height="24.13" fill="#2563eb" />
<text x="817.95" y="490.00" font-size="10" font-weight="400" text-anchor="end" transform="rotate(-40 817.95 490.00)">SlowFast R50 8x8 x UCF101</text>
<rect x="864.09" y="232.06" width="39.55" height="17.94" fill="#2563eb" />
<text x="883.86" y="490.00" font-size="10" font-weight="400" text-anchor="end" transform="rotate(-40 883.86 490.00)">V-JEPA2 x Diving48</text>
<rect x="930.00" y="238.87" width="39.55" height="11.13" fill="#2563eb" />
<text x="949.77" y="490.00" font-size="10" font-weight="400" text-anchor="end" transform="rotate(-40 949.77 490.00)">VideoMAE x HMDB51</text>
<rect x="995.91" y="243.63" width="39.55" height="6.37" fill="#2563eb" />
<text x="1015.68" y="490.00" font-size="10" font-weight="400" text-anchor="end" transform="rotate(-40 1015.68 490.00)">VideoMAE x UCF101</text>
<rect x="1061.82" y="250.00" width="39.55" height="3.61" fill="#ea580c" />
<text x="1081.59" y="490.00" font-size="10" font-weight="400" text-anchor="end" transform="rotate(-40 1081.59 490.00)">V-JEPA2 x Kinetics</text>
<rect x="1127.73" y="250.00" width="39.55" height="11.96" fill="#ea580c" />
<text x="1147.50" y="490.00" font-size="10" font-weight="400" text-anchor="end" transform="rotate(-40 1147.50 490.00)">V-JEPA2 x HMDB51</text>
<rect x="1193.64" y="250.00" width="39.55" height="171.43" fill="#ea580c" />
<text x="1213.41" y="490.00" font-size="10" font-weight="400" text-anchor="end" transform="rotate(-40 1213.41 490.00)">DINOv2 frame-mean x SSV2</text>
<rect x="1259.55" y="250.00" width="39.55" height="171.43" fill="#ea580c" />
<text x="1279.32" y="490.00" font-size="10" font-weight="400" text-anchor="end" transform="rotate(-40 1279.32 490.00)">DINOv2 frame-mean x UCF101</text>
<rect x="1325.45" y="250.00" width="39.55" height="171.43" fill="#ea580c" />
<text x="1345.23" y="490.00" font-size="10" font-weight="400" text-anchor="end" transform="rotate(-40 1345.23 490.00)">DINOv2 frame-mean x Diving48</text>
<rect x="1391.36" y="250.00" width="39.55" height="171.43" fill="#ea580c" />
<text x="1411.14" y="490.00" font-size="10" font-weight="400" text-anchor="end" transform="rotate(-40 1411.14 490.00)">DINOv2 frame-mean x HMDB51</text>
<rect x="1457.27" y="250.00" width="39.55" height="171.43" fill="#ea580c" />
<text x="1477.05" y="490.00" font-size="10" font-weight="400" text-anchor="end" transform="rotate(-40 1477.05 490.00)">DINOv2 frame-mean x Kinetics</text>
</svg>
