<svg xmlns="http://www.w3.org/2000/svg" width="1080" height="870" viewBox="0 0 1080 870">
<rect width="100%" height="100%" fill="#ffffff" />
<style>text { font-family: Arial, Helvetica, sans-serif; fill: #111827; }</style>
<text x="540.00" y="26.00" font-size="16" font-weight="700" text-anchor="middle">Per-cell perturbation profile (correct-to-incorrect rate, all 8 artifacts)</text>
<text x="225.00" y="82.00" font-size="12" font-weight="700" text-anchor="middle">VideoMAE</text>
<text x="415.00" y="82.00" font-size="12" font-weight="700" text-anchor="middle">SlowFast R50 8x8</text>
<text x="605.00" y="82.00" font-size="12" font-weight="700" text-anchor="middle">DINOv2 frame-mean</text>
<text x="795.00" y="82.00" font-size="12" font-weight="700" text-anchor="middle">V-JEPA2</text>
<text x="985.00" y="82.00" font-size="12" font-weight="700" text-anchor="middle">DisMo</text>
<text x="120.00" y="165.00" font-size="12" font-weight="700" text-anchor="end">SSV2</text>
<rect x="134" y="94" width="182" height="142" fill="none" stroke="#e5e7eb" stroke-width="1" />
<text x="225.00" y="106.00" font-size="9" font-weight="400" text-anchor="middle">LP orig. 25%</text>
<rect x="134.00" y="162.70" width="21.00" height="69.30" fill="#2563eb" />
<rect x="157.00" y="217.64" width="21.00" height="14.36" fill="#2563eb" />
<rect x="180.00" y="200.31" width="21.00" height="31.69" fill="#2563eb" />
<rect x="203.00" y="178.43" width="21.00" height="53.57" fill="#2563eb" />
<rect x="226.00" y="231.09" width="21.00" height="0.91" fill="#ea580c" />
<rect x="249.00" y="229.26" width="21.00" height="2.74" fill="#ea580c" />
<rect x="272.00" y="222.88" width="21.00" height="9.12" fill="#ea580c" />
<rect x="295.00" y="203.28" width="21.00" height="28.72" fill="#ea580c" />
<line x1="134" y1="232.00" x2="316" y2="232.00" stroke="#9ca3af" stroke-width="1" />
<rect x="324" y="94" width="182" height="142" fill="none" stroke="#e5e7eb" stroke-width="1" />
<text x="415.00" y="106.00" font-size="9" font-weight="400" text-anchor="middle">LP orig. 34%</text>
<rect x="324.00" y="152.21" width="21.00" height="79.79" fill="#2563eb" />
<rect x="347.00" y="208.29" width="21.00" height="23.71" fill="#2563eb" />
<rect x="370.00" y="184.13" width="21.00" height="47.87" fill="#2563eb" />
<rect x="393.00" y="153.35" width="21.00" height="78.65" fill="#2563eb" />
<rect x="416.00" y="231.54" width="21.00" height="0.60" fill="#ea580c" />
<rect x="439.00" y="228.58" width="21.00" height="3.42" fill="#ea580c" />
<rect x="462.00" y="222.20" width="21.00" height="9.80" fill="#ea580c" />
<rect x="485.00" y="209.89" width="21.00" height="22.11" fill="#ea580c" />
<line x1="324" y1="232.00" x2="506" y2="232.00" stroke="#9ca3af" stroke-width="1" />
<rect x="514" y="94" width="182" height="142" fill="none" stroke="#e5e7eb" stroke-width="1" />
<text x="605.00" y="106.00" font-size="9" font-weight="400" text-anchor="middle">LP orig. 30%</text>
<rect x="514.00" y="232.00" width="21.00" height="0.60" fill="#2563eb" />
<rect x="537.00" y="229.72" width="21.00" height="2.28" fill="#2563eb" />
<rect x="560.00" y="222.20" width="21.00" height="9.80" fill="#2563eb" />
<rect x="583.00" y="214.90" width="21.00" height="17.10" fill="#2563eb" />
<rect x="606.00" y="232.00" width="21.00" height="0.60" fill="#ea580c" />
<rect x="629.00" y="231.32" width="21.00" height="0.68" fill="#ea580c" />
<rect x="652.00" y="228.12" width="21.00" height="3.88" fill="#ea580c" />
<rect x="675.00" y="219.23" width="21.00" height="12.77" fill="#ea580c" />
<line x1="514" y1="232.00" x2="696" y2="232.00" stroke="#9ca3af" stroke-width="1" />
<rect x="704" y="94" width="182" height="142" fill="none" stroke="#e5e7eb" stroke-width="1" />
<text x="795.00" y="165.00" font-size="10" font-weight="400" text-anchor="middle">no run</text>
<rect x="894" y="94" width="182" height="142" fill="none" stroke="#e5e7eb" stroke-width="1" />
<text x="985.00" y="165.00" font-size="10" font-weight="400" text-anchor="middle">no run</text>
<text x="120.00" y="315.00" font-size="12" font-weight="700" text-anchor="end">UCF101</text>
<rect x="134" y="244" width="182" height="142" fill="none" stroke="#e5e7eb" stroke-width="1" />
<text x="225.00" y="256.00" font-size="9" font-weight="400" text-anchor="middle">LP orig. 85%</text>
<rect x="134.00" y="286.26" width="21.00" height="95.74" fill="#2563eb" />
<rect x="157.00" y="374.71" width="21.00" height="7.29" fill="#2563eb" />
<rect x="180.00" y="358.75" width="21.00" height="23.25" fill="#2563eb" />
<rect x="203.00" y="326.15" width="21.00" height="55.85" fill="#2563eb" />
<rect x="226.00" y="380.86" width="21.00" height="1.14" fill="#ea580c" />
<rect x="249.00" y="376.30" width="21.00" height="5.70" fill="#ea580c" />
<rect x="272.00" y="358.29" width="21.00" height="23.71" fill="#ea580c" />
<rect x="295.00" y="274.86" width="21.00" height="107.14" fill="#ea580c" />
<line x1="134" y1="382.00" x2="316" y2="382.00" stroke="#9ca3af" stroke-width="1" />
<rect x="324" y="244" width="182" height="142" fill="none" stroke="#e5e7eb" stroke-width="1" />
<text x="415.00" y="256.00" font-size="9" font-weight="400" text-anchor="middle">LP orig. 99%</text>
<rect x="324.00" y="365.36" width="21.00" height="16.64" fill="#2563eb" />
<rect x="347.00" y="380.63" width="21.00" height="1.37" fill="#2563eb" />
<rect x="370.00" y="378.12" width="21.00" height="3.88" fill="#2563eb" />
<rect x="393.00" y="368.09" width="21.00" height="13.91" fill="#2563eb" />
<rect x="416.00" y="382.00" width="21.00" height="0.60" fill="#ea580c" />
<rect x="439.00" y="381.77" width="21.00" height="0.60" fill="#ea580c" />
<rect x="462.00" y="381.32" width="21.00" height="0.68" fill="#ea580c" />
<rect x="485.00" y="376.53" width="21.00" height="5.47" fill="#ea580c" />
<line x1="324" y1="382.00" x2="506" y2="382.00" stroke="#9ca3af" stroke-width="1" />
<rect x="514" y="244" width="182" height="142" fill="none" stroke="#e5e7eb" stroke-width="1" />
<text x="605.00" y="256.00" font-size="9" font-weight="400" text-anchor="middle">LP orig. 99%</text>
<rect x="514.00" y="382.00" width="21.00" height="0.60" fill="#2563eb" />
<rect x="537.00" y="381.54" width="21.00" height="0.60" fill="#2563eb" />
<rect x="560.00" y="381.77" width="21.00" height="0.60" fill="#2563eb" />
<rect x="583.00" y="380.86" width="21.00" height="1.14" fill="#2563eb" />
<rect x="606.00" y="382.00" width="21.00" height="0.60" fill="#ea580c" />
<rect x="629.00" y="382.00" width="21.00" height="0.60" fill="#ea580c" />
<rect x="652.00" y="381.32" width="21.00" height="0.68" fill="#ea580c" />
<rect x="675.00" y="380.63" width="21.00" height="1.37" fill="#ea580c" />
<line x1="514" y1="382.00" x2="696" y2="382.00" stroke="#9ca3af" stroke-width="1" />
<rect x="704" y="244" width="182" height="142" fill="none" stroke="#e5e7eb" stroke-width="1" />
<text x="795.00" y="315.00" font-size="10" font-weight="400" text-anchor="middle">no run</text>
<rect x="894" y="244" width="182" height="142" fill="none" stroke="#e5e7eb" stroke-width="1" />
<text x="985.00" y="315.00" font-size="10" font-weight="400" text-anchor="middle">no run</text>
<text x="120.00" y="465.00" font-size="12" font-weight="700" text-anchor="end">Diving48</text>
<rect x="134" y="394" width="182" height="142" fill="none" stroke="#e5e7eb" stroke-width="1" />
<text x="225.00" y="406.00" font-size="9" font-weight="400" text-anchor="middle">LP orig. 7%</text>
<rect x="134.00" y="512.77" width="21.00" height="19.23" fill="#2563eb" />
<rect x="157.00" y="527.01" width="21.00" height="4.99" fill="#2563eb" />
<rect x="180.00" y="522.03" width="21.00" height="9.97" fill="#2563eb" />
<rect x="203.00" y="510.63" width="21.00" height="21.37" fill="#2563eb" />
<rect x="226.00" y="532.00" width="21.00" height="0.60" fill="#ea580c" />
<rect x="249.00" y="529.86" width="21.00" height="2.14" fill="#ea580c" />
<rect x="272.00" y="528.44" width="21.00" height="3.56" fill="#ea580c" />
<rect x="295.00" y="524.16" width="21.00" height="7.84" fill="#ea580c" />
<line x1="134" y1="532.00" x2="316" y2="532.00" stroke="#9ca3af" stroke-width="1" />
<rect x="324" y="394" width="182" height="142" fill="none" stroke="#e5e7eb" stroke-width="1" />
<text x="415.00" y="406.00" font-size="9" font-weight="400" text-anchor="middle">LP orig. 9%</text>
<rect x="324.00" y="507.07" width="21.00" height="24.93" fill="#2563eb" />
<rect x="347.00" y="517.75" width="21.00" height="14.25" fill="#2563eb" />
<rect x="370.00" y="506.35" width="21.00" height="25.65" fill="#2563eb" />
<rect x="393.00" y="505.64" width="21.00" height="26.36" fill="#2563eb" />
<rect x="416.00" y="531.29" width="21.00" height="0.71" fill="#ea580c" />
<rect x="439.00" y="529.86" width="21.00" height="2.14" fill="#ea580c" />
<rect x="462.00" y="523.45" width="21.00" height="8.55" fill="#ea580c" />
<rect x="485.00" y="527.73" width="21.00" height="4.27" fill="#ea580c" />
<line x1="324" y1="532.00" x2="506" y2="532.00" stroke="#9ca3af" stroke-width="1" />
<rect x="514" y="394" width="182" height="142" fill="none" stroke="#e5e7eb" stroke-width="1" />
<text x="605.00" y="406.00" font-size="9" font-weight="400" text-anchor="middle">LP orig. 10%</text>
<rect x="514.00" y="532.00" width="21.00" height="0.60" fill="#2563eb" />
<rect x="537.00" y="528.44" width="21.00" height="3.56" fill="#2563eb" />
<rect x="560.00" y="521.31" width="21.00" height="10.69" fill="#2563eb" />
<rect x="583.00" y="512.77" width="21.00" height="19.23" fill="#2563eb" />
<rect x="606.00" y="531.29" width="21.00" height="0.71" fill="#ea580c" />
<rect x="629.00" y="530.58" width="21.00" height="1.42" fill="#ea580c" />
<rect x="652.00" y="527.73" width="21.00" height="4.27" fill="#ea580c" />
<rect x="675.00" y="528.44" width="21.00" height="3.56" fill="#ea580c" />
<line x1="514" y1="532.00" x2="696" y2="532.00" stroke="#9ca3af" stroke-width="1" />
<rect x="704" y="394" width="182" height="142" fill="none" stroke="#e5e7eb" stroke-width="1" />
<text x="795.00" y="465.00" font-size="10" font-weight="400" text-anchor="middle">no run</text>
<rect x="894" y="394" width="182" height="142" fill="none" stroke="#e5e7eb" stroke-width="1" />
<text x="985.00" y="465.00" font-size="10" font-weight="400" text-anchor="middle">no run</text>
<text x="120.00" y="615.00" font-size="12" font-weight="700" text-anchor="end">HMDB51</text>
<rect x="134" y="544" width="182" height="142" fill="none" stroke="#e5e7eb" stroke-width="1" />
<text x="225.00" y="556.00" font-size="9" font-weight="400" text-anchor="middle">LP orig. 36%</text>
<rect x="134.00" y="616.48" width="21.00" height="65.52" fill="#2563eb" />
<rect x="157.00" y="672.13" width="21.00" height="9.87" fill="#2563eb" />
<rect x="180.00" y="658.22" width="21.00" height="23.78" fill="#2563eb" />
<rect x="203.00" y="633.76" width="21.00" height="48.24" fill="#2563eb" />
<rect x="226.00" y="681.33" width="21.00" height="0.67" fill="#ea580c" />
<rect x="249.00" y="676.62" width="21.00" height="5.38" fill="#ea580c" />
<rect x="272.00" y="659.11" width="21.00" height="22.89" fill="#ea580c" />
<rect x="295.00" y="618.05" width="21.00" height="63.95" fill="#ea580c" />
<line x1="134" y1="682.00" x2="316" y2="682.00" stroke="#9ca3af" stroke-width="1" />
<rect x="324" y="544" width="182" height="142" fill="none" stroke="#e5e7eb" stroke-width="1" />
<text x="415.00" y="556.00" font-size="9" font-weight="400" text-anchor="middle">LP orig. 72%</text>
<rect x="324.00" y="609.75" width="21.00" height="72.25" fill="#2563eb" />
<rect x="347.00" y="661.81" width="21.00" height="20.19" fill="#2563eb" />
<rect x="370.00" y="638.25" width="21.00" height="43.75" fill="#2563eb" />
<rect x="393.00" y="596.06" width="21.00" height="85.94" fill="#2563eb" />
<rect x="416.00" y="681.10" width="21.00" height="0.90" fill="#ea580c" />
<rect x="439.00" y="679.31" width="21.00" height="2.69" fill="#ea580c" />
<rect x="462.00" y="673.92" width="21.00" height="8.08" fill="#ea580c" />
<rect x="485.00" y="653.50" width="21.00" height="28.50" fill="#ea580c" />
<line x1="324" y1="682.00" x2="506" y2="682.00" stroke="#9ca3af" stroke-width="1" />
<rect x="514" y="544" width="182" height="142" fill="none" stroke="#e5e7eb" stroke-width="1" />
<text x="605.00" y="615.00" font-size="10" font-weight="400" text-anchor="middle">no run</text>
<rect x="704" y="544" width="182" height="142" fill="none" stroke="#e5e7eb" stroke-width="1" />
<text x="795.00" y="556.00" font-size="9" font-weight="400" text-anchor="middle">LP orig. 63%</text>
<rect x="704.00" y="602.57" width="21.00" height="79.43" fill="#2563eb" />
<rect x="727.00" y="660.46" width="21.00" height="21.54" fill="#2563eb" />
<rect x="750.00" y="641.61" width="21.00" height="40.39" fill="#2563eb" />
<rect x="773.00" y="609.75" width="21.00" height="72.25" fill="#2563eb" />
<rect x="796.00" y="681.55" width="21.00" height="0.60" fill="#ea580c" />
<rect x="819.00" y="678.63" width="21.00" height="3.37" fill="#ea580c" />
<rect x="842.00" y="662.03" width="21.00" height="19.97" fill="#ea580c" />
<rect x="865.00" y="617.83" width="21.00" height="64.17" fill="#ea580c" />
<line x1="704" y1="682.00" x2="886" y2="682.00" stroke="#9ca3af" stroke-width="1" />
<rect x="894" y="544" width="182" height="142" fill="none" stroke="#e5e7eb" stroke-width="1" />
<text x="985.00" y="615.00" font-size="10" font-weight="400" text-anchor="middle">no run</text>
<text x="120.00" y="765.00" font-size="12" font-weight="700" text-anchor="end">Kinetics</text>
<rect x="134" y="694" width="182" height="142" fill="none" stroke="#e5e7eb" stroke-width="1" />
<text x="225.00" y="706.00" font-size="9" font-weight="400" text-anchor="middle">LP orig. 46%</text>
<rect x="134.00" y="766.57" width="21.00" height="65.43" fill="#2563eb" />
<rect x="157.00" y="827.90" width="21.00" height="4.10" fill="#2563eb" />
<rect x="180.00" y="816.27" width="21.00" height="15.73" fill="#2563eb" />
<rect x="203.00" y="803.50" width="21.00" height="28.50" fill="#2563eb" />
<rect x="226.00" y="831.32" width="21.00" height="0.68" fill="#ea580c" />
<rect x="249.00" y="827.90" width="21.00" height="4.10" fill="#ea580c" />
<rect x="272.00" y="816.95" width="21.00" height="15.05" fill="#ea580c" />
<rect x="295.00" y="812.40" width="21.00" height="19.60" fill="#ea580c" />
<line x1="134" y1="832.00" x2="316" y2="832.00" stroke="#9ca3af" stroke-width="1" />
<rect x="324" y="694" width="182" height="142" fill="none" stroke="#e5e7eb" stroke-width="1" />
<text x="415.00" y="765.00" font-size="10" font-weight="400" text-anchor="middle">no run</text>
<rect x="514" y="694" width="182" height="142" fill="none" stroke="#e5e7eb" stroke-width="1" />
<text x="605.00" y="765.00" font-size="10" font-weight="400" text-anchor="middle">no run</text>
<rect x="704" y="694" width="182" height="142" fill="none" stroke="#e5e7eb" stroke-width="1" />
<text x="795.00" y="706.00" font-size="9" font-weight="400" text-anchor="middle">LP orig. 72%</text>
<rect x="704.00" y="752.21" width="21.00" height="79.79" fill="#2563eb" />
<rect x="727.00" y="817.41" width="21.00" height="14.59" fill="#2563eb" />
<rect x="750.00" y="810.12" width="21.00" height="21.88" fill="#2563eb" />
<rect x="773.00" y="785.27" width="21.00" height="46.73" fill="#2563eb" />
<rect x="796.00" y="831.77" width="21.00" height="0.60" fill="#ea580c" />
<rect x="819.00" y="830.18" width="21.00" height="1.82" fill="#ea580c" />
<rect x="842.00" y="822.65" width="21.00" height="9.35" fill="#ea580c" />
<rect x="865.00" y="802.59" width="21.00" height="29.41" fill="#ea580c" />
<line x1="704" y1="832.00" x2="886" y2="832.00" stroke="#9ca3af" stroke-width="1" />
<rect x="894" y="694" width="182" height="142" fill="none" stroke="#e5e7eb" stroke-width="1" />
<text x="985.00" y="706.00" font-size="9" font-weight="400" text-anchor="middle">LP orig. 35%</text>
<rect x="894.00" y="774.55" width="21.00" height="57.45" fill="#2563eb" />
<rect x="917.00" y="821.51" width="21.00" height="10.49" fill="#2563eb" />
<rect x="940.00" y="800.77" width="21.00" height="31.23" fill="#2563eb" />
<rect x="963.00" y="764.75" width="21.00" height="67.25" fill="#2563eb" />
<rect x="986.00" y="831.09" width="21.00" height="0.91" fill="#ea580c" />
<rect x="1009.00" y="827.21" width="21.00" height="4.79" fill="#ea580c" />
<rect x="1032.00" y="814.45" width="21.00" height="17.55" fill="#ea580c" />
<rect x="1055.00" y="818.55" width="21.00" height="13.45" fill="#ea580c" />
<line x1="894" y1="832.00" x2="1076" y2="832.00" stroke="#9ca3af" stroke-width="1" />
<rect x="130" y="838" width="12" height="12" fill="#2563eb" />
<text x="148.00" y="848.00" font-size="11" font-weight="400" text-anchor="start">motion perturbation</text>
<rect x="300" y="838" width="12" height="12" fill="#ea580c" />
<text x="318.00" y="848.00" font-size="11" font-weight="400" text-anchor="start">appearance perturbation</text>
<text x="530.00" y="848.00" font-size="10" font-weight="400" text-anchor="start">bar order (left to right): shuffle, freeze-low/mid/high, color-low/mid/high, blur</text>
</svg>
