<svg xmlns="http://www.w3.org/2000/svg" width="1840" height="620" viewBox="0 0 1840 620">
<rect width="100%" height="100%" fill="#ffffff" />
<style>text { font-family: Arial, Helvetica, sans-serif; fill: #111827; }</style>
<text x="920.00" y="28.00" font-size="18" font-weight="700" text-anchor="middle">Fixed-mid perturbation: mean cosine distance</text>
<text x="18.00" y="257.50" font-size="12" font-weight="400" text-anchor="middle" transform="rotate(-90 18.00 257.50)">Mean cosine distance</text>
<line x1="90" y1="460" x2="1810" y2="460" stroke="#111827" stroke-width="1" />
<line x1="90" y1="55" x2="90" y2="460" stroke="#111827" stroke-width="1" />
<line x1="86" y1="460.00" x2="90" y2="460.00" stroke="#111827" />
<text x="82.00" y="464.00" font-size="10" font-weight="400" text-anchor="end">-0.085</text>
<line x1="86" y1="379.00" x2="90" y2="379.00" stroke="#111827" />
<text x="82.00" y="383.00" font-size="10" font-weight="400" text-anchor="end">0.091</text>
<line x1="90" y1="379.00" x2="1810" y2="379.00" stroke="#e5e7eb" stroke-width="1" />
<line x1="86" y1="298.00" x2="90" y2="298.00" stroke="#111827" />
<text x="82.00" y="302.00" font-size="10" font-weight="400" text-anchor="end">0.267</text>
<line x1="90" y1="298.00" x2="1810" y2="298.00" stroke="#e5e7eb" stroke-width="1" />
<line x1="86" y1="217.00" x2="90" y2="217.00" stroke="#111827" />
<text x="82.00" y="221.00" font-size="10" font-weight="400" text-anchor="end">0.443</text>
<line x1="90" y1="217.00" x2="1810" y2="217.00" stroke="#e5e7eb" stroke-width="1" />
<line x1="86" y1="136.00" x2="90" y2="136.00" stroke="#111827" />
<text x="82.00" y="140.00" font-size="10" font-weight="400" text-anchor="end">0.619</text>
<line x1="90" y1="136.00" x2="1810" y2="136.00" stroke="#e5e7eb" stroke-width="1" />
<line x1="86" y1="55.00" x2="90" y2="55.00" stroke="#111827" />
<text x="82.00" y="59.00" font-size="10" font-weight="400" text-anchor="end">0.795</text>
<line x1="90" y1="420.81" x2="1810" y2="420.81" stroke="#6b7280" stroke-dasharray="4 4" />
<rect x="106.83" y="410.21" width="18.70" height="10.60" fill="#2563eb" />
<rect x="129.26" y="417.83" width="18.70" height="2.98" fill="#ea580c" />
<text x="127.39" y="520.00" font-size="10" font-weight="400" text-anchor="end" transform="rotate(-40 127.39 520.00)">VideoMAE x SSV2</text>
<rect x="181.61" y="415.18" width="18.70" height="5.63" fill="#2563eb" />
<rect x="204.04" y="416.46" width="18.70" height="4.35" fill="#ea580c" />
<text x="202.17" y="520.00" font-size="10" font-weight="400" text-anchor="end" transform="rotate(-40 202.17 520.00)">VideoMAE x UCF101</text>
<rect x="256.39" y="383.89" width="18.70" height="36.92" fill="#2563eb" />
<rect x="278.83" y="420.32" width="18.70" height="0.49" fill="#ea580c" />
<text x="276.96" y="520.00" font-size="10" font-weight="400" text-anchor="end" transform="rotate(-40 276.96 520.00)">VideoMAE x Diving48</text>
<rect x="331.17" y="318.67" width="18.70" height="102.13" fill="#2563eb" />
<rect x="353.61" y="385.75" width="18.70" height="35.05" fill="#ea580c" />
<text x="351.74" y="520.00" font-size="10" font-weight="400" text-anchor="end" transform="rotate(-40 351.74 520.00)">SlowFast R50 8x8 x SSV2</text>
<rect x="405.96" y="346.51" width="18.70" height="74.29" fill="#2563eb" />
<rect x="428.39" y="392.80" width="18.70" height="28.00" fill="#ea580c" />
<text x="426.52" y="520.00" font-size="10" font-weight="400" text-anchor="end" transform="rotate(-40 426.52 520.00)">SlowFast R50 8x8 x UCF101</text>
<rect x="480.74" y="326.27" width="18.70" height="94.54" fill="#2563eb" />
<rect x="503.17" y="418.35" width="18.70" height="2.46" fill="#ea580c" />
<text x="501.30" y="520.00" font-size="10" font-weight="400" text-anchor="end" transform="rotate(-40 501.30 520.00)">SlowFast R50 8x8 x Diving48</text>
<rect x="555.52" y="420.81" width="18.70" height="0.00" fill="#2563eb" />
<rect x="577.96" y="398.57" width="18.70" height="22.24" fill="#ea580c" />
<text x="576.09" y="520.00" font-size="10" font-weight="400" text-anchor="end" transform="rotate(-40 576.09 520.00)">DINOv2 frame-mean x SSV2</text>
<rect x="630.30" y="420.81" width="18.70" height="0.00" fill="#2563eb" />
<rect x="652.74" y="402.68" width="18.70" height="18.13" fill="#ea580c" />
<text x="650.87" y="520.00" font-size="10" font-weight="400" text-anchor="end" transform="rotate(-40 650.87 520.00)">DINOv2 frame-mean x UCF101</text>
<rect x="705.09" y="420.81" width="18.70" height="0.00" fill="#2563eb" />
<rect x="727.52" y="419.27" width="18.70" height="1.53" fill="#ea580c" />
<text x="725.65" y="520.00" font-size="10" font-weight="400" text-anchor="end" transform="rotate(-40 725.65 520.00)">DINOv2 frame-mean x Diving48</text>
<rect x="779.87" y="379.07" width="18.70" height="41.74" fill="#2563eb" />
<rect x="802.30" y="353.11" width="18.70" height="67.70" fill="#ea580c" />
<text x="800.43" y="520.00" font-size="10" font-weight="400" text-anchor="end" transform="rotate(-40 800.43 520.00)">V-JEPA2 x HMDB51</text>
<rect x="854.65" y="414.23" width="18.70" height="6.58" fill="#2563eb" />
<rect x="877.09" y="416.61" width="18.70" height="4.19" fill="#ea580c" />
<text x="875.22" y="520.00" font-size="10" font-weight="400" text-anchor="end" transform="rotate(-40 875.22 520.00)">VideoMAE x HMDB51</text>
<rect x="929.43" y="309.98" width="18.70" height="110.83" fill="#2563eb" />
<rect x="951.87" y="390.13" width="18.70" height="30.68" fill="#ea580c" />
<text x="950.00" y="520.00" font-size="10" font-weight="400" text-anchor="end" transform="rotate(-40 950.00 520.00)">SlowFast R50 8x8 x HMDB51</text>
<rect x="1004.22" y="412.48" width="18.70" height="8.32" fill="#2563eb" />
<rect x="1026.65" y="419.59" width="18.70" height="1.21" fill="#ea580c" />
<text x="1024.78" y="520.00" font-size="10" font-weight="400" text-anchor="end" transform="rotate(-40 1024.78 520.00)">VideoMAE x Kinetics</text>
<rect x="1079.00" y="247.11" width="18.70" height="173.70" fill="#2563eb" />
<rect x="1101.43" y="416.68" width="18.70" height="4.13" fill="#ea580c" />
<text x="1099.57" y="520.00" font-size="10" font-weight="400" text-anchor="end" transform="rotate(-40 1099.57 520.00)">DisMo x Kinetics</text>
<rect x="1153.78" y="381.48" width="18.70" height="39.33" fill="#2563eb" />
<rect x="1176.22" y="375.30" width="18.70" height="45.51" fill="#ea580c" />
<text x="1174.35" y="520.00" font-size="10" font-weight="400" text-anchor="end" transform="rotate(-40 1174.35 520.00)">V-JEPA2 x Kinetics</text>
<rect x="1228.57" y="420.81" width="18.70" height="0.00" fill="#2563eb" />
<rect x="1251.00" y="403.35" width="18.70" height="17.46" fill="#ea580c" />
<text x="1249.13" y="520.00" font-size="10" font-weight="400" text-anchor="end" transform="rotate(-40 1249.13 520.00)">DINOv2 frame-mean x HMDB51</text>
<rect x="1303.35" y="420.81" width="18.70" height="0.00" fill="#2563eb" />
<rect x="1325.78" y="413.93" width="18.70" height="6.88" fill="#ea580c" />
<text x="1323.91" y="520.00" font-size="10" font-weight="400" text-anchor="end" transform="rotate(-40 1323.91 520.00)">DINOv2 frame-mean x Kinetics</text>
<rect x="1378.13" y="335.15" width="18.70" height="85.66" fill="#2563eb" />
<rect x="1400.57" y="409.32" width="18.70" height="11.49" fill="#ea580c" />
<text x="1398.70" y="520.00" font-size="10" font-weight="400" text-anchor="end" transform="rotate(-40 1398.70 520.00)">SlowFast R50 8x8 x Kinetics</text>
<rect x="1452.91" y="94.19" width="18.70" height="326.61" fill="#2563eb" />
<rect x="1475.35" y="419.61" width="18.70" height="1.19" fill="#ea580c" />
<text x="1473.48" y="520.00" font-size="10" font-weight="400" text-anchor="end" transform="rotate(-40 1473.48 520.00)">DisMo x Diving48</text>
<rect x="1527.70" y="365.16" width="18.70" height="55.64" fill="#2563eb" />
<rect x="1550.13" y="393.87" width="18.70" height="26.94" fill="#ea580c" />
<text x="1548.26" y="520.00" font-size="10" font-weight="400" text-anchor="end" transform="rotate(-40 1548.26 520.00)">V-JEPA2 x Diving48</text>
<rect x="1602.48" y="254.03" width="18.70" height="166.78" fill="#2563eb" />
<rect x="1624.91" y="412.67" width="18.70" height="8.14" fill="#ea580c" />
<text x="1623.04" y="520.00" font-size="10" font-weight="400" text-anchor="end" transform="rotate(-40 1623.04 520.00)">DisMo x HMDB51</text>
<rect x="1677.26" y="232.14" width="18.70" height="188.67" fill="#2563eb" />
<rect x="1699.70" y="410.82" width="18.70" height="9.98" fill="#ea580c" />
<text x="1697.83" y="520.00" font-size="10" font-weight="400" text-anchor="end" transform="rotate(-40 1697.83 520.00)">DisMo x SSV2</text>
<rect x="1752.04" y="387.25" width="18.70" height="33.56" fill="#2563eb" />
<rect x="1774.48" y="351.19" width="18.70" height="69.62" fill="#ea580c" />
<text x="1772.61" y="520.00" font-size="10" font-weight="400" text-anchor="end" transform="rotate(-40 1772.61 520.00)">V-JEPA2 x UCF101</text>
<rect x="102" y="38" width="12" height="12" fill="#2563eb" />
<text x="120.00" y="48.00" font-size="12" font-weight="400" text-anchor="start">temporal-shuffle-mid</text>
<rect x="102" y="58" width="12" height="12" fill="#ea580c" />
<text x="120.00" y="68.00" font-size="12" font-weight="400" text-anchor="start">spatial-blur-mid</text>
</svg>
