<svg xmlns="http://www.w3.org/2000/svg" width="1000" height="620" viewBox="0 0 1000 620">
<rect width="100%" height="100%" fill="#ffffff" />
<style>text { font-family: Arial, Helvetica, sans-serif; fill: #111827; }</style>
<text x="500.00" y="26.00" font-size="15" font-weight="700" text-anchor="middle">Representation-shift bias: log2(motion cos. dist. / appearance cos. dist.), mid strength</text>
<text x="16.00" y="250.00" font-size="11" font-weight="400" text-anchor="middle" transform="rotate(-90 16.00 250.00)">log2 ratio (motion / appearance)</text>
<line x1="60" y1="430" x2="970" y2="430" stroke="#111827" stroke-width="1" />
<line x1="60" y1="70" x2="60" y2="430" stroke="#111827" stroke-width="1" />
<line x1="56" y1="430.00" x2="60" y2="430.00" stroke="#111827" />
<text x="52.00" y="434.00" font-size="10" font-weight="400" text-anchor="end">-10.500</text>
<line x1="56" y1="358.00" x2="60" y2="358.00" stroke="#111827" />
<text x="52.00" y="362.00" font-size="10" font-weight="400" text-anchor="end">-6.300</text>
<line x1="60" y1="358.00" x2="970" y2="358.00" stroke="#e5e7eb" stroke-width="1" />
<line x1="56" y1="286.00" x2="60" y2="286.00" stroke="#111827" />
<text x="52.00" y="290.00" font-size="10" font-weight="400" text-anchor="end">-2.100</text>
<line x1="60" y1="286.00" x2="970" y2="286.00" stroke="#e5e7eb" stroke-width="1" />
<line x1="56" y1="214.00" x2="60" y2="214.00" stroke="#111827" />
<text x="52.00" y="218.00" font-size="10" font-weight="400" text-anchor="end">2.100</text>
<line x1="60" y1="214.00" x2="970" y2="214.00" stroke="#e5e7eb" stroke-width="1" />
<line x1="56" y1="142.00" x2="60" y2="142.00" stroke="#111827" />
<text x="52.00" y="146.00" font-size="10" font-weight="400" text-anchor="end">6.300</text>
<line x1="60" y1="142.00" x2="970" y2="142.00" stroke="#e5e7eb" stroke-width="1" />
<line x1="56" y1="70.00" x2="60" y2="70.00" stroke="#111827" />
<text x="52.00" y="74.00" font-size="10" font-weight="400" text-anchor="end">10.500</text>
<line x1="60" y1="250.00" x2="970" y2="250.00" stroke="#6b7280" stroke-dasharray="4 4" />
<text x="965.00" y="84.00" font-size="10" font-weight="600" text-anchor="end">motion-dominant</text>
<text x="965.00" y="424.00" font-size="10" font-weight="600" text-anchor="end">appearance-dominant</text>
<rect x="73.00" y="143.15" width="39.00" height="106.85" fill="#2563eb" />
<text x="92.50" y="490.00" font-size="10" font-weight="400" text-anchor="end" transform="rotate(-40 92.50 490.00)">VideoMAE x Diving48</text>
<rect x="138.00" y="157.53" width="39.00" height="92.47" fill="#2563eb" />
<text x="157.50" y="490.00" font-size="10" font-weight="400" text-anchor="end" transform="rotate(-40 157.50 490.00)">DisMo x Kinetics</text>
<rect x="203.00" y="159.75" width="39.00" height="90.25" fill="#2563eb" />
<text x="222.50" y="490.00" font-size="10" font-weight="400" text-anchor="end" transform="rotate(-40 222.50 490.00)">SlowFast R50 8x8 x Diving48</text>
<rect x="268.00" y="202.36" width="39.00" height="47.64" fill="#2563eb" />
<text x="287.50" y="490.00" font-size="10" font-weight="400" text-anchor="end" transform="rotate(-40 287.50 490.00)">VideoMAE x Kinetics</text>
<rect x="333.00" y="218.62" width="39.00" height="31.38" fill="#2563eb" />
<text x="352.50" y="490.00" font-size="10" font-weight="400" text-anchor="end" transform="rotate(-40 352.50 490.00)">VideoMAE x SSV2</text>
<rect x="398.00" y="223.55" width="39.00" height="26.45" fill="#2563eb" />
<text x="417.50" y="490.00" font-size="10" font-weight="400" text-anchor="end" transform="rotate(-40 417.50 490.00)">SlowFast R50 8x8 x SSV2</text>
<rect x="463.00" y="225.87" width="39.00" height="24.13" fill="#2563eb" />
<text x="482.50" y="490.00" font-size="10" font-weight="400" text-anchor="end" transform="rotate(-40 482.50 490.00)">SlowFast R50 8x8 x UCF101</text>
<rect x="528.00" y="238.87" width="39.00" height="11.13" fill="#2563eb" />
<text x="547.50" y="490.00" font-size="10" font-weight="400" text-anchor="end" transform="rotate(-40 547.50 490.00)">VideoMAE x HMDB51</text>
<rect x="593.00" y="243.63" width="39.00" height="6.37" fill="#2563eb" />
<text x="612.50" y="490.00" font-size="10" font-weight="400" text-anchor="end" transform="rotate(-40 612.50 490.00)">VideoMAE x UCF101</text>
<rect x="658.00" y="250.00" width="39.00" height="3.61" fill="#ea580c" />
<text x="677.50" y="490.00" font-size="10" font-weight="400" text-anchor="end" transform="rotate(-40 677.50 490.00)">V-JEPA2 x Kinetics</text>
<rect x="723.00" y="250.00" width="39.00" height="11.96" fill="#ea580c" />
<text x="742.50" y="490.00" font-size="10" font-weight="400" text-anchor="end" transform="rotate(-40 742.50 490.00)">V-JEPA2 x HMDB51</text>
<rect x="788.00" y="250.00" width="39.00" height="171.43" fill="#ea580c" />
<text x="807.50" y="490.00" font-size="10" font-weight="400" text-anchor="end" transform="rotate(-40 807.50 490.00)">DINOv2 frame-mean x SSV2</text>
<rect x="853.00" y="250.00" width="39.00" height="171.43" fill="#ea580c" />
<text x="872.50" y="490.00" font-size="10" font-weight="400" text-anchor="end" transform="rotate(-40 872.50 490.00)">DINOv2 frame-mean x UCF101</text>
<rect x="918.00" y="250.00" width="39.00" height="171.43" fill="#ea580c" />
<text x="937.50" y="490.00" font-size="10" font-weight="400" text-anchor="end" transform="rotate(-40 937.50 490.00)">DINOv2 frame-mean x Diving48</text>
</svg>
