<svg xmlns="http://www.w3.org/2000/svg" width="1360" height="900" viewBox="0 0 1360 900">
<rect width="100%" height="100%" fill="#ffffff" />
<style>text { font-family: Arial, Helvetica, sans-serif; fill: #111827; }</style>
<text x="680.00" y="28.00" font-size="18" font-weight="700" text-anchor="middle">Strength curves: linear-probe accuracy drop</text>
<text x="90.00" y="65.00" font-size="14" font-weight="700" text-anchor="start">Freeze-tail low -&gt; mid -&gt; high</text>
<text x="18.00" y="227.50" font-size="11" font-weight="400" text-anchor="middle" transform="rotate(-90 18.00 227.50)">Accuracy drop</text>
<line x1="90" y1="365" x2="930" y2="365" stroke="#111827" stroke-width="1" />
<line x1="90" y1="90" x2="90" y2="365" stroke="#111827" stroke-width="1" />
<line x1="86" y1="365.00" x2="90" y2="365.00" stroke="#111827" />
<text x="82.00" y="369.00" font-size="10" font-weight="400" text-anchor="end">-0.047</text>
<line x1="86" y1="310.00" x2="90" y2="310.00" stroke="#111827" />
<text x="82.00" y="314.00" font-size="10" font-weight="400" text-anchor="end">0.012</text>
<line x1="90" y1="310.00" x2="930" y2="310.00" stroke="#e5e7eb" stroke-width="1" />
<line x1="86" y1="255.00" x2="90" y2="255.00" stroke="#111827" />
<text x="82.00" y="259.00" font-size="10" font-weight="400" text-anchor="end">0.071</text>
<line x1="90" y1="255.00" x2="930" y2="255.00" stroke="#e5e7eb" stroke-width="1" />
<line x1="86" y1="200.00" x2="90" y2="200.00" stroke="#111827" />
<text x="82.00" y="204.00" font-size="10" font-weight="400" text-anchor="end">0.131</text>
<line x1="90" y1="200.00" x2="930" y2="200.00" stroke="#e5e7eb" stroke-width="1" />
<line x1="86" y1="145.00" x2="90" y2="145.00" stroke="#111827" />
<text x="82.00" y="149.00" font-size="10" font-weight="400" text-anchor="end">0.190</text>
<line x1="90" y1="145.00" x2="930" y2="145.00" stroke="#e5e7eb" stroke-width="1" />
<line x1="86" y1="90.00" x2="90" y2="90.00" stroke="#111827" />
<text x="82.00" y="94.00" font-size="10" font-weight="400" text-anchor="end">0.249</text>
<line x1="90" y1="321.00" x2="930" y2="321.00" stroke="#6b7280" stroke-dasharray="4 4" />
<polyline points="90.00,301.23 510.00,268.47 930.00,204.19" fill="none" stroke="#2563eb" stroke-width="2.3" stroke-linejoin="round" />
<circle cx="90.00" cy="301.23" r="3.8" fill="#2563eb" />
<circle cx="510.00" cy="268.47" r="3.8" fill="#2563eb" />
<circle cx="930.00" cy="204.19" r="3.8" fill="#2563eb" />
<polyline points="90.00,314.21 510.00,280.21 930.00,196.78" fill="none" stroke="#2563eb" stroke-width="2.3" stroke-linejoin="round" stroke-dasharray="12 5" />
<circle cx="90.00" cy="314.21" r="3.8" fill="#2563eb" />
<circle cx="510.00" cy="280.21" r="3.8" fill="#2563eb" />
<circle cx="930.00" cy="196.78" r="3.8" fill="#2563eb" />
<polyline points="90.00,321.00 510.00,315.21 930.00,288.17" fill="none" stroke="#2563eb" stroke-width="2.3" stroke-linejoin="round" stroke-dasharray="1 4" />
<circle cx="90.00" cy="321.00" r="3.8" fill="#2563eb" />
<circle cx="510.00" cy="315.21" r="3.8" fill="#2563eb" />
<circle cx="930.00" cy="288.17" r="3.8" fill="#2563eb" />
<polyline points="90.00,289.48 510.00,232.01 930.00,141.15" fill="none" stroke="#dc2626" stroke-width="2.3" stroke-linejoin="round" />
<circle cx="90.00" cy="289.48" r="3.8" fill="#dc2626" />
<circle cx="510.00" cy="232.01" r="3.8" fill="#dc2626" />
<circle cx="930.00" cy="141.15" r="3.8" fill="#dc2626" />
<polyline points="90.00,317.91 510.00,312.35 930.00,285.16" fill="none" stroke="#dc2626" stroke-width="2.3" stroke-linejoin="round" stroke-dasharray="12 5" />
<circle cx="90.00" cy="317.91" r="3.8" fill="#dc2626" />
<circle cx="510.00" cy="312.35" r="3.8" fill="#dc2626" />
<circle cx="930.00" cy="285.16" r="3.8" fill="#dc2626" />
<polyline points="90.00,311.35 510.00,305.55 930.00,290.10" fill="none" stroke="#dc2626" stroke-width="2.3" stroke-linejoin="round" stroke-dasharray="1 4" />
<circle cx="90.00" cy="311.35" r="3.8" fill="#dc2626" />
<circle cx="510.00" cy="305.55" r="3.8" fill="#dc2626" />
<circle cx="930.00" cy="290.10" r="3.8" fill="#dc2626" />
<polyline points="90.00,322.86 510.00,316.06 930.00,301.85" fill="none" stroke="#7c3aed" stroke-width="2.3" stroke-linejoin="round" />
<circle cx="90.00" cy="322.86" r="3.8" fill="#7c3aed" />
<circle cx="510.00" cy="316.06" r="3.8" fill="#7c3aed" />
<circle cx="930.00" cy="301.85" r="3.8" fill="#7c3aed" />
<polyline points="90.00,319.77 510.00,321.00 930.00,318.53" fill="none" stroke="#7c3aed" stroke-width="2.3" stroke-linejoin="round" stroke-dasharray="12 5" />
<circle cx="90.00" cy="319.77" r="3.8" fill="#7c3aed" />
<circle cx="510.00" cy="321.00" r="3.8" fill="#7c3aed" />
<circle cx="930.00" cy="318.53" r="3.8" fill="#7c3aed" />
<polyline points="90.00,322.94 510.00,315.21 930.00,307.49" fill="none" stroke="#7c3aed" stroke-width="2.3" stroke-linejoin="round" stroke-dasharray="1 4" />
<circle cx="90.00" cy="322.94" r="3.8" fill="#7c3aed" />
<circle cx="510.00" cy="315.21" r="3.8" fill="#7c3aed" />
<circle cx="930.00" cy="307.49" r="3.8" fill="#7c3aed" />
<polyline points="90.00,298.50 510.00,252.87 930.00,158.59" fill="none" stroke="#334155" stroke-width="2.3" stroke-linejoin="round" stroke-dasharray="9 3 2 3" />
<circle cx="90.00" cy="298.50" r="3.8" fill="#334155" />
<circle cx="510.00" cy="252.87" r="3.8" fill="#334155" />
<circle cx="930.00" cy="158.59" r="3.8" fill="#334155" />
<polyline points="90.00,310.66 510.00,284.51 930.00,222.46" fill="none" stroke="#2563eb" stroke-width="2.3" stroke-linejoin="round" stroke-dasharray="9 3 2 3" />
<circle cx="90.00" cy="310.66" r="3.8" fill="#2563eb" />
<circle cx="510.00" cy="284.51" r="3.8" fill="#2563eb" />
<circle cx="930.00" cy="222.46" r="3.8" fill="#2563eb" />
<polyline points="90.00,296.06 510.00,234.62 930.00,116.61" fill="none" stroke="#dc2626" stroke-width="2.3" stroke-linejoin="round" stroke-dasharray="9 3 2 3" />
<circle cx="90.00" cy="296.06" r="3.8" fill="#dc2626" />
<circle cx="510.00" cy="234.62" r="3.8" fill="#dc2626" />
<circle cx="930.00" cy="116.61" r="3.8" fill="#dc2626" />
<polyline points="90.00,330.28 510.00,320.39 930.00,295.05" fill="none" stroke="#2563eb" stroke-width="2.3" stroke-linejoin="round" stroke-dasharray="5 3" />
<circle cx="90.00" cy="330.28" r="3.8" fill="#2563eb" />
<circle cx="510.00" cy="320.39" r="3.8" fill="#2563eb" />
<circle cx="930.00" cy="295.05" r="3.8" fill="#2563eb" />
<polyline points="90.00,303.70 510.00,285.78 930.00,198.63" fill="none" stroke="#db2777" stroke-width="2.3" stroke-linejoin="round" stroke-dasharray="5 3" />
<circle cx="90.00" cy="303.70" r="3.8" fill="#db2777" />
<circle cx="510.00" cy="285.78" r="3.8" fill="#db2777" />
<circle cx="930.00" cy="198.63" r="3.8" fill="#db2777" />
<polyline points="90.00,305.55 510.00,296.90 930.00,233.86" fill="none" stroke="#334155" stroke-width="2.3" stroke-linejoin="round" stroke-dasharray="5 3" />
<circle cx="90.00" cy="305.55" r="3.8" fill="#334155" />
<circle cx="510.00" cy="296.90" r="3.8" fill="#334155" />
<circle cx="930.00" cy="233.86" r="3.8" fill="#334155" />
<polyline points="90.00,311.27 510.00,308.84 930.00,294.85" fill="none" stroke="#7c3aed" stroke-width="2.3" stroke-linejoin="round" stroke-dasharray="9 3 2 3" />
<circle cx="90.00" cy="311.27" r="3.8" fill="#7c3aed" />
<circle cx="510.00" cy="308.84" r="3.8" fill="#7c3aed" />
<circle cx="930.00" cy="294.85" r="3.8" fill="#7c3aed" />
<polyline points="90.00,321.00 510.00,322.24 930.00,311.73" fill="none" stroke="#7c3aed" stroke-width="2.3" stroke-linejoin="round" stroke-dasharray="5 3" />
<circle cx="90.00" cy="321.00" r="3.8" fill="#7c3aed" />
<circle cx="510.00" cy="322.24" r="3.8" fill="#7c3aed" />
<circle cx="930.00" cy="311.73" r="3.8" fill="#7c3aed" />
<polyline points="90.00,306.17 510.00,290.72 930.00,255.49" fill="none" stroke="#dc2626" stroke-width="2.3" stroke-linejoin="round" stroke-dasharray="5 3" />
<circle cx="90.00" cy="306.17" r="3.8" fill="#dc2626" />
<circle cx="510.00" cy="290.72" r="3.8" fill="#dc2626" />
<circle cx="930.00" cy="255.49" r="3.8" fill="#dc2626" />
<polyline points="90.00,322.94 510.00,319.07 930.00,278.51" fill="none" stroke="#db2777" stroke-width="2.3" stroke-linejoin="round" stroke-dasharray="1 4" />
<circle cx="90.00" cy="322.94" r="3.8" fill="#db2777" />
<circle cx="510.00" cy="319.07" r="3.8" fill="#db2777" />
<circle cx="930.00" cy="278.51" r="3.8" fill="#db2777" />
<polyline points="90.00,338.39 510.00,309.42 930.00,295.90" fill="none" stroke="#334155" stroke-width="2.3" stroke-linejoin="round" stroke-dasharray="1 4" />
<circle cx="90.00" cy="338.39" r="3.8" fill="#334155" />
<circle cx="510.00" cy="309.42" r="3.8" fill="#334155" />
<circle cx="930.00" cy="295.90" r="3.8" fill="#334155" />
<text x="90.00" y="387.00" font-size="12" font-weight="400" text-anchor="middle">low</text>
<text x="510.00" y="387.00" font-size="12" font-weight="400" text-anchor="middle">mid</text>
<text x="930.00" y="387.00" font-size="12" font-weight="400" text-anchor="middle">high</text>
<line x1="955" y1="75" x2="973" y2="75" stroke="#2563eb" stroke-width="3" />
<text x="979.00" y="79.00" font-size="10" font-weight="400" text-anchor="start">VideoMAE x SSV2</text>
<line x1="955" y1="95" x2="973" y2="95" stroke="#2563eb" stroke-width="3" stroke-dasharray="12 5" />
<text x="979.00" y="99.00" font-size="10" font-weight="400" text-anchor="start">VideoMAE x UCF101</text>
<line x1="955" y1="115" x2="973" y2="115" stroke="#2563eb" stroke-width="3" stroke-dasharray="1 4" />
<text x="979.00" y="119.00" font-size="10" font-weight="400" text-anchor="start">VideoMAE x Diving48</text>
<line x1="955" y1="135" x2="973" y2="135" stroke="#dc2626" stroke-width="3" />
<text x="979.00" y="139.00" font-size="10" font-weight="400" text-anchor="start">SlowFast R50 8x8 x SSV2</text>
<line x1="955" y1="155" x2="973" y2="155" stroke="#dc2626" stroke-width="3" stroke-dasharray="12 5" />
<text x="979.00" y="159.00" font-size="10" font-weight="400" text-anchor="start">SlowFast R50 8x8 x UCF101</text>
<line x1="955" y1="175" x2="973" y2="175" stroke="#dc2626" stroke-width="3" stroke-dasharray="1 4" />
<text x="979.00" y="179.00" font-size="10" font-weight="400" text-anchor="start">SlowFast R50 8x8 x Diving48</text>
<line x1="955" y1="195" x2="973" y2="195" stroke="#7c3aed" stroke-width="3" />
<text x="979.00" y="199.00" font-size="10" font-weight="400" text-anchor="start">DINOv2 frame-mean x SSV2</text>
<line x1="955" y1="215" x2="973" y2="215" stroke="#7c3aed" stroke-width="3" stroke-dasharray="12 5" />
<text x="979.00" y="219.00" font-size="10" font-weight="400" text-anchor="start">DINOv2 frame-mean x UCF101</text>
<line x1="955" y1="235" x2="973" y2="235" stroke="#7c3aed" stroke-width="3" stroke-dasharray="1 4" />
<text x="979.00" y="239.00" font-size="10" font-weight="400" text-anchor="start">DINOv2 frame-mean x Diving48</text>
<line x1="955" y1="255" x2="973" y2="255" stroke="#334155" stroke-width="3" stroke-dasharray="9 3 2 3" />
<text x="979.00" y="259.00" font-size="10" font-weight="400" text-anchor="start">V-JEPA2 x HMDB51</text>
<line x1="955" y1="275" x2="973" y2="275" stroke="#2563eb" stroke-width="3" stroke-dasharray="9 3 2 3" />
<text x="979.00" y="279.00" font-size="10" font-weight="400" text-anchor="start">VideoMAE x HMDB51</text>
<line x1="955" y1="295" x2="973" y2="295" stroke="#dc2626" stroke-width="3" stroke-dasharray="9 3 2 3" />
<text x="979.00" y="299.00" font-size="10" font-weight="400" text-anchor="start">SlowFast R50 8x8 x HMDB51</text>
<line x1="955" y1="315" x2="973" y2="315" stroke="#2563eb" stroke-width="3" stroke-dasharray="5 3" />
<text x="979.00" y="319.00" font-size="10" font-weight="400" text-anchor="start">VideoMAE x Kinetics</text>
<line x1="955" y1="335" x2="973" y2="335" stroke="#db2777" stroke-width="3" stroke-dasharray="5 3" />
<text x="979.00" y="339.00" font-size="10" font-weight="400" text-anchor="start">DisMo x Kinetics</text>
<line x1="955" y1="355" x2="973" y2="355" stroke="#334155" stroke-width="3" stroke-dasharray="5 3" />
<text x="979.00" y="359.00" font-size="10" font-weight="400" text-anchor="start">V-JEPA2 x Kinetics</text>
<line x1="955" y1="375" x2="973" y2="375" stroke="#7c3aed" stroke-width="3" stroke-dasharray="9 3 2 3" />
<text x="979.00" y="379.00" font-size="10" font-weight="400" text-anchor="start">DINOv2 frame-mean x HMDB51</text>
<line x1="955" y1="395" x2="973" y2="395" stroke="#7c3aed" stroke-width="3" stroke-dasharray="5 3" />
<text x="979.00" y="399.00" font-size="10" font-weight="400" text-anchor="start">DINOv2 frame-mean x Kinetics</text>
<line x1="955" y1="415" x2="973" y2="415" stroke="#dc2626" stroke-width="3" stroke-dasharray="5 3" />
<text x="979.00" y="419.00" font-size="10" font-weight="400" text-anchor="start">SlowFast R50 8x8 x Kinetics</text>
<line x1="955" y1="435" x2="973" y2="435" stroke="#db2777" stroke-width="3" stroke-dasharray="1 4" />
<text x="979.00" y="439.00" font-size="10" font-weight="400" text-anchor="start">DisMo x Diving48</text>
<line x1="955" y1="455" x2="973" y2="455" stroke="#334155" stroke-width="3" stroke-dasharray="1 4" />
<text x="979.00" y="459.00" font-size="10" font-weight="400" text-anchor="start">V-JEPA2 x Diving48</text>
<text x="90.00" y="475.00" font-size="14" font-weight="700" text-anchor="start">Color transform low -&gt; mid -&gt; high</text>
<text x="18.00" y="637.50" font-size="11" font-weight="400" text-anchor="middle" transform="rotate(-90 18.00 637.50)">Accuracy drop</text>
<line x1="90" y1="775" x2="930" y2="775" stroke="#111827" stroke-width="1" />
<line x1="90" y1="500" x2="90" y2="775" stroke="#111827" stroke-width="1" />
<line x1="86" y1="775.00" x2="90" y2="775.00" stroke="#111827" />
<text x="82.00" y="779.00" font-size="10" font-weight="400" text-anchor="end">-0.014</text>
<line x1="86" y1="720.00" x2="90" y2="720.00" stroke="#111827" />
<text x="82.00" y="724.00" font-size="10" font-weight="400" text-anchor="end">0.002</text>
<line x1="90" y1="720.00" x2="930" y2="720.00" stroke="#e5e7eb" stroke-width="1" />
<line x1="86" y1="665.00" x2="90" y2="665.00" stroke="#111827" />
<text x="82.00" y="669.00" font-size="10" font-weight="400" text-anchor="end">0.017</text>
<line x1="90" y1="665.00" x2="930" y2="665.00" stroke="#e5e7eb" stroke-width="1" />
<line x1="86" y1="610.00" x2="90" y2="610.00" stroke="#111827" />
<text x="82.00" y="614.00" font-size="10" font-weight="400" text-anchor="end">0.033</text>
<line x1="90" y1="610.00" x2="930" y2="610.00" stroke="#e5e7eb" stroke-width="1" />
<line x1="86" y1="555.00" x2="90" y2="555.00" stroke="#111827" />
<text x="82.00" y="559.00" font-size="10" font-weight="400" text-anchor="end">0.049</text>
<line x1="90" y1="555.00" x2="930" y2="555.00" stroke="#e5e7eb" stroke-width="1" />
<line x1="86" y1="500.00" x2="90" y2="500.00" stroke="#111827" />
<text x="82.00" y="504.00" font-size="10" font-weight="400" text-anchor="end">0.064</text>
<line x1="90" y1="726.36" x2="930" y2="726.36" stroke="#6b7280" stroke-dasharray="4 4" />
<polyline points="90.00,719.31 510.00,724.01 930.00,691.11" fill="none" stroke="#2563eb" stroke-width="2.3" stroke-linejoin="round" />
<circle cx="90.00" cy="719.31" r="3.8" fill="#2563eb" />
<circle cx="510.00" cy="724.01" r="3.8" fill="#2563eb" />
<circle cx="930.00" cy="691.11" r="3.8" fill="#2563eb" />
<polyline points="90.00,719.31 510.00,691.11 930.00,526.61" fill="none" stroke="#2563eb" stroke-width="2.3" stroke-linejoin="round" stroke-dasharray="12 5" />
<circle cx="90.00" cy="719.31" r="3.8" fill="#2563eb" />
<circle cx="510.00" cy="691.11" r="3.8" fill="#2563eb" />
<circle cx="930.00" cy="526.61" r="3.8" fill="#2563eb" />
<polyline points="90.00,726.36 510.00,711.67 930.00,704.33" fill="none" stroke="#2563eb" stroke-width="2.3" stroke-linejoin="round" stroke-dasharray="1 4" />
<circle cx="90.00" cy="726.36" r="3.8" fill="#2563eb" />
<circle cx="510.00" cy="711.67" r="3.8" fill="#2563eb" />
<circle cx="930.00" cy="704.33" r="3.8" fill="#2563eb" />
<polyline points="90.00,733.41 510.00,724.01 930.00,707.56" fill="none" stroke="#dc2626" stroke-width="2.3" stroke-linejoin="round" />
<circle cx="90.00" cy="733.41" r="3.8" fill="#dc2626" />
<circle cx="510.00" cy="724.01" r="3.8" fill="#dc2626" />
<circle cx="930.00" cy="707.56" r="3.8" fill="#dc2626" />
<polyline points="90.00,726.36 510.00,726.36 930.00,726.36" fill="none" stroke="#dc2626" stroke-width="2.3" stroke-linejoin="round" stroke-dasharray="12 5" />
<circle cx="90.00" cy="726.36" r="3.8" fill="#dc2626" />
<circle cx="510.00" cy="726.36" r="3.8" fill="#dc2626" />
<circle cx="930.00" cy="726.36" r="3.8" fill="#dc2626" />
<polyline points="90.00,726.36 510.00,726.36 930.00,711.67" fill="none" stroke="#dc2626" stroke-width="2.3" stroke-linejoin="round" stroke-dasharray="1 4" />
<circle cx="90.00" cy="726.36" r="3.8" fill="#dc2626" />
<circle cx="510.00" cy="726.36" r="3.8" fill="#dc2626" />
<circle cx="930.00" cy="711.67" r="3.8" fill="#dc2626" />
<polyline points="90.00,728.71 510.00,731.06 930.00,742.81" fill="none" stroke="#7c3aed" stroke-width="2.3" stroke-linejoin="round" />
<circle cx="90.00" cy="728.71" r="3.8" fill="#7c3aed" />
<circle cx="510.00" cy="731.06" r="3.8" fill="#7c3aed" />
<circle cx="930.00" cy="742.81" r="3.8" fill="#7c3aed" />
<polyline points="90.00,726.36 510.00,726.36 930.00,719.31" fill="none" stroke="#7c3aed" stroke-width="2.3" stroke-linejoin="round" stroke-dasharray="12 5" />
<circle cx="90.00" cy="726.36" r="3.8" fill="#7c3aed" />
<circle cx="510.00" cy="726.36" r="3.8" fill="#7c3aed" />
<circle cx="930.00" cy="719.31" r="3.8" fill="#7c3aed" />
<polyline points="90.00,726.36 510.00,726.36 930.00,733.70" fill="none" stroke="#7c3aed" stroke-width="2.3" stroke-linejoin="round" stroke-dasharray="1 4" />
<circle cx="90.00" cy="726.36" r="3.8" fill="#7c3aed" />
<circle cx="510.00" cy="726.36" r="3.8" fill="#7c3aed" />
<circle cx="930.00" cy="733.70" r="3.8" fill="#7c3aed" />
<polyline points="90.00,728.67 510.00,740.23 930.00,647.72" fill="none" stroke="#334155" stroke-width="2.3" stroke-linejoin="round" stroke-dasharray="9 3 2 3" />
<circle cx="90.00" cy="728.67" r="3.8" fill="#334155" />
<circle cx="510.00" cy="740.23" r="3.8" fill="#334155" />
<circle cx="930.00" cy="647.72" r="3.8" fill="#334155" />
<polyline points="90.00,721.73 510.00,698.60 930.00,599.15" fill="none" stroke="#2563eb" stroke-width="2.3" stroke-linejoin="round" stroke-dasharray="9 3 2 3" />
<circle cx="90.00" cy="721.73" r="3.8" fill="#2563eb" />
<circle cx="510.00" cy="698.60" r="3.8" fill="#2563eb" />
<circle cx="930.00" cy="599.15" r="3.8" fill="#2563eb" />
<polyline points="90.00,721.73 510.00,714.79 930.00,714.79" fill="none" stroke="#dc2626" stroke-width="2.3" stroke-linejoin="round" stroke-dasharray="9 3 2 3" />
<circle cx="90.00" cy="721.73" r="3.8" fill="#dc2626" />
<circle cx="510.00" cy="714.79" r="3.8" fill="#dc2626" />
<circle cx="930.00" cy="714.79" r="3.8" fill="#dc2626" />
<polyline points="90.00,728.71 510.00,721.66 930.00,688.76" fill="none" stroke="#2563eb" stroke-width="2.3" stroke-linejoin="round" stroke-dasharray="5 3" />
<circle cx="90.00" cy="728.71" r="3.8" fill="#2563eb" />
<circle cx="510.00" cy="721.66" r="3.8" fill="#2563eb" />
<circle cx="930.00" cy="688.76" r="3.8" fill="#2563eb" />
<polyline points="90.00,724.01 510.00,721.66 930.00,665.26" fill="none" stroke="#db2777" stroke-width="2.3" stroke-linejoin="round" stroke-dasharray="5 3" />
<circle cx="90.00" cy="724.01" r="3.8" fill="#db2777" />
<circle cx="510.00" cy="721.66" r="3.8" fill="#db2777" />
<circle cx="930.00" cy="665.26" r="3.8" fill="#db2777" />
<polyline points="90.00,726.36 510.00,740.46 930.00,709.91" fill="none" stroke="#334155" stroke-width="2.3" stroke-linejoin="round" stroke-dasharray="5 3" />
<circle cx="90.00" cy="726.36" r="3.8" fill="#334155" />
<circle cx="510.00" cy="740.46" r="3.8" fill="#334155" />
<circle cx="930.00" cy="709.91" r="3.8" fill="#334155" />
<polyline points="90.00,721.73 510.00,724.04 930.00,698.60" fill="none" stroke="#7c3aed" stroke-width="2.3" stroke-linejoin="round" stroke-dasharray="9 3 2 3" />
<circle cx="90.00" cy="721.73" r="3.8" fill="#7c3aed" />
<circle cx="510.00" cy="724.04" r="3.8" fill="#7c3aed" />
<circle cx="930.00" cy="698.60" r="3.8" fill="#7c3aed" />
<polyline points="90.00,731.06 510.00,726.36 930.00,724.01" fill="none" stroke="#7c3aed" stroke-width="2.3" stroke-linejoin="round" stroke-dasharray="5 3" />
<circle cx="90.00" cy="731.06" r="3.8" fill="#7c3aed" />
<circle cx="510.00" cy="726.36" r="3.8" fill="#7c3aed" />
<circle cx="930.00" cy="724.01" r="3.8" fill="#7c3aed" />
<polyline points="90.00,724.01 510.00,721.66 930.00,681.71" fill="none" stroke="#dc2626" stroke-width="2.3" stroke-linejoin="round" stroke-dasharray="5 3" />
<circle cx="90.00" cy="724.01" r="3.8" fill="#dc2626" />
<circle cx="510.00" cy="721.66" r="3.8" fill="#dc2626" />
<circle cx="930.00" cy="681.71" r="3.8" fill="#dc2626" />
<polyline points="90.00,711.67 510.00,704.33 930.00,689.64" fill="none" stroke="#db2777" stroke-width="2.3" stroke-linejoin="round" stroke-dasharray="1 4" />
<circle cx="90.00" cy="711.67" r="3.8" fill="#db2777" />
<circle cx="510.00" cy="704.33" r="3.8" fill="#db2777" />
<circle cx="930.00" cy="689.64" r="3.8" fill="#db2777" />
<polyline points="90.00,726.36 510.00,748.39 930.00,733.70" fill="none" stroke="#334155" stroke-width="2.3" stroke-linejoin="round" stroke-dasharray="1 4" />
<circle cx="90.00" cy="726.36" r="3.8" fill="#334155" />
<circle cx="510.00" cy="748.39" r="3.8" fill="#334155" />
<circle cx="930.00" cy="733.70" r="3.8" fill="#334155" />
<text x="90.00" y="797.00" font-size="12" font-weight="400" text-anchor="middle">low</text>
<text x="510.00" y="797.00" font-size="12" font-weight="400" text-anchor="middle">mid</text>
<text x="930.00" y="797.00" font-size="12" font-weight="400" text-anchor="middle">high</text>
<line x1="955" y1="485" x2="973" y2="485" stroke="#2563eb" stroke-width="3" />
<text x="979.00" y="489.00" font-size="10" font-weight="400" text-anchor="start">VideoMAE x SSV2</text>
<line x1="955" y1="505" x2="973" y2="505" stroke="#2563eb" stroke-width="3" stroke-dasharray="12 5" />
<text x="979.00" y="509.00" font-size="10" font-weight="400" text-anchor="start">VideoMAE x UCF101</text>
<line x1="955" y1="525" x2="973" y2="525" stroke="#2563eb" stroke-width="3" stroke-dasharray="1 4" />
<text x="979.00" y="529.00" font-size="10" font-weight="400" text-anchor="start">VideoMAE x Diving48</text>
<line x1="955" y1="545" x2="973" y2="545" stroke="#dc2626" stroke-width="3" />
<text x="979.00" y="549.00" font-size="10" font-weight="400" text-anchor="start">SlowFast R50 8x8 x SSV2</text>
<line x1="955" y1="565" x2="973" y2="565" stroke="#dc2626" stroke-width="3" stroke-dasharray="12 5" />
<text x="979.00" y="569.00" font-size="10" font-weight="400" text-anchor="start">SlowFast R50 8x8 x UCF101</text>
<line x1="955" y1="585" x2="973" y2="585" stroke="#dc2626" stroke-width="3" stroke-dasharray="1 4" />
<text x="979.00" y="589.00" font-size="10" font-weight="400" text-anchor="start">SlowFast R50 8x8 x Diving48</text>
<line x1="955" y1="605" x2="973" y2="605" stroke="#7c3aed" stroke-width="3" />
<text x="979.00" y="609.00" font-size="10" font-weight="400" text-anchor="start">DINOv2 frame-mean x SSV2</text>
<line x1="955" y1="625" x2="973" y2="625" stroke="#7c3aed" stroke-width="3" stroke-dasharray="12 5" />
<text x="979.00" y="629.00" font-size="10" font-weight="400" text-anchor="start">DINOv2 frame-mean x UCF101</text>
<line x1="955" y1="645" x2="973" y2="645" stroke="#7c3aed" stroke-width="3" stroke-dasharray="1 4" />
<text x="979.00" y="649.00" font-size="10" font-weight="400" text-anchor="start">DINOv2 frame-mean x Diving48</text>
<line x1="955" y1="665" x2="973" y2="665" stroke="#334155" stroke-width="3" stroke-dasharray="9 3 2 3" />
<text x="979.00" y="669.00" font-size="10" font-weight="400" text-anchor="start">V-JEPA2 x HMDB51</text>
<line x1="955" y1="685" x2="973" y2="685" stroke="#2563eb" stroke-width="3" stroke-dasharray="9 3 2 3" />
<text x="979.00" y="689.00" font-size="10" font-weight="400" text-anchor="start">VideoMAE x HMDB51</text>
<line x1="955" y1="705" x2="973" y2="705" stroke="#dc2626" stroke-width="3" stroke-dasharray="9 3 2 3" />
<text x="979.00" y="709.00" font-size="10" font-weight="400" text-anchor="start">SlowFast R50 8x8 x HMDB51</text>
<line x1="955" y1="725" x2="973" y2="725" stroke="#2563eb" stroke-width="3" stroke-dasharray="5 3" />
<text x="979.00" y="729.00" font-size="10" font-weight="400" text-anchor="start">VideoMAE x Kinetics</text>
<line x1="955" y1="745" x2="973" y2="745" stroke="#db2777" stroke-width="3" stroke-dasharray="5 3" />
<text x="979.00" y="749.00" font-size="10" font-weight="400" text-anchor="start">DisMo x Kinetics</text>
<line x1="955" y1="765" x2="973" y2="765" stroke="#334155" stroke-width="3" stroke-dasharray="5 3" />
<text x="979.00" y="769.00" font-size="10" font-weight="400" text-anchor="start">V-JEPA2 x Kinetics</text>
<line x1="955" y1="785" x2="973" y2="785" stroke="#7c3aed" stroke-width="3" stroke-dasharray="9 3 2 3" />
<text x="979.00" y="789.00" font-size="10" font-weight="400" text-anchor="start">DINOv2 frame-mean x HMDB51</text>
<line x1="955" y1="805" x2="973" y2="805" stroke="#7c3aed" stroke-width="3" stroke-dasharray="5 3" />
<text x="979.00" y="809.00" font-size="10" font-weight="400" text-anchor="start">DINOv2 frame-mean x Kinetics</text>
<line x1="955" y1="825" x2="973" y2="825" stroke="#dc2626" stroke-width="3" stroke-dasharray="5 3" />
<text x="979.00" y="829.00" font-size="10" font-weight="400" text-anchor="start">SlowFast R50 8x8 x Kinetics</text>
<line x1="955" y1="845" x2="973" y2="845" stroke="#db2777" stroke-width="3" stroke-dasharray="1 4" />
<text x="979.00" y="849.00" font-size="10" font-weight="400" text-anchor="start">DisMo x Diving48</text>
<line x1="955" y1="865" x2="973" y2="865" stroke="#334155" stroke-width="3" stroke-dasharray="1 4" />
<text x="979.00" y="869.00" font-size="10" font-weight="400" text-anchor="start">V-JEPA2 x Diving48</text>
</svg>
