<svg xmlns="http://www.w3.org/2000/svg" width="1920" height="620" viewBox="0 0 1920 620">
<rect width="100%" height="100%" fill="#ffffff" />
<style>text { font-family: Arial, Helvetica, sans-serif; fill: #111827; }</style>
<text x="960.00" y="28.00" font-size="18" font-weight="700" text-anchor="middle">Fixed-mid perturbation: linear-probe accuracy drop</text>
<text x="18.00" y="257.50" font-size="12" font-weight="400" text-anchor="middle" transform="rotate(-90 18.00 257.50)">Accuracy drop</text>
<line x1="90" y1="460" x2="1890" y2="460" stroke="#111827" stroke-width="1" />
<line x1="90" y1="55" x2="90" y2="460" stroke="#111827" stroke-width="1" />
<line x1="86" y1="460.00" x2="90" y2="460.00" stroke="#111827" />
<text x="82.00" y="464.00" font-size="10" font-weight="400" text-anchor="end">-0.040</text>
<line x1="86" y1="379.00" x2="90" y2="379.00" stroke="#111827" />
<text x="82.00" y="383.00" font-size="10" font-weight="400" text-anchor="end">0.034</text>
<line x1="90" y1="379.00" x2="1890" y2="379.00" stroke="#e5e7eb" stroke-width="1" />
<line x1="86" y1="298.00" x2="90" y2="298.00" stroke="#111827" />
<text x="82.00" y="302.00" font-size="10" font-weight="400" text-anchor="end">0.107</text>
<line x1="90" y1="298.00" x2="1890" y2="298.00" stroke="#e5e7eb" stroke-width="1" />
<line x1="86" y1="217.00" x2="90" y2="217.00" stroke="#111827" />
<text x="82.00" y="221.00" font-size="10" font-weight="400" text-anchor="end">0.181</text>
<line x1="90" y1="217.00" x2="1890" y2="217.00" stroke="#e5e7eb" stroke-width="1" />
<line x1="86" y1="136.00" x2="90" y2="136.00" stroke="#111827" />
<text x="82.00" y="140.00" font-size="10" font-weight="400" text-anchor="end">0.254</text>
<line x1="90" y1="136.00" x2="1890" y2="136.00" stroke="#e5e7eb" stroke-width="1" />
<line x1="86" y1="55.00" x2="90" y2="55.00" stroke="#111827" />
<text x="82.00" y="59.00" font-size="10" font-weight="400" text-anchor="end">0.328</text>
<line x1="90" y1="416.21" x2="1890" y2="416.21" stroke="#6b7280" stroke-dasharray="4 4" />
<rect x="106.88" y="217.71" width="18.75" height="198.50" fill="#2563eb" />
<rect x="129.38" y="379.45" width="18.75" height="36.76" fill="#ea580c" />
<text x="127.50" y="520.00" font-size="10" font-weight="400" text-anchor="end" transform="rotate(-40 127.50 520.00)">VideoMAE x SSV2</text>
<rect x="181.88" y="141.25" width="18.75" height="274.97" fill="#2563eb" />
<rect x="204.38" y="94.19" width="18.75" height="322.02" fill="#ea580c" />
<text x="202.50" y="520.00" font-size="10" font-weight="400" text-anchor="end" transform="rotate(-40 202.50 520.00)">VideoMAE x UCF101</text>
<rect x="256.88" y="377.15" width="18.75" height="39.06" fill="#2563eb" />
<rect x="279.38" y="400.13" width="18.75" height="16.08" fill="#ea580c" />
<text x="277.50" y="520.00" font-size="10" font-weight="400" text-anchor="end" transform="rotate(-40 277.50 520.00)">VideoMAE x Diving48</text>
<rect x="331.88" y="189.77" width="18.75" height="226.44" fill="#2563eb" />
<rect x="354.38" y="415.48" width="18.75" height="0.74" fill="#ea580c" />
<text x="352.50" y="520.00" font-size="10" font-weight="400" text-anchor="end" transform="rotate(-40 352.50 520.00)">SlowFast R50 8x8 x SSV2</text>
<rect x="406.88" y="365.48" width="18.75" height="50.73" fill="#2563eb" />
<rect x="429.38" y="400.77" width="18.75" height="15.44" fill="#ea580c" />
<text x="427.50" y="520.00" font-size="10" font-weight="400" text-anchor="end" transform="rotate(-40 427.50 520.00)">SlowFast R50 8x8 x UCF101</text>
<rect x="481.88" y="390.94" width="18.75" height="25.27" fill="#2563eb" />
<rect x="504.38" y="416.21" width="18.75" height="4.60" fill="#ea580c" />
<text x="502.50" y="520.00" font-size="10" font-weight="400" text-anchor="end" transform="rotate(-40 502.50 520.00)">SlowFast R50 8x8 x Diving48</text>
<rect x="556.88" y="416.21" width="18.75" height="0.00" fill="#2563eb" />
<rect x="579.38" y="408.86" width="18.75" height="7.35" fill="#ea580c" />
<text x="577.50" y="520.00" font-size="10" font-weight="400" text-anchor="end" transform="rotate(-40 577.50 520.00)">DINOv2 frame-mean x SSV2</text>
<rect x="631.88" y="416.21" width="18.75" height="0.00" fill="#2563eb" />
<rect x="654.38" y="414.01" width="18.75" height="2.21" fill="#ea580c" />
<text x="652.50" y="520.00" font-size="10" font-weight="400" text-anchor="end" transform="rotate(-40 652.50 520.00)">DINOv2 frame-mean x UCF101</text>
<rect x="706.88" y="416.21" width="18.75" height="0.00" fill="#2563eb" />
<rect x="729.38" y="411.62" width="18.75" height="4.60" fill="#ea580c" />
<text x="727.50" y="520.00" font-size="10" font-weight="400" text-anchor="end" transform="rotate(-40 727.50 520.00)">DINOv2 frame-mean x Diving48</text>
<rect x="781.88" y="212.87" width="18.75" height="203.34" fill="#2563eb" />
<rect x="804.38" y="261.36" width="18.75" height="154.86" fill="#ea580c" />
<text x="802.50" y="520.00" font-size="10" font-weight="400" text-anchor="end" transform="rotate(-40 802.50 520.00)">V-JEPA2 x HMDB51</text>
<rect x="856.88" y="254.12" width="18.75" height="162.09" fill="#2563eb" />
<rect x="879.38" y="259.91" width="18.75" height="156.30" fill="#ea580c" />
<text x="877.50" y="520.00" font-size="10" font-weight="400" text-anchor="end" transform="rotate(-40 877.50 520.00)">VideoMAE x HMDB51</text>
<rect x="931.88" y="225.90" width="18.75" height="190.31" fill="#2563eb" />
<rect x="954.38" y="371.35" width="18.75" height="44.86" fill="#ea580c" />
<text x="952.50" y="520.00" font-size="10" font-weight="400" text-anchor="end" transform="rotate(-40 952.50 520.00)">SlowFast R50 8x8 x HMDB51</text>
<rect x="1006.88" y="250.06" width="18.75" height="166.16" fill="#2563eb" />
<rect x="1029.38" y="371.36" width="18.75" height="44.85" fill="#ea580c" />
<text x="1027.50" y="520.00" font-size="10" font-weight="400" text-anchor="end" transform="rotate(-40 1027.50 520.00)">VideoMAE x Kinetics</text>
<rect x="1081.88" y="297.84" width="18.75" height="118.37" fill="#2563eb" />
<rect x="1104.38" y="397.83" width="18.75" height="18.38" fill="#ea580c" />
<text x="1102.50" y="520.00" font-size="10" font-weight="400" text-anchor="end" transform="rotate(-40 1102.50 520.00)">DisMo x Kinetics</text>
<rect x="1156.88" y="193.45" width="18.75" height="222.77" fill="#2563eb" />
<rect x="1179.38" y="364.01" width="18.75" height="52.20" fill="#ea580c" />
<text x="1177.50" y="520.00" font-size="10" font-weight="400" text-anchor="end" transform="rotate(-40 1177.50 520.00)">V-JEPA2 x Kinetics</text>
<rect x="1231.88" y="416.21" width="18.75" height="0.00" fill="#2563eb" />
<rect x="1254.38" y="395.23" width="18.75" height="20.99" fill="#ea580c" />
<text x="1252.50" y="520.00" font-size="10" font-weight="400" text-anchor="end" transform="rotate(-40 1252.50 520.00)">DINOv2 frame-mean x HMDB51</text>
<rect x="1306.88" y="416.21" width="18.75" height="0.00" fill="#2563eb" />
<rect x="1329.38" y="410.33" width="18.75" height="5.88" fill="#ea580c" />
<text x="1327.50" y="520.00" font-size="10" font-weight="400" text-anchor="end" transform="rotate(-40 1327.50 520.00)">DINOv2 frame-mean x Kinetics</text>
<rect x="1381.88" y="332.40" width="18.75" height="83.81" fill="#2563eb" />
<rect x="1404.38" y="396.36" width="18.75" height="19.85" fill="#ea580c" />
<text x="1402.50" y="520.00" font-size="10" font-weight="400" text-anchor="end" transform="rotate(-40 1402.50 520.00)">SlowFast R50 8x8 x Kinetics</text>
<rect x="1456.88" y="365.67" width="18.75" height="50.55" fill="#2563eb" />
<rect x="1479.38" y="407.02" width="18.75" height="9.19" fill="#ea580c" />
<text x="1477.50" y="520.00" font-size="10" font-weight="400" text-anchor="end" transform="rotate(-40 1477.50 520.00)">DisMo x Diving48</text>
<rect x="1531.88" y="390.94" width="18.75" height="25.27" fill="#2563eb" />
<rect x="1554.38" y="404.72" width="18.75" height="11.49" fill="#ea580c" />
<text x="1552.50" y="520.00" font-size="10" font-weight="400" text-anchor="end" transform="rotate(-40 1552.50 520.00)">V-JEPA2 x Diving48</text>
<rect x="1606.88" y="208.53" width="18.75" height="207.68" fill="#2563eb" />
<rect x="1629.38" y="383.65" width="18.75" height="32.56" fill="#ea580c" />
<text x="1627.50" y="520.00" font-size="10" font-weight="400" text-anchor="end" transform="rotate(-40 1627.50 520.00)">DisMo x HMDB51</text>
<rect x="1681.88" y="141.25" width="18.75" height="274.97" fill="#2563eb" />
<rect x="1704.38" y="403.71" width="18.75" height="12.50" fill="#ea580c" />
<text x="1702.50" y="520.00" font-size="10" font-weight="400" text-anchor="end" transform="rotate(-40 1702.50 520.00)">DisMo x SSV2</text>
<rect x="1756.88" y="332.40" width="18.75" height="83.81" fill="#2563eb" />
<rect x="1779.38" y="235.35" width="18.75" height="180.86" fill="#ea580c" />
<text x="1777.50" y="520.00" font-size="10" font-weight="400" text-anchor="end" transform="rotate(-40 1777.50 520.00)">V-JEPA2 x UCF101</text>
<rect x="1831.88" y="151.54" width="18.75" height="264.67" fill="#2563eb" />
<rect x="1854.38" y="361.07" width="18.75" height="55.14" fill="#ea580c" />
<text x="1852.50" y="520.00" font-size="10" font-weight="400" text-anchor="end" transform="rotate(-40 1852.50 520.00)">V-JEPA2 x SSV2</text>
<rect x="102" y="38" width="12" height="12" fill="#2563eb" />
<text x="120.00" y="48.00" font-size="12" font-weight="400" text-anchor="start">temporal-shuffle-mid</text>
<rect x="102" y="58" width="12" height="12" fill="#ea580c" />
<text x="120.00" y="68.00" font-size="12" font-weight="400" text-anchor="start">spatial-blur-mid</text>
</svg>
