<svg xmlns="http://www.w3.org/2000/svg" width="1280" height="620" viewBox="0 0 1280 620">
<rect width="100%" height="100%" fill="#ffffff" />
<style>text { font-family: Arial, Helvetica, sans-serif; fill: #111827; }</style>
<text x="640.00" y="28.00" font-size="18" font-weight="700" text-anchor="middle">Fixed-mid perturbation: mean cosine distance</text>
<text x="18.00" y="257.50" font-size="12" font-weight="400" text-anchor="middle" transform="rotate(-90 18.00 257.50)">Mean cosine distance</text>
<line x1="90" y1="460" x2="1250" y2="460" stroke="#111827" stroke-width="1" />
<line x1="90" y1="55" x2="90" y2="460" stroke="#111827" stroke-width="1" />
<line x1="86" y1="460.00" x2="90" y2="460.00" stroke="#111827" />
<text x="82.00" y="464.00" font-size="10" font-weight="400" text-anchor="end">-0.045</text>
<line x1="86" y1="379.00" x2="90" y2="379.00" stroke="#111827" />
<text x="82.00" y="383.00" font-size="10" font-weight="400" text-anchor="end">0.048</text>
<line x1="90" y1="379.00" x2="1250" y2="379.00" stroke="#e5e7eb" stroke-width="1" />
<line x1="86" y1="298.00" x2="90" y2="298.00" stroke="#111827" />
<text x="82.00" y="302.00" font-size="10" font-weight="400" text-anchor="end">0.142</text>
<line x1="90" y1="298.00" x2="1250" y2="298.00" stroke="#e5e7eb" stroke-width="1" />
<line x1="86" y1="217.00" x2="90" y2="217.00" stroke="#111827" />
<text x="82.00" y="221.00" font-size="10" font-weight="400" text-anchor="end">0.235</text>
<line x1="90" y1="217.00" x2="1250" y2="217.00" stroke="#e5e7eb" stroke-width="1" />
<line x1="86" y1="136.00" x2="90" y2="136.00" stroke="#111827" />
<text x="82.00" y="140.00" font-size="10" font-weight="400" text-anchor="end">0.329</text>
<line x1="90" y1="136.00" x2="1250" y2="136.00" stroke="#e5e7eb" stroke-width="1" />
<line x1="86" y1="55.00" x2="90" y2="55.00" stroke="#111827" />
<text x="82.00" y="59.00" font-size="10" font-weight="400" text-anchor="end">0.423</text>
<line x1="90" y1="420.81" x2="1250" y2="420.81" stroke="#6b7280" stroke-dasharray="4 4" />
<rect x="110.08" y="400.88" width="22.31" height="19.93" fill="#2563eb" />
<rect x="136.85" y="415.20" width="22.31" height="5.60" fill="#ea580c" />
<text x="134.62" y="520.00" font-size="10" font-weight="400" text-anchor="end" transform="rotate(-40 134.62 520.00)">VideoMAE x SSV2</text>
<rect x="199.31" y="410.23" width="22.31" height="10.58" fill="#2563eb" />
<rect x="226.08" y="412.63" width="22.31" height="8.18" fill="#ea580c" />
<text x="223.85" y="520.00" font-size="10" font-weight="400" text-anchor="end" transform="rotate(-40 223.85 520.00)">VideoMAE x UCF101</text>
<rect x="288.54" y="351.39" width="22.31" height="69.41" fill="#2563eb" />
<rect x="315.31" y="419.88" width="22.31" height="0.92" fill="#ea580c" />
<text x="313.08" y="520.00" font-size="10" font-weight="400" text-anchor="end" transform="rotate(-40 313.08 520.00)">VideoMAE x Diving48</text>
<rect x="377.77" y="228.76" width="22.31" height="192.04" fill="#2563eb" />
<rect x="404.54" y="354.89" width="22.31" height="65.91" fill="#ea580c" />
<text x="402.31" y="520.00" font-size="10" font-weight="400" text-anchor="end" transform="rotate(-40 402.31 520.00)">SlowFast R50 8x8 x SSV2</text>
<rect x="467.00" y="281.11" width="22.31" height="139.70" fill="#2563eb" />
<rect x="493.77" y="368.15" width="22.31" height="52.65" fill="#ea580c" />
<text x="491.54" y="520.00" font-size="10" font-weight="400" text-anchor="end" transform="rotate(-40 491.54 520.00)">SlowFast R50 8x8 x UCF101</text>
<rect x="556.23" y="243.04" width="22.31" height="177.76" fill="#2563eb" />
<rect x="583.00" y="416.18" width="22.31" height="4.62" fill="#ea580c" />
<text x="580.77" y="520.00" font-size="10" font-weight="400" text-anchor="end" transform="rotate(-40 580.77 520.00)">SlowFast R50 8x8 x Diving48</text>
<rect x="645.46" y="420.81" width="22.31" height="0.00" fill="#2563eb" />
<rect x="672.23" y="378.99" width="22.31" height="41.81" fill="#ea580c" />
<text x="670.00" y="520.00" font-size="10" font-weight="400" text-anchor="end" transform="rotate(-40 670.00 520.00)">DINOv2 frame-mean x SSV2</text>
<rect x="734.69" y="420.81" width="22.31" height="0.00" fill="#2563eb" />
<rect x="761.46" y="386.72" width="22.31" height="34.09" fill="#ea580c" />
<text x="759.23" y="520.00" font-size="10" font-weight="400" text-anchor="end" transform="rotate(-40 759.23 520.00)">DINOv2 frame-mean x UCF101</text>
<rect x="823.92" y="420.81" width="22.31" height="0.00" fill="#2563eb" />
<rect x="850.69" y="417.92" width="22.31" height="2.88" fill="#ea580c" />
<text x="848.46" y="520.00" font-size="10" font-weight="400" text-anchor="end" transform="rotate(-40 848.46 520.00)">DINOv2 frame-mean x Diving48</text>
<rect x="913.15" y="342.32" width="22.31" height="78.48" fill="#2563eb" />
<rect x="939.92" y="293.52" width="22.31" height="127.29" fill="#ea580c" />
<text x="937.69" y="520.00" font-size="10" font-weight="400" text-anchor="end" transform="rotate(-40 937.69 520.00)">V-JEPA2 x HMDB51</text>
<rect x="1002.38" y="405.16" width="22.31" height="15.65" fill="#2563eb" />
<rect x="1029.15" y="418.53" width="22.31" height="2.28" fill="#ea580c" />
<text x="1026.92" y="520.00" font-size="10" font-weight="400" text-anchor="end" transform="rotate(-40 1026.92 520.00)">VideoMAE x Kinetics</text>
<rect x="1091.62" y="94.19" width="22.31" height="326.61" fill="#2563eb" />
<rect x="1118.38" y="413.04" width="22.31" height="7.77" fill="#ea580c" />
<text x="1116.15" y="520.00" font-size="10" font-weight="400" text-anchor="end" transform="rotate(-40 1116.15 520.00)">DisMo x Kinetics</text>
<rect x="1180.85" y="346.85" width="22.31" height="73.96" fill="#2563eb" />
<rect x="1207.62" y="335.23" width="22.31" height="85.58" fill="#ea580c" />
<text x="1205.38" y="520.00" font-size="10" font-weight="400" text-anchor="end" transform="rotate(-40 1205.38 520.00)">V-JEPA2 x Kinetics</text>
<rect x="102" y="38" width="12" height="12" fill="#2563eb" />
<text x="120.00" y="48.00" font-size="12" font-weight="400" text-anchor="start">temporal-shuffle-mid</text>
<rect x="102" y="58" width="12" height="12" fill="#ea580c" />
<text x="120.00" y="68.00" font-size="12" font-weight="400" text-anchor="start">spatial-blur-mid</text>
</svg>
