<svg xmlns="http://www.w3.org/2000/svg" width="1360" height="900" viewBox="0 0 1360 900">
<rect width="100%" height="100%" fill="#ffffff" />
<style>text { font-family: Arial, Helvetica, sans-serif; fill: #111827; }</style>
<text x="680.00" y="28.00" font-size="18" font-weight="700" text-anchor="middle">Strength curves: mean cosine distance</text>
<text x="90.00" y="65.00" font-size="14" font-weight="700" text-anchor="start">Freeze-tail low -&gt; mid -&gt; high</text>
<text x="18.00" y="227.50" font-size="11" font-weight="400" text-anchor="middle" transform="rotate(-90 18.00 227.50)">Mean cosine distance</text>
<line x1="90" y1="365" x2="930" y2="365" stroke="#111827" stroke-width="1" />
<line x1="90" y1="90" x2="90" y2="365" stroke="#111827" stroke-width="1" />
<line x1="86" y1="365.00" x2="90" y2="365.00" stroke="#111827" />
<text x="82.00" y="369.00" font-size="10" font-weight="400" text-anchor="end">-0.032</text>
<line x1="86" y1="310.00" x2="90" y2="310.00" stroke="#111827" />
<text x="82.00" y="314.00" font-size="10" font-weight="400" text-anchor="end">0.034</text>
<line x1="90" y1="310.00" x2="930" y2="310.00" stroke="#e5e7eb" stroke-width="1" />
<line x1="86" y1="255.00" x2="90" y2="255.00" stroke="#111827" />
<text x="82.00" y="259.00" font-size="10" font-weight="400" text-anchor="end">0.100</text>
<line x1="90" y1="255.00" x2="930" y2="255.00" stroke="#e5e7eb" stroke-width="1" />
<line x1="86" y1="200.00" x2="90" y2="200.00" stroke="#111827" />
<text x="82.00" y="204.00" font-size="10" font-weight="400" text-anchor="end">0.165</text>
<line x1="90" y1="200.00" x2="930" y2="200.00" stroke="#e5e7eb" stroke-width="1" />
<line x1="86" y1="145.00" x2="90" y2="145.00" stroke="#111827" />
<text x="82.00" y="149.00" font-size="10" font-weight="400" text-anchor="end">0.231</text>
<line x1="90" y1="145.00" x2="930" y2="145.00" stroke="#e5e7eb" stroke-width="1" />
<line x1="86" y1="90.00" x2="90" y2="90.00" stroke="#111827" />
<text x="82.00" y="94.00" font-size="10" font-weight="400" text-anchor="end">0.297</text>
<line x1="90" y1="338.39" x2="930" y2="338.39" stroke="#6b7280" stroke-dasharray="4 4" />
<polyline points="90.00,337.52 510.00,334.21 930.00,327.87" fill="none" stroke="#2563eb" stroke-width="2.3" stroke-linejoin="round" />
<circle cx="90.00" cy="337.52" r="3.8" fill="#2563eb" />
<circle cx="510.00" cy="334.21" r="3.8" fill="#2563eb" />
<circle cx="930.00" cy="327.87" r="3.8" fill="#2563eb" />
<polyline points="90.00,338.03 510.00,336.40 930.00,333.08" fill="none" stroke="#2563eb" stroke-width="2.3" stroke-linejoin="round" stroke-dasharray="12 5" />
<circle cx="90.00" cy="338.03" r="3.8" fill="#2563eb" />
<circle cx="510.00" cy="336.40" r="3.8" fill="#2563eb" />
<circle cx="930.00" cy="333.08" r="3.8" fill="#2563eb" />
<polyline points="90.00,335.09 510.00,318.66 930.00,290.80" fill="none" stroke="#2563eb" stroke-width="2.3" stroke-linejoin="round" stroke-dasharray="1 4" />
<circle cx="90.00" cy="335.09" r="3.8" fill="#2563eb" />
<circle cx="510.00" cy="318.66" r="3.8" fill="#2563eb" />
<circle cx="930.00" cy="290.80" r="3.8" fill="#2563eb" />
<polyline points="90.00,302.70 510.00,237.51 930.00,146.00" fill="none" stroke="#dc2626" stroke-width="2.3" stroke-linejoin="round" />
<circle cx="90.00" cy="302.70" r="3.8" fill="#dc2626" />
<circle cx="510.00" cy="237.51" r="3.8" fill="#dc2626" />
<circle cx="930.00" cy="146.00" r="3.8" fill="#dc2626" />
<polyline points="90.00,314.34 510.00,265.93 930.00,190.51" fill="none" stroke="#dc2626" stroke-width="2.3" stroke-linejoin="round" stroke-dasharray="12 5" />
<circle cx="90.00" cy="314.34" r="3.8" fill="#dc2626" />
<circle cx="510.00" cy="265.93" r="3.8" fill="#dc2626" />
<circle cx="930.00" cy="190.51" r="3.8" fill="#dc2626" />
<polyline points="90.00,300.62 510.00,223.77 930.00,116.61" fill="none" stroke="#dc2626" stroke-width="2.3" stroke-linejoin="round" stroke-dasharray="1 4" />
<circle cx="90.00" cy="300.62" r="3.8" fill="#dc2626" />
<circle cx="510.00" cy="223.77" r="3.8" fill="#dc2626" />
<circle cx="930.00" cy="116.61" r="3.8" fill="#dc2626" />
<polyline points="90.00,335.96 510.00,320.92 930.00,292.20" fill="none" stroke="#7c3aed" stroke-width="2.3" stroke-linejoin="round" />
<circle cx="90.00" cy="335.96" r="3.8" fill="#7c3aed" />
<circle cx="510.00" cy="320.92" r="3.8" fill="#7c3aed" />
<circle cx="930.00" cy="292.20" r="3.8" fill="#7c3aed" />
<polyline points="90.00,337.37 510.00,331.55 930.00,320.46" fill="none" stroke="#7c3aed" stroke-width="2.3" stroke-linejoin="round" stroke-dasharray="12 5" />
<circle cx="90.00" cy="337.37" r="3.8" fill="#7c3aed" />
<circle cx="510.00" cy="331.55" r="3.8" fill="#7c3aed" />
<circle cx="930.00" cy="320.46" r="3.8" fill="#7c3aed" />
<polyline points="90.00,335.25 510.00,317.80 930.00,285.76" fill="none" stroke="#7c3aed" stroke-width="2.3" stroke-linejoin="round" stroke-dasharray="1 4" />
<circle cx="90.00" cy="335.25" r="3.8" fill="#7c3aed" />
<circle cx="510.00" cy="317.80" r="3.8" fill="#7c3aed" />
<circle cx="930.00" cy="285.76" r="3.8" fill="#7c3aed" />
<polyline points="90.00,324.09 510.00,305.04 930.00,264.03" fill="none" stroke="#334155" stroke-width="2.3" stroke-linejoin="round" stroke-dasharray="9 3 2 3" />
<circle cx="90.00" cy="324.09" r="3.8" fill="#334155" />
<circle cx="510.00" cy="305.04" r="3.8" fill="#334155" />
<circle cx="930.00" cy="264.03" r="3.8" fill="#334155" />
<polyline points="90.00,338.00 510.00,336.31 930.00,332.63" fill="none" stroke="#2563eb" stroke-width="2.3" stroke-linejoin="round" stroke-dasharray="9 3 2 3" />
<circle cx="90.00" cy="338.00" r="3.8" fill="#2563eb" />
<circle cx="510.00" cy="336.31" r="3.8" fill="#2563eb" />
<circle cx="930.00" cy="332.63" r="3.8" fill="#2563eb" />
<polyline points="90.00,305.42 510.00,241.93 930.00,145.52" fill="none" stroke="#dc2626" stroke-width="2.3" stroke-linejoin="round" stroke-dasharray="9 3 2 3" />
<circle cx="90.00" cy="305.42" r="3.8" fill="#dc2626" />
<circle cx="510.00" cy="241.93" r="3.8" fill="#dc2626" />
<circle cx="930.00" cy="145.52" r="3.8" fill="#dc2626" />
<polyline points="90.00,337.84 510.00,335.63 930.00,331.11" fill="none" stroke="#2563eb" stroke-width="2.3" stroke-linejoin="round" stroke-dasharray="5 3" />
<circle cx="90.00" cy="337.84" r="3.8" fill="#2563eb" />
<circle cx="510.00" cy="335.63" r="3.8" fill="#2563eb" />
<circle cx="930.00" cy="331.11" r="3.8" fill="#2563eb" />
<polyline points="90.00,335.57 510.00,292.79 930.00,195.01" fill="none" stroke="#db2777" stroke-width="2.3" stroke-linejoin="round" stroke-dasharray="5 3" />
<circle cx="90.00" cy="335.57" r="3.8" fill="#db2777" />
<circle cx="510.00" cy="292.79" r="3.8" fill="#db2777" />
<circle cx="930.00" cy="195.01" r="3.8" fill="#db2777" />
<polyline points="90.00,322.29 510.00,300.87 930.00,258.61" fill="none" stroke="#334155" stroke-width="2.3" stroke-linejoin="round" stroke-dasharray="5 3" />
<circle cx="90.00" cy="322.29" r="3.8" fill="#334155" />
<circle cx="510.00" cy="300.87" r="3.8" fill="#334155" />
<circle cx="930.00" cy="258.61" r="3.8" fill="#334155" />
<text x="90.00" y="387.00" font-size="12" font-weight="400" text-anchor="middle">low</text>
<text x="510.00" y="387.00" font-size="12" font-weight="400" text-anchor="middle">mid</text>
<text x="930.00" y="387.00" font-size="12" font-weight="400" text-anchor="middle">high</text>
<line x1="955" y1="75" x2="973" y2="75" stroke="#2563eb" stroke-width="3" />
<text x="979.00" y="79.00" font-size="10" font-weight="400" text-anchor="start">VideoMAE x SSV2</text>
<line x1="955" y1="95" x2="973" y2="95" stroke="#2563eb" stroke-width="3" stroke-dasharray="12 5" />
<text x="979.00" y="99.00" font-size="10" font-weight="400" text-anchor="start">VideoMAE x UCF101</text>
<line x1="955" y1="115" x2="973" y2="115" stroke="#2563eb" stroke-width="3" stroke-dasharray="1 4" />
<text x="979.00" y="119.00" font-size="10" font-weight="400" text-anchor="start">VideoMAE x Diving48</text>
<line x1="955" y1="135" x2="973" y2="135" stroke="#dc2626" stroke-width="3" />
<text x="979.00" y="139.00" font-size="10" font-weight="400" text-anchor="start">SlowFast R50 8x8 x SSV2</text>
<line x1="955" y1="155" x2="973" y2="155" stroke="#dc2626" stroke-width="3" stroke-dasharray="12 5" />
<text x="979.00" y="159.00" font-size="10" font-weight="400" text-anchor="start">SlowFast R50 8x8 x UCF101</text>
<line x1="955" y1="175" x2="973" y2="175" stroke="#dc2626" stroke-width="3" stroke-dasharray="1 4" />
<text x="979.00" y="179.00" font-size="10" font-weight="400" text-anchor="start">SlowFast R50 8x8 x Diving48</text>
<line x1="955" y1="195" x2="973" y2="195" stroke="#7c3aed" stroke-width="3" />
<text x="979.00" y="199.00" font-size="10" font-weight="400" text-anchor="start">DINOv2 frame-mean x SSV2</text>
<line x1="955" y1="215" x2="973" y2="215" stroke="#7c3aed" stroke-width="3" stroke-dasharray="12 5" />
<text x="979.00" y="219.00" font-size="10" font-weight="400" text-anchor="start">DINOv2 frame-mean x UCF101</text>
<line x1="955" y1="235" x2="973" y2="235" stroke="#7c3aed" stroke-width="3" stroke-dasharray="1 4" />
<text x="979.00" y="239.00" font-size="10" font-weight="400" text-anchor="start">DINOv2 frame-mean x Diving48</text>
<line x1="955" y1="255" x2="973" y2="255" stroke="#334155" stroke-width="3" stroke-dasharray="9 3 2 3" />
<text x="979.00" y="259.00" font-size="10" font-weight="400" text-anchor="start">V-JEPA2 x HMDB51</text>
<line x1="955" y1="275" x2="973" y2="275" stroke="#2563eb" stroke-width="3" stroke-dasharray="9 3 2 3" />
<text x="979.00" y="279.00" font-size="10" font-weight="400" text-anchor="start">VideoMAE x HMDB51</text>
<line x1="955" y1="295" x2="973" y2="295" stroke="#dc2626" stroke-width="3" stroke-dasharray="9 3 2 3" />
<text x="979.00" y="299.00" font-size="10" font-weight="400" text-anchor="start">SlowFast R50 8x8 x HMDB51</text>
<line x1="955" y1="315" x2="973" y2="315" stroke="#2563eb" stroke-width="3" stroke-dasharray="5 3" />
<text x="979.00" y="319.00" font-size="10" font-weight="400" text-anchor="start">VideoMAE x Kinetics</text>
<line x1="955" y1="335" x2="973" y2="335" stroke="#db2777" stroke-width="3" stroke-dasharray="5 3" />
<text x="979.00" y="339.00" font-size="10" font-weight="400" text-anchor="start">DisMo x Kinetics</text>
<line x1="955" y1="355" x2="973" y2="355" stroke="#334155" stroke-width="3" stroke-dasharray="5 3" />
<text x="979.00" y="359.00" font-size="10" font-weight="400" text-anchor="start">V-JEPA2 x Kinetics</text>
<text x="90.00" y="475.00" font-size="14" font-weight="700" text-anchor="start">Color transform low -&gt; mid -&gt; high</text>
<text x="18.00" y="637.50" font-size="11" font-weight="400" text-anchor="middle" transform="rotate(-90 18.00 637.50)">Mean cosine distance</text>
<line x1="90" y1="775" x2="930" y2="775" stroke="#111827" stroke-width="1" />
<line x1="90" y1="500" x2="90" y2="775" stroke="#111827" stroke-width="1" />
<line x1="86" y1="775.00" x2="90" y2="775.00" stroke="#111827" />
<text x="82.00" y="779.00" font-size="10" font-weight="400" text-anchor="end">-0.002</text>
<line x1="86" y1="720.00" x2="90" y2="720.00" stroke="#111827" />
<text x="82.00" y="724.00" font-size="10" font-weight="400" text-anchor="end">0.002</text>
<line x1="90" y1="720.00" x2="930" y2="720.00" stroke="#e5e7eb" stroke-width="1" />
<line x1="86" y1="665.00" x2="90" y2="665.00" stroke="#111827" />
<text x="82.00" y="669.00" font-size="10" font-weight="400" text-anchor="end">0.007</text>
<line x1="90" y1="665.00" x2="930" y2="665.00" stroke="#e5e7eb" stroke-width="1" />
<line x1="86" y1="610.00" x2="90" y2="610.00" stroke="#111827" />
<text x="82.00" y="614.00" font-size="10" font-weight="400" text-anchor="end">0.012</text>
<line x1="90" y1="610.00" x2="930" y2="610.00" stroke="#e5e7eb" stroke-width="1" />
<line x1="86" y1="555.00" x2="90" y2="555.00" stroke="#111827" />
<text x="82.00" y="559.00" font-size="10" font-weight="400" text-anchor="end">0.016</text>
<line x1="90" y1="555.00" x2="930" y2="555.00" stroke="#e5e7eb" stroke-width="1" />
<line x1="86" y1="500.00" x2="90" y2="500.00" stroke="#111827" />
<text x="82.00" y="504.00" font-size="10" font-weight="400" text-anchor="end">0.021</text>
<line x1="90" y1="748.39" x2="930" y2="748.39" stroke="#6b7280" stroke-dasharray="4 4" />
<polyline points="90.00,748.37 510.00,748.02 930.00,744.94" fill="none" stroke="#2563eb" stroke-width="2.3" stroke-linejoin="round" />
<circle cx="90.00" cy="748.37" r="3.8" fill="#2563eb" />
<circle cx="510.00" cy="748.02" r="3.8" fill="#2563eb" />
<circle cx="930.00" cy="744.94" r="3.8" fill="#2563eb" />
<polyline points="90.00,748.36 510.00,747.81 930.00,742.67" fill="none" stroke="#2563eb" stroke-width="2.3" stroke-linejoin="round" stroke-dasharray="12 5" />
<circle cx="90.00" cy="748.36" r="3.8" fill="#2563eb" />
<circle cx="510.00" cy="747.81" r="3.8" fill="#2563eb" />
<circle cx="930.00" cy="742.67" r="3.8" fill="#2563eb" />
<polyline points="90.00,748.38 510.00,748.10 930.00,745.71" fill="none" stroke="#2563eb" stroke-width="2.3" stroke-linejoin="round" stroke-dasharray="1 4" />
<circle cx="90.00" cy="748.38" r="3.8" fill="#2563eb" />
<circle cx="510.00" cy="748.10" r="3.8" fill="#2563eb" />
<circle cx="930.00" cy="745.71" r="3.8" fill="#2563eb" />
<polyline points="90.00,747.25 510.00,724.29 930.00,526.61" fill="none" stroke="#dc2626" stroke-width="2.3" stroke-linejoin="round" />
<circle cx="90.00" cy="747.25" r="3.8" fill="#dc2626" />
<circle cx="510.00" cy="724.29" r="3.8" fill="#dc2626" />
<circle cx="930.00" cy="526.61" r="3.8" fill="#dc2626" />
<polyline points="90.00,747.67 510.00,734.26 930.00,617.36" fill="none" stroke="#dc2626" stroke-width="2.3" stroke-linejoin="round" stroke-dasharray="12 5" />
<circle cx="90.00" cy="747.67" r="3.8" fill="#dc2626" />
<circle cx="510.00" cy="734.26" r="3.8" fill="#dc2626" />
<circle cx="930.00" cy="617.36" r="3.8" fill="#dc2626" />
<polyline points="90.00,747.99 510.00,737.60 930.00,637.67" fill="none" stroke="#dc2626" stroke-width="2.3" stroke-linejoin="round" stroke-dasharray="1 4" />
<circle cx="90.00" cy="747.99" r="3.8" fill="#dc2626" />
<circle cx="510.00" cy="737.60" r="3.8" fill="#dc2626" />
<circle cx="930.00" cy="637.67" r="3.8" fill="#dc2626" />
<polyline points="90.00,747.65 510.00,738.38 930.00,656.13" fill="none" stroke="#7c3aed" stroke-width="2.3" stroke-linejoin="round" />
<circle cx="90.00" cy="747.65" r="3.8" fill="#7c3aed" />
<circle cx="510.00" cy="738.38" r="3.8" fill="#7c3aed" />
<circle cx="930.00" cy="656.13" r="3.8" fill="#7c3aed" />
<polyline points="90.00,747.76 510.00,739.47 930.00,658.89" fill="none" stroke="#7c3aed" stroke-width="2.3" stroke-linejoin="round" stroke-dasharray="12 5" />
<circle cx="90.00" cy="747.76" r="3.8" fill="#7c3aed" />
<circle cx="510.00" cy="739.47" r="3.8" fill="#7c3aed" />
<circle cx="930.00" cy="658.89" r="3.8" fill="#7c3aed" />
<polyline points="90.00,747.90 510.00,740.64 930.00,669.61" fill="none" stroke="#7c3aed" stroke-width="2.3" stroke-linejoin="round" stroke-dasharray="1 4" />
<circle cx="90.00" cy="747.90" r="3.8" fill="#7c3aed" />
<circle cx="510.00" cy="740.64" r="3.8" fill="#7c3aed" />
<circle cx="930.00" cy="669.61" r="3.8" fill="#7c3aed" />
<polyline points="90.00,747.94 510.00,736.54 930.00,598.71" fill="none" stroke="#334155" stroke-width="2.3" stroke-linejoin="round" stroke-dasharray="9 3 2 3" />
<circle cx="90.00" cy="747.94" r="3.8" fill="#334155" />
<circle cx="510.00" cy="736.54" r="3.8" fill="#334155" />
<circle cx="930.00" cy="598.71" r="3.8" fill="#334155" />
<polyline points="90.00,748.37 510.00,747.78 930.00,742.56" fill="none" stroke="#2563eb" stroke-width="2.3" stroke-linejoin="round" stroke-dasharray="9 3 2 3" />
<circle cx="90.00" cy="748.37" r="3.8" fill="#2563eb" />
<circle cx="510.00" cy="747.78" r="3.8" fill="#2563eb" />
<circle cx="930.00" cy="742.56" r="3.8" fill="#2563eb" />
<polyline points="90.00,747.53 510.00,729.04 930.00,578.56" fill="none" stroke="#dc2626" stroke-width="2.3" stroke-linejoin="round" stroke-dasharray="9 3 2 3" />
<circle cx="90.00" cy="747.53" r="3.8" fill="#dc2626" />
<circle cx="510.00" cy="729.04" r="3.8" fill="#dc2626" />
<circle cx="930.00" cy="578.56" r="3.8" fill="#dc2626" />
<polyline points="90.00,748.37 510.00,747.91 930.00,744.12" fill="none" stroke="#2563eb" stroke-width="2.3" stroke-linejoin="round" stroke-dasharray="5 3" />
<circle cx="90.00" cy="748.37" r="3.8" fill="#2563eb" />
<circle cx="510.00" cy="747.91" r="3.8" fill="#2563eb" />
<circle cx="930.00" cy="744.12" r="3.8" fill="#2563eb" />
<polyline points="90.00,748.03 510.00,741.54 930.00,682.85" fill="none" stroke="#db2777" stroke-width="2.3" stroke-linejoin="round" stroke-dasharray="5 3" />
<circle cx="90.00" cy="748.03" r="3.8" fill="#db2777" />
<circle cx="510.00" cy="741.54" r="3.8" fill="#db2777" />
<circle cx="930.00" cy="682.85" r="3.8" fill="#db2777" />
<polyline points="90.00,747.94 510.00,738.39 930.00,634.89" fill="none" stroke="#334155" stroke-width="2.3" stroke-linejoin="round" stroke-dasharray="5 3" />
<circle cx="90.00" cy="747.94" r="3.8" fill="#334155" />
<circle cx="510.00" cy="738.39" r="3.8" fill="#334155" />
<circle cx="930.00" cy="634.89" r="3.8" fill="#334155" />
<text x="90.00" y="797.00" font-size="12" font-weight="400" text-anchor="middle">low</text>
<text x="510.00" y="797.00" font-size="12" font-weight="400" text-anchor="middle">mid</text>
<text x="930.00" y="797.00" font-size="12" font-weight="400" text-anchor="middle">high</text>
<line x1="955" y1="485" x2="973" y2="485" stroke="#2563eb" stroke-width="3" />
<text x="979.00" y="489.00" font-size="10" font-weight="400" text-anchor="start">VideoMAE x SSV2</text>
<line x1="955" y1="505" x2="973" y2="505" stroke="#2563eb" stroke-width="3" stroke-dasharray="12 5" />
<text x="979.00" y="509.00" font-size="10" font-weight="400" text-anchor="start">VideoMAE x UCF101</text>
<line x1="955" y1="525" x2="973" y2="525" stroke="#2563eb" stroke-width="3" stroke-dasharray="1 4" />
<text x="979.00" y="529.00" font-size="10" font-weight="400" text-anchor="start">VideoMAE x Diving48</text>
<line x1="955" y1="545" x2="973" y2="545" stroke="#dc2626" stroke-width="3" />
<text x="979.00" y="549.00" font-size="10" font-weight="400" text-anchor="start">SlowFast R50 8x8 x SSV2</text>
<line x1="955" y1="565" x2="973" y2="565" stroke="#dc2626" stroke-width="3" stroke-dasharray="12 5" />
<text x="979.00" y="569.00" font-size="10" font-weight="400" text-anchor="start">SlowFast R50 8x8 x UCF101</text>
<line x1="955" y1="585" x2="973" y2="585" stroke="#dc2626" stroke-width="3" stroke-dasharray="1 4" />
<text x="979.00" y="589.00" font-size="10" font-weight="400" text-anchor="start">SlowFast R50 8x8 x Diving48</text>
<line x1="955" y1="605" x2="973" y2="605" stroke="#7c3aed" stroke-width="3" />
<text x="979.00" y="609.00" font-size="10" font-weight="400" text-anchor="start">DINOv2 frame-mean x SSV2</text>
<line x1="955" y1="625" x2="973" y2="625" stroke="#7c3aed" stroke-width="3" stroke-dasharray="12 5" />
<text x="979.00" y="629.00" font-size="10" font-weight="400" text-anchor="start">DINOv2 frame-mean x UCF101</text>
<line x1="955" y1="645" x2="973" y2="645" stroke="#7c3aed" stroke-width="3" stroke-dasharray="1 4" />
<text x="979.00" y="649.00" font-size="10" font-weight="400" text-anchor="start">DINOv2 frame-mean x Diving48</text>
<line x1="955" y1="665" x2="973" y2="665" stroke="#334155" stroke-width="3" stroke-dasharray="9 3 2 3" />
<text x="979.00" y="669.00" font-size="10" font-weight="400" text-anchor="start">V-JEPA2 x HMDB51</text>
<line x1="955" y1="685" x2="973" y2="685" stroke="#2563eb" stroke-width="3" stroke-dasharray="9 3 2 3" />
<text x="979.00" y="689.00" font-size="10" font-weight="400" text-anchor="start">VideoMAE x HMDB51</text>
<line x1="955" y1="705" x2="973" y2="705" stroke="#dc2626" stroke-width="3" stroke-dasharray="9 3 2 3" />
<text x="979.00" y="709.00" font-size="10" font-weight="400" text-anchor="start">SlowFast R50 8x8 x HMDB51</text>
<line x1="955" y1="725" x2="973" y2="725" stroke="#2563eb" stroke-width="3" stroke-dasharray="5 3" />
<text x="979.00" y="729.00" font-size="10" font-weight="400" text-anchor="start">VideoMAE x Kinetics</text>
<line x1="955" y1="745" x2="973" y2="745" stroke="#db2777" stroke-width="3" stroke-dasharray="5 3" />
<text x="979.00" y="749.00" font-size="10" font-weight="400" text-anchor="start">DisMo x Kinetics</text>
<line x1="955" y1="765" x2="973" y2="765" stroke="#334155" stroke-width="3" stroke-dasharray="5 3" />
<text x="979.00" y="769.00" font-size="10" font-weight="400" text-anchor="start">V-JEPA2 x Kinetics</text>
</svg>
