<svg xmlns="http://www.w3.org/2000/svg" width="1760" height="620" viewBox="0 0 1760 620">
<rect width="100%" height="100%" fill="#ffffff" />
<style>text { font-family: Arial, Helvetica, sans-serif; fill: #111827; }</style>
<text x="880.00" y="28.00" font-size="18" font-weight="700" text-anchor="middle">Fixed-mid perturbation: linear-probe accuracy drop</text>
<text x="18.00" y="257.50" font-size="12" font-weight="400" text-anchor="middle" transform="rotate(-90 18.00 257.50)">Accuracy drop</text>
<line x1="90" y1="460" x2="1730" y2="460" stroke="#111827" stroke-width="1" />
<line x1="90" y1="55" x2="90" y2="460" stroke="#111827" stroke-width="1" />
<line x1="86" y1="460.00" x2="90" y2="460.00" stroke="#111827" />
<text x="82.00" y="464.00" font-size="10" font-weight="400" text-anchor="end">-0.040</text>
<line x1="86" y1="379.00" x2="90" y2="379.00" stroke="#111827" />
<text x="82.00" y="383.00" font-size="10" font-weight="400" text-anchor="end">0.034</text>
<line x1="90" y1="379.00" x2="1730" y2="379.00" stroke="#e5e7eb" stroke-width="1" />
<line x1="86" y1="298.00" x2="90" y2="298.00" stroke="#111827" />
<text x="82.00" y="302.00" font-size="10" font-weight="400" text-anchor="end">0.107</text>
<line x1="90" y1="298.00" x2="1730" y2="298.00" stroke="#e5e7eb" stroke-width="1" />
<line x1="86" y1="217.00" x2="90" y2="217.00" stroke="#111827" />
<text x="82.00" y="221.00" font-size="10" font-weight="400" text-anchor="end">0.181</text>
<line x1="90" y1="217.00" x2="1730" y2="217.00" stroke="#e5e7eb" stroke-width="1" />
<line x1="86" y1="136.00" x2="90" y2="136.00" stroke="#111827" />
<text x="82.00" y="140.00" font-size="10" font-weight="400" text-anchor="end">0.254</text>
<line x1="90" y1="136.00" x2="1730" y2="136.00" stroke="#e5e7eb" stroke-width="1" />
<line x1="86" y1="55.00" x2="90" y2="55.00" stroke="#111827" />
<text x="82.00" y="59.00" font-size="10" font-weight="400" text-anchor="end">0.328</text>
<line x1="90" y1="416.21" x2="1730" y2="416.21" stroke="#6b7280" stroke-dasharray="4 4" />
<rect x="106.77" y="217.71" width="18.64" height="198.50" fill="#2563eb" />
<rect x="129.14" y="379.45" width="18.64" height="36.76" fill="#ea580c" />
<text x="127.27" y="520.00" font-size="10" font-weight="400" text-anchor="end" transform="rotate(-40 127.27 520.00)">VideoMAE x SSV2</text>
<rect x="181.32" y="141.25" width="18.64" height="274.97" fill="#2563eb" />
<rect x="203.68" y="94.19" width="18.64" height="322.02" fill="#ea580c" />
<text x="201.82" y="520.00" font-size="10" font-weight="400" text-anchor="end" transform="rotate(-40 201.82 520.00)">VideoMAE x UCF101</text>
<rect x="255.86" y="377.15" width="18.64" height="39.06" fill="#2563eb" />
<rect x="278.23" y="400.13" width="18.64" height="16.08" fill="#ea580c" />
<text x="276.36" y="520.00" font-size="10" font-weight="400" text-anchor="end" transform="rotate(-40 276.36 520.00)">VideoMAE x Diving48</text>
<rect x="330.41" y="189.77" width="18.64" height="226.44" fill="#2563eb" />
<rect x="352.77" y="415.48" width="18.64" height="0.74" fill="#ea580c" />
<text x="350.91" y="520.00" font-size="10" font-weight="400" text-anchor="end" transform="rotate(-40 350.91 520.00)">SlowFast R50 8x8 x SSV2</text>
<rect x="404.95" y="365.48" width="18.64" height="50.73" fill="#2563eb" />
<rect x="427.32" y="400.77" width="18.64" height="15.44" fill="#ea580c" />
<text x="425.45" y="520.00" font-size="10" font-weight="400" text-anchor="end" transform="rotate(-40 425.45 520.00)">SlowFast R50 8x8 x UCF101</text>
<rect x="479.50" y="390.94" width="18.64" height="25.27" fill="#2563eb" />
<rect x="501.86" y="416.21" width="18.64" height="4.60" fill="#ea580c" />
<text x="500.00" y="520.00" font-size="10" font-weight="400" text-anchor="end" transform="rotate(-40 500.00 520.00)">SlowFast R50 8x8 x Diving48</text>
<rect x="554.05" y="416.21" width="18.64" height="0.00" fill="#2563eb" />
<rect x="576.41" y="408.86" width="18.64" height="7.35" fill="#ea580c" />
<text x="574.55" y="520.00" font-size="10" font-weight="400" text-anchor="end" transform="rotate(-40 574.55 520.00)">DINOv2 frame-mean x SSV2</text>
<rect x="628.59" y="416.21" width="18.64" height="0.00" fill="#2563eb" />
<rect x="650.95" y="414.01" width="18.64" height="2.21" fill="#ea580c" />
<text x="649.09" y="520.00" font-size="10" font-weight="400" text-anchor="end" transform="rotate(-40 649.09 520.00)">DINOv2 frame-mean x UCF101</text>
<rect x="703.14" y="416.21" width="18.64" height="0.00" fill="#2563eb" />
<rect x="725.50" y="411.62" width="18.64" height="4.60" fill="#ea580c" />
<text x="723.64" y="520.00" font-size="10" font-weight="400" text-anchor="end" transform="rotate(-40 723.64 520.00)">DINOv2 frame-mean x Diving48</text>
<rect x="777.68" y="212.87" width="18.64" height="203.34" fill="#2563eb" />
<rect x="800.05" y="261.36" width="18.64" height="154.86" fill="#ea580c" />
<text x="798.18" y="520.00" font-size="10" font-weight="400" text-anchor="end" transform="rotate(-40 798.18 520.00)">V-JEPA2 x HMDB51</text>
<rect x="852.23" y="251.23" width="18.64" height="164.99" fill="#2563eb" />
<rect x="874.59" y="257.74" width="18.64" height="158.47" fill="#ea580c" />
<text x="872.73" y="520.00" font-size="10" font-weight="400" text-anchor="end" transform="rotate(-40 872.73 520.00)">VideoMAE x HMDB51</text>
<rect x="926.77" y="225.18" width="18.64" height="191.04" fill="#2563eb" />
<rect x="949.14" y="368.45" width="18.64" height="47.76" fill="#ea580c" />
<text x="947.27" y="520.00" font-size="10" font-weight="400" text-anchor="end" transform="rotate(-40 947.27 520.00)">SlowFast R50 8x8 x HMDB51</text>
<rect x="1001.32" y="253.00" width="18.64" height="163.21" fill="#2563eb" />
<rect x="1023.68" y="388.27" width="18.64" height="27.94" fill="#ea580c" />
<text x="1021.82" y="520.00" font-size="10" font-weight="400" text-anchor="end" transform="rotate(-40 1021.82 520.00)">VideoMAE x Kinetics</text>
<rect x="1075.86" y="297.84" width="18.64" height="118.37" fill="#2563eb" />
<rect x="1098.23" y="397.83" width="18.64" height="18.38" fill="#ea580c" />
<text x="1096.36" y="520.00" font-size="10" font-weight="400" text-anchor="end" transform="rotate(-40 1096.36 520.00)">DisMo x Kinetics</text>
<rect x="1150.41" y="193.45" width="18.64" height="222.77" fill="#2563eb" />
<rect x="1172.77" y="364.01" width="18.64" height="52.20" fill="#ea580c" />
<text x="1170.91" y="520.00" font-size="10" font-weight="400" text-anchor="end" transform="rotate(-40 1170.91 520.00)">V-JEPA2 x Kinetics</text>
<rect x="1224.95" y="416.21" width="18.64" height="0.00" fill="#2563eb" />
<rect x="1247.32" y="395.23" width="18.64" height="20.99" fill="#ea580c" />
<text x="1245.45" y="520.00" font-size="10" font-weight="400" text-anchor="end" transform="rotate(-40 1245.45 520.00)">DINOv2 frame-mean x HMDB51</text>
<rect x="1299.50" y="416.21" width="18.64" height="0.00" fill="#2563eb" />
<rect x="1321.86" y="410.33" width="18.64" height="5.88" fill="#ea580c" />
<text x="1320.00" y="520.00" font-size="10" font-weight="400" text-anchor="end" transform="rotate(-40 1320.00 520.00)">DINOv2 frame-mean x Kinetics</text>
<rect x="1374.05" y="332.40" width="18.64" height="83.81" fill="#2563eb" />
<rect x="1396.41" y="396.36" width="18.64" height="19.85" fill="#ea580c" />
<text x="1394.55" y="520.00" font-size="10" font-weight="400" text-anchor="end" transform="rotate(-40 1394.55 520.00)">SlowFast R50 8x8 x Kinetics</text>
<rect x="1448.59" y="365.67" width="18.64" height="50.55" fill="#2563eb" />
<rect x="1470.95" y="407.02" width="18.64" height="9.19" fill="#ea580c" />
<text x="1469.09" y="520.00" font-size="10" font-weight="400" text-anchor="end" transform="rotate(-40 1469.09 520.00)">DisMo x Diving48</text>
<rect x="1523.14" y="390.94" width="18.64" height="25.27" fill="#2563eb" />
<rect x="1545.50" y="404.72" width="18.64" height="11.49" fill="#ea580c" />
<text x="1543.64" y="520.00" font-size="10" font-weight="400" text-anchor="end" transform="rotate(-40 1543.64 520.00)">V-JEPA2 x Diving48</text>
<rect x="1597.68" y="208.53" width="18.64" height="207.68" fill="#2563eb" />
<rect x="1620.05" y="383.65" width="18.64" height="32.56" fill="#ea580c" />
<text x="1618.18" y="520.00" font-size="10" font-weight="400" text-anchor="end" transform="rotate(-40 1618.18 520.00)">DisMo x HMDB51</text>
<rect x="1672.23" y="141.25" width="18.64" height="274.97" fill="#2563eb" />
<rect x="1694.59" y="403.71" width="18.64" height="12.50" fill="#ea580c" />
<text x="1692.73" y="520.00" font-size="10" font-weight="400" text-anchor="end" transform="rotate(-40 1692.73 520.00)">DisMo x SSV2</text>
<rect x="102" y="38" width="12" height="12" fill="#2563eb" />
<text x="120.00" y="48.00" font-size="12" font-weight="400" text-anchor="start">temporal-shuffle-mid</text>
<rect x="102" y="58" width="12" height="12" fill="#ea580c" />
<text x="120.00" y="68.00" font-size="12" font-weight="400" text-anchor="start">spatial-blur-mid</text>
</svg>
