<svg xmlns="http://www.w3.org/2000/svg" width="960" height="560" viewBox="0 0 960 560">
<rect width="100%" height="100%" fill="white"/>
<text x="480.00" y="30.00" text-anchor="middle" font-family="Arial, sans-serif" font-size="20" font-weight="700">UCF101 V-JEPA2 frozen-linear-probe strength curves: mean cosine distance</text>
<line x1="80" y1="490" x2="740" y2="490" stroke="#444" stroke-width="1"/>
<line x1="80" y1="58" x2="80" y2="490" stroke="#444" stroke-width="1"/>
<polyline points="80.00,490.00 410.00,487.13 740.00,451.37" fill="none" stroke="#4c78a8" stroke-width="2.5"/>
<circle cx="80.00" cy="490.00" r="4" fill="#4c78a8"/>
<text x="80.00" y="482.00" text-anchor="middle" font-family="Arial, sans-serif" font-size="11" font-weight="400">low</text>
<circle cx="410.00" cy="487.13" r="4" fill="#4c78a8"/>
<text x="410.00" y="479.13" text-anchor="middle" font-family="Arial, sans-serif" font-size="11" font-weight="400">mid</text>
<circle cx="740.00" cy="451.37" r="4" fill="#4c78a8"/>
<text x="740.00" y="443.37" text-anchor="middle" font-family="Arial, sans-serif" font-size="11" font-weight="400">high</text>
<rect x="764" y="48" width="14" height="14" fill="#4c78a8"/>
<text x="784.00" y="60.00" text-anchor="start" font-family="Arial, sans-serif" font-size="13" font-weight="400">color_transform</text>
<polyline points="80.00,443.77 410.00,371.24 740.00,200.64" fill="none" stroke="#f58518" stroke-width="2.5"/>
<circle cx="80.00" cy="443.77" r="4" fill="#f58518"/>
<text x="80.00" y="435.77" text-anchor="middle" font-family="Arial, sans-serif" font-size="11" font-weight="400">low</text>
<circle cx="410.00" cy="371.24" r="4" fill="#f58518"/>
<text x="410.00" y="363.24" text-anchor="middle" font-family="Arial, sans-serif" font-size="11" font-weight="400">mid</text>
<circle cx="740.00" cy="200.64" r="4" fill="#f58518"/>
<text x="740.00" y="192.64" text-anchor="middle" font-family="Arial, sans-serif" font-size="11" font-weight="400">high</text>
<rect x="764" y="72" width="14" height="14" fill="#f58518"/>
<text x="784.00" y="84.00" text-anchor="start" font-family="Arial, sans-serif" font-size="13" font-weight="400">freeze_tail</text>
<polyline points="80.00,422.81 410.00,302.73 740.00,58.00" fill="none" stroke="#54a24b" stroke-width="2.5"/>
<circle cx="80.00" cy="422.81" r="4" fill="#54a24b"/>
<text x="80.00" y="414.81" text-anchor="middle" font-family="Arial, sans-serif" font-size="11" font-weight="400">low</text>
<circle cx="410.00" cy="302.73" r="4" fill="#54a24b"/>
<text x="410.00" y="294.73" text-anchor="middle" font-family="Arial, sans-serif" font-size="11" font-weight="400">mid</text>
<circle cx="740.00" cy="58.00" r="4" fill="#54a24b"/>
<text x="740.00" y="50.00" text-anchor="middle" font-family="Arial, sans-serif" font-size="11" font-weight="400">high</text>
<rect x="764" y="96" width="14" height="14" fill="#54a24b"/>
<text x="784.00" y="108.00" text-anchor="start" font-family="Arial, sans-serif" font-size="13" font-weight="400">rgb_quantization</text>
<polyline points="80.00,308.23 410.00,307.29 740.00,88.16" fill="none" stroke="#b279a2" stroke-width="2.5"/>
<circle cx="80.00" cy="308.23" r="4" fill="#b279a2"/>
<text x="80.00" y="300.23" text-anchor="middle" font-family="Arial, sans-serif" font-size="11" font-weight="400">low</text>
<circle cx="410.00" cy="307.29" r="4" fill="#b279a2"/>
<text x="410.00" y="299.29" text-anchor="middle" font-family="Arial, sans-serif" font-size="11" font-weight="400">mid</text>
<circle cx="740.00" cy="88.16" r="4" fill="#b279a2"/>
<text x="740.00" y="80.16" text-anchor="middle" font-family="Arial, sans-serif" font-size="11" font-weight="400">high</text>
<rect x="764" y="120" width="14" height="14" fill="#b279a2"/>
<text x="784.00" y="132.00" text-anchor="start" font-family="Arial, sans-serif" font-size="13" font-weight="400">solarization</text>
<text x="410.00" y="538.00" text-anchor="middle" font-family="Arial, sans-serif" font-size="13" font-weight="400">sweep value</text>
<text x="18.00" y="274.00" text-anchor="middle" font-family="Arial, sans-serif" font-size="13" font-weight="400" transform="rotate(-90 18.00 274.00)">mean cosine distance</text>
</svg>
