<svg xmlns="http://www.w3.org/2000/svg" width="1280" height="620" viewBox="0 0 1280 620">
<rect width="100%" height="100%" fill="#ffffff" />
<style>text { font-family: Arial, Helvetica, sans-serif; fill: #111827; }</style>
<text x="640.00" y="28.00" font-size="18" font-weight="700" text-anchor="middle">Fixed-mid perturbation: mean cosine distance</text>
<text x="18.00" y="302.50" font-size="12" font-weight="400" text-anchor="middle" transform="rotate(-90 18.00 302.50)">Mean cosine distance</text>
<line x1="90" y1="500" x2="1250" y2="500" stroke="#111827" stroke-width="1" />
<line x1="90" y1="105" x2="90" y2="500" stroke="#111827" stroke-width="1" />
<line x1="86" y1="500.00" x2="90" y2="500.00" stroke="#111827" />
<text x="82.00" y="504.00" font-size="10" font-weight="400" text-anchor="end">-0.027</text>
<line x1="86" y1="421.00" x2="90" y2="421.00" stroke="#111827" />
<text x="82.00" y="425.00" font-size="10" font-weight="400" text-anchor="end">0.029</text>
<line x1="90" y1="421.00" x2="1250" y2="421.00" stroke="#e5e7eb" stroke-width="1" />
<line x1="86" y1="342.00" x2="90" y2="342.00" stroke="#111827" />
<text x="82.00" y="346.00" font-size="10" font-weight="400" text-anchor="end">0.084</text>
<line x1="90" y1="342.00" x2="1250" y2="342.00" stroke="#e5e7eb" stroke-width="1" />
<line x1="86" y1="263.00" x2="90" y2="263.00" stroke="#111827" />
<text x="82.00" y="267.00" font-size="10" font-weight="400" text-anchor="end">0.140</text>
<line x1="90" y1="263.00" x2="1250" y2="263.00" stroke="#e5e7eb" stroke-width="1" />
<line x1="86" y1="184.00" x2="90" y2="184.00" stroke="#111827" />
<text x="82.00" y="188.00" font-size="10" font-weight="400" text-anchor="end">0.196</text>
<line x1="90" y1="184.00" x2="1250" y2="184.00" stroke="#e5e7eb" stroke-width="1" />
<line x1="86" y1="105.00" x2="90" y2="105.00" stroke="#111827" />
<text x="82.00" y="109.00" font-size="10" font-weight="400" text-anchor="end">0.251</text>
<line x1="90" y1="461.77" x2="1250" y2="461.77" stroke="#6b7280" stroke-dasharray="4 4" />
<rect x="107.61" y="429.08" width="21.48" height="32.69" fill="#2563eb" />
<rect x="131.67" y="452.58" width="21.48" height="9.19" fill="#ea580c" />
<rect x="155.73" y="438.90" width="21.48" height="22.88" fill="#16a34a" />
<rect x="179.79" y="448.26" width="21.48" height="13.52" fill="#9333ea" />
<text x="154.44" y="582.00" font-size="10" font-weight="400" text-anchor="end" transform="rotate(-35 154.44 582.00)">VideoMAE x SSV2</text>
<rect x="236.50" y="444.42" width="21.48" height="17.36" fill="#2563eb" />
<rect x="260.56" y="448.36" width="21.48" height="13.42" fill="#ea580c" />
<rect x="284.62" y="449.87" width="21.48" height="11.90" fill="#16a34a" />
<rect x="308.68" y="452.20" width="21.48" height="9.57" fill="#9333ea" />
<text x="283.33" y="582.00" font-size="10" font-weight="400" text-anchor="end" transform="rotate(-35 283.33 582.00)">VideoMAE x UCF101</text>
<rect x="365.39" y="347.91" width="21.48" height="113.86" fill="#2563eb" />
<rect x="389.45" y="460.26" width="21.48" height="1.51" fill="#ea580c" />
<rect x="413.51" y="451.51" width="21.48" height="10.26" fill="#16a34a" />
<rect x="437.57" y="457.83" width="21.48" height="3.94" fill="#9333ea" />
<text x="412.22" y="582.00" font-size="10" font-weight="400" text-anchor="end" transform="rotate(-35 412.22 582.00)">VideoMAE x Diving48</text>
<rect x="494.28" y="146.77" width="21.48" height="315.01" fill="#2563eb" />
<rect x="518.34" y="353.66" width="21.48" height="108.12" fill="#ea580c" />
<rect x="542.40" y="143.23" width="21.48" height="318.55" fill="#16a34a" />
<rect x="566.46" y="199.84" width="21.48" height="261.93" fill="#9333ea" />
<text x="541.11" y="582.00" font-size="10" font-weight="400" text-anchor="end" transform="rotate(-35 541.11 582.00)">SlowFast R50 8x8 x SSV2</text>
<rect x="623.17" y="232.63" width="21.48" height="229.14" fill="#2563eb" />
<rect x="647.23" y="375.41" width="21.48" height="86.37" fill="#ea580c" />
<rect x="671.29" y="326.06" width="21.48" height="135.71" fill="#16a34a" />
<rect x="695.35" y="240.79" width="21.48" height="220.99" fill="#9333ea" />
<text x="670.00" y="582.00" font-size="10" font-weight="400" text-anchor="end" transform="rotate(-35 670.00 582.00)">SlowFast R50 8x8 x UCF101</text>
<rect x="752.06" y="170.19" width="21.48" height="291.58" fill="#2563eb" />
<rect x="776.12" y="454.19" width="21.48" height="7.58" fill="#ea580c" />
<rect x="800.18" y="362.08" width="21.48" height="99.69" fill="#16a34a" />
<rect x="824.24" y="316.23" width="21.48" height="145.55" fill="#9333ea" />
<text x="798.89" y="582.00" font-size="10" font-weight="400" text-anchor="end" transform="rotate(-35 798.89 582.00)">SlowFast R50 8x8 x Diving48</text>
<rect x="880.95" y="461.77" width="21.48" height="0.00" fill="#2563eb" />
<rect x="905.01" y="393.19" width="21.48" height="68.59" fill="#ea580c" />
<rect x="929.07" y="220.03" width="21.48" height="241.74" fill="#16a34a" />
<rect x="953.13" y="284.63" width="21.48" height="177.15" fill="#9333ea" />
<text x="927.78" y="582.00" font-size="10" font-weight="400" text-anchor="end" transform="rotate(-35 927.78 582.00)">DINOv2 frame-mean x SSV2</text>
<rect x="1009.84" y="461.77" width="21.48" height="0.00" fill="#2563eb" />
<rect x="1033.90" y="405.86" width="21.48" height="55.91" fill="#ea580c" />
<rect x="1057.96" y="346.35" width="21.48" height="115.43" fill="#16a34a" />
<rect x="1082.01" y="286.48" width="21.48" height="175.30" fill="#9333ea" />
<text x="1056.67" y="582.00" font-size="10" font-weight="400" text-anchor="end" transform="rotate(-35 1056.67 582.00)">DINOv2 frame-mean x UCF101</text>
<rect x="1138.73" y="461.77" width="21.48" height="0.00" fill="#2563eb" />
<rect x="1162.79" y="457.05" width="21.48" height="4.73" fill="#ea580c" />
<rect x="1186.84" y="235.51" width="21.48" height="226.26" fill="#16a34a" />
<rect x="1210.90" y="293.29" width="21.48" height="168.48" fill="#9333ea" />
<text x="1185.56" y="582.00" font-size="10" font-weight="400" text-anchor="end" transform="rotate(-35 1185.56 582.00)">DINOv2 frame-mean x Diving48</text>
<rect x="102" y="58" width="12" height="12" fill="#2563eb" />
<text x="120.00" y="68.00" font-size="12" font-weight="400" text-anchor="start">temporal-shuffle-mid</text>
<rect x="372" y="58" width="12" height="12" fill="#ea580c" />
<text x="390.00" y="68.00" font-size="12" font-weight="400" text-anchor="start">spatial-blur-mid</text>
<rect x="642" y="58" width="12" height="12" fill="#16a34a" />
<text x="660.00" y="68.00" font-size="12" font-weight="400" text-anchor="start">rgb-quantization-mid</text>
<rect x="912" y="58" width="12" height="12" fill="#9333ea" />
<text x="930.00" y="68.00" font-size="12" font-weight="400" text-anchor="start">solarization-mid</text>
</svg>
