<svg xmlns="http://www.w3.org/2000/svg" width="1280" height="1490" viewBox="0 0 1280 1490">
<rect width="100%" height="100%" fill="#ffffff" />
<style>text { font-family: Arial, Helvetica, sans-serif; fill: #111827; }</style>
<text x="640.00" y="28.00" font-size="18" font-weight="700" text-anchor="middle">Strength curves: linear-probe accuracy drop</text>
<text x="90.00" y="65.00" font-size="14" font-weight="700" text-anchor="start">Freeze-tail low -&gt; mid -&gt; high</text>
<text x="18.00" y="197.50" font-size="11" font-weight="400" text-anchor="middle" transform="rotate(-90 18.00 197.50)">Accuracy drop</text>
<line x1="90" y1="305" x2="890" y2="305" stroke="#111827" stroke-width="1" />
<line x1="90" y1="90" x2="90" y2="305" stroke="#111827" stroke-width="1" />
<line x1="86" y1="305.00" x2="90" y2="305.00" stroke="#111827" />
<text x="82.00" y="309.00" font-size="10" font-weight="400" text-anchor="end">-0.026</text>
<line x1="86" y1="262.00" x2="90" y2="262.00" stroke="#111827" />
<text x="82.00" y="266.00" font-size="10" font-weight="400" text-anchor="end">0.023</text>
<line x1="90" y1="262.00" x2="890" y2="262.00" stroke="#e5e7eb" stroke-width="1" />
<line x1="86" y1="219.00" x2="90" y2="219.00" stroke="#111827" />
<text x="82.00" y="223.00" font-size="10" font-weight="400" text-anchor="end">0.072</text>
<line x1="90" y1="219.00" x2="890" y2="219.00" stroke="#e5e7eb" stroke-width="1" />
<line x1="86" y1="176.00" x2="90" y2="176.00" stroke="#111827" />
<text x="82.00" y="180.00" font-size="10" font-weight="400" text-anchor="end">0.120</text>
<line x1="90" y1="176.00" x2="890" y2="176.00" stroke="#e5e7eb" stroke-width="1" />
<line x1="86" y1="133.00" x2="90" y2="133.00" stroke="#111827" />
<text x="82.00" y="137.00" font-size="10" font-weight="400" text-anchor="end">0.169</text>
<line x1="90" y1="133.00" x2="890" y2="133.00" stroke="#e5e7eb" stroke-width="1" />
<line x1="86" y1="90.00" x2="90" y2="90.00" stroke="#111827" />
<text x="82.00" y="94.00" font-size="10" font-weight="400" text-anchor="end">0.218</text>
<line x1="90" y1="282.35" x2="890" y2="282.35" stroke="#6b7280" stroke-dasharray="4 4" />
<polyline points="90.00,263.49 490.00,232.24 890.00,170.94" fill="none" stroke="#3b82f6" stroke-width="2.3" stroke-linejoin="round" />
<circle cx="90.00" cy="263.49" r="3.8" fill="#3b82f6" />
<circle cx="490.00" cy="232.24" r="3.8" fill="#3b82f6" />
<circle cx="890.00" cy="170.94" r="3.8" fill="#3b82f6" />
<polyline points="90.00,275.87 490.00,243.44 890.00,163.86" fill="none" stroke="#0f766e" stroke-width="2.3" stroke-linejoin="round" />
<circle cx="90.00" cy="275.87" r="3.8" fill="#0f766e" />
<circle cx="490.00" cy="243.44" r="3.8" fill="#0f766e" />
<circle cx="890.00" cy="163.86" r="3.8" fill="#0f766e" />
<polyline points="90.00,282.35 490.00,276.82 890.00,251.03" fill="none" stroke="#9333ea" stroke-width="2.3" stroke-linejoin="round" />
<circle cx="90.00" cy="282.35" r="3.8" fill="#9333ea" />
<circle cx="490.00" cy="276.82" r="3.8" fill="#9333ea" />
<circle cx="890.00" cy="251.03" r="3.8" fill="#9333ea" />
<polyline points="90.00,252.29 490.00,197.46 890.00,110.81" fill="none" stroke="#dc2626" stroke-width="2.3" stroke-linejoin="round" />
<circle cx="90.00" cy="252.29" r="3.8" fill="#dc2626" />
<circle cx="490.00" cy="197.46" r="3.8" fill="#dc2626" />
<circle cx="890.00" cy="110.81" r="3.8" fill="#dc2626" />
<polyline points="90.00,279.40 490.00,274.10 890.00,248.16" fill="none" stroke="#d97706" stroke-width="2.3" stroke-linejoin="round" />
<circle cx="90.00" cy="279.40" r="3.8" fill="#d97706" />
<circle cx="490.00" cy="274.10" r="3.8" fill="#d97706" />
<circle cx="890.00" cy="248.16" r="3.8" fill="#d97706" />
<polyline points="90.00,273.14 490.00,267.61 890.00,252.88" fill="none" stroke="#0891b2" stroke-width="2.3" stroke-linejoin="round" />
<circle cx="90.00" cy="273.14" r="3.8" fill="#0891b2" />
<circle cx="490.00" cy="267.61" r="3.8" fill="#0891b2" />
<circle cx="890.00" cy="252.88" r="3.8" fill="#0891b2" />
<polyline points="90.00,284.12 490.00,277.64 890.00,264.08" fill="none" stroke="#7c3aed" stroke-width="2.3" stroke-linejoin="round" />
<circle cx="90.00" cy="284.12" r="3.8" fill="#7c3aed" />
<circle cx="490.00" cy="277.64" r="3.8" fill="#7c3aed" />
<circle cx="890.00" cy="264.08" r="3.8" fill="#7c3aed" />
<polyline points="90.00,281.17 490.00,282.35 890.00,279.99" fill="none" stroke="#16a34a" stroke-width="2.3" stroke-linejoin="round" />
<circle cx="90.00" cy="281.17" r="3.8" fill="#16a34a" />
<circle cx="490.00" cy="282.35" r="3.8" fill="#16a34a" />
<circle cx="890.00" cy="279.99" r="3.8" fill="#16a34a" />
<polyline points="90.00,284.19 490.00,276.82 890.00,269.46" fill="none" stroke="#be123c" stroke-width="2.3" stroke-linejoin="round" />
<circle cx="90.00" cy="284.19" r="3.8" fill="#be123c" />
<circle cx="490.00" cy="276.82" r="3.8" fill="#be123c" />
<circle cx="890.00" cy="269.46" r="3.8" fill="#be123c" />
<text x="90.00" y="327.00" font-size="12" font-weight="400" text-anchor="middle">low</text>
<text x="490.00" y="327.00" font-size="12" font-weight="400" text-anchor="middle">mid</text>
<text x="890.00" y="327.00" font-size="12" font-weight="400" text-anchor="middle">high</text>
<line x1="915" y1="110" x2="933" y2="110" stroke="#3b82f6" stroke-width="3" />
<text x="939.00" y="114.00" font-size="11" font-weight="400" text-anchor="start">VideoMAE x SSV2</text>
<line x1="915" y1="132" x2="933" y2="132" stroke="#0f766e" stroke-width="3" />
<text x="939.00" y="136.00" font-size="11" font-weight="400" text-anchor="start">VideoMAE x UCF101</text>
<line x1="915" y1="154" x2="933" y2="154" stroke="#9333ea" stroke-width="3" />
<text x="939.00" y="158.00" font-size="11" font-weight="400" text-anchor="start">VideoMAE x Diving48</text>
<line x1="915" y1="176" x2="933" y2="176" stroke="#dc2626" stroke-width="3" />
<text x="939.00" y="180.00" font-size="11" font-weight="400" text-anchor="start">SlowFast R50 8x8 x SSV2</text>
<line x1="915" y1="198" x2="933" y2="198" stroke="#d97706" stroke-width="3" />
<text x="939.00" y="202.00" font-size="11" font-weight="400" text-anchor="start">SlowFast R50 8x8 x UCF101</text>
<line x1="915" y1="220" x2="933" y2="220" stroke="#0891b2" stroke-width="3" />
<text x="939.00" y="224.00" font-size="11" font-weight="400" text-anchor="start">SlowFast R50 8x8 x Diving48</text>
<line x1="915" y1="242" x2="933" y2="242" stroke="#7c3aed" stroke-width="3" />
<text x="939.00" y="246.00" font-size="11" font-weight="400" text-anchor="start">DINOv2 frame-mean x SSV2</text>
<line x1="915" y1="264" x2="933" y2="264" stroke="#16a34a" stroke-width="3" />
<text x="939.00" y="268.00" font-size="11" font-weight="400" text-anchor="start">DINOv2 frame-mean x UCF101</text>
<line x1="915" y1="286" x2="933" y2="286" stroke="#be123c" stroke-width="3" />
<text x="939.00" y="290.00" font-size="11" font-weight="400" text-anchor="start">DINOv2 frame-mean x Diving48</text>
<text x="90.00" y="415.00" font-size="14" font-weight="700" text-anchor="start">Color transform low -&gt; mid -&gt; high</text>
<text x="18.00" y="547.50" font-size="11" font-weight="400" text-anchor="middle" transform="rotate(-90 18.00 547.50)">Accuracy drop</text>
<line x1="90" y1="655" x2="890" y2="655" stroke="#111827" stroke-width="1" />
<line x1="90" y1="440" x2="90" y2="655" stroke="#111827" stroke-width="1" />
<line x1="86" y1="655.00" x2="90" y2="655.00" stroke="#111827" />
<text x="82.00" y="659.00" font-size="10" font-weight="400" text-anchor="end">-0.012</text>
<line x1="86" y1="612.00" x2="90" y2="612.00" stroke="#111827" />
<text x="82.00" y="616.00" font-size="10" font-weight="400" text-anchor="end">0.003</text>
<line x1="90" y1="612.00" x2="890" y2="612.00" stroke="#e5e7eb" stroke-width="1" />
<line x1="86" y1="569.00" x2="90" y2="569.00" stroke="#111827" />
<text x="82.00" y="573.00" font-size="10" font-weight="400" text-anchor="end">0.018</text>
<line x1="90" y1="569.00" x2="890" y2="569.00" stroke="#e5e7eb" stroke-width="1" />
<line x1="86" y1="526.00" x2="90" y2="526.00" stroke="#111827" />
<text x="82.00" y="530.00" font-size="10" font-weight="400" text-anchor="end">0.034</text>
<line x1="90" y1="526.00" x2="890" y2="526.00" stroke="#e5e7eb" stroke-width="1" />
<line x1="86" y1="483.00" x2="90" y2="483.00" stroke="#111827" />
<text x="82.00" y="487.00" font-size="10" font-weight="400" text-anchor="end">0.049</text>
<line x1="90" y1="483.00" x2="890" y2="483.00" stroke="#e5e7eb" stroke-width="1" />
<line x1="86" y1="440.00" x2="90" y2="440.00" stroke="#111827" />
<text x="82.00" y="444.00" font-size="10" font-weight="400" text-anchor="end">0.064</text>
<line x1="90" y1="621.00" x2="890" y2="621.00" stroke="#6b7280" stroke-dasharray="4 4" />
<polyline points="90.00,615.35 490.00,619.12 890.00,592.73" fill="none" stroke="#3b82f6" stroke-width="2.3" stroke-linejoin="round" />
<circle cx="90.00" cy="615.35" r="3.8" fill="#3b82f6" />
<circle cx="490.00" cy="619.12" r="3.8" fill="#3b82f6" />
<circle cx="890.00" cy="592.73" r="3.8" fill="#3b82f6" />
<polyline points="90.00,615.35 490.00,592.73 890.00,460.81" fill="none" stroke="#0f766e" stroke-width="2.3" stroke-linejoin="round" />
<circle cx="90.00" cy="615.35" r="3.8" fill="#0f766e" />
<circle cx="490.00" cy="592.73" r="3.8" fill="#0f766e" />
<circle cx="890.00" cy="460.81" r="3.8" fill="#0f766e" />
<polyline points="90.00,621.00 490.00,609.22 890.00,603.33" fill="none" stroke="#9333ea" stroke-width="2.3" stroke-linejoin="round" />
<circle cx="90.00" cy="621.00" r="3.8" fill="#9333ea" />
<circle cx="490.00" cy="609.22" r="3.8" fill="#9333ea" />
<circle cx="890.00" cy="603.33" r="3.8" fill="#9333ea" />
<polyline points="90.00,626.65 490.00,619.12 890.00,605.92" fill="none" stroke="#dc2626" stroke-width="2.3" stroke-linejoin="round" />
<circle cx="90.00" cy="626.65" r="3.8" fill="#dc2626" />
<circle cx="490.00" cy="619.12" r="3.8" fill="#dc2626" />
<circle cx="890.00" cy="605.92" r="3.8" fill="#dc2626" />
<polyline points="90.00,621.00 490.00,621.00 890.00,621.00" fill="none" stroke="#d97706" stroke-width="2.3" stroke-linejoin="round" />
<circle cx="90.00" cy="621.00" r="3.8" fill="#d97706" />
<circle cx="490.00" cy="621.00" r="3.8" fill="#d97706" />
<circle cx="890.00" cy="621.00" r="3.8" fill="#d97706" />
<polyline points="90.00,621.00 490.00,621.00 890.00,609.22" fill="none" stroke="#0891b2" stroke-width="2.3" stroke-linejoin="round" />
<circle cx="90.00" cy="621.00" r="3.8" fill="#0891b2" />
<circle cx="490.00" cy="621.00" r="3.8" fill="#0891b2" />
<circle cx="890.00" cy="609.22" r="3.8" fill="#0891b2" />
<polyline points="90.00,622.89 490.00,624.77 890.00,634.19" fill="none" stroke="#7c3aed" stroke-width="2.3" stroke-linejoin="round" />
<circle cx="90.00" cy="622.89" r="3.8" fill="#7c3aed" />
<circle cx="490.00" cy="624.77" r="3.8" fill="#7c3aed" />
<circle cx="890.00" cy="634.19" r="3.8" fill="#7c3aed" />
<polyline points="90.00,621.00 490.00,621.00 890.00,615.35" fill="none" stroke="#16a34a" stroke-width="2.3" stroke-linejoin="round" />
<circle cx="90.00" cy="621.00" r="3.8" fill="#16a34a" />
<circle cx="490.00" cy="621.00" r="3.8" fill="#16a34a" />
<circle cx="890.00" cy="615.35" r="3.8" fill="#16a34a" />
<polyline points="90.00,621.00 490.00,621.00 890.00,626.89" fill="none" stroke="#be123c" stroke-width="2.3" stroke-linejoin="round" />
<circle cx="90.00" cy="621.00" r="3.8" fill="#be123c" />
<circle cx="490.00" cy="621.00" r="3.8" fill="#be123c" />
<circle cx="890.00" cy="626.89" r="3.8" fill="#be123c" />
<text x="90.00" y="677.00" font-size="12" font-weight="400" text-anchor="middle">low</text>
<text x="490.00" y="677.00" font-size="12" font-weight="400" text-anchor="middle">mid</text>
<text x="890.00" y="677.00" font-size="12" font-weight="400" text-anchor="middle">high</text>
<line x1="915" y1="460" x2="933" y2="460" stroke="#3b82f6" stroke-width="3" />
<text x="939.00" y="464.00" font-size="11" font-weight="400" text-anchor="start">VideoMAE x SSV2</text>
<line x1="915" y1="482" x2="933" y2="482" stroke="#0f766e" stroke-width="3" />
<text x="939.00" y="486.00" font-size="11" font-weight="400" text-anchor="start">VideoMAE x UCF101</text>
<line x1="915" y1="504" x2="933" y2="504" stroke="#9333ea" stroke-width="3" />
<text x="939.00" y="508.00" font-size="11" font-weight="400" text-anchor="start">VideoMAE x Diving48</text>
<line x1="915" y1="526" x2="933" y2="526" stroke="#dc2626" stroke-width="3" />
<text x="939.00" y="530.00" font-size="11" font-weight="400" text-anchor="start">SlowFast R50 8x8 x SSV2</text>
<line x1="915" y1="548" x2="933" y2="548" stroke="#d97706" stroke-width="3" />
<text x="939.00" y="552.00" font-size="11" font-weight="400" text-anchor="start">SlowFast R50 8x8 x UCF101</text>
<line x1="915" y1="570" x2="933" y2="570" stroke="#0891b2" stroke-width="3" />
<text x="939.00" y="574.00" font-size="11" font-weight="400" text-anchor="start">SlowFast R50 8x8 x Diving48</text>
<line x1="915" y1="592" x2="933" y2="592" stroke="#7c3aed" stroke-width="3" />
<text x="939.00" y="596.00" font-size="11" font-weight="400" text-anchor="start">DINOv2 frame-mean x SSV2</text>
<line x1="915" y1="614" x2="933" y2="614" stroke="#16a34a" stroke-width="3" />
<text x="939.00" y="618.00" font-size="11" font-weight="400" text-anchor="start">DINOv2 frame-mean x UCF101</text>
<line x1="915" y1="636" x2="933" y2="636" stroke="#be123c" stroke-width="3" />
<text x="939.00" y="640.00" font-size="11" font-weight="400" text-anchor="start">DINOv2 frame-mean x Diving48</text>
<text x="90.00" y="765.00" font-size="14" font-weight="700" text-anchor="start">RGB quantization low -&gt; mid -&gt; high</text>
<text x="18.00" y="897.50" font-size="11" font-weight="400" text-anchor="middle" transform="rotate(-90 18.00 897.50)">Accuracy drop</text>
<line x1="90" y1="1005" x2="890" y2="1005" stroke="#111827" stroke-width="1" />
<line x1="90" y1="790" x2="90" y2="1005" stroke="#111827" stroke-width="1" />
<line x1="86" y1="1005.00" x2="90" y2="1005.00" stroke="#111827" />
<text x="82.00" y="1009.00" font-size="10" font-weight="400" text-anchor="end">-0.084</text>
<line x1="86" y1="962.00" x2="90" y2="962.00" stroke="#111827" />
<text x="82.00" y="966.00" font-size="10" font-weight="400" text-anchor="end">0.060</text>
<line x1="90" y1="962.00" x2="890" y2="962.00" stroke="#e5e7eb" stroke-width="1" />
<line x1="86" y1="919.00" x2="90" y2="919.00" stroke="#111827" />
<text x="82.00" y="923.00" font-size="10" font-weight="400" text-anchor="end">0.203</text>
<line x1="90" y1="919.00" x2="890" y2="919.00" stroke="#e5e7eb" stroke-width="1" />
<line x1="86" y1="876.00" x2="90" y2="876.00" stroke="#111827" />
<text x="82.00" y="880.00" font-size="10" font-weight="400" text-anchor="end">0.347</text>
<line x1="90" y1="876.00" x2="890" y2="876.00" stroke="#e5e7eb" stroke-width="1" />
<line x1="86" y1="833.00" x2="90" y2="833.00" stroke="#111827" />
<text x="82.00" y="837.00" font-size="10" font-weight="400" text-anchor="end">0.491</text>
<line x1="90" y1="833.00" x2="890" y2="833.00" stroke="#e5e7eb" stroke-width="1" />
<line x1="86" y1="790.00" x2="90" y2="790.00" stroke="#111827" />
<text x="82.00" y="794.00" font-size="10" font-weight="400" text-anchor="end">0.635</text>
<line x1="90" y1="979.83" x2="890" y2="979.83" stroke="#6b7280" stroke-dasharray="4 4" />
<polyline points="90.00,959.30 490.00,949.74 890.00,943.56" fill="none" stroke="#3b82f6" stroke-width="2.3" stroke-linejoin="round" />
<circle cx="90.00" cy="959.30" r="3.8" fill="#3b82f6" />
<circle cx="490.00" cy="949.74" r="3.8" fill="#3b82f6" />
<circle cx="890.00" cy="943.56" r="3.8" fill="#3b82f6" />
<polyline points="90.00,941.16 490.00,877.78 890.00,810.81" fill="none" stroke="#0f766e" stroke-width="2.3" stroke-linejoin="round" />
<circle cx="90.00" cy="941.16" r="3.8" fill="#0f766e" />
<circle cx="490.00" cy="877.78" r="3.8" fill="#0f766e" />
<circle cx="890.00" cy="810.81" r="3.8" fill="#0f766e" />
<polyline points="90.00,979.83 490.00,977.96 890.00,984.19" fill="none" stroke="#9333ea" stroke-width="2.3" stroke-linejoin="round" />
<circle cx="90.00" cy="979.83" r="3.8" fill="#9333ea" />
<circle cx="490.00" cy="977.96" r="3.8" fill="#9333ea" />
<circle cx="890.00" cy="984.19" r="3.8" fill="#9333ea" />
<polyline points="90.00,969.67 490.00,952.33 890.00,929.20" fill="none" stroke="#dc2626" stroke-width="2.3" stroke-linejoin="round" />
<circle cx="90.00" cy="969.67" r="3.8" fill="#dc2626" />
<circle cx="490.00" cy="952.33" r="3.8" fill="#dc2626" />
<circle cx="890.00" cy="929.20" r="3.8" fill="#dc2626" />
<polyline points="90.00,977.44 490.00,968.27 890.00,926.61" fill="none" stroke="#d97706" stroke-width="2.3" stroke-linejoin="round" />
<circle cx="90.00" cy="977.44" r="3.8" fill="#d97706" />
<circle cx="490.00" cy="968.27" r="3.8" fill="#d97706" />
<circle cx="890.00" cy="926.61" r="3.8" fill="#d97706" />
<polyline points="90.00,978.59 490.00,972.98 890.00,970.49" fill="none" stroke="#0891b2" stroke-width="2.3" stroke-linejoin="round" />
<circle cx="90.00" cy="978.59" r="3.8" fill="#0891b2" />
<circle cx="490.00" cy="972.98" r="3.8" fill="#0891b2" />
<circle cx="890.00" cy="970.49" r="3.8" fill="#0891b2" />
<polyline points="90.00,978.64 490.00,968.67 890.00,945.55" fill="none" stroke="#7c3aed" stroke-width="2.3" stroke-linejoin="round" />
<circle cx="90.00" cy="978.64" r="3.8" fill="#7c3aed" />
<circle cx="490.00" cy="968.67" r="3.8" fill="#7c3aed" />
<circle cx="890.00" cy="945.55" r="3.8" fill="#7c3aed" />
<polyline points="90.00,979.63 490.00,976.44 890.00,960.50" fill="none" stroke="#16a34a" stroke-width="2.3" stroke-linejoin="round" />
<circle cx="90.00" cy="979.63" r="3.8" fill="#16a34a" />
<circle cx="490.00" cy="976.44" r="3.8" fill="#16a34a" />
<circle cx="890.00" cy="960.50" r="3.8" fill="#16a34a" />
<polyline points="90.00,979.83 490.00,974.23 890.00,966.13" fill="none" stroke="#be123c" stroke-width="2.3" stroke-linejoin="round" />
<circle cx="90.00" cy="979.83" r="3.8" fill="#be123c" />
<circle cx="490.00" cy="974.23" r="3.8" fill="#be123c" />
<circle cx="890.00" cy="966.13" r="3.8" fill="#be123c" />
<text x="90.00" y="1027.00" font-size="12" font-weight="400" text-anchor="middle">low</text>
<text x="490.00" y="1027.00" font-size="12" font-weight="400" text-anchor="middle">mid</text>
<text x="890.00" y="1027.00" font-size="12" font-weight="400" text-anchor="middle">high</text>
<line x1="915" y1="810" x2="933" y2="810" stroke="#3b82f6" stroke-width="3" />
<text x="939.00" y="814.00" font-size="11" font-weight="400" text-anchor="start">VideoMAE x SSV2</text>
<line x1="915" y1="832" x2="933" y2="832" stroke="#0f766e" stroke-width="3" />
<text x="939.00" y="836.00" font-size="11" font-weight="400" text-anchor="start">VideoMAE x UCF101</text>
<line x1="915" y1="854" x2="933" y2="854" stroke="#9333ea" stroke-width="3" />
<text x="939.00" y="858.00" font-size="11" font-weight="400" text-anchor="start">VideoMAE x Diving48</text>
<line x1="915" y1="876" x2="933" y2="876" stroke="#dc2626" stroke-width="3" />
<text x="939.00" y="880.00" font-size="11" font-weight="400" text-anchor="start">SlowFast R50 8x8 x SSV2</text>
<line x1="915" y1="898" x2="933" y2="898" stroke="#d97706" stroke-width="3" />
<text x="939.00" y="902.00" font-size="11" font-weight="400" text-anchor="start">SlowFast R50 8x8 x UCF101</text>
<line x1="915" y1="920" x2="933" y2="920" stroke="#0891b2" stroke-width="3" />
<text x="939.00" y="924.00" font-size="11" font-weight="400" text-anchor="start">SlowFast R50 8x8 x Diving48</text>
<line x1="915" y1="942" x2="933" y2="942" stroke="#7c3aed" stroke-width="3" />
<text x="939.00" y="946.00" font-size="11" font-weight="400" text-anchor="start">DINOv2 frame-mean x SSV2</text>
<line x1="915" y1="964" x2="933" y2="964" stroke="#16a34a" stroke-width="3" />
<text x="939.00" y="968.00" font-size="11" font-weight="400" text-anchor="start">DINOv2 frame-mean x UCF101</text>
<line x1="915" y1="986" x2="933" y2="986" stroke="#be123c" stroke-width="3" />
<text x="939.00" y="990.00" font-size="11" font-weight="400" text-anchor="start">DINOv2 frame-mean x Diving48</text>
<text x="90.00" y="1115.00" font-size="14" font-weight="700" text-anchor="start">Solarization low -&gt; mid -&gt; high</text>
<text x="18.00" y="1247.50" font-size="11" font-weight="400" text-anchor="middle" transform="rotate(-90 18.00 1247.50)">Accuracy drop</text>
<line x1="90" y1="1355" x2="890" y2="1355" stroke="#111827" stroke-width="1" />
<line x1="90" y1="1140" x2="90" y2="1355" stroke="#111827" stroke-width="1" />
<line x1="86" y1="1355.00" x2="90" y2="1355.00" stroke="#111827" />
<text x="82.00" y="1359.00" font-size="10" font-weight="400" text-anchor="end">-0.063</text>
<line x1="86" y1="1312.00" x2="90" y2="1312.00" stroke="#111827" />
<text x="82.00" y="1316.00" font-size="10" font-weight="400" text-anchor="end">0.054</text>
<line x1="90" y1="1312.00" x2="890" y2="1312.00" stroke="#e5e7eb" stroke-width="1" />
<line x1="86" y1="1269.00" x2="90" y2="1269.00" stroke="#111827" />
<text x="82.00" y="1273.00" font-size="10" font-weight="400" text-anchor="end">0.171</text>
<line x1="90" y1="1269.00" x2="890" y2="1269.00" stroke="#e5e7eb" stroke-width="1" />
<line x1="86" y1="1226.00" x2="90" y2="1226.00" stroke="#111827" />
<text x="82.00" y="1230.00" font-size="10" font-weight="400" text-anchor="end">0.288</text>
<line x1="90" y1="1226.00" x2="890" y2="1226.00" stroke="#e5e7eb" stroke-width="1" />
<line x1="86" y1="1183.00" x2="90" y2="1183.00" stroke="#111827" />
<text x="82.00" y="1187.00" font-size="10" font-weight="400" text-anchor="end">0.406</text>
<line x1="90" y1="1183.00" x2="890" y2="1183.00" stroke="#e5e7eb" stroke-width="1" />
<line x1="86" y1="1140.00" x2="90" y2="1140.00" stroke="#111827" />
<text x="82.00" y="1144.00" font-size="10" font-weight="400" text-anchor="end">0.523</text>
<line x1="90" y1="1331.90" x2="890" y2="1331.90" stroke="#6b7280" stroke-dasharray="4 4" />
<polyline points="90.00,1309.63 490.00,1313.30 890.00,1304.24" fill="none" stroke="#3b82f6" stroke-width="2.3" stroke-linejoin="round" />
<circle cx="90.00" cy="1309.63" r="3.8" fill="#3b82f6" />
<circle cx="490.00" cy="1313.30" r="3.8" fill="#3b82f6" />
<circle cx="890.00" cy="1304.24" r="3.8" fill="#3b82f6" />
<polyline points="90.00,1260.67 490.00,1238.64 890.00,1160.81" fill="none" stroke="#0f766e" stroke-width="2.3" stroke-linejoin="round" />
<circle cx="90.00" cy="1260.67" r="3.8" fill="#0f766e" />
<circle cx="490.00" cy="1238.64" r="3.8" fill="#0f766e" />
<circle cx="890.00" cy="1160.81" r="3.8" fill="#0f766e" />
<polyline points="90.00,1334.19 490.00,1328.84 890.00,1326.54" fill="none" stroke="#9333ea" stroke-width="2.3" stroke-linejoin="round" />
<circle cx="90.00" cy="1334.19" r="3.8" fill="#9333ea" />
<circle cx="490.00" cy="1328.84" r="3.8" fill="#9333ea" />
<circle cx="890.00" cy="1326.54" r="3.8" fill="#9333ea" />
<polyline points="90.00,1301.79 490.00,1308.89 890.00,1273.89" fill="none" stroke="#dc2626" stroke-width="2.3" stroke-linejoin="round" />
<circle cx="90.00" cy="1301.79" r="3.8" fill="#dc2626" />
<circle cx="490.00" cy="1308.89" r="3.8" fill="#dc2626" />
<circle cx="890.00" cy="1273.89" r="3.8" fill="#dc2626" />
<polyline points="90.00,1308.89 490.00,1304.24 890.00,1234.73" fill="none" stroke="#d97706" stroke-width="2.3" stroke-linejoin="round" />
<circle cx="90.00" cy="1308.89" r="3.8" fill="#d97706" />
<circle cx="490.00" cy="1304.24" r="3.8" fill="#d97706" />
<circle cx="890.00" cy="1234.73" r="3.8" fill="#d97706" />
<polyline points="90.00,1326.54 490.00,1331.13 890.00,1315.07" fill="none" stroke="#0891b2" stroke-width="2.3" stroke-linejoin="round" />
<circle cx="90.00" cy="1326.54" r="3.8" fill="#0891b2" />
<circle cx="490.00" cy="1331.13" r="3.8" fill="#0891b2" />
<circle cx="890.00" cy="1315.07" r="3.8" fill="#0891b2" />
<polyline points="90.00,1320.64 490.00,1327.00 890.00,1300.57" fill="none" stroke="#7c3aed" stroke-width="2.3" stroke-linejoin="round" />
<circle cx="90.00" cy="1320.64" r="3.8" fill="#7c3aed" />
<circle cx="490.00" cy="1327.00" r="3.8" fill="#7c3aed" />
<circle cx="890.00" cy="1300.57" r="3.8" fill="#7c3aed" />
<polyline points="90.00,1327.25 490.00,1325.53 890.00,1289.31" fill="none" stroke="#16a34a" stroke-width="2.3" stroke-linejoin="round" />
<circle cx="90.00" cy="1327.25" r="3.8" fill="#16a34a" />
<circle cx="490.00" cy="1325.53" r="3.8" fill="#16a34a" />
<circle cx="890.00" cy="1289.31" r="3.8" fill="#16a34a" />
<polyline points="90.00,1328.84 490.00,1328.84 890.00,1312.78" fill="none" stroke="#be123c" stroke-width="2.3" stroke-linejoin="round" />
<circle cx="90.00" cy="1328.84" r="3.8" fill="#be123c" />
<circle cx="490.00" cy="1328.84" r="3.8" fill="#be123c" />
<circle cx="890.00" cy="1312.78" r="3.8" fill="#be123c" />
<text x="90.00" y="1377.00" font-size="12" font-weight="400" text-anchor="middle">low</text>
<text x="490.00" y="1377.00" font-size="12" font-weight="400" text-anchor="middle">mid</text>
<text x="890.00" y="1377.00" font-size="12" font-weight="400" text-anchor="middle">high</text>
<line x1="915" y1="1160" x2="933" y2="1160" stroke="#3b82f6" stroke-width="3" />
<text x="939.00" y="1164.00" font-size="11" font-weight="400" text-anchor="start">VideoMAE x SSV2</text>
<line x1="915" y1="1182" x2="933" y2="1182" stroke="#0f766e" stroke-width="3" />
<text x="939.00" y="1186.00" font-size="11" font-weight="400" text-anchor="start">VideoMAE x UCF101</text>
<line x1="915" y1="1204" x2="933" y2="1204" stroke="#9333ea" stroke-width="3" />
<text x="939.00" y="1208.00" font-size="11" font-weight="400" text-anchor="start">VideoMAE x Diving48</text>
<line x1="915" y1="1226" x2="933" y2="1226" stroke="#dc2626" stroke-width="3" />
<text x="939.00" y="1230.00" font-size="11" font-weight="400" text-anchor="start">SlowFast R50 8x8 x SSV2</text>
<line x1="915" y1="1248" x2="933" y2="1248" stroke="#d97706" stroke-width="3" />
<text x="939.00" y="1252.00" font-size="11" font-weight="400" text-anchor="start">SlowFast R50 8x8 x UCF101</text>
<line x1="915" y1="1270" x2="933" y2="1270" stroke="#0891b2" stroke-width="3" />
<text x="939.00" y="1274.00" font-size="11" font-weight="400" text-anchor="start">SlowFast R50 8x8 x Diving48</text>
<line x1="915" y1="1292" x2="933" y2="1292" stroke="#7c3aed" stroke-width="3" />
<text x="939.00" y="1296.00" font-size="11" font-weight="400" text-anchor="start">DINOv2 frame-mean x SSV2</text>
<line x1="915" y1="1314" x2="933" y2="1314" stroke="#16a34a" stroke-width="3" />
<text x="939.00" y="1318.00" font-size="11" font-weight="400" text-anchor="start">DINOv2 frame-mean x UCF101</text>
<line x1="915" y1="1336" x2="933" y2="1336" stroke="#be123c" stroke-width="3" />
<text x="939.00" y="1340.00" font-size="11" font-weight="400" text-anchor="start">DINOv2 frame-mean x Diving48</text>
</svg>
