<svg xmlns="http://www.w3.org/2000/svg" width="1280" height="790" viewBox="0 0 1280 790">
<rect width="100%" height="100%" fill="#ffffff" />
<style>text { font-family: Arial, Helvetica, sans-serif; fill: #111827; }</style>
<text x="640.00" y="28.00" font-size="18" font-weight="700" text-anchor="middle">Strength curves: mean cosine distance</text>
<text x="90.00" y="65.00" font-size="14" font-weight="700" text-anchor="start">Freeze-tail low -&gt; mid -&gt; high</text>
<text x="18.00" y="197.50" font-size="11" font-weight="400" text-anchor="middle" transform="rotate(-90 18.00 197.50)">Mean cosine distance</text>
<line x1="90" y1="305" x2="890" y2="305" stroke="#111827" stroke-width="1" />
<line x1="90" y1="90" x2="90" y2="305" stroke="#111827" stroke-width="1" />
<line x1="86" y1="305.00" x2="90" y2="305.00" stroke="#111827" />
<text x="82.00" y="309.00" font-size="10" font-weight="400" text-anchor="end">-0.032</text>
<line x1="86" y1="262.00" x2="90" y2="262.00" stroke="#111827" />
<text x="82.00" y="266.00" font-size="10" font-weight="400" text-anchor="end">0.034</text>
<line x1="90" y1="262.00" x2="890" y2="262.00" stroke="#e5e7eb" stroke-width="1" />
<line x1="86" y1="219.00" x2="90" y2="219.00" stroke="#111827" />
<text x="82.00" y="223.00" font-size="10" font-weight="400" text-anchor="end">0.100</text>
<line x1="90" y1="219.00" x2="890" y2="219.00" stroke="#e5e7eb" stroke-width="1" />
<line x1="86" y1="176.00" x2="90" y2="176.00" stroke="#111827" />
<text x="82.00" y="180.00" font-size="10" font-weight="400" text-anchor="end">0.165</text>
<line x1="90" y1="176.00" x2="890" y2="176.00" stroke="#e5e7eb" stroke-width="1" />
<line x1="86" y1="133.00" x2="90" y2="133.00" stroke="#111827" />
<text x="82.00" y="137.00" font-size="10" font-weight="400" text-anchor="end">0.231</text>
<line x1="90" y1="133.00" x2="890" y2="133.00" stroke="#e5e7eb" stroke-width="1" />
<line x1="86" y1="90.00" x2="90" y2="90.00" stroke="#111827" />
<text x="82.00" y="94.00" font-size="10" font-weight="400" text-anchor="end">0.297</text>
<line x1="90" y1="284.19" x2="890" y2="284.19" stroke="#6b7280" stroke-dasharray="4 4" />
<polyline points="90.00,283.51 490.00,280.93 890.00,275.97" fill="none" stroke="#3b82f6" stroke-width="2.3" stroke-linejoin="round" />
<circle cx="90.00" cy="283.51" r="3.8" fill="#3b82f6" />
<circle cx="490.00" cy="280.93" r="3.8" fill="#3b82f6" />
<circle cx="890.00" cy="275.97" r="3.8" fill="#3b82f6" />
<polyline points="90.00,283.91 490.00,282.64 890.00,280.04" fill="none" stroke="#0f766e" stroke-width="2.3" stroke-linejoin="round" />
<circle cx="90.00" cy="283.91" r="3.8" fill="#0f766e" />
<circle cx="490.00" cy="282.64" r="3.8" fill="#0f766e" />
<circle cx="890.00" cy="280.04" r="3.8" fill="#0f766e" />
<polyline points="90.00,281.62 490.00,268.77 890.00,246.99" fill="none" stroke="#9333ea" stroke-width="2.3" stroke-linejoin="round" />
<circle cx="90.00" cy="281.62" r="3.8" fill="#9333ea" />
<circle cx="490.00" cy="268.77" r="3.8" fill="#9333ea" />
<circle cx="890.00" cy="246.99" r="3.8" fill="#9333ea" />
<polyline points="90.00,256.30 490.00,205.33 890.00,133.78" fill="none" stroke="#dc2626" stroke-width="2.3" stroke-linejoin="round" />
<circle cx="90.00" cy="256.30" r="3.8" fill="#dc2626" />
<circle cx="490.00" cy="205.33" r="3.8" fill="#dc2626" />
<circle cx="890.00" cy="133.78" r="3.8" fill="#dc2626" />
<polyline points="90.00,265.39 490.00,227.54 890.00,168.58" fill="none" stroke="#d97706" stroke-width="2.3" stroke-linejoin="round" />
<circle cx="90.00" cy="265.39" r="3.8" fill="#d97706" />
<circle cx="490.00" cy="227.54" r="3.8" fill="#d97706" />
<circle cx="890.00" cy="168.58" r="3.8" fill="#d97706" />
<polyline points="90.00,254.67 490.00,194.58 890.00,110.81" fill="none" stroke="#0891b2" stroke-width="2.3" stroke-linejoin="round" />
<circle cx="90.00" cy="254.67" r="3.8" fill="#0891b2" />
<circle cx="490.00" cy="194.58" r="3.8" fill="#0891b2" />
<circle cx="890.00" cy="110.81" r="3.8" fill="#0891b2" />
<polyline points="90.00,282.30 490.00,270.54 890.00,248.09" fill="none" stroke="#7c3aed" stroke-width="2.3" stroke-linejoin="round" />
<circle cx="90.00" cy="282.30" r="3.8" fill="#7c3aed" />
<circle cx="490.00" cy="270.54" r="3.8" fill="#7c3aed" />
<circle cx="890.00" cy="248.09" r="3.8" fill="#7c3aed" />
<polyline points="90.00,283.40 490.00,278.85 890.00,270.18" fill="none" stroke="#16a34a" stroke-width="2.3" stroke-linejoin="round" />
<circle cx="90.00" cy="283.40" r="3.8" fill="#16a34a" />
<circle cx="490.00" cy="278.85" r="3.8" fill="#16a34a" />
<circle cx="890.00" cy="270.18" r="3.8" fill="#16a34a" />
<polyline points="90.00,281.74 490.00,268.10 890.00,243.05" fill="none" stroke="#be123c" stroke-width="2.3" stroke-linejoin="round" />
<circle cx="90.00" cy="281.74" r="3.8" fill="#be123c" />
<circle cx="490.00" cy="268.10" r="3.8" fill="#be123c" />
<circle cx="890.00" cy="243.05" r="3.8" fill="#be123c" />
<text x="90.00" y="327.00" font-size="12" font-weight="400" text-anchor="middle">low</text>
<text x="490.00" y="327.00" font-size="12" font-weight="400" text-anchor="middle">mid</text>
<text x="890.00" y="327.00" font-size="12" font-weight="400" text-anchor="middle">high</text>
<line x1="915" y1="110" x2="933" y2="110" stroke="#3b82f6" stroke-width="3" />
<text x="939.00" y="114.00" font-size="11" font-weight="400" text-anchor="start">VideoMAE x SSV2</text>
<line x1="915" y1="132" x2="933" y2="132" stroke="#0f766e" stroke-width="3" />
<text x="939.00" y="136.00" font-size="11" font-weight="400" text-anchor="start">VideoMAE x UCF101</text>
<line x1="915" y1="154" x2="933" y2="154" stroke="#9333ea" stroke-width="3" />
<text x="939.00" y="158.00" font-size="11" font-weight="400" text-anchor="start">VideoMAE x Diving48</text>
<line x1="915" y1="176" x2="933" y2="176" stroke="#dc2626" stroke-width="3" />
<text x="939.00" y="180.00" font-size="11" font-weight="400" text-anchor="start">SlowFast R50 8x8 x SSV2</text>
<line x1="915" y1="198" x2="933" y2="198" stroke="#d97706" stroke-width="3" />
<text x="939.00" y="202.00" font-size="11" font-weight="400" text-anchor="start">SlowFast R50 8x8 x UCF101</text>
<line x1="915" y1="220" x2="933" y2="220" stroke="#0891b2" stroke-width="3" />
<text x="939.00" y="224.00" font-size="11" font-weight="400" text-anchor="start">SlowFast R50 8x8 x Diving48</text>
<line x1="915" y1="242" x2="933" y2="242" stroke="#7c3aed" stroke-width="3" />
<text x="939.00" y="246.00" font-size="11" font-weight="400" text-anchor="start">DINOv2 frame-mean x SSV2</text>
<line x1="915" y1="264" x2="933" y2="264" stroke="#16a34a" stroke-width="3" />
<text x="939.00" y="268.00" font-size="11" font-weight="400" text-anchor="start">DINOv2 frame-mean x UCF101</text>
<line x1="915" y1="286" x2="933" y2="286" stroke="#be123c" stroke-width="3" />
<text x="939.00" y="290.00" font-size="11" font-weight="400" text-anchor="start">DINOv2 frame-mean x Diving48</text>
<text x="90.00" y="415.00" font-size="14" font-weight="700" text-anchor="start">Color transform low -&gt; mid -&gt; high</text>
<text x="18.00" y="547.50" font-size="11" font-weight="400" text-anchor="middle" transform="rotate(-90 18.00 547.50)">Mean cosine distance</text>
<line x1="90" y1="655" x2="890" y2="655" stroke="#111827" stroke-width="1" />
<line x1="90" y1="440" x2="90" y2="655" stroke="#111827" stroke-width="1" />
<line x1="86" y1="655.00" x2="90" y2="655.00" stroke="#111827" />
<text x="82.00" y="659.00" font-size="10" font-weight="400" text-anchor="end">-0.002</text>
<line x1="86" y1="612.00" x2="90" y2="612.00" stroke="#111827" />
<text x="82.00" y="616.00" font-size="10" font-weight="400" text-anchor="end">0.002</text>
<line x1="90" y1="612.00" x2="890" y2="612.00" stroke="#e5e7eb" stroke-width="1" />
<line x1="86" y1="569.00" x2="90" y2="569.00" stroke="#111827" />
<text x="82.00" y="573.00" font-size="10" font-weight="400" text-anchor="end">0.007</text>
<line x1="90" y1="569.00" x2="890" y2="569.00" stroke="#e5e7eb" stroke-width="1" />
<line x1="86" y1="526.00" x2="90" y2="526.00" stroke="#111827" />
<text x="82.00" y="530.00" font-size="10" font-weight="400" text-anchor="end">0.012</text>
<line x1="90" y1="526.00" x2="890" y2="526.00" stroke="#e5e7eb" stroke-width="1" />
<line x1="86" y1="483.00" x2="90" y2="483.00" stroke="#111827" />
<text x="82.00" y="487.00" font-size="10" font-weight="400" text-anchor="end">0.016</text>
<line x1="90" y1="483.00" x2="890" y2="483.00" stroke="#e5e7eb" stroke-width="1" />
<line x1="86" y1="440.00" x2="90" y2="440.00" stroke="#111827" />
<text x="82.00" y="444.00" font-size="10" font-weight="400" text-anchor="end">0.021</text>
<line x1="90" y1="634.19" x2="890" y2="634.19" stroke="#6b7280" stroke-dasharray="4 4" />
<polyline points="90.00,634.18 490.00,633.91 890.00,631.50" fill="none" stroke="#3b82f6" stroke-width="2.3" stroke-linejoin="round" />
<circle cx="90.00" cy="634.18" r="3.8" fill="#3b82f6" />
<circle cx="490.00" cy="633.91" r="3.8" fill="#3b82f6" />
<circle cx="890.00" cy="631.50" r="3.8" fill="#3b82f6" />
<polyline points="90.00,634.18 490.00,633.74 890.00,629.73" fill="none" stroke="#0f766e" stroke-width="2.3" stroke-linejoin="round" />
<circle cx="90.00" cy="634.18" r="3.8" fill="#0f766e" />
<circle cx="490.00" cy="633.74" r="3.8" fill="#0f766e" />
<circle cx="890.00" cy="629.73" r="3.8" fill="#0f766e" />
<polyline points="90.00,634.19 490.00,633.97 890.00,632.10" fill="none" stroke="#9333ea" stroke-width="2.3" stroke-linejoin="round" />
<circle cx="90.00" cy="634.19" r="3.8" fill="#9333ea" />
<circle cx="490.00" cy="633.97" r="3.8" fill="#9333ea" />
<circle cx="890.00" cy="632.10" r="3.8" fill="#9333ea" />
<polyline points="90.00,633.31 490.00,615.35 890.00,460.81" fill="none" stroke="#dc2626" stroke-width="2.3" stroke-linejoin="round" />
<circle cx="90.00" cy="633.31" r="3.8" fill="#dc2626" />
<circle cx="490.00" cy="615.35" r="3.8" fill="#dc2626" />
<circle cx="890.00" cy="460.81" r="3.8" fill="#dc2626" />
<polyline points="90.00,633.63 490.00,623.15 890.00,531.75" fill="none" stroke="#d97706" stroke-width="2.3" stroke-linejoin="round" />
<circle cx="90.00" cy="633.63" r="3.8" fill="#d97706" />
<circle cx="490.00" cy="623.15" r="3.8" fill="#d97706" />
<circle cx="890.00" cy="531.75" r="3.8" fill="#d97706" />
<polyline points="90.00,633.88 490.00,625.76 890.00,547.63" fill="none" stroke="#0891b2" stroke-width="2.3" stroke-linejoin="round" />
<circle cx="90.00" cy="633.88" r="3.8" fill="#0891b2" />
<circle cx="490.00" cy="625.76" r="3.8" fill="#0891b2" />
<circle cx="890.00" cy="547.63" r="3.8" fill="#0891b2" />
<polyline points="90.00,633.61 490.00,626.37 890.00,562.07" fill="none" stroke="#7c3aed" stroke-width="2.3" stroke-linejoin="round" />
<circle cx="90.00" cy="633.61" r="3.8" fill="#7c3aed" />
<circle cx="490.00" cy="626.37" r="3.8" fill="#7c3aed" />
<circle cx="890.00" cy="562.07" r="3.8" fill="#7c3aed" />
<polyline points="90.00,633.70 490.00,627.22 890.00,564.23" fill="none" stroke="#16a34a" stroke-width="2.3" stroke-linejoin="round" />
<circle cx="90.00" cy="633.70" r="3.8" fill="#16a34a" />
<circle cx="490.00" cy="627.22" r="3.8" fill="#16a34a" />
<circle cx="890.00" cy="564.23" r="3.8" fill="#16a34a" />
<polyline points="90.00,633.81 490.00,628.14 890.00,572.60" fill="none" stroke="#be123c" stroke-width="2.3" stroke-linejoin="round" />
<circle cx="90.00" cy="633.81" r="3.8" fill="#be123c" />
<circle cx="490.00" cy="628.14" r="3.8" fill="#be123c" />
<circle cx="890.00" cy="572.60" r="3.8" fill="#be123c" />
<text x="90.00" y="677.00" font-size="12" font-weight="400" text-anchor="middle">low</text>
<text x="490.00" y="677.00" font-size="12" font-weight="400" text-anchor="middle">mid</text>
<text x="890.00" y="677.00" font-size="12" font-weight="400" text-anchor="middle">high</text>
<line x1="915" y1="460" x2="933" y2="460" stroke="#3b82f6" stroke-width="3" />
<text x="939.00" y="464.00" font-size="11" font-weight="400" text-anchor="start">VideoMAE x SSV2</text>
<line x1="915" y1="482" x2="933" y2="482" stroke="#0f766e" stroke-width="3" />
<text x="939.00" y="486.00" font-size="11" font-weight="400" text-anchor="start">VideoMAE x UCF101</text>
<line x1="915" y1="504" x2="933" y2="504" stroke="#9333ea" stroke-width="3" />
<text x="939.00" y="508.00" font-size="11" font-weight="400" text-anchor="start">VideoMAE x Diving48</text>
<line x1="915" y1="526" x2="933" y2="526" stroke="#dc2626" stroke-width="3" />
<text x="939.00" y="530.00" font-size="11" font-weight="400" text-anchor="start">SlowFast R50 8x8 x SSV2</text>
<line x1="915" y1="548" x2="933" y2="548" stroke="#d97706" stroke-width="3" />
<text x="939.00" y="552.00" font-size="11" font-weight="400" text-anchor="start">SlowFast R50 8x8 x UCF101</text>
<line x1="915" y1="570" x2="933" y2="570" stroke="#0891b2" stroke-width="3" />
<text x="939.00" y="574.00" font-size="11" font-weight="400" text-anchor="start">SlowFast R50 8x8 x Diving48</text>
<line x1="915" y1="592" x2="933" y2="592" stroke="#7c3aed" stroke-width="3" />
<text x="939.00" y="596.00" font-size="11" font-weight="400" text-anchor="start">DINOv2 frame-mean x SSV2</text>
<line x1="915" y1="614" x2="933" y2="614" stroke="#16a34a" stroke-width="3" />
<text x="939.00" y="618.00" font-size="11" font-weight="400" text-anchor="start">DINOv2 frame-mean x UCF101</text>
<line x1="915" y1="636" x2="933" y2="636" stroke="#be123c" stroke-width="3" />
<text x="939.00" y="640.00" font-size="11" font-weight="400" text-anchor="start">DINOv2 frame-mean x Diving48</text>
</svg>
