<svg xmlns="http://www.w3.org/2000/svg" width="1280" height="620" viewBox="0 0 1280 620">
<rect width="100%" height="100%" fill="#ffffff" />
<style>text { font-family: Arial, Helvetica, sans-serif; fill: #111827; }</style>
<text x="640.00" y="28.00" font-size="18" font-weight="700" text-anchor="middle">Fixed-mid perturbation: linear-probe accuracy drop</text>
<text x="18.00" y="302.50" font-size="12" font-weight="400" text-anchor="middle" transform="rotate(-90 18.00 302.50)">Accuracy drop</text>
<line x1="90" y1="500" x2="1250" y2="500" stroke="#111827" stroke-width="1" />
<line x1="90" y1="105" x2="90" y2="500" stroke="#111827" stroke-width="1" />
<line x1="86" y1="500.00" x2="90" y2="500.00" stroke="#111827" />
<text x="82.00" y="504.00" font-size="10" font-weight="400" text-anchor="end">-0.046</text>
<line x1="86" y1="421.00" x2="90" y2="421.00" stroke="#111827" />
<text x="82.00" y="425.00" font-size="10" font-weight="400" text-anchor="end">0.040</text>
<line x1="90" y1="421.00" x2="1250" y2="421.00" stroke="#e5e7eb" stroke-width="1" />
<line x1="86" y1="342.00" x2="90" y2="342.00" stroke="#111827" />
<text x="82.00" y="346.00" font-size="10" font-weight="400" text-anchor="end">0.126</text>
<line x1="90" y1="342.00" x2="1250" y2="342.00" stroke="#e5e7eb" stroke-width="1" />
<line x1="86" y1="263.00" x2="90" y2="263.00" stroke="#111827" />
<text x="82.00" y="267.00" font-size="10" font-weight="400" text-anchor="end">0.211</text>
<line x1="90" y1="263.00" x2="1250" y2="263.00" stroke="#e5e7eb" stroke-width="1" />
<line x1="86" y1="184.00" x2="90" y2="184.00" stroke="#111827" />
<text x="82.00" y="188.00" font-size="10" font-weight="400" text-anchor="end">0.297</text>
<line x1="90" y1="184.00" x2="1250" y2="184.00" stroke="#e5e7eb" stroke-width="1" />
<line x1="86" y1="105.00" x2="90" y2="105.00" stroke="#111827" />
<text x="82.00" y="109.00" font-size="10" font-weight="400" text-anchor="end">0.383</text>
<line x1="90" y1="457.93" x2="1250" y2="457.93" stroke="#6b7280" stroke-dasharray="4 4" />
<rect x="107.61" y="291.97" width="21.48" height="165.96" fill="#2563eb" />
<rect x="131.67" y="427.20" width="21.48" height="30.73" fill="#ea580c" />
<rect x="155.73" y="365.12" width="21.48" height="92.81" fill="#16a34a" />
<rect x="179.79" y="411.22" width="21.48" height="46.71" fill="#9333ea" />
<text x="154.44" y="582.00" font-size="10" font-weight="400" text-anchor="end" transform="rotate(-35 154.44 582.00)">VideoMAE x SSV2</text>
<rect x="236.50" y="228.05" width="21.48" height="229.88" fill="#2563eb" />
<rect x="260.56" y="188.71" width="21.48" height="269.22" fill="#ea580c" />
<rect x="284.62" y="143.23" width="21.48" height="314.71" fill="#16a34a" />
<rect x="308.68" y="223.75" width="21.48" height="234.19" fill="#9333ea" />
<text x="283.33" y="582.00" font-size="10" font-weight="400" text-anchor="end" transform="rotate(-35 283.33 582.00)">VideoMAE x UCF101</text>
<rect x="365.39" y="425.28" width="21.48" height="32.65" fill="#2563eb" />
<rect x="389.45" y="444.49" width="21.48" height="13.45" fill="#ea580c" />
<rect x="413.51" y="452.17" width="21.48" height="5.76" fill="#16a34a" />
<rect x="437.57" y="450.25" width="21.48" height="7.68" fill="#9333ea" />
<text x="412.22" y="582.00" font-size="10" font-weight="400" text-anchor="end" transform="rotate(-35 412.22 582.00)">VideoMAE x Diving48</text>
<rect x="494.28" y="268.62" width="21.48" height="189.32" fill="#2563eb" />
<rect x="518.34" y="457.32" width="21.48" height="0.61" fill="#ea580c" />
<rect x="542.40" y="373.11" width="21.48" height="84.82" fill="#16a34a" />
<rect x="566.46" y="400.15" width="21.48" height="57.78" fill="#9333ea" />
<text x="541.11" y="582.00" font-size="10" font-weight="400" text-anchor="end" transform="rotate(-35 541.11 582.00)">SlowFast R50 8x8 x SSV2</text>
<rect x="623.17" y="415.52" width="21.48" height="42.41" fill="#2563eb" />
<rect x="647.23" y="445.02" width="21.48" height="12.91" fill="#ea580c" />
<rect x="671.29" y="422.28" width="21.48" height="35.65" fill="#16a34a" />
<rect x="695.35" y="388.48" width="21.48" height="69.46" fill="#9333ea" />
<text x="670.00" y="582.00" font-size="10" font-weight="400" text-anchor="end" transform="rotate(-35 670.00 582.00)">SlowFast R50 8x8 x UCF101</text>
<rect x="752.06" y="436.80" width="21.48" height="21.13" fill="#2563eb" />
<rect x="776.12" y="457.93" width="21.48" height="3.84" fill="#ea580c" />
<rect x="800.18" y="436.80" width="21.48" height="21.13" fill="#16a34a" />
<rect x="824.24" y="456.01" width="21.48" height="1.92" fill="#9333ea" />
<text x="798.89" y="582.00" font-size="10" font-weight="400" text-anchor="end" transform="rotate(-35 798.89 582.00)">SlowFast R50 8x8 x Diving48</text>
<rect x="880.95" y="457.93" width="21.48" height="0.00" fill="#2563eb" />
<rect x="905.01" y="451.79" width="21.48" height="6.15" fill="#ea580c" />
<rect x="929.07" y="423.51" width="21.48" height="34.42" fill="#16a34a" />
<rect x="953.13" y="445.64" width="21.48" height="12.29" fill="#9333ea" />
<text x="927.78" y="582.00" font-size="10" font-weight="400" text-anchor="end" transform="rotate(-35 927.78 582.00)">DINOv2 frame-mean x SSV2</text>
<rect x="1009.84" y="457.93" width="21.48" height="0.00" fill="#2563eb" />
<rect x="1033.90" y="456.09" width="21.48" height="1.84" fill="#ea580c" />
<rect x="1057.96" y="447.48" width="21.48" height="10.45" fill="#16a34a" />
<rect x="1082.01" y="441.95" width="21.48" height="15.98" fill="#9333ea" />
<text x="1056.67" y="582.00" font-size="10" font-weight="400" text-anchor="end" transform="rotate(-35 1056.67 582.00)">DINOv2 frame-mean x UCF101</text>
<rect x="1138.73" y="457.93" width="21.48" height="0.00" fill="#2563eb" />
<rect x="1162.79" y="454.09" width="21.48" height="3.84" fill="#ea580c" />
<rect x="1186.84" y="440.65" width="21.48" height="17.29" fill="#16a34a" />
<rect x="1210.90" y="450.25" width="21.48" height="7.68" fill="#9333ea" />
<text x="1185.56" y="582.00" font-size="10" font-weight="400" text-anchor="end" transform="rotate(-35 1185.56 582.00)">DINOv2 frame-mean x Diving48</text>
<rect x="102" y="58" width="12" height="12" fill="#2563eb" />
<text x="120.00" y="68.00" font-size="12" font-weight="400" text-anchor="start">temporal-shuffle-mid</text>
<rect x="372" y="58" width="12" height="12" fill="#ea580c" />
<text x="390.00" y="68.00" font-size="12" font-weight="400" text-anchor="start">spatial-blur-mid</text>
<rect x="642" y="58" width="12" height="12" fill="#16a34a" />
<text x="660.00" y="68.00" font-size="12" font-weight="400" text-anchor="start">rgb-quantization-mid</text>
<rect x="912" y="58" width="12" height="12" fill="#9333ea" />
<text x="930.00" y="68.00" font-size="12" font-weight="400" text-anchor="start">solarization-mid</text>
</svg>
