<svg xmlns="http://www.w3.org/2000/svg" width="1280" height="560" viewBox="0 0 1280 560">
<rect width="100%" height="100%" fill="#ffffff" />
<style>text { font-family: Arial, Helvetica, sans-serif; fill: #111827; }</style>
<text x="640.00" y="28.00" font-size="18" font-weight="700" text-anchor="middle">Fixed-mid perturbation: linear-probe accuracy drop</text>
<text x="18.00" y="247.50" font-size="12" font-weight="400" text-anchor="middle" transform="rotate(-90 18.00 247.50)">Accuracy drop</text>
<line x1="90" y1="440" x2="1250" y2="440" stroke="#111827" stroke-width="1" />
<line x1="90" y1="55" x2="90" y2="440" stroke="#111827" stroke-width="1" />
<line x1="86" y1="440.00" x2="90" y2="440.00" stroke="#111827" />
<text x="82.00" y="444.00" font-size="10" font-weight="400" text-anchor="end">-0.044</text>
<line x1="86" y1="363.00" x2="90" y2="363.00" stroke="#111827" />
<text x="82.00" y="367.00" font-size="10" font-weight="400" text-anchor="end">0.030</text>
<line x1="90" y1="363.00" x2="1250" y2="363.00" stroke="#e5e7eb" stroke-width="1" />
<line x1="86" y1="286.00" x2="90" y2="286.00" stroke="#111827" />
<text x="82.00" y="290.00" font-size="10" font-weight="400" text-anchor="end">0.105</text>
<line x1="90" y1="286.00" x2="1250" y2="286.00" stroke="#e5e7eb" stroke-width="1" />
<line x1="86" y1="209.00" x2="90" y2="209.00" stroke="#111827" />
<text x="82.00" y="213.00" font-size="10" font-weight="400" text-anchor="end">0.179</text>
<line x1="90" y1="209.00" x2="1250" y2="209.00" stroke="#e5e7eb" stroke-width="1" />
<line x1="86" y1="132.00" x2="90" y2="132.00" stroke="#111827" />
<text x="82.00" y="136.00" font-size="10" font-weight="400" text-anchor="end">0.254</text>
<line x1="90" y1="132.00" x2="1250" y2="132.00" stroke="#e5e7eb" stroke-width="1" />
<line x1="86" y1="55.00" x2="90" y2="55.00" stroke="#111827" />
<text x="82.00" y="59.00" font-size="10" font-weight="400" text-anchor="end">0.328</text>
<line x1="90" y1="394.13" x2="1250" y2="394.13" stroke="#6b7280" stroke-dasharray="4 4" />
<rect x="119.00" y="211.49" width="32.22" height="182.64" fill="#2563eb" />
<rect x="157.67" y="365.87" width="32.22" height="28.26" fill="#ea580c" />
<text x="154.44" y="522.00" font-size="10" font-weight="400" text-anchor="end" transform="rotate(-35 154.44 522.00)">VideoMAE x SSV2</text>
<rect x="247.89" y="136.37" width="32.22" height="257.76" fill="#2563eb" />
<rect x="286.56" y="92.26" width="32.22" height="301.87" fill="#ea580c" />
<text x="283.33" y="522.00" font-size="10" font-weight="400" text-anchor="end" transform="rotate(-35 283.33 522.00)">VideoMAE x UCF101</text>
<rect x="376.78" y="355.36" width="32.22" height="38.77" fill="#2563eb" />
<rect x="415.44" y="374.74" width="32.22" height="19.38" fill="#ea580c" />
<text x="412.22" y="522.00" font-size="10" font-weight="400" text-anchor="end" transform="rotate(-35 412.22 522.00)">VideoMAE x Diving48</text>
<rect x="505.67" y="181.85" width="32.22" height="212.27" fill="#2563eb" />
<rect x="544.33" y="393.44" width="32.22" height="0.69" fill="#ea580c" />
<text x="541.11" y="522.00" font-size="10" font-weight="400" text-anchor="end" transform="rotate(-35 541.11 522.00)">SlowFast R50 8x8 x SSV2</text>
<rect x="634.56" y="346.57" width="32.22" height="47.55" fill="#2563eb" />
<rect x="673.22" y="379.65" width="32.22" height="14.47" fill="#ea580c" />
<text x="670.00" y="522.00" font-size="10" font-weight="400" text-anchor="end" transform="rotate(-35 670.00 522.00)">SlowFast R50 8x8 x UCF101</text>
<rect x="763.44" y="374.74" width="32.22" height="19.38" fill="#2563eb" />
<rect x="802.11" y="394.13" width="32.22" height="8.61" fill="#ea580c" />
<text x="798.89" y="522.00" font-size="10" font-weight="400" text-anchor="end" transform="rotate(-35 798.89 522.00)">SlowFast R50 8x8 x Diving48</text>
<rect x="892.33" y="394.13" width="32.22" height="0.00" fill="#2563eb" />
<rect x="931.00" y="387.23" width="32.22" height="6.89" fill="#ea580c" />
<text x="927.78" y="522.00" font-size="10" font-weight="400" text-anchor="end" transform="rotate(-35 927.78 522.00)">DINOv2 frame-mean x SSV2</text>
<rect x="1021.22" y="394.13" width="32.22" height="0.00" fill="#2563eb" />
<rect x="1059.89" y="392.06" width="32.22" height="2.07" fill="#ea580c" />
<text x="1056.67" y="522.00" font-size="10" font-weight="400" text-anchor="end" transform="rotate(-35 1056.67 522.00)">DINOv2 frame-mean x UCF101</text>
<rect x="1150.11" y="394.13" width="32.22" height="0.00" fill="#2563eb" />
<rect x="1188.78" y="391.97" width="32.22" height="2.15" fill="#ea580c" />
<text x="1185.56" y="522.00" font-size="10" font-weight="400" text-anchor="end" transform="rotate(-35 1185.56 522.00)">DINOv2 frame-mean x Diving48</text>
<rect x="102" y="38" width="12" height="12" fill="#2563eb" />
<text x="120.00" y="48.00" font-size="12" font-weight="400" text-anchor="start">temporal-shuffle-mid</text>
<rect x="102" y="58" width="12" height="12" fill="#ea580c" />
<text x="120.00" y="68.00" font-size="12" font-weight="400" text-anchor="start">spatial-blur-mid</text>
</svg>
