<svg xmlns="http://www.w3.org/2000/svg" width="980" height="760" viewBox="0 0 980 760">
<rect width="100%" height="100%" fill="#ffffff" />
<style>text { font-family: Arial, Helvetica, sans-serif; fill: #111827; }</style>
<text x="490.00" y="28.00" font-size="18" font-weight="700" text-anchor="middle">Strength curves: linear-probe accuracy drop</text>
<text x="90.00" y="65.00" font-size="14" font-weight="700" text-anchor="start">Freeze-tail low -&gt; mid -&gt; high</text>
<text x="18.00" y="192.50" font-size="11" font-weight="400" text-anchor="middle" transform="rotate(-90 18.00 192.50)">Accuracy drop</text>
<line x1="90" y1="295" x2="720" y2="295" stroke="#111827" stroke-width="1" />
<line x1="90" y1="90" x2="90" y2="295" stroke="#111827" stroke-width="1" />
<line x1="86" y1="295.00" x2="90" y2="295.00" stroke="#111827" />
<text x="82.00" y="299.00" font-size="10" font-weight="400" text-anchor="end">-0.026</text>
<line x1="86" y1="254.00" x2="90" y2="254.00" stroke="#111827" />
<text x="82.00" y="258.00" font-size="10" font-weight="400" text-anchor="end">0.023</text>
<line x1="90" y1="254.00" x2="720" y2="254.00" stroke="#e5e7eb" stroke-width="1" />
<line x1="86" y1="213.00" x2="90" y2="213.00" stroke="#111827" />
<text x="82.00" y="217.00" font-size="10" font-weight="400" text-anchor="end">0.072</text>
<line x1="90" y1="213.00" x2="720" y2="213.00" stroke="#e5e7eb" stroke-width="1" />
<line x1="86" y1="172.00" x2="90" y2="172.00" stroke="#111827" />
<text x="82.00" y="176.00" font-size="10" font-weight="400" text-anchor="end">0.120</text>
<line x1="90" y1="172.00" x2="720" y2="172.00" stroke="#e5e7eb" stroke-width="1" />
<line x1="86" y1="131.00" x2="90" y2="131.00" stroke="#111827" />
<text x="82.00" y="135.00" font-size="10" font-weight="400" text-anchor="end">0.169</text>
<line x1="90" y1="131.00" x2="720" y2="131.00" stroke="#e5e7eb" stroke-width="1" />
<line x1="86" y1="90.00" x2="90" y2="90.00" stroke="#111827" />
<text x="82.00" y="94.00" font-size="10" font-weight="400" text-anchor="end">0.218</text>
<line x1="90" y1="273.47" x2="720" y2="273.47" stroke="#6b7280" stroke-dasharray="4 4" />
<polyline points="90.00,256.04 405.00,231.30 720.00,174.51" fill="none" stroke="#3b82f6" stroke-width="2.3" stroke-linejoin="round" />
<circle cx="90.00" cy="256.04" r="3.8" fill="#3b82f6" />
<circle cx="405.00" cy="231.30" r="3.8" fill="#3b82f6" />
<circle cx="720.00" cy="174.51" r="3.8" fill="#3b82f6" />
<polyline points="90.00,267.29 405.00,236.36 720.00,160.45" fill="none" stroke="#0f766e" stroke-width="2.3" stroke-linejoin="round" />
<circle cx="90.00" cy="267.29" r="3.8" fill="#0f766e" />
<circle cx="405.00" cy="236.36" r="3.8" fill="#0f766e" />
<circle cx="720.00" cy="160.45" r="3.8" fill="#0f766e" />
<polyline points="90.00,244.80 405.00,192.50 720.00,109.84" fill="none" stroke="#dc2626" stroke-width="2.3" stroke-linejoin="round" />
<circle cx="90.00" cy="244.80" r="3.8" fill="#dc2626" />
<circle cx="405.00" cy="192.50" r="3.8" fill="#dc2626" />
<circle cx="720.00" cy="109.84" r="3.8" fill="#dc2626" />
<polyline points="90.00,270.66 405.00,265.60 720.00,240.86" fill="none" stroke="#d97706" stroke-width="2.3" stroke-linejoin="round" />
<circle cx="90.00" cy="270.66" r="3.8" fill="#d97706" />
<circle cx="405.00" cy="265.60" r="3.8" fill="#d97706" />
<circle cx="720.00" cy="240.86" r="3.8" fill="#d97706" />
<polyline points="90.00,275.16 405.00,268.98 720.00,256.04" fill="none" stroke="#7c3aed" stroke-width="2.3" stroke-linejoin="round" />
<circle cx="90.00" cy="275.16" r="3.8" fill="#7c3aed" />
<circle cx="405.00" cy="268.98" r="3.8" fill="#7c3aed" />
<circle cx="720.00" cy="256.04" r="3.8" fill="#7c3aed" />
<polyline points="90.00,272.35 405.00,273.47 720.00,271.23" fill="none" stroke="#16a34a" stroke-width="2.3" stroke-linejoin="round" />
<circle cx="90.00" cy="272.35" r="3.8" fill="#16a34a" />
<circle cx="405.00" cy="273.47" r="3.8" fill="#16a34a" />
<circle cx="720.00" cy="271.23" r="3.8" fill="#16a34a" />
<text x="90.00" y="317.00" font-size="12" font-weight="400" text-anchor="middle">low</text>
<text x="405.00" y="317.00" font-size="12" font-weight="400" text-anchor="middle">mid</text>
<text x="720.00" y="317.00" font-size="12" font-weight="400" text-anchor="middle">high</text>
<line x1="745" y1="110" x2="763" y2="110" stroke="#3b82f6" stroke-width="3" />
<text x="769.00" y="114.00" font-size="11" font-weight="400" text-anchor="start">VideoMAE x SSV2</text>
<line x1="745" y1="132" x2="763" y2="132" stroke="#0f766e" stroke-width="3" />
<text x="769.00" y="136.00" font-size="11" font-weight="400" text-anchor="start">VideoMAE x UCF101</text>
<line x1="745" y1="154" x2="763" y2="154" stroke="#dc2626" stroke-width="3" />
<text x="769.00" y="158.00" font-size="11" font-weight="400" text-anchor="start">SlowFast R50 8x8 x SSV2</text>
<line x1="745" y1="176" x2="763" y2="176" stroke="#d97706" stroke-width="3" />
<text x="769.00" y="180.00" font-size="11" font-weight="400" text-anchor="start">SlowFast R50 8x8 x UCF101</text>
<line x1="745" y1="198" x2="763" y2="198" stroke="#7c3aed" stroke-width="3" />
<text x="769.00" y="202.00" font-size="11" font-weight="400" text-anchor="start">DINOv2 frame-mean x SSV2</text>
<line x1="745" y1="220" x2="763" y2="220" stroke="#16a34a" stroke-width="3" />
<text x="769.00" y="224.00" font-size="11" font-weight="400" text-anchor="start">DINOv2 frame-mean x UCF101</text>
<text x="90.00" y="415.00" font-size="14" font-weight="700" text-anchor="start">Color transform low -&gt; mid -&gt; high</text>
<text x="18.00" y="542.50" font-size="11" font-weight="400" text-anchor="middle" transform="rotate(-90 18.00 542.50)">Accuracy drop</text>
<line x1="90" y1="645" x2="720" y2="645" stroke="#111827" stroke-width="1" />
<line x1="90" y1="440" x2="90" y2="645" stroke="#111827" stroke-width="1" />
<line x1="86" y1="645.00" x2="90" y2="645.00" stroke="#111827" />
<text x="82.00" y="649.00" font-size="10" font-weight="400" text-anchor="end">-0.012</text>
<line x1="86" y1="604.00" x2="90" y2="604.00" stroke="#111827" />
<text x="82.00" y="608.00" font-size="10" font-weight="400" text-anchor="end">0.003</text>
<line x1="90" y1="604.00" x2="720" y2="604.00" stroke="#e5e7eb" stroke-width="1" />
<line x1="86" y1="563.00" x2="90" y2="563.00" stroke="#111827" />
<text x="82.00" y="567.00" font-size="10" font-weight="400" text-anchor="end">0.018</text>
<line x1="90" y1="563.00" x2="720" y2="563.00" stroke="#e5e7eb" stroke-width="1" />
<line x1="86" y1="522.00" x2="90" y2="522.00" stroke="#111827" />
<text x="82.00" y="526.00" font-size="10" font-weight="400" text-anchor="end">0.034</text>
<line x1="90" y1="522.00" x2="720" y2="522.00" stroke="#e5e7eb" stroke-width="1" />
<line x1="86" y1="481.00" x2="90" y2="481.00" stroke="#111827" />
<text x="82.00" y="485.00" font-size="10" font-weight="400" text-anchor="end">0.049</text>
<line x1="90" y1="481.00" x2="720" y2="481.00" stroke="#e5e7eb" stroke-width="1" />
<line x1="86" y1="440.00" x2="90" y2="440.00" stroke="#111827" />
<text x="82.00" y="444.00" font-size="10" font-weight="400" text-anchor="end">0.064</text>
<line x1="90" y1="612.58" x2="720" y2="612.58" stroke="#6b7280" stroke-dasharray="4 4" />
<polyline points="90.00,610.79 405.00,608.99 720.00,592.82" fill="none" stroke="#3b82f6" stroke-width="2.3" stroke-linejoin="round" />
<circle cx="90.00" cy="610.79" r="3.8" fill="#3b82f6" />
<circle cx="405.00" cy="608.99" r="3.8" fill="#3b82f6" />
<circle cx="720.00" cy="592.82" r="3.8" fill="#3b82f6" />
<polyline points="90.00,607.19 405.00,585.63 720.00,459.84" fill="none" stroke="#0f766e" stroke-width="2.3" stroke-linejoin="round" />
<circle cx="90.00" cy="607.19" r="3.8" fill="#0f766e" />
<circle cx="405.00" cy="585.63" r="3.8" fill="#0f766e" />
<circle cx="720.00" cy="459.84" r="3.8" fill="#0f766e" />
<polyline points="90.00,617.97 405.00,610.79 720.00,598.21" fill="none" stroke="#dc2626" stroke-width="2.3" stroke-linejoin="round" />
<circle cx="90.00" cy="617.97" r="3.8" fill="#dc2626" />
<circle cx="405.00" cy="610.79" r="3.8" fill="#dc2626" />
<circle cx="720.00" cy="598.21" r="3.8" fill="#dc2626" />
<polyline points="90.00,612.58 405.00,612.58 720.00,612.58" fill="none" stroke="#d97706" stroke-width="2.3" stroke-linejoin="round" />
<circle cx="90.00" cy="612.58" r="3.8" fill="#d97706" />
<circle cx="405.00" cy="612.58" r="3.8" fill="#d97706" />
<circle cx="720.00" cy="612.58" r="3.8" fill="#d97706" />
<polyline points="90.00,614.38 405.00,616.18 720.00,625.16" fill="none" stroke="#7c3aed" stroke-width="2.3" stroke-linejoin="round" />
<circle cx="90.00" cy="614.38" r="3.8" fill="#7c3aed" />
<circle cx="405.00" cy="616.18" r="3.8" fill="#7c3aed" />
<circle cx="720.00" cy="625.16" r="3.8" fill="#7c3aed" />
<polyline points="90.00,612.58 405.00,612.58 720.00,607.19" fill="none" stroke="#16a34a" stroke-width="2.3" stroke-linejoin="round" />
<circle cx="90.00" cy="612.58" r="3.8" fill="#16a34a" />
<circle cx="405.00" cy="612.58" r="3.8" fill="#16a34a" />
<circle cx="720.00" cy="607.19" r="3.8" fill="#16a34a" />
<text x="90.00" y="667.00" font-size="12" font-weight="400" text-anchor="middle">low</text>
<text x="405.00" y="667.00" font-size="12" font-weight="400" text-anchor="middle">mid</text>
<text x="720.00" y="667.00" font-size="12" font-weight="400" text-anchor="middle">high</text>
<line x1="745" y1="460" x2="763" y2="460" stroke="#3b82f6" stroke-width="3" />
<text x="769.00" y="464.00" font-size="11" font-weight="400" text-anchor="start">VideoMAE x SSV2</text>
<line x1="745" y1="482" x2="763" y2="482" stroke="#0f766e" stroke-width="3" />
<text x="769.00" y="486.00" font-size="11" font-weight="400" text-anchor="start">VideoMAE x UCF101</text>
<line x1="745" y1="504" x2="763" y2="504" stroke="#dc2626" stroke-width="3" />
<text x="769.00" y="508.00" font-size="11" font-weight="400" text-anchor="start">SlowFast R50 8x8 x SSV2</text>
<line x1="745" y1="526" x2="763" y2="526" stroke="#d97706" stroke-width="3" />
<text x="769.00" y="530.00" font-size="11" font-weight="400" text-anchor="start">SlowFast R50 8x8 x UCF101</text>
<line x1="745" y1="548" x2="763" y2="548" stroke="#7c3aed" stroke-width="3" />
<text x="769.00" y="552.00" font-size="11" font-weight="400" text-anchor="start">DINOv2 frame-mean x SSV2</text>
<line x1="745" y1="570" x2="763" y2="570" stroke="#16a34a" stroke-width="3" />
<text x="769.00" y="574.00" font-size="11" font-weight="400" text-anchor="start">DINOv2 frame-mean x UCF101</text>
</svg>
