<svg xmlns="http://www.w3.org/2000/svg" width="980" height="520" viewBox="0 0 980 520">
<rect width="100%" height="100%" fill="#ffffff" />
<style>text { font-family: Arial, Helvetica, sans-serif; fill: #111827; }</style>
<text x="490.00" y="28.00" font-size="18" font-weight="700" text-anchor="middle">Fixed-mid perturbation: linear-probe accuracy drop</text>
<text x="18.00" y="227.50" font-size="12" font-weight="400" text-anchor="middle" transform="rotate(-90 18.00 227.50)">Accuracy drop</text>
<line x1="90" y1="400" x2="950" y2="400" stroke="#111827" stroke-width="1" />
<line x1="90" y1="55" x2="90" y2="400" stroke="#111827" stroke-width="1" />
<line x1="86" y1="400.00" x2="90" y2="400.00" stroke="#111827" />
<text x="82.00" y="404.00" font-size="10" font-weight="400" text-anchor="end">-0.035</text>
<line x1="86" y1="331.00" x2="90" y2="331.00" stroke="#111827" />
<text x="82.00" y="335.00" font-size="10" font-weight="400" text-anchor="end">0.037</text>
<line x1="90" y1="331.00" x2="950" y2="331.00" stroke="#e5e7eb" stroke-width="1" />
<line x1="86" y1="262.00" x2="90" y2="262.00" stroke="#111827" />
<text x="82.00" y="266.00" font-size="10" font-weight="400" text-anchor="end">0.110</text>
<line x1="90" y1="262.00" x2="950" y2="262.00" stroke="#e5e7eb" stroke-width="1" />
<line x1="86" y1="193.00" x2="90" y2="193.00" stroke="#111827" />
<text x="82.00" y="197.00" font-size="10" font-weight="400" text-anchor="end">0.182</text>
<line x1="90" y1="193.00" x2="950" y2="193.00" stroke="#e5e7eb" stroke-width="1" />
<line x1="86" y1="124.00" x2="90" y2="124.00" stroke="#111827" />
<text x="82.00" y="128.00" font-size="10" font-weight="400" text-anchor="end">0.255</text>
<line x1="90" y1="124.00" x2="950" y2="124.00" stroke="#e5e7eb" stroke-width="1" />
<line x1="86" y1="55.00" x2="90" y2="55.00" stroke="#111827" />
<text x="82.00" y="59.00" font-size="10" font-weight="400" text-anchor="end">0.327</text>
<line x1="90" y1="366.61" x2="950" y2="366.61" stroke="#6b7280" stroke-dasharray="4 4" />
<rect x="122.25" y="198.28" width="35.83" height="168.33" fill="#2563eb" />
<rect x="165.25" y="340.57" width="35.83" height="26.04" fill="#ea580c" />
<text x="161.67" y="482.00" font-size="10" font-weight="400" text-anchor="end" transform="rotate(-35 161.67 482.00)">VideoMAE x SSV2</text>
<rect x="265.58" y="129.04" width="35.83" height="237.57" fill="#2563eb" />
<rect x="308.58" y="88.39" width="35.83" height="278.23" fill="#ea580c" />
<text x="305.00" y="482.00" font-size="10" font-weight="400" text-anchor="end" transform="rotate(-35 305.00 482.00)">VideoMAE x UCF101</text>
<rect x="408.92" y="170.97" width="35.83" height="195.65" fill="#2563eb" />
<rect x="451.92" y="365.98" width="35.83" height="0.64" fill="#ea580c" />
<text x="448.33" y="482.00" font-size="10" font-weight="400" text-anchor="end" transform="rotate(-35 448.33 482.00)">SlowFast R50 8x8 x SSV2</text>
<rect x="552.25" y="322.78" width="35.83" height="43.83" fill="#2563eb" />
<rect x="595.25" y="353.27" width="35.83" height="13.34" fill="#ea580c" />
<text x="591.67" y="482.00" font-size="10" font-weight="400" text-anchor="end" transform="rotate(-35 591.67 482.00)">SlowFast R50 8x8 x UCF101</text>
<rect x="695.58" y="366.61" width="35.83" height="0.00" fill="#2563eb" />
<rect x="738.58" y="360.26" width="35.83" height="6.35" fill="#ea580c" />
<text x="735.00" y="482.00" font-size="10" font-weight="400" text-anchor="end" transform="rotate(-35 735.00 482.00)">DINOv2 frame-mean x SSV2</text>
<rect x="838.92" y="366.61" width="35.83" height="0.00" fill="#2563eb" />
<rect x="881.92" y="364.71" width="35.83" height="1.91" fill="#ea580c" />
<text x="878.33" y="482.00" font-size="10" font-weight="400" text-anchor="end" transform="rotate(-35 878.33 482.00)">DINOv2 frame-mean x UCF101</text>
<rect x="102" y="38" width="12" height="12" fill="#2563eb" />
<text x="120.00" y="48.00" font-size="12" font-weight="400" text-anchor="start">temporal-shuffle-mid</text>
<rect x="102" y="58" width="12" height="12" fill="#ea580c" />
<text x="120.00" y="68.00" font-size="12" font-weight="400" text-anchor="start">spatial-blur-mid</text>
</svg>
