<svg xmlns="http://www.w3.org/2000/svg" width="960" height="560" viewBox="0 0 960 560">
<rect width="100%" height="100%" fill="white"/>
<text x="480.00" y="30.00" text-anchor="middle" font-family="Arial, sans-serif" font-size="20" font-weight="700">Sweep Mean Cosine Distance</text>
<line x1="80" y1="490" x2="740" y2="490" stroke="#444" stroke-width="1"/>
<line x1="80" y1="58" x2="80" y2="490" stroke="#444" stroke-width="1"/>
<polyline points="86.60,490.00 91.00,457.25 97.60,281.71" fill="none" stroke="#4c78a8" stroke-width="2.5"/>
<circle cx="86.60" cy="490.00" r="4" fill="#4c78a8"/>
<text x="86.60" y="482.00" text-anchor="middle" font-family="Arial, sans-serif" font-size="11" font-weight="400">0.15</text>
<circle cx="91.00" cy="457.25" r="4" fill="#4c78a8"/>
<text x="91.00" y="449.25" text-anchor="middle" font-family="Arial, sans-serif" font-size="11" font-weight="400">0.25</text>
<circle cx="97.60" cy="281.71" r="4" fill="#4c78a8"/>
<text x="97.60" y="273.71" text-anchor="middle" font-family="Arial, sans-serif" font-size="11" font-weight="400">0.4</text>
<rect x="764" y="48" width="14" height="14" fill="#4c78a8"/>
<text x="784.00" y="60.00" text-anchor="start" font-family="Arial, sans-serif" font-size="13" font-weight="400">center_occlusion_size_fraction</text>
<polyline points="91.00,287.17 102.00,418.83 113.00,487.39" fill="none" stroke="#f58518" stroke-width="2.5"/>
<circle cx="91.00" cy="287.17" r="4" fill="#f58518"/>
<text x="91.00" y="279.17" text-anchor="middle" font-family="Arial, sans-serif" font-size="11" font-weight="400">0.25</text>
<circle cx="102.00" cy="418.83" r="4" fill="#f58518"/>
<text x="102.00" y="410.83" text-anchor="middle" font-family="Arial, sans-serif" font-size="11" font-weight="400">0.5</text>
<circle cx="113.00" cy="487.39" r="4" fill="#f58518"/>
<text x="113.00" y="479.39" text-anchor="middle" font-family="Arial, sans-serif" font-size="11" font-weight="400">0.75</text>
<rect x="764" y="72" width="14" height="14" fill="#f58518"/>
<text x="784.00" y="84.00" text-anchor="start" font-family="Arial, sans-serif" font-size="13" font-weight="400">freeze_tail_start_fraction</text>
<polyline points="80.00,58.68 740.00,58.00" fill="none" stroke="#54a24b" stroke-width="2.5"/>
<circle cx="80.00" cy="58.68" r="4" fill="#54a24b"/>
<text x="80.00" y="50.68" text-anchor="middle" font-family="Arial, sans-serif" font-size="11" font-weight="400">first</text>
<circle cx="740.00" cy="58.00" r="4" fill="#54a24b"/>
<text x="740.00" y="50.00" text-anchor="middle" font-family="Arial, sans-serif" font-size="11" font-weight="400">last</text>
<rect x="764" y="96" width="14" height="14" fill="#54a24b"/>
<text x="784.00" y="108.00" text-anchor="start" font-family="Arial, sans-serif" font-size="13" font-weight="400">single_frame_position</text>
<polyline points="80.00,107.95 124.00,117.83 168.00,110.96" fill="none" stroke="#b279a2" stroke-width="2.5"/>
<circle cx="80.00" cy="107.95" r="4" fill="#b279a2"/>
<text x="80.00" y="99.95" text-anchor="middle" font-family="Arial, sans-serif" font-size="11" font-weight="400">0</text>
<circle cx="124.00" cy="117.83" r="4" fill="#b279a2"/>
<text x="124.00" y="109.83" text-anchor="middle" font-family="Arial, sans-serif" font-size="11" font-weight="400">1</text>
<circle cx="168.00" cy="110.96" r="4" fill="#b279a2"/>
<text x="168.00" y="102.96" text-anchor="middle" font-family="Arial, sans-serif" font-size="11" font-weight="400">2</text>
<rect x="764" y="120" width="14" height="14" fill="#b279a2"/>
<text x="784.00" y="132.00" text-anchor="start" font-family="Arial, sans-serif" font-size="13" font-weight="400">temporal_shuffle_seed_repeat</text>
<text x="410.00" y="538.00" text-anchor="middle" font-family="Arial, sans-serif" font-size="13" font-weight="400">sweep value</text>
<text x="18.00" y="274.00" text-anchor="middle" font-family="Arial, sans-serif" font-size="13" font-weight="400" transform="rotate(-90 18.00 274.00)">mean cosine distance</text>
</svg>
