<svg xmlns="http://www.w3.org/2000/svg" width="960" height="560" viewBox="0 0 960 560">
<rect width="100%" height="100%" fill="white"/>
<text x="480.00" y="30.00" text-anchor="middle" font-family="Arial, sans-serif" font-size="20" font-weight="700">HMDB51 VideoMAE frozen-linear-probe strength curves: mean cosine distance</text>
<line x1="80" y1="490" x2="740" y2="490" stroke="#444" stroke-width="1"/>
<line x1="80" y1="58" x2="80" y2="490" stroke="#444" stroke-width="1"/>
<polyline points="80.00,490.00 410.00,488.97 740.00,479.76" fill="none" stroke="#4c78a8" stroke-width="2.5"/>
<circle cx="80.00" cy="490.00" r="4" fill="#4c78a8"/>
<text x="80.00" y="482.00" text-anchor="middle" font-family="Arial, sans-serif" font-size="11" font-weight="400">low</text>
<circle cx="410.00" cy="488.97" r="4" fill="#4c78a8"/>
<text x="410.00" y="480.97" text-anchor="middle" font-family="Arial, sans-serif" font-size="11" font-weight="400">mid</text>
<circle cx="740.00" cy="479.76" r="4" fill="#4c78a8"/>
<text x="740.00" y="471.76" text-anchor="middle" font-family="Arial, sans-serif" font-size="11" font-weight="400">high</text>
<rect x="764" y="48" width="14" height="14" fill="#4c78a8"/>
<text x="784.00" y="60.00" text-anchor="start" font-family="Arial, sans-serif" font-size="13" font-weight="400">color_transform</text>
<polyline points="80.00,480.21 410.00,437.69 740.00,345.08" fill="none" stroke="#f58518" stroke-width="2.5"/>
<circle cx="80.00" cy="480.21" r="4" fill="#f58518"/>
<text x="80.00" y="472.21" text-anchor="middle" font-family="Arial, sans-serif" font-size="11" font-weight="400">low</text>
<circle cx="410.00" cy="437.69" r="4" fill="#f58518"/>
<text x="410.00" y="429.69" text-anchor="middle" font-family="Arial, sans-serif" font-size="11" font-weight="400">mid</text>
<circle cx="740.00" cy="345.08" r="4" fill="#f58518"/>
<text x="740.00" y="337.08" text-anchor="middle" font-family="Arial, sans-serif" font-size="11" font-weight="400">high</text>
<rect x="764" y="72" width="14" height="14" fill="#f58518"/>
<text x="784.00" y="84.00" text-anchor="start" font-family="Arial, sans-serif" font-size="13" font-weight="400">freeze_tail</text>
<polyline points="80.00,423.52 410.00,291.37 740.00,58.00" fill="none" stroke="#54a24b" stroke-width="2.5"/>
<circle cx="80.00" cy="423.52" r="4" fill="#54a24b"/>
<text x="80.00" y="415.52" text-anchor="middle" font-family="Arial, sans-serif" font-size="11" font-weight="400">low</text>
<circle cx="410.00" cy="291.37" r="4" fill="#54a24b"/>
<text x="410.00" y="283.37" text-anchor="middle" font-family="Arial, sans-serif" font-size="11" font-weight="400">mid</text>
<circle cx="740.00" cy="58.00" r="4" fill="#54a24b"/>
<text x="740.00" y="50.00" text-anchor="middle" font-family="Arial, sans-serif" font-size="11" font-weight="400">high</text>
<rect x="764" y="96" width="14" height="14" fill="#54a24b"/>
<text x="784.00" y="108.00" text-anchor="start" font-family="Arial, sans-serif" font-size="13" font-weight="400">rgb_quantization</text>
<polyline points="80.00,395.66 410.00,373.82 740.00,211.18" fill="none" stroke="#b279a2" stroke-width="2.5"/>
<circle cx="80.00" cy="395.66" r="4" fill="#b279a2"/>
<text x="80.00" y="387.66" text-anchor="middle" font-family="Arial, sans-serif" font-size="11" font-weight="400">low</text>
<circle cx="410.00" cy="373.82" r="4" fill="#b279a2"/>
<text x="410.00" y="365.82" text-anchor="middle" font-family="Arial, sans-serif" font-size="11" font-weight="400">mid</text>
<circle cx="740.00" cy="211.18" r="4" fill="#b279a2"/>
<text x="740.00" y="203.18" text-anchor="middle" font-family="Arial, sans-serif" font-size="11" font-weight="400">high</text>
<rect x="764" y="120" width="14" height="14" fill="#b279a2"/>
<text x="784.00" y="132.00" text-anchor="start" font-family="Arial, sans-serif" font-size="13" font-weight="400">solarization</text>
<text x="410.00" y="538.00" text-anchor="middle" font-family="Arial, sans-serif" font-size="13" font-weight="400">sweep value</text>
<text x="18.00" y="274.00" text-anchor="middle" font-family="Arial, sans-serif" font-size="13" font-weight="400" transform="rotate(-90 18.00 274.00)">mean cosine distance</text>
</svg>
